  0
SECTION
  2
HEADER
  9
$ACADVER
  1
AC1014
  9
$HANDSEED
  5
FFFF
  9
$MEASUREMENT
 70
     1
  0
ENDSEC
  0
SECTION
  2
TABLES
  0
TABLE
  2
VPORT
  5
8
330
0
100
AcDbSymbolTable
 70
     4
  0
VPORT
  5
2E
330
8
100
AcDbSymbolTableRecord
100
AcDbViewportTableRecord
  2
*ACTIVE
 70
     0
 10
0.0
 20
0.0
 11
1.0
 21
1.0
 12
210.0
 22
148.5
 13
0.0
 23
0.0
 14
10.0
 24
10.0
 15
10.0
 25
10.0
 16
0.0
 26
0.0
 36
1.0
 17
0.0
 27
0.0
 37
0.0
 40
341.0
 41
1.24
 42
50.0
 43
0.0
 44
0.0
 50
0.0
 51
0.0
 71
     0
 72
   100
 73
     1
 74
     3
 75
     0
 76
     0
 77
     0
 78
     0
  0
ENDTAB
  0
TABLE
  2
LTYPE
  5
5
330
0
100
AcDbSymbolTable
 70
     1
  0
LTYPE
  5
14
330
5
100
AcDbSymbolTableRecord
100
AcDbLinetypeTableRecord
  2
BYBLOCK
 70
     0
  3

 72
    65
 73
     0
 40
0.0
  0
LTYPE
  5
15
330
5
100
AcDbSymbolTableRecord
100
AcDbLinetypeTableRecord
  2
BYLAYER
 70
     0
  3

 72
    65
 73
     0
 40
0.0
  0
LTYPE
  5
16
330
5
100
AcDbSymbolTableRecord
100
AcDbLinetypeTableRecord
  2
CONTINUOUS
 70
     0
  3
Solid line
 72
    65
 73
     0
 40
0.0
  0
ENDTAB
  0
TABLE
  2
LAYER
  5
2
100
AcDbSymbolTable
 70
2
  0
LAYER
  5
50
100
AcDbSymbolTableRecord
100
AcDbLayerTableRecord
  2
0
 70
0
  6
CONTINUOUS
  0
LAYER
  5
51
100
AcDbSymbolTableRecord
100
AcDbLayerTableRecord
  2
Layer_1
 70
0
  6
CONTINUOUS
  0
ENDTAB
  0
TABLE
  2
STYLE
  5
3
330
0
100
AcDbSymbolTable
 70
     1
  0
STYLE
  5
11
330
3
100
AcDbSymbolTableRecord
100
AcDbTextStyleTableRecord
  2
STANDARD
 70
     0
 40
0.0
 41
1.0
 50
0.0
 71
     0
 42
2.5
  3
txt
  4

  0
ENDTAB
  0
TABLE
  2
VIEW
  5
6
330
0
100
AcDbSymbolTable
 70
     0
  0
ENDTAB
  0
TABLE
  2
UCS
  5
7
330
0
100
AcDbSymbolTable
 70
     0
  0
ENDTAB
  0
TABLE
  2
APPID
  5
9
330
0
100
AcDbSymbolTable
 70
     2
  0
APPID
  5
12
330
9
100
AcDbSymbolTableRecord
100
AcDbRegAppTableRecord
  2
ACAD
 70
     0
  0
ENDTAB
  0
TABLE
  2
DIMSTYLE
  5
A
330
0
100
AcDbSymbolTable
 70
     1
  0
DIMSTYLE
105
27
330
A
100
AcDbSymbolTableRecord
100
AcDbDimStyleTableRecord
  2
ISO-25
 70
     0
  3

  4

  5

  6

  7

 40
1.0
 41
2.5
 42
0.625
 43
3.75
 44
1.25
 45
0.0
 46
0.0
 47
0.0
 48
0.0
140
2.5
141
2.5
142
0.0
143
0.03937007874016
144
1.0
145
0.0
146
1.0
147
0.625
 71
     0
 72
     0
 73
     0
 74
     0
 75
     0
 76
     0
 77
     1
 78
     8
170
     0
171
     3
172
     1
173
     0
174
     0
175
     0
176
     0
177
     0
178
     0
270
     2
271
     2
272
     2
273
     2
274
     3
340
11
275
     0
280
     0
281
     0
282
     0
283
     0
284
     8
285
     0
286
     0
287
     3
288
     0
  0
ENDTAB
  0
TABLE
  2
BLOCK_RECORD
  5
1
330
0
100
AcDbSymbolTable
 70
     1
  0
BLOCK_RECORD
  5
1F
330
1
100
AcDbSymbolTableRecord
100
AcDbBlockTableRecord
  2
*MODEL_SPACE
  0
BLOCK_RECORD
  5
1B
330
1
100
AcDbSymbolTableRecord
100
AcDbBlockTableRecord
  2
*PAPER_SPACE
  0
ENDTAB
  0
ENDSEC
  0
SECTION
  2
BLOCKS
  0
BLOCK
  5
20
330
1F
100
AcDbEntity
  8
0
100
AcDbBlockBegin
  2
*MODEL_SPACE
 70
     0
 10
0.0
 20
0.0
 30
0.0
  3
*MODEL_SPACE
  1

  0
ENDBLK
  5
21
330
1F
100
AcDbEntity
  8
0
100
AcDbBlockEnd
  0
BLOCK
  5
1C
330
1B
100
AcDbEntity
 67
     1
  8
0
100
AcDbBlockBegin
  2
*PAPER_SPACE
  1

  0
ENDBLK
  5
1D
330
1B
100
AcDbEntity
 67
     1
  8
0
100
AcDbBlockEnd
  0
ENDSEC
  0
SECTION
  2
ENTITIES
  0
LWPOLYLINE
  5
100
100
AcDbEntity
  8
Layer_1
 62
7
100
AcDbPolyline
 90
62
 70
1
 10
171.119404
 20
597.031784
 30
0.0
 10
170.435534
 20
597.925855
 30
0.0
 10
169.751663
 20
598.819926
 30
0.0
 10
170.601872
 20
599.813810
 30
0.0
 10
171.166830
 20
600.675406
 30
0.0
 10
171.460795
 20
601.512248
 30
0.0
 10
171.485547
 20
602.336318
 30
0.0
 10
171.257525
 20
603.181874
 30
0.0
 10
170.793558
 20
604.083172
 30
0.0
 10
170.092955
 20
605.125473
 30
0.0
 10
169.196211
 20
606.339885
 30
0.0
 10
158.865414
 20
619.845812
 30
0.0
 10
148.534617
 20
633.351739
 30
0.0
 10
147.437345
 20
632.512422
 30
0.0
 10
146.340073
 20
631.673104
 30
0.0
 10
144.976670
 20
630.479920
 30
0.0
 10
144.137649
 20
629.387213
 30
0.0
 10
143.697841
 20
628.277822
 30
0.0
 10
143.532195
 20
627.034588
 30
0.0
 10
143.680217
 20
625.633996
 30
0.0
 10
144.127055
 20
624.011094
 30
0.0
 10
144.717458
 20
622.369082
 30
0.0
 10
145.337268
 20
620.856974
 30
0.0
 10
143.481393
 20
619.437391
 30
0.0
 10
141.625507
 20
618.017818
 30
0.0
 10
137.988490
 20
622.772662
 30
0.0
 10
134.351473
 20
627.527515
 30
0.0
 10
150.295778
 20
639.723446
 30
0.0
 10
166.240083
 20
651.919386
 30
0.0
 10
169.877111
 20
647.164542
 30
0.0
 10
173.514128
 20
642.409688
 30
0.0
 10
171.658253
 20
640.990106
 30
0.0
 10
169.802367
 20
639.570533
 30
0.0
 10
168.119088
 20
640.816727
 30
0.0
 10
166.917201
 20
641.658124
 30
0.0
 10
165.987486
 20
642.213874
 30
0.0
 10
165.120742
 20
642.603087
 30
0.0
 10
164.319841
 20
642.892298
 30
0.0
 10
163.574683
 20
643.052400
 30
0.0
 10
162.874971
 20
643.096955
 30
0.0
 10
162.210308
 20
643.039528
 30
0.0
 10
161.528121
 20
642.850516
 30
0.0
 10
160.775834
 20
642.500610
 30
0.0
 10
159.912358
 20
642.001198
 30
0.0
 10
158.884028
 20
641.268317
 30
0.0
 10
157.908669
 20
640.522268
 30
0.0
 10
156.933309
 20
639.776219
 30
0.0
 10
167.264107
 20
626.270291
 30
0.0
 10
177.594904
 20
612.764364
 30
0.0
 10
178.584025
 20
611.513298
 30
0.0
 10
179.354728
 20
610.632000
 30
0.0
 10
179.977608
 20
610.056349
 30
0.0
 10
180.564645
 20
609.667829
 30
0.0
 10
181.122870
 20
609.429212
 30
0.0
 10
181.659610
 20
609.302973
 30
0.0
 10
182.241003
 20
609.328716
 30
0.0
 10
182.920319
 20
609.450895
 30
0.0
 10
183.734389
 20
609.762187
 30
0.0
 10
184.706976
 20
610.259223
 30
0.0
 10
185.390846
 20
609.365152
 30
0.0
 10
186.074716
 20
608.471081
 30
0.0
 10
178.597055
 20
602.751264
 30
0.0
  0
LWPOLYLINE
  5
101
100
AcDbEntity
  8
Layer_1
 62
7
100
AcDbPolyline
 90
98
 70
1
 10
230.560114
 20
644.608370
 30
0.0
 10
231.650583
 20
642.677226
 30
0.0
 10
232.445346
 20
641.516271
 30
0.0
 10
233.167831
 20
640.906560
 30
0.0
 10
234.013386
 20
640.536654
 30
0.0
 10
235.144648
 20
640.464376
 30
0.0
 10
236.723946
 20
640.747845
 30
0.0
 10
237.254646
 20
639.755179
 30
0.0
 10
237.785346
 20
638.762502
 30
0.0
 10
229.934185
 20
634.565012
 30
0.0
 10
222.083024
 20
630.367532
 30
0.0
 10
221.552324
 20
631.360209
 30
0.0
 10
221.021624
 20
632.352885
 30
0.0
 10
222.216768
 20
633.572029
 30
0.0
 10
222.795191
 20
634.461546
 30
0.0
 10
222.941827
 20
635.236209
 30
0.0
 10
222.841727
 20
636.110973
 30
0.0
 10
222.320136
 20
637.466337
 30
0.0
 10
221.234944
 20
639.622712
 30
0.0
 10
218.010436
 20
645.653968
 30
0.0
 10
214.785939
 20
651.685224
 30
0.0
 10
207.987614
 20
648.050623
 30
0.0
 10
201.189288
 20
644.416021
 30
0.0
 10
204.413785
 20
638.384765
 30
0.0
 10
207.638292
 20
632.353509
 30
0.0
 10
208.196121
 20
631.346317
 30
0.0
 10
208.743851
 20
630.430365
 30
0.0
 10
209.272373
 20
629.658870
 30
0.0
 10
209.772577
 20
629.085001
 30
0.0
 10
210.272089
 20
628.675194
 30
0.0
 10
210.798630
 20
628.395784
 30
0.0
 10
211.416757
 20
628.252416
 30
0.0
 10
212.131123
 20
628.218752
 30
0.0
 10
212.937074
 20
628.320635
 30
0.0
 10
213.862333
 20
628.525489
 30
0.0
 10
214.393033
 20
627.532813
 30
0.0
 10
214.923733
 20
626.540136
 30
0.0
 10
207.027453
 20
622.318527
 30
0.0
 10
199.131162
 20
618.096918
 30
0.0
 10
198.600463
 20
619.089594
 30
0.0
 10
198.069763
 20
620.082271
 30
0.0
 10
198.897595
 20
620.921291
 30
0.0
 10
199.476712
 20
621.646746
 30
0.0
 10
199.823053
 20
622.373488
 30
0.0
 10
199.924638
 20
623.123993
 30
0.0
 10
199.817409
 20
623.975687
 30
0.0
 10
199.509484
 20
624.913422
 30
0.0
 10
198.998190
 20
626.032526
 30
0.0
 10
198.313132
 20
627.368147
 30
0.0
 10
191.381656
 20
640.333097
 30
0.0
 10
184.450180
 20
653.298047
 30
0.0
 10
183.732052
 20
654.586994
 30
0.0
 10
183.089470
 20
655.626206
 30
0.0
 10
182.495304
 20
656.430177
 30
0.0
 10
181.862226
 20
656.981372
 30
0.0
 10
181.181623
 20
657.313752
 30
0.0
 10
180.384979
 20
657.429298
 30
0.0
 10
179.428432
 20
657.391674
 30
0.0
 10
178.240328
 20
657.172166
 30
0.0
 10
177.709628
 20
658.164843
 30
0.0
 10
177.178928
 20
659.157519
 30
0.0
 10
185.075208
 20
663.379128
 30
0.0
 10
192.971499
 20
667.600727
 30
0.0
 10
193.502199
 20
666.608051
 30
0.0
 10
194.032898
 20
665.615375
 30
0.0
 10
192.940063
 20
664.421914
 30
0.0
 10
192.367679
 20
663.448733
 30
0.0
 10
192.216489
 20
662.555652
 30
0.0
 10
192.327084
 20
661.570590
 30
0.0
 10
192.806001
 20
660.240770
 30
0.0
 10
193.791163
 20
658.253329
 30
0.0
 10
196.476900
 20
653.229789
 30
0.0
 10
199.162648
 20
648.206248
 30
0.0
 10
205.960974
 20
651.840850
 30
0.0
 10
212.759299
 20
655.475451
 30
0.0
 10
210.073552
 20
660.498992
 30
0.0
 10
207.387814
 20
665.522532
 30
0.0
 10
206.301879
 20
667.427101
 30
0.0
 10
205.488601
 20
668.568472
 30
0.0
 10
204.768592
 20
669.227887
 30
0.0
 10
203.934522
 20
669.594228
 30
0.0
 10
202.810269
 20
669.689279
 30
0.0
 10
201.191803
 20
669.442840
 30
0.0
 10
200.661103
 20
670.435516
 30
0.0
 10
200.130403
 20
671.428192
 30
0.0
 10
207.981564
 20
675.625673
 30
0.0
 10
215.832735
 20
679.823153
 30
0.0
 10
216.363435
 20
678.830476
 30
0.0
 10
216.894135
 20
677.837800
 30
0.0
 10
215.952044
 20
676.850659
 30
0.0
 10
215.387086
 20
676.026391
 30
0.0
 10
215.109359
 20
675.297767
 30
0.0
 10
215.061834
 20
674.537262
 30
0.0
 10
215.216588
 20
673.759431
 30
0.0
 10
215.486790
 20
672.946648
 30
0.0
 10
215.972440
 20
671.929852
 30
0.0
 10
216.713241
 20
670.507992
 30
0.0
 10
223.636856
 20
657.558181
 30
0.0
  0
LWPOLYLINE
  5
102
100
AcDbEntity
  8
Layer_1
 62
7
100
AcDbPolyline
 90
82
 70
1
 10
260.736178
 20
696.208790
 30
0.0
 10
262.520201
 20
691.087071
 30
0.0
 10
264.304214
 20
685.965351
 30
0.0
 10
262.097680
 20
685.196727
 30
0.0
 10
259.891157
 20
684.428103
 30
0.0
 10
258.016677
 20
686.646746
 30
0.0
 10
256.651095
 20
687.922911
 30
0.0
 10
255.498328
 20
688.614009
 30
0.0
 10
254.284757
 20
689.013024
 30
0.0
 10
252.723282
 20
689.010895
 30
0.0
 10
250.549234
 20
688.434254
 30
0.0
 10
247.038109
 20
687.211248
 30
0.0
 10
243.526994
 20
685.988242
 30
0.0
 10
246.219851
 20
678.257340
 30
0.0
 10
248.912718
 20
670.526438
 30
0.0
 10
251.038715
 20
671.266943
 30
0.0
 10
253.164713
 20
672.007447
 30
0.0
 10
254.395373
 20
672.544484
 30
0.0
 10
255.252711
 20
673.168255
 30
0.0
 10
255.794797
 20
673.971136
 30
0.0
 10
256.102127
 20
674.981229
 30
0.0
 10
256.218466
 20
676.358207
 30
0.0
 10
256.123415
 20
678.239370
 30
0.0
 10
257.943399
 20
678.873338
 30
0.0
 10
259.763383
 20
679.507307
 30
0.0
 10
262.041085
 20
672.968252
 30
0.0
 10
264.318798
 20
666.429197
 30
0.0
 10
262.498814
 20
665.795228
 30
0.0
 10
260.678830
 20
665.161260
 30
0.0
 10
259.631470
 20
666.638576
 30
0.0
 10
258.692844
 20
667.648094
 30
0.0
 10
257.791545
 20
668.291370
 30
0.0
 10
256.878464
 20
668.605433
 30
0.0
 10
255.834916
 20
668.594542
 30
0.0
 10
254.477750
 20
668.239191
 30
0.0
 10
252.351752
 20
667.498686
 30
0.0
 10
250.225754
 20
666.758182
 30
0.0
 10
253.221556
 20
658.157555
 30
0.0
 10
256.217367
 20
649.556929
 30
0.0
 10
259.712372
 20
650.774321
 30
0.0
 10
263.207388
 20
651.991723
 30
0.0
 10
264.235005
 20
652.385788
 30
0.0
 10
265.063035
 20
652.782525
 30
0.0
 10
265.722945
 20
653.247185
 30
0.0
 10
266.268695
 20
653.780459
 30
0.0
 10
266.718700
 20
654.406804
 30
0.0
 10
267.091676
 20
655.150774
 30
0.0
 10
267.409601
 20
655.974943
 30
0.0
 10
267.630197
 20
656.819310
 30
0.0
 10
267.803170
 20
657.800610
 30
0.0
 10
267.913567
 20
659.012992
 30
0.0
 10
267.941291
 20
660.566785
 30
0.0
 10
267.866042
 20
662.572266
 30
0.0
 10
270.072576
 20
663.340890
 30
0.0
 10
272.279099
 20
664.109514
 30
0.0
 10
274.020775
 20
658.124218
 30
0.0
 10
275.762451
 20
652.138913
 30
0.0
 10
259.930217
 20
646.624169
 30
0.0
 10
244.097972
 20
641.109424
 30
0.0
 10
243.727670
 20
642.172428
 30
0.0
 10
243.357368
 20
643.235422
 30
0.0
 10
244.305401
 20
643.935827
 30
0.0
 10
244.990063
 20
644.562667
 30
0.0
 10
245.445019
 20
645.226834
 30
0.0
 10
245.661854
 20
645.952487
 30
0.0
 10
245.687597
 20
646.810517
 30
0.0
 10
245.528882
 20
647.784589
 30
0.0
 10
245.197491
 20
648.969476
 30
0.0
 10
244.727881
 20
650.395217
 30
0.0
 10
239.891957
 20
664.278635
 30
0.0
 10
235.056033
 20
678.162042
 30
0.0
 10
234.546621
 20
679.546802
 30
0.0
 10
234.072951
 20
680.673134
 30
0.0
 10
233.610668
 20
681.559581
 30
0.0
 10
233.070760
 20
682.202263
 30
0.0
 10
232.450059
 20
682.636229
 30
0.0
 10
231.680940
 20
682.874053
 30
0.0
 10
230.730136
 20
682.985441
 30
0.0
 10
229.522348
 20
682.953757
 30
0.0
 10
229.152046
 20
684.016761
 30
0.0
 10
228.781744
 20
685.079755
 30
0.0
 10
244.758911
 20
690.644817
 30
0.0
  0
LWPOLYLINE
  5
103
100
AcDbEntity
  8
Layer_1
 62
7
100
AcDbPolyline
 90
50
 70
1
 10
310.249620
 20
667.937524
 30
0.0
 10
310.582496
 20
666.038776
 30
0.0
 10
310.901906
 20
664.793572
 30
0.0
 10
311.247158
 20
664.000888
 30
0.0
 10
311.667856
 20
663.392168
 30
0.0
 10
312.224200
 20
662.968202
 30
0.0
 10
312.919457
 20
662.651564
 30
0.0
 10
313.907885
 20
662.448690
 30
0.0
 10
315.276418
 20
662.355620
 30
0.0
 10
315.446222
 20
661.242853
 30
0.0
 10
315.616026
 20
660.130096
 30
0.0
 10
306.545354
 20
658.745939
 30
0.0
 10
297.474693
 20
657.361783
 30
0.0
 10
297.304888
 20
658.474540
 30
0.0
 10
297.135084
 20
659.587297
 30
0.0
 10
298.195098
 20
660.102749
 30
0.0
 10
298.982732
 20
660.593844
 30
0.0
 10
299.551353
 20
661.163654
 30
0.0
 10
299.897100
 20
661.837524
 30
0.0
 10
300.079677
 20
662.676248
 30
0.0
 10
300.101459
 20
663.662993
 30
0.0
 10
299.992151
 20
664.888484
 30
0.0
 10
299.790960
 20
666.376028
 30
0.0
 10
297.573219
 20
680.909325
 30
0.0
 10
295.355467
 20
695.442622
 30
0.0
 10
295.107642
 20
696.897156
 30
0.0
 10
294.847837
 20
698.091062
 30
0.0
 10
294.555259
 20
699.047114
 30
0.0
 10
294.141887
 20
699.777619
 30
0.0
 10
293.610890
 20
700.317725
 30
0.0
 10
292.898208
 20
700.691987
 30
0.0
 10
291.983740
 20
700.975159
 30
0.0
 10
290.790408
 20
701.163973
 30
0.0
 10
290.620604
 20
702.276730
 30
0.0
 10
290.450800
 20
703.389487
 30
0.0
 10
300.246451
 20
704.884279
 30
0.0
 10
310.042093
 20
706.379071
 30
0.0
 10
317.619696
 20
706.750362
 30
0.0
 10
323.290205
 20
705.260690
 30
0.0
 10
327.065907
 20
701.886012
 30
0.0
 10
328.969387
 20
696.534884
 30
0.0
 10
329.111369
 20
692.269284
 30
0.0
 10
328.168585
 20
688.441987
 30
0.0
 10
326.176123
 20
685.161875
 30
0.0
 10
323.169164
 20
682.537821
 30
0.0
 10
319.113408
 20
680.624975
 30
0.0
 10
313.984857
 20
679.411058
 30
0.0
 10
311.003927
 20
678.990657
 30
0.0
 10
308.602807
 20
678.727782
 30
0.0
 10
309.426085
 20
673.332593
 30
0.0
  0
LWPOLYLINE
  5
104
100
AcDbEntity
  8
Layer_1
 62
7
100
AcDbPolyline
 90
18
 70
1
 10
308.021581
 20
682.538267
 30
0.0
 10
309.471541
 20
682.759557
 30
0.0
 10
310.921500
 20
682.980847
 30
0.0
 10
313.911846
 20
683.678678
 30
0.0
 10
316.138894
 20
684.743127
 30
0.0
 10
317.675370
 20
686.262909
 30
0.0
 10
318.604293
 20
688.259311
 30
0.0
 10
318.963307
 20
690.824354
 30
0.0
 10
318.722809
 20
694.039762
 30
0.0
 10
317.998542
 20
697.146842
 30
0.0
 10
316.895944
 20
699.454337
 30
0.0
 10
315.451460
 20
701.062685
 30
0.0
 10
313.644377
 20
701.994578
 30
0.0
 10
311.428111
 20
702.329236
 30
0.0
 10
308.756086
 20
702.145768
 30
0.0
 10
306.668019
 20
701.809823
 30
0.0
 10
305.124613
 20
701.522493
 30
0.0
 10
306.573127
 20
692.030350
 30
0.0
  0
LWPOLYLINE
  5
105
100
AcDbEntity
  8
Layer_1
 62
7
100
AcDbPolyline
 90
50
 70
1
 10
357.500251
 20
677.505816
 30
0.0
 10
350.219444
 20
677.346903
 30
0.0
 10
342.938627
 20
677.187990
 30
0.0
 10
342.411294
 20
675.555850
 30
0.0
 10
341.883960
 20
673.923720
 30
0.0
 10
341.478510
 20
672.567197
 30
0.0
 10
341.157515
 20
671.246636
 30
0.0
 10
340.955730
 20
669.937203
 30
0.0
 10
340.909195
 20
668.545858
 30
0.0
 10
341.851980
 20
665.999023
 30
0.0
 10
344.533925
 20
665.042575
 30
0.0
 10
344.558678
 20
663.917204
 30
0.0
 10
344.583431
 20
662.791833
 30
0.0
 10
337.302614
 20
662.632920
 30
0.0
 10
330.021797
 20
662.474007
 30
0.0
 10
329.997044
 20
663.599378
 30
0.0
 10
329.972291
 20
664.724749
 30
0.0
 10
331.151010
 20
665.040496
 30
0.0
 10
332.169577
 20
665.659811
 30
0.0
 10
333.062460
 20
666.566357
 30
0.0
 10
333.864055
 20
667.743877
 30
0.0
 10
334.639510
 20
669.338779
 30
0.0
 10
335.453877
 20
671.497490
 30
0.0
 10
342.150706
 20
690.596441
 30
0.0
 10
348.847526
 20
709.695401
 30
0.0
 10
353.400169
 20
709.794709
 30
0.0
 10
357.952802
 20
709.894116
 30
0.0
 10
363.996494
 20
690.919712
 30
0.0
 10
370.040186
 20
671.945318
 30
0.0
 10
370.778611
 20
669.769320
 30
0.0
 10
371.381689
 20
668.323925
 30
0.0
 10
371.991003
 20
667.373417
 30
0.0
 10
372.749627
 20
666.613803
 30
0.0
 10
373.742343
 20
666.072509
 30
0.0
 10
375.055310
 20
665.708841
 30
0.0
 10
375.080063
 20
664.583470
 30
0.0
 10
375.104816
 20
663.458099
 30
0.0
 10
365.692615
 20
663.252651
 30
0.0
 10
356.280414
 20
663.047203
 30
0.0
 10
356.255661
 20
664.172574
 30
0.0
 10
356.230908
 20
665.297945
 30
0.0
 10
357.766403
 20
665.681118
 30
0.0
 10
358.835190
 20
666.344196
 30
0.0
 10
359.453910
 20
667.304505
 30
0.0
 10
359.639259
 20
668.579453
 30
0.0
 10
359.555100
 20
669.694992
 30
0.0
 10
359.348860
 20
670.927295
 30
0.0
 10
359.001429
 20
672.386799
 30
0.0
 10
358.493007
 20
674.183981
 30
0.0
 10
357.996268
 20
675.844923
 30
0.0
  0
LWPOLYLINE
  5
106
100
AcDbEntity
  8
Layer_1
 62
7
100
AcDbPolyline
 90
6
 70
1
 10
344.147425
 20
681.206220
 30
0.0
 10
350.285812
 20
681.340182
 30
0.0
 10
356.424208
 20
681.474144
 30
0.0
 10
353.486497
 20
691.014357
 30
0.0
 10
350.548795
 20
700.554569
 30
0.0
 10
347.348110
 20
690.880395
 30
0.0
  0
LWPOLYLINE
  5
107
100
AcDbEntity
  8
Layer_1
 62
7
100
AcDbPolyline
 90
62
 70
1
 10
383.176039
 20
661.949406
 30
0.0
 10
383.312279
 20
663.066767
 30
0.0
 10
383.448518
 20
664.184128
 30
0.0
 10
384.751277
 20
664.300071
 30
0.0
 10
385.757558
 20
664.521063
 30
0.0
 10
386.552816
 20
664.913742
 30
0.0
 10
387.146586
 20
665.485630
 30
0.0
 10
387.574809
 20
666.249502
 30
0.0
 10
387.873328
 20
667.218227
 30
0.0
 10
388.101251
 20
668.453273
 30
0.0
 10
388.309373
 20
669.948460
 30
0.0
 10
390.367548
 20
686.827421
 30
0.0
 10
392.425723
 20
703.706382
 30
0.0
 10
391.054408
 20
703.873612
 30
0.0
 10
389.683104
 20
704.040842
 30
0.0
 10
387.874100
 20
704.141141
 30
0.0
 10
386.510231
 20
703.946782
 30
0.0
 10
385.420128
 20
703.461132
 30
0.0
 10
384.432392
 20
702.688151
 30
0.0
 10
383.558915
 20
701.583385
 30
0.0
 10
382.743657
 20
700.110682
 30
0.0
 10
382.017509
 20
698.524028
 30
0.0
 10
381.403343
 20
697.009632
 30
0.0
 10
379.083966
 20
697.292507
 30
0.0
 10
376.764590
 20
697.575382
 30
0.0
 10
377.489154
 20
703.517727
 30
0.0
 10
378.213718
 20
709.460071
 30
0.0
 10
398.140035
 20
707.030307
 30
0.0
 10
418.066352
 20
704.600543
 30
0.0
 10
417.341788
 20
698.658198
 30
0.0
 10
416.617224
 20
692.715854
 30
0.0
 10
414.297848
 20
692.998729
 30
0.0
 10
411.978471
 20
693.281604
 30
0.0
 10
411.646487
 20
695.349502
 30
0.0
 10
411.375592
 20
696.791412
 30
0.0
 10
411.099549
 20
697.838782
 30
0.0
 10
410.752020
 20
698.723051
 30
0.0
 10
410.381619
 20
699.489892
 30
0.0
 10
409.960821
 20
700.125346
 30
0.0
 10
409.491706
 20
700.646442
 30
0.0
 10
408.976353
 20
701.070111
 30
0.0
 10
408.356543
 20
701.411996
 30
0.0
 10
407.574058
 20
701.687841
 30
0.0
 10
406.607610
 20
701.934478
 30
0.0
 10
405.359980
 20
702.129629
 30
0.0
 10
404.141043
 20
702.278245
 30
0.0
 10
402.922097
 20
702.426861
 30
0.0
 10
400.863912
 20
685.547900
 30
0.0
 10
398.805737
 20
668.668939
 30
0.0
 10
398.638111
 20
667.082909
 30
0.0
 10
398.572763
 20
665.913933
 30
0.0
 10
398.615338
 20
665.066892
 30
0.0
 10
398.763360
 20
664.378765
 30
0.0
 10
398.995640
 20
663.817866
 30
0.0
 10
399.291089
 20
663.352316
 30
0.0
 10
399.724857
 20
662.964390
 30
0.0
 10
400.296152
 20
662.576860
 30
0.0
 10
401.095766
 20
662.230222
 30
0.0
 10
402.138592
 20
661.905465
 30
0.0
 10
402.002352
 20
660.788094
 30
0.0
 10
401.866113
 20
659.670733
 30
0.0
 10
392.520913
 20
660.810233
 30
0.0
  0
LWPOLYLINE
  5
108
100
AcDbEntity
  8
Layer_1
 62
7
100
AcDbPolyline
 90
98
 70
1
 10
458.934028
 20
654.420131
 30
0.0
 10
458.364704
 20
652.276697
 30
0.0
 10
458.122008
 20
650.890867
 30
0.0
 10
458.212801
 20
649.949865
 30
0.0
 10
458.559291
 20
649.094408
 30
0.0
 10
459.318152
 20
648.252417
 30
0.0
 10
460.646036
 20
647.351713
 30
0.0
 10
460.332052
 20
646.270748
 30
0.0
 10
460.018067
 20
645.189794
 30
0.0
 10
451.468645
 20
647.673133
 30
0.0
 10
442.919221
 20
650.156472
 30
0.0
 10
443.233205
 20
651.237436
 30
0.0
 10
443.547190
 20
652.318401
 30
0.0
 10
445.254030
 20
652.355035
 30
0.0
 10
446.289362
 20
652.587018
 30
0.0
 10
446.935598
 20
653.038707
 30
0.0
 10
447.475140
 20
653.734459
 30
0.0
 10
448.049107
 20
655.068476
 30
0.0
 10
448.779592
 20
657.369327
 30
0.0
 10
450.687293
 20
663.936987
 30
0.0
 10
452.594995
 20
670.504646
 30
0.0
 10
445.192044
 20
672.654971
 30
0.0
 10
437.789092
 20
674.805305
 30
0.0
 10
435.881395
 20
668.237646
 30
0.0
 10
433.973697
 20
661.669987
 30
0.0
 10
433.668940
 20
660.559695
 30
0.0
 10
433.420719
 20
659.521791
 30
0.0
 10
433.259727
 20
658.600591
 30
0.0
 10
433.216162
 20
657.840581
 30
0.0
 10
433.287450
 20
657.198394
 30
0.0
 10
433.468839
 20
656.630664
 30
0.0
 10
433.810823
 20
656.096202
 30
0.0
 10
434.298156
 20
655.572829
 30
0.0
 10
434.946085
 20
655.082724
 30
0.0
 10
435.750947
 20
654.582519
 30
0.0
 10
435.436983
 20
653.501555
 30
0.0
 10
435.123018
 20
652.420590
 30
0.0
 10
426.524462
 20
654.918207
 30
0.0
 10
417.925905
 20
657.415823
 30
0.0
 10
418.239869
 20
658.496778
 30
0.0
 10
418.553834
 20
659.577742
 30
0.0
 10
419.732324
 20
659.599525
 30
0.0
 10
420.653524
 20
659.713981
 30
0.0
 10
421.409178
 20
659.991807
 30
0.0
 10
422.006215
 20
660.457753
 30
0.0
 10
422.524638
 20
661.141921
 30
0.0
 10
422.959594
 20
662.027972
 30
0.0
 10
423.375837
 20
663.185799
 30
0.0
 10
423.819011
 20
664.619946
 30
0.0
 10
427.919856
 20
678.737950
 30
0.0
 10
432.020701
 20
692.855965
 30
0.0
 10
432.407637
 20
694.279815
 30
0.0
 10
432.674076
 20
695.472266
 30
0.0
 10
432.810810
 20
696.462645
 30
0.0
 10
432.743483
 20
697.299290
 30
0.0
 10
432.488925
 20
698.012665
 30
0.0
 10
431.999711
 20
698.651980
 30
0.0
 10
431.289206
 20
699.293474
 30
0.0
 10
430.285936
 20
699.966750
 30
0.0
 10
430.599900
 20
701.047704
 30
0.0
 10
430.913865
 20
702.128669
 30
0.0
 10
439.512432
 20
699.631052
 30
0.0
 10
448.110984
 20
697.133436
 30
0.0
 10
447.797000
 20
696.052472
 30
0.0
 10
447.483016
 20
694.971517
 30
0.0
 10
445.867310
 20
694.881417
 30
0.0
 10
444.777813
 20
694.585175
 30
0.0
 10
444.045714
 20
694.051901
 30
0.0
 10
443.436686
 20
693.269812
 30
0.0
 10
442.850045
 20
691.983855
 30
0.0
 10
442.166076
 20
689.873748
 30
0.0
 10
440.577117
 20
684.403420
 30
0.0
 10
438.988157
 20
678.933101
 30
0.0
 10
446.391107
 20
676.782777
 30
0.0
 10
453.794056
 20
674.632452
 30
0.0
 10
455.383014
 20
680.102770
 30
0.0
 10
456.971973
 20
685.573088
 30
0.0
 10
457.525971
 20
687.694334
 30
0.0
 10
457.741726
 20
689.079114
 30
0.0
 10
457.687468
 20
690.053978
 30
0.0
 10
457.346790
 20
690.898840
 30
0.0
 10
456.609068
 20
691.752515
 30
0.0
 10
455.279074
 20
692.707181
 30
0.0
 10
455.593059
 20
693.788135
 30
0.0
 10
455.907043
 20
694.869100
 30
0.0
 10
464.456466
 20
692.385761
 30
0.0
 10
473.005890
 20
689.902422
 30
0.0
 10
472.691906
 20
688.821457
 30
0.0
 10
472.377921
 20
687.740493
 30
0.0
 10
471.014244
 20
687.692967
 30
0.0
 10
470.034133
 20
687.498014
 30
0.0
 10
469.326361
 20
687.170782
 30
0.0
 10
468.760700
 20
686.660281
 30
0.0
 10
468.327893
 20
685.995619
 30
0.0
 10
467.953185
 20
685.225312
 30
0.0
 10
467.590061
 20
684.158595
 30
0.0
 10
467.126491
 20
682.623823
 30
0.0
 10
463.030305
 20
668.522125
 30
0.0
  0
LWPOLYLINE
  5
109
100
AcDbEntity
  8
Layer_1
 62
7
100
AcDbPolyline
 90
24
 70
1
 10
498.109601
 20
626.241637
 30
0.0
 10
491.130378
 20
631.772452
 30
0.0
 10
487.749174
 20
638.667075
 30
0.0
 10
487.999187
 20
646.897410
 30
0.0
 10
491.853904
 20
656.468365
 30
0.0
 10
495.822654
 20
662.400996
 30
0.0
 10
500.307094
 20
666.762815
 30
0.0
 10
505.278363
 20
669.501573
 30
0.0
 10
510.614895
 20
670.538290
 30
0.0
 10
516.187450
 20
669.885905
 30
0.0
 10
521.866783
 20
667.557380
 30
0.0
 10
528.972903
 20
661.956466
 30
0.0
 10
532.436216
 20
655.016495
 30
0.0
 10
532.286367
 20
646.808765
 30
0.0
 10
528.520015
 20
637.344870
 30
0.0
 10
525.285485
 20
632.282884
 30
0.0
 10
521.816213
 20
628.383220
 30
0.0
 10
518.190185
 20
625.593065
 30
0.0
 10
514.392688
 20
623.832864
 30
0.0
 10
510.452794
 20
623.067111
 30
0.0
 10
506.399582
 20
623.260183
 30
0.0
 10
502.287080
 20
624.333583
 30
0.0
 10
498.109599
 20
626.241697
 30
0.0
 10
498.109599
 20
626.241687
 30
0.0
  0
LWPOLYLINE
  5
10a
100
AcDbEntity
  8
Layer_1
 62
7
100
AcDbPolyline
 90
22
 70
1
 10
501.794038
 20
652.029783
 30
0.0
 10
497.985599
 20
643.865351
 30
0.0
 10
496.522000
 20
637.406227
 30
0.0
 10
497.450586
 20
632.597037
 30
0.0
 10
500.726002
 20
629.355678
 30
0.0
 10
503.022433
 20
628.486657
 30
0.0
 10
505.313601
 20
628.419329
 30
0.0
 10
507.593821
 20
629.108150
 30
0.0
 10
509.824419
 20
630.447939
 30
0.0
 10
512.038594
 20
632.410529
 30
0.0
 10
514.176844
 20
634.941136
 30
0.0
 10
516.277487
 20
637.950393
 30
0.0
 10
518.319125
 20
641.381922
 30
0.0
 10
521.094340
 20
646.970401
 30
0.0
 10
522.855809
 20
651.852385
 30
0.0
 10
523.634176
 20
656.030439
 30
0.0
 10
523.367370
 20
659.480374
 30
0.0
 10
522.071107
 20
662.213014
 30
0.0
 10
519.668396
 20
664.212426
 30
0.0
 10
515.318238
 20
665.261202
 30
0.0
 10
510.926567
 20
663.624596
 30
0.0
 10
506.460395
 20
659.242946
 30
0.0
  0
LWPOLYLINE
  5
10b
100
AcDbEntity
  8
Layer_1
 62
7
100
AcDbPolyline
 90
76
 70
1
 10
539.097349
 20
610.487849
 30
0.0
 10
538.147712
 20
609.206526
 30
0.0
 10
537.498031
 20
608.232553
 30
0.0
 10
537.104787
 20
607.481058
 30
0.0
 10
536.882968
 20
606.813030
 30
0.0
 10
536.798284
 20
606.211834
 30
0.0
 10
536.816462
 20
605.660737
 30
0.0
 10
536.993225
 20
605.106275
 30
0.0
 10
537.288661
 20
604.482405
 30
0.0
 10
537.801579
 20
603.777842
 30
0.0
 10
538.535144
 20
602.968623
 30
0.0
 10
537.850478
 20
602.075146
 30
0.0
 10
537.165812
 20
601.181670
 30
0.0
 10
529.882637
 20
606.762732
 30
0.0
 10
522.599462
 20
612.343804
 30
0.0
 10
523.284125
 20
613.237281
 30
0.0
 10
523.968787
 20
614.130758
 30
0.0
 10
525.064550
 20
613.710059
 30
0.0
 10
525.974839
 20
613.495997
 30
0.0
 10
526.779720
 20
613.481146
 30
0.0
 10
527.505155
 20
613.698772
 30
0.0
 10
528.241581
 20
614.155016
 30
0.0
 10
528.983818
 20
614.843242
 30
0.0
 10
529.791645
 20
615.771274
 30
0.0
 10
530.724840
 20
616.947012
 30
0.0
 10
539.656618
 20
628.602797
 30
0.0
 10
548.588395
 20
640.258581
 30
0.0
 10
549.465417
 20
641.445141
 30
0.0
 10
550.146218
 20
642.459748
 30
0.0
 10
550.632828
 20
643.333126
 30
0.0
 10
550.873108
 20
644.137394
 30
0.0
 10
550.894594
 20
644.894433
 30
0.0
 10
550.670630
 20
645.667711
 30
0.0
 10
550.241149
 20
646.523266
 30
0.0
 10
549.550398
 20
647.514566
 30
0.0
 10
550.235060
 20
648.408043
 30
0.0
 10
550.919723
 20
649.301520
 30
0.0
 10
564.010485
 20
639.270123
 30
0.0
 10
577.101247
 20
629.238736
 30
0.0
 10
573.802402
 20
624.933809
 30
0.0
 10
570.503557
 20
620.628882
 30
0.0
 10
568.648920
 20
622.050078
 30
0.0
 10
566.794282
 20
623.471285
 30
0.0
 10
567.617917
 20
626.256549
 30
0.0
 10
567.933753
 20
628.098741
 30
0.0
 10
567.877712
 20
629.441629
 30
0.0
 10
567.544243
 20
630.674833
 30
0.0
 10
566.684459
 20
631.978276
 30
0.0
 10
565.008016
 20
633.477800
 30
0.0
 10
562.395279
 20
635.479925
 30
0.0
 10
559.782541
 20
637.482060
 30
0.0
 10
554.502316
 20
630.591466
 30
0.0
 10
549.222089
 20
623.700882
 30
0.0
 10
550.954889
 20
622.373043
 30
0.0
 10
552.687688
 20
621.045214
 30
0.0
 10
553.883918
 20
620.278966
 30
0.0
 10
554.927553
 20
619.930447
 30
0.0
 10
555.973577
 20
619.977972
 30
0.0
 10
557.081328
 20
620.385997
 30
0.0
 10
558.351637
 20
621.174423
 30
0.0
 10
559.831184
 20
622.404212
 30
0.0
 10
561.360921
 20
621.231979
 30
0.0
 10
562.890658
 20
620.059755
 30
0.0
 10
558.367714
 20
614.157402
 30
0.0
 10
553.844770
 20
608.255048
 30
0.0
 10
552.315032
 20
609.427281
 30
0.0
 10
550.785294
 20
610.599514
 30
0.0
 10
551.583225
 20
612.383854
 30
0.0
 10
552.012627
 20
613.827467
 30
0.0
 10
552.115440
 20
615.027146
 30
0.0
 10
551.892101
 20
616.025535
 30
0.0
 10
551.290935
 20
616.937428
 30
0.0
 10
550.260244
 20
617.877638
 30
0.0
 10
548.527444
 20
619.205477
 30
0.0
 10
546.794645
 20
620.533326
 30
0.0
 10
542.945992
 20
615.510914
 30
0.0
  0
LWPOLYLINE
  5
10c
100
AcDbEntity
  8
Layer_1
 62
7
100
AcDbPolyline
 90
46
 70
1
 10
194.704004
 20
105.809497
 30
0.0
 10
199.428901
 20
102.231755
 30
0.0
 10
202.994284
 20
98.845910
 30
0.0
 10
205.616399
 20
95.455466
 30
0.0
 10
207.511470
 20
91.863480
 30
0.0
 10
208.652041
 20
88.183115
 30
0.0
 10
209.010600
 20
84.527201
 30
0.0
 10
208.666621
 20
80.840893
 30
0.0
 10
207.591952
 20
77.049719
 30
0.0
 10
205.818962
 20
73.166355
 30
0.0
 10
203.336054
 20
69.140104
 30
0.0
 10
199.786384
 20
64.642467
 30
0.0
 10
196.001054
 20
61.060126
 30
0.0
 10
192.033831
 20
58.402727
 30
0.0
 10
187.874957
 20
56.723992
 30
0.0
 10
183.988105
 20
56.031996
 30
0.0
 10
179.932784
 20
56.110505
 30
0.0
 10
175.759689
 20
56.956153
 30
0.0
 10
171.456002
 20
58.597428
 30
0.0
 10
167.355236
 20
60.803067
 30
0.0
 10
162.578939
 20
63.899441
 30
0.0
 10
155.368430
 20
68.893251
 30
0.0
 10
148.157922
 20
73.886950
 30
0.0
 10
148.883901
 20
74.935599
 30
0.0
 10
149.609880
 20
75.984247
 30
0.0
 10
150.883590
 20
75.583854
 30
0.0
 10
151.914182
 20
75.375246
 30
0.0
 10
152.825665
 20
75.397677
 30
0.0
 10
153.634638
 20
75.682551
 30
0.0
 10
154.437443
 20
76.230988
 30
0.0
 10
155.223313
 20
77.026167
 30
0.0
 10
156.086682
 20
78.119677
 30
0.0
 10
157.078468
 20
79.501090
 30
0.0
 10
166.560035
 20
93.191618
 30
0.0
 10
176.041602
 20
106.882035
 30
0.0
 10
176.969236
 20
108.272308
 30
0.0
 10
177.684223
 20
109.457337
 30
0.0
 10
178.187238
 20
110.472339
 30
0.0
 10
178.415249
 20
111.395374
 30
0.0
 10
178.398426
 20
112.253359
 30
0.0
 10
178.102898
 20
113.115831
 30
0.0
 10
177.570274
 20
114.060175
 30
0.0
 10
176.734720
 20
115.143592
 30
0.0
 10
177.460699
 20
116.192241
 30
0.0
 10
178.186677
 20
117.240889
 30
0.0
 10
186.445386
 20
111.520651
 30
0.0
  0
LWPOLYLINE
  5
10d
100
AcDbEntity
  8
Layer_1
 62
7
100
AcDbPolyline
 90
20
 70
1
 10
164.065530
 20
68.560600
 30
0.0
 10
165.024567
 20
67.791217
 30
0.0
 10
166.890141
 20
66.463976
 30
0.0
 10
170.282267
 20
64.490722
 30
0.0
 10
173.470506
 20
63.410670
 30
0.0
 10
175.741285
 20
63.177387
 30
0.0
 10
177.940049
 20
63.417399
 30
0.0
 10
181.494037
 20
64.680600
 30
0.0
 10
184.990781
 20
66.947251
 30
0.0
 10
188.779778
 20
70.585894
 30
0.0
 10
192.580003
 20
75.462278
 30
0.0
 10
195.997330
 20
81.261810
 30
0.0
 10
197.889698
 20
86.589955
 30
0.0
 10
198.339551
 20
91.413178
 30
0.0
 10
197.385449
 20
95.634241
 30
0.0
 10
195.159263
 20
99.291053
 30
0.0
 10
191.685466
 20
102.401894
 30
0.0
 10
189.983022
 20
103.557426
 30
0.0
 10
188.814446
 20
104.296527
 30
0.0
 10
176.440010
 20
86.429124
 30
0.0
  0
LWPOLYLINE
  5
10e
100
AcDbEntity
  8
Layer_1
 62
7
100
AcDbPolyline
 90
22
 70
1
 10
215.139239
 20
32.214550
 30
0.0
 10
206.839213
 20
37.947013
 30
0.0
 10
202.504615
 20
45.488535
 30
0.0
 10
202.175104
 20
54.809956
 30
0.0
 10
205.820241
 20
65.914641
 30
0.0
 10
209.864884
 20
72.915576
 30
0.0
 10
214.609251
 20
78.179344
 30
0.0
 10
220.024596
 20
81.644707
 30
0.0
 10
225.979406
 20
83.213418
 30
0.0
 10
232.326613
 20
82.890412
 30
0.0
 10
238.919192
 20
80.680960
 30
0.0
 10
247.367869
 20
74.878736
 30
0.0
 10
251.798650
 20
67.292015
 30
0.0
 10
252.239756
 20
58.003680
 30
0.0
 10
248.686530
 20
47.026404
 30
0.0
 10
245.407019
 20
41.064247
 30
0.0
 10
241.775734
 20
36.398377
 30
0.0
 10
237.884743
 20
32.974960
 30
0.0
 10
233.723323
 20
30.702925
 30
0.0
 10
229.326996
 20
29.544365
 30
0.0
 10
224.731279
 20
29.465856
 30
0.0
 10
220.003051
 20
30.373190
 30
0.0
  0
LWPOLYLINE
  5
10f
100
AcDbEntity
  8
Layer_1
 62
7
100
AcDbPolyline
 90
24
 70
1
 10
217.385714
 20
61.637051
 30
0.0
 10
213.688268
 20
52.125528
 30
0.0
 10
212.514365
 20
44.715900
 30
0.0
 10
213.921663
 20
39.349174
 30
0.0
 10
217.864963
 20
35.929009
 30
0.0
 10
220.525267
 20
35.117007
 30
0.0
 10
223.119994
 20
35.206731
 30
0.0
 10
225.646104
 20
36.154440
 30
0.0
 10
228.067720
 20
37.834746
 30
0.0
 10
230.424443
 20
40.217814
 30
0.0
 10
232.653096
 20
43.237137
 30
0.0
 10
234.803645
 20
46.794804
 30
0.0
 10
236.856080
 20
50.825316
 30
0.0
 10
239.577262
 20
57.348471
 30
0.0
 10
241.205146
 20
62.997603
 30
0.0
 10
241.774220
 20
67.777983
 30
0.0
 10
241.216025
 20
71.657534
 30
0.0
 10
239.547585
 20
74.649828
 30
0.0
 10
236.683092
 20
76.731087
 30
0.0
 10
231.688081
 20
77.592437
 30
0.0
 10
226.845871
 20
75.415958
 30
0.0
 10
222.123632
 20
70.131218
 30
0.0
 10
217.385725
 20
61.630995
 30
0.0
 10
217.385725
 20
61.631331
 30
0.0
  0
LWPOLYLINE
  5
110
100
AcDbEntity
  8
Layer_1
 62
7
100
AcDbPolyline
 90
94
 70
1
 10
314.690709
 20
52.891995
 30
0.0
 10
312.873473
 20
52.736099
 30
0.0
 10
311.677341
 20
52.358137
 30
0.0
 10
310.872741
 20
51.759230
 30
0.0
 10
310.210579
 20
50.863112
 30
0.0
 10
309.620307
 20
49.399826
 30
0.0
 10
308.937172
 20
47.042330
 30
0.0
 10
304.730049
 20
30.869476
 30
0.0
 10
300.522927
 20
14.696509
 30
0.0
 10
300.046493
 20
12.634653
 30
0.0
 10
299.803902
 20
11.010986
 30
0.0
 10
299.838670
 20
9.764272
 30
0.0
 10
300.175807
 20
8.758242
 30
0.0
 10
301.073720
 20
7.836328
 30
0.0
 10
302.696714
 20
6.785437
 30
0.0
 10
302.375726
 20
5.551396
 30
0.0
 10
302.054739
 20
4.317355
 30
0.0
 10
292.463204
 20
6.812466
 30
0.0
 10
282.871658
 20
9.307577
 30
0.0
 10
283.192645
 20
10.541618
 30
0.0
 10
283.513633
 20
11.775546
 30
0.0
 10
285.015993
 20
11.831624
 30
0.0
 10
285.998919
 20
11.963966
 30
0.0
 10
286.659511
 20
12.201735
 30
0.0
 10
287.194827
 20
12.570725
 30
0.0
 10
287.692570
 20
13.179726
 30
0.0
 10
288.146349
 20
14.080330
 30
0.0
 10
288.670786
 20
15.520960
 30
0.0
 10
289.286629
 20
17.696205
 30
0.0
 10
291.669854
 20
26.857806
 30
0.0
 10
294.053079
 20
36.019294
 30
0.0
 10
294.939551
 20
39.312051
 30
0.0
 10
296.023192
 20
43.132384
 30
0.0
 10
297.049747
 20
46.618160
 30
0.0
 10
297.765071
 20
48.907466
 30
0.0
 10
297.372416
 20
49.008406
 30
0.0
 10
296.979762
 20
49.109345
 30
0.0
 10
296.125702
 20
47.744532
 30
0.0
 10
295.239005
 20
46.408093
 30
0.0
 10
294.010550
 20
44.601726
 30
0.0
 10
292.036656
 20
41.771496
 30
0.0
 10
283.514261
 20
29.575768
 30
0.0
 10
274.991865
 20
17.380041
 30
0.0
 10
271.701194
 20
18.235783
 30
0.0
 10
268.410524
 20
19.091525
 30
0.0
 10
267.082463
 20
35.626415
 30
0.0
 10
265.754403
 20
52.161193
 30
0.0
 10
265.544449
 20
54.960692
 30
0.0
 10
265.441267
 20
57.712189
 30
0.0
 10
265.104802
 20
57.801913
 30
0.0
 10
264.768337
 20
57.891637
 30
0.0
 10
263.297851
 20
51.087758
 30
0.0
 10
261.348565
 20
43.210668
 30
0.0
 10
259.111253
 20
34.610067
 30
0.0
 10
256.873942
 20
26.009466
 30
0.0
 10
256.328981
 20
23.646025
 30
0.0
 10
256.133719
 20
22.089875
 30
0.0
 10
256.268641
 20
20.996364
 30
0.0
 10
256.713784
 20
20.021738
 30
0.0
 10
257.618650
 20
19.087487
 30
0.0
 10
259.132271
 20
18.115104
 30
0.0
 10
258.811284
 20
16.881063
 30
0.0
 10
258.490296
 20
15.647022
 30
0.0
 10
251.422842
 20
17.485578
 30
0.0
 10
244.355387
 20
19.324022
 30
0.0
 10
244.676374
 20
20.558063
 30
0.0
 10
244.997362
 20
21.791991
 30
0.0
 10
246.333509
 20
21.859284
 30
0.0
 10
247.380251
 20
22.047705
 30
0.0
 10
248.236329
 20
22.384169
 30
0.0
 10
248.925633
 20
22.923635
 30
0.0
 10
249.474183
 20
23.688531
 30
0.0
 10
249.907886
 20
24.703534
 30
0.0
 10
250.334972
 20
25.999708
 30
0.0
 10
250.788527
 20
27.628422
 30
0.0
 10
254.995649
 20
43.801276
 30
0.0
 10
259.202772
 20
59.974130
 30
0.0
 10
259.759957
 20
62.384452
 30
0.0
 10
259.952752
 20
63.931293
 30
0.0
 10
259.855177
 20
64.975455
 30
0.0
 10
259.465438
 20
65.895126
 30
0.0
 10
258.579302
 20
66.824890
 30
0.0
 10
256.991659
 20
67.897091
 30
0.0
 10
257.312647
 20
69.131132
 30
0.0
 10
257.633634
 20
70.365061
 30
0.0
 10
266.926030
 20
67.947785
 30
0.0
 10
276.218425
 20
65.530510
 30
0.0
 10
277.404363
 20
48.833107
 30
0.0
 10
278.590300
 20
32.135593
 30
0.0
 10
288.192512
 20
46.026767
 30
0.0
 10
297.794724
 20
59.917828
 30
0.0
 10
306.563603
 20
57.636709
 30
0.0
 10
315.332470
 20
55.355590
 30
0.0
 10
315.011483
 20
54.121661
 30
0.0
  0
LWPOLYLINE
  5
111
100
AcDbEntity
  8
Layer_1
 62
7
100
AcDbPolyline
 90
50
 70
1
 10
326.760464
 20
12.168986
 30
0.0
 10
326.633841
 20
10.871017
 30
0.0
 10
326.556454
 20
9.664566
 30
0.0
 10
326.553931
 20
8.605823
 30
0.0
 10
326.651505
 20
7.748960
 30
0.0
 10
326.854282
 20
7.045748
 30
0.0
 10
327.166072
 20
6.446841
 30
0.0
 10
327.650694
 20
5.916348
 30
0.0
 10
328.295360
 20
5.425109
 30
0.0
 10
329.112970
 20
5.002285
 30
0.0
 10
330.107672
 20
4.599649
 30
0.0
 10
329.965123
 20
3.332635
 30
0.0
 10
329.822574
 20
2.065508
 30
0.0
 10
319.743569
 20
3.199507
 30
0.0
 10
309.664564
 20
4.333393
 30
0.0
 10
309.807113
 20
5.600520
 30
0.0
 10
309.949662
 20
6.867534
 30
0.0
 10
311.261022
 20
7.118761
 30
0.0
 10
312.267388
 20
7.423823
 30
0.0
 10
313.057408
 20
7.879172
 30
0.0
 10
313.634332
 20
8.513968
 30
0.0
 10
314.081494
 20
9.377561
 30
0.0
 10
314.396650
 20
10.449763
 30
0.0
 10
314.638568
 20
11.822315
 30
0.0
 10
314.857382
 20
13.508452
 30
0.0
 10
316.721363
 20
30.076428
 30
0.0
 10
318.585345
 20
46.644404
 30
0.0
 10
318.745614
 20
48.327513
 30
0.0
 10
318.811786
 20
49.690644
 30
0.0
 10
318.770288
 20
50.794249
 30
0.0
 10
318.532632
 20
51.706068
 30
0.0
 10
318.114406
 20
52.482180
 30
0.0
 10
317.446524
 20
53.111370
 30
0.0
 10
316.526741
 20
53.662050
 30
0.0
 10
315.276213
 20
54.210488
 30
0.0
 10
315.418762
 20
55.477614
 30
0.0
 10
315.561311
 20
56.744629
 30
0.0
 10
325.640317
 20
55.610742
 30
0.0
 10
335.719322
 20
54.476744
 30
0.0
 10
335.576773
 20
53.209729
 30
0.0
 10
335.434224
 20
51.942603
 30
0.0
 10
334.011886
 20
51.655486
 30
0.0
 10
332.988360
 20
51.284254
 30
0.0
 10
332.286943
 20
50.837877
 30
0.0
 10
331.745347
 20
50.258036
 30
0.0
 10
331.329365
 20
49.497625
 30
0.0
 10
331.004788
 20
48.514027
 30
0.0
 10
330.735168
 20
47.154597
 30
0.0
 10
330.484053
 20
45.267702
 30
0.0
 10
328.622236
 20
28.719017
 30
0.0
  0
LWPOLYLINE
  5
112
100
AcDbEntity
  8
Layer_1
 62
7
100
AcDbPolyline
 90
80
 70
1
 10
383.616400
 20
54.045732
 30
0.0
 10
383.625933
 20
52.770755
 30
0.0
 10
383.635466
 20
51.495666
 30
0.0
 10
382.315672
 20
51.022372
 30
0.0
 10
381.439629
 20
50.628708
 30
0.0
 10
380.863153
 20
50.219342
 30
0.0
 10
380.364849
 20
49.693336
 30
0.0
 10
379.993728
 20
48.956478
 30
0.0
 10
379.721528
 20
47.911194
 30
0.0
 10
379.558903
 20
46.432095
 30
0.0
 10
379.517406
 20
44.316179
 30
0.0
 10
379.681264
 20
22.795217
 30
0.0
 10
379.845123
 20
1.274255
 30
0.0
 10
374.938187
 20
1.229393
 30
0.0
 10
370.031252
 20
1.184531
 30
0.0
 10
361.223377
 20
16.148243
 30
0.0
 10
352.415502
 20
31.111954
 30
0.0
 10
349.321663
 20
36.536552
 30
0.0
 10
347.165126
 20
40.654545
 30
0.0
 10
346.991285
 20
40.653311
 30
0.0
 10
346.817333
 20
40.651966
 30
0.0
 10
347.172191
 20
32.115293
 30
0.0
 10
347.337283
 20
23.113513
 30
0.0
 10
347.384389
 20
16.892952
 30
0.0
 10
347.431494
 20
10.672278
 30
0.0
 10
347.517853
 20
8.209692
 30
0.0
 10
347.732630
 20
6.617429
 30
0.0
 10
348.155902
 20
5.577752
 30
0.0
 10
348.789914
 20
4.771358
 30
0.0
 10
349.895874
 20
4.152263
 30
0.0
 10
351.658187
 20
3.595975
 30
0.0
 10
351.667720
 20
2.320997
 30
0.0
 10
351.677253
 20
1.045908
 30
0.0
 10
344.374789
 20
0.989830
 30
0.0
 10
337.072337
 20
0.933753
 30
0.0
 10
337.062803
 20
2.208842
 30
0.0
 10
337.053270
 20
3.483820
 30
0.0
 10
338.325208
 20
3.898793
 30
0.0
 10
339.287722
 20
4.350777
 30
0.0
 10
340.017626
 20
4.896972
 30
0.0
 10
340.514585
 20
5.596819
 30
0.0
 10
340.855423
 20
6.507517
 30
0.0
 10
341.040255
 20
7.610000
 30
0.0
 10
341.116520
 20
8.962925
 30
0.0
 10
341.133343
 20
10.624612
 30
0.0
 10
341.006048
 20
27.335249
 30
0.0
 10
340.878752
 20
44.045886
 30
0.0
 10
340.792392
 20
46.489181
 30
0.0
 10
340.577952
 20
48.023461
 30
0.0
 10
340.193485
 20
49.045192
 30
0.0
 10
339.520668
 20
49.870653
 30
0.0
 10
338.423904
 20
50.548069
 30
0.0
 10
336.690404
 20
51.124545
 30
0.0
 10
336.680871
 20
52.399634
 30
0.0
 10
336.671338
 20
53.674612
 30
0.0
 10
344.495390
 20
53.730689
 30
0.0
 10
352.319452
 20
53.786767
 30
0.0
 10
359.248743
 20
41.957898
 30
0.0
 10
366.178045
 20
30.128916
 30
0.0
 10
367.666353
 20
27.503145
 30
0.0
 10
369.547056
 20
24.088139
 30
0.0
 10
371.507244
 20
20.384110
 30
0.0
 10
373.233993
 20
16.890709
 30
0.0
 10
373.543092
 20
16.893064
 30
0.0
 10
373.852191
 20
16.895419
 30
0.0
 10
373.459873
 20
26.552296
 30
0.0
 10
373.273584
 20
37.060877
 30
0.0
 10
373.246666
 20
40.654096
 30
0.0
 10
373.219749
 20
44.247316
 30
0.0
 10
373.154699
 20
46.410673
 30
0.0
 10
372.998580
 20
47.877772
 30
0.0
 10
372.739950
 20
48.861370
 30
0.0
 10
372.367484
 20
49.573554
 30
0.0
 10
371.899798
 20
50.100682
 30
0.0
 10
371.278235
 20
50.530236
 30
0.0
 10
370.386491
 20
50.929507
 30
0.0
 10
369.030818
 20
51.363547
 30
0.0
 10
369.021285
 20
52.638637
 30
0.0
 10
369.011752
 20
53.913614
 30
0.0
 10
376.314396
 20
53.969691
 30
0.0
  0
LWPOLYLINE
  5
113
100
AcDbEntity
  8
Layer_1
 62
7
100
AcDbPolyline
 90
50
 70
1
 10
413.940459
 20
22.533784
 30
0.0
 10
405.800220
 20
21.196785
 30
0.0
 10
397.659992
 20
19.859674
 30
0.0
 10
397.328350
 20
17.945301
 30
0.0
 10
396.996708
 20
16.030929
 30
0.0
 10
396.757930
 20
14.445058
 30
0.0
 10
396.608203
 20
12.912909
 30
0.0
 10
396.590258
 20
11.412276
 30
0.0
 10
396.759500
 20
9.844462
 30
0.0
 10
398.222068
 20
7.138276
 30
0.0
 10
401.382336
 20
6.492264
 30
0.0
 10
401.588925
 20
5.234110
 30
0.0
 10
401.795627
 20
3.975843
 30
0.0
 10
393.655399
 20
2.638844
 30
0.0
 10
385.515172
 20
1.301733
 30
0.0
 10
385.308470
 20
2.559999
 30
0.0
 10
385.101768
 20
3.818153
 30
0.0
 10
386.373471
 20
4.359862
 30
0.0
 10
387.417185
 20
5.216726
 30
0.0
 10
388.274273
 20
6.375398
 30
0.0
 10
388.986008
 20
7.823767
 30
0.0
 10
389.601851
 20
9.735897
 30
0.0
 10
390.171598
 20
12.286524
 30
0.0
 10
394.642329
 20
34.772131
 30
0.0
 10
399.113072
 20
57.257738
 30
0.0
 10
404.203100
 20
58.093292
 30
0.0
 10
409.293128
 20
58.928846
 30
0.0
 10
419.091208
 20
38.610746
 30
0.0
 10
428.889299
 20
18.292645
 30
0.0
 10
430.063752
 20
15.969804
 30
0.0
 10
430.970076
 20
14.444722
 30
0.0
 10
431.804733
 20
13.475703
 30
0.0
 10
432.776555
 20
12.744453
 30
0.0
 10
433.976063
 20
12.294711
 30
0.0
 10
435.506451
 20
12.096197
 30
0.0
 10
435.713041
 20
10.838043
 30
0.0
 10
435.919742
 20
9.579777
 30
0.0
 10
425.396536
 20
7.851357
 30
0.0
 10
414.873341
 20
6.122825
 30
0.0
 10
414.666752
 20
7.381091
 30
0.0
 10
414.460050
 20
8.639246
 30
0.0
 10
416.121132
 20
9.313297
 30
0.0
 10
417.214194
 20
10.227359
 30
0.0
 10
417.755342
 20
11.403080
 30
0.0
 10
417.760299
 20
12.862215
 30
0.0
 10
417.488435
 20
14.099957
 30
0.0
 10
417.061237
 20
15.449181
 30
0.0
 10
416.439338
 20
17.030678
 30
0.0
 10
415.583147
 20
18.965351
 30
0.0
 10
414.761612
 20
20.749287
 30
0.0
  0
LWPOLYLINE
  5
114
100
AcDbEntity
  8
Layer_1
 62
7
100
AcDbPolyline
 90
6
 70
1
 10
398.376113
 20
24.558629
 30
0.0
 10
405.239075
 20
25.685899
 30
0.0
 10
412.102038
 20
26.813056
 30
0.0
 10
407.288920
 20
37.044951
 30
0.0
 10
402.475802
 20
47.276845
 30
0.0
 10
400.425957
 20
35.917794
 30
0.0
  0
LWPOLYLINE
  5
115
100
AcDbEntity
  8
Layer_1
 62
7
100
AcDbPolyline
 90
80
 70
1
 10
468.225904
 20
75.640156
 30
0.0
 10
468.627812
 20
74.430116
 30
0.0
 10
469.029719
 20
73.219965
 30
0.0
 10
467.919957
 20
72.363101
 30
0.0
 10
467.207526
 20
71.719332
 30
0.0
 10
466.785375
 20
71.151828
 30
0.0
 10
466.473091
 20
70.497964
 30
0.0
 10
466.346961
 20
69.682598
 30
0.0
 10
466.409993
 20
68.603667
 30
0.0
 10
466.710826
 20
67.146326
 30
0.0
 10
467.322620
 20
65.120359
 30
0.0
 10
474.106304
 20
44.695824
 30
0.0
 10
480.889989
 20
24.271288
 30
0.0
 10
476.233049
 20
22.724560
 30
0.0
 10
471.576109
 20
21.177831
 30
0.0
 10
458.588008
 20
32.701751
 30
0.0
 10
445.599902
 20
44.225670
 30
0.0
 10
440.985826
 20
48.433836
 30
0.0
 10
437.665894
 20
51.687563
 30
0.0
 10
437.500914
 20
51.631485
 30
0.0
 10
437.335934
 20
51.575408
 30
0.0
 10
440.302499
 20
43.562947
 30
0.0
 10
443.231874
 20
35.049490
 30
0.0
 10
445.192679
 20
29.145878
 30
0.0
 10
447.153495
 20
23.242155
 30
0.0
 10
447.994096
 20
20.925819
 30
0.0
 10
448.689008
 20
19.477226
 30
0.0
 10
449.412071
 20
18.618119
 30
0.0
 10
450.263663
 20
18.046129
 30
0.0
 10
451.506637
 20
17.797145
 30
0.0
 10
453.354709
 20
17.808360
 30
0.0
 10
453.756617
 20
16.598321
 30
0.0
 10
454.158524
 20
15.388281
 30
0.0
 10
447.228111
 20
13.086525
 30
0.0
 10
440.297699
 20
10.784657
 30
0.0
 10
439.895848
 20
11.994697
 30
0.0
 10
439.493884
 20
13.204737
 30
0.0
 10
440.576067
 20
13.992064
 30
0.0
 10
441.352740
 20
14.717707
 30
0.0
 10
441.878971
 20
15.462415
 30
0.0
 10
442.136367
 20
16.281146
 30
0.0
 10
442.180107
 20
17.252408
 30
0.0
 10
442.016361
 20
18.358256
 30
0.0
 10
441.672606
 20
19.669123
 30
0.0
 10
441.176433
 20
21.254994
 30
0.0
 10
435.909031
 20
37.114262
 30
0.0
 10
430.641630
 20
52.973531
 30
0.0
 10
429.807197
 20
55.271474
 30
0.0
 10
429.130566
 20
56.665111
 30
0.0
 10
428.450235
 20
57.518610
 30
0.0
 10
427.555911
 20
58.097329
 30
0.0
 10
426.303847
 20
58.403512
 30
0.0
 10
424.477180
 20
58.414728
 30
0.0
 10
424.075216
 20
59.624768
 30
0.0
 10
423.673253
 20
60.834807
 30
0.0
 10
431.098695
 20
63.301094
 30
0.0
 10
438.524126
 20
65.767381
 30
0.0
 10
448.759542
 20
56.647390
 30
0.0
 10
458.994961
 20
47.527400
 30
0.0
 10
461.219590
 20
45.487526
 30
0.0
 10
464.060578
 20
42.817790
 30
0.0
 10
467.066244
 20
39.897387
 30
0.0
 10
469.784913
 20
37.105514
 30
0.0
 10
470.078265
 20
37.206454
 30
0.0
 10
470.371618
 20
37.307393
 30
0.0
 10
467.024358
 20
46.374110
 30
0.0
 10
463.610840
 20
56.314627
 30
0.0
 10
462.478196
 20
59.724810
 30
0.0
 10
461.345552
 20
63.134993
 30
0.0
 10
460.617689
 20
65.173297
 30
0.0
 10
460.017380
 20
66.520950
 30
0.0
 10
459.468471
 20
67.376692
 30
0.0
 10
458.894810
 20
67.939710
 30
0.0
 10
458.287323
 20
68.297484
 30
0.0
 10
457.563609
 20
68.515065
 30
0.0
 10
456.592348
 20
68.616004
 30
0.0
 10
455.168879
 20
68.612079
 30
0.0
 10
454.766972
 20
69.822231
 30
0.0
 10
454.365065
 20
71.032270
 30
0.0
 10
461.295498
 20
73.335260
 30
0.0
  0
LWPOLYLINE
  5
116
100
AcDbEntity
  8
Layer_1
 62
7
100
AcDbPolyline
 90
48
 70
1
 10
502.058989
 20
91.941203
 30
0.0
 10
504.597113
 20
86.946607
 30
0.0
 10
507.135238
 20
81.951899
 30
0.0
 10
504.792908
 20
80.761599
 30
0.0
 10
502.450579
 20
79.571299
 30
0.0
 10
499.667330
 20
82.404445
 30
0.0
 10
496.926966
 20
83.959024
 30
0.0
 10
494.151279
 20
84.303340
 30
0.0
 10
491.297073
 20
83.437504
 30
0.0
 10
487.182851
 20
79.699828
 30
0.0
 10
485.725128
 20
74.018171
 30
0.0
 10
486.918965
 20
66.487528
 30
0.0
 10
490.794435
 20
57.134031
 30
0.0
 10
495.693986
 20
49.070315
 30
0.0
 10
500.695251
 20
43.962106
 30
0.0
 10
505.702659
 20
41.891053
 30
0.0
 10
510.655650
 20
42.870166
 30
0.0
 10
512.832674
 20
44.236549
 30
0.0
 10
514.334623
 20
45.779914
 30
0.0
 10
515.212886
 20
47.569794
 30
0.0
 10
515.553860
 20
49.606752
 30
0.0
 10
515.416706
 20
52.094124
 30
0.0
 10
514.791677
 20
55.200480
 30
0.0
 10
517.151230
 20
56.399528
 30
0.0
 10
519.510782
 20
57.598576
 30
0.0
 10
522.162685
 20
52.380007
 30
0.0
 10
524.814588
 20
47.161438
 30
0.0
 10
521.582991
 20
44.544078
 30
0.0
 10
518.556101
 20
42.334065
 30
0.0
 10
515.518771
 20
40.400514
 30
0.0
 10
512.255854
 20
38.612428
 30
0.0
 10
505.417349
 20
35.949982
 30
0.0
 10
499.231382
 20
35.244527
 30
0.0
 10
493.659130
 20
36.486980
 30
0.0
 10
488.592880
 20
39.633487
 30
0.0
 10
483.980399
 20
44.744275
 30
0.0
 10
479.735571
 20
51.775492
 30
0.0
 10
476.815213
 20
59.078909
 30
0.0
 10
475.651006
 20
66.039469
 30
0.0
 10
476.299845
 20
72.545353
 30
0.0
 10
478.784726
 20
78.380550
 30
0.0
 10
483.050597
 20
83.376267
 30
0.0
 10
489.042392
 20
87.363824
 30
0.0
 10
492.405959
 20
88.953844
 30
0.0
 10
495.538562
 20
90.188221
 30
0.0
 10
498.677229
 20
91.154997
 30
0.0
 10
502.058988
 20
91.941203
 30
0.0
 10
502.058985
 20
91.940867
 30
0.0
  0
LWPOLYLINE
  5
117
100
AcDbEntity
  8
Layer_1
 62
7
100
AcDbPolyline
 90
82
 70
1
 10
532.843042
 20
114.844811
 30
0.0
 10
536.353207
 20
109.802886
 30
0.0
 10
539.863371
 20
104.760849
 30
0.0
 10
537.691200
 20
103.248664
 30
0.0
 10
535.519029
 20
101.736367
 30
0.0
 10
532.796776
 20
103.584119
 30
0.0
 10
530.917446
 20
104.558746
 30
0.0
 10
529.448941
 20
104.961382
 30
0.0
 10
528.003313
 20
105.028675
 30
0.0
 10
526.300685
 20
104.552016
 30
0.0
 10
524.105335
 20
103.256515
 30
0.0
 10
520.648888
 20
100.850230
 30
0.0
 10
517.192441
 20
98.443834
 30
0.0
 10
522.490801
 20
90.833337
 30
0.0
 10
527.789161
 20
83.222839
 30
0.0
 10
529.882057
 20
84.679844
 30
0.0
 10
531.974952
 20
86.136849
 30
0.0
 10
533.153360
 20
87.098016
 30
0.0
 10
533.898058
 20
88.040118
 30
0.0
 10
534.244168
 20
89.082037
 30
0.0
 10
534.270973
 20
90.277609
 30
0.0
 10
533.977352
 20
91.815141
 30
0.0
 10
533.298825
 20
93.837967
 30
0.0
 10
535.090470
 20
95.085355
 30
0.0
 10
536.882115
 20
96.332630
 30
0.0
 10
541.363645
 20
89.895385
 30
0.0
 10
545.845175
 20
83.458140
 30
0.0
 10
544.053531
 20
82.210865
 30
0.0
 10
542.261886
 20
80.963478
 30
0.0
 10
540.668254
 20
82.255054
 30
0.0
 10
539.336127
 20
83.069299
 30
0.0
 10
538.156527
 20
83.495488
 30
0.0
 10
537.064632
 20
83.562781
 30
0.0
 10
535.929781
 20
83.228559
 30
0.0
 10
534.557900
 20
82.428894
 30
0.0
 10
532.465005
 20
80.971890
 30
0.0
 10
530.372111
 20
79.514773
 30
0.0
 10
536.266537
 20
71.048084
 30
0.0
 10
542.160963
 20
62.581396
 30
0.0
 10
545.601555
 20
64.976689
 30
0.0
 10
549.042147
 20
67.371982
 30
0.0
 10
550.042738
 20
68.115569
 30
0.0
 10
550.824772
 20
68.800836
 30
0.0
 10
551.402684
 20
69.509655
 30
0.0
 10
551.835097
 20
70.257728
 30
0.0
 10
552.134747
 20
71.078703
 30
0.0
 10
552.314381
 20
72.003981
 30
0.0
 10
552.409522
 20
72.999917
 30
0.0
 10
552.392272
 20
73.988002
 30
0.0
 10
552.281194
 20
75.111458
 30
0.0
 10
552.031438
 20
76.467411
 30
0.0
 10
551.587108
 20
78.170708
 30
0.0
 10
550.892310
 20
80.335298
 30
0.0
 10
553.064482
 20
81.847595
 30
0.0
 10
555.236653
 20
83.359780
 30
0.0
 10
558.964365
 20
77.362968
 30
0.0
 10
562.692077
 20
71.366044
 30
0.0
 10
547.106353
 20
60.515390
 30
0.0
 10
531.520630
 20
49.664736
 30
0.0
 10
530.792105
 20
50.711142
 30
0.0
 10
530.063581
 20
51.757547
 30
0.0
 10
530.883747
 20
52.810682
 30
0.0
 10
531.439183
 20
53.703436
 30
0.0
 10
531.732614
 20
54.567029
 30
0.0
 10
531.747419
 20
55.425014
 30
0.0
 10
531.514013
 20
56.368237
 30
0.0
 10
531.043389
 20
57.382117
 30
0.0
 10
530.319989
 20
58.573539
 30
0.0
 10
529.372403
 20
59.985233
 30
0.0
 10
519.857431
 20
73.652434
 30
0.0
 10
510.342458
 20
87.319635
 30
0.0
 10
509.363862
 20
88.674578
 30
0.0
 10
508.503274
 20
89.757995
 30
0.0
 10
507.728284
 20
90.583455
 30
0.0
 10
506.943054
 20
91.119556
 30
0.0
 10
506.133441
 20
91.403308
 30
0.0
 10
505.221868
 20
91.425739
 30
0.0
 10
504.150743
 20
91.254142
 30
0.0
 10
502.843191
 20
90.852627
 30
0.0
 10
502.114666
 20
91.899033
 30
0.0
 10
501.386141
 20
92.945438
 30
0.0
 10
517.114561
 20
103.895237
 30
0.0
  0
LWPOLYLINE
  5
118
100
AcDbEntity
  8
Layer_1
 62
4
100
AcDbPolyline
 90
48
 70
1
 10
349.367730
 20
649.029982
 30
0.0
 10
322.276588
 20
647.070848
 30
0.0
 10
295.665946
 20
642.339697
 30
0.0
 10
269.694224
 20
634.995147
 30
0.0
 10
244.519740
 20
625.196109
 30
0.0
 10
220.300714
 20
613.101002
 30
0.0
 10
197.195464
 20
598.868838
 30
0.0
 10
175.362310
 20
582.658034
 30
0.0
 10
154.959571
 20
564.627503
 30
0.0
 10
160.991332
 20
558.595742
 30
0.0
 10
167.023094
 20
552.563981
 30
0.0
 10
173.054855
 20
546.532220
 30
0.0
 10
179.086616
 20
540.500360
 30
0.0
 10
185.118377
 20
534.468598
 30
0.0
 10
191.150138
 20
528.436837
 30
0.0
 10
197.181900
 20
522.405076
 30
0.0
 10
203.213661
 20
516.373315
 30
0.0
 10
216.947700
 20
528.257330
 30
0.0
 10
231.624524
 20
538.950042
 30
0.0
 10
247.132051
 20
548.403630
 30
0.0
 10
263.358103
 20
556.570865
 30
0.0
 10
280.190499
 20
563.403923
 30
0.0
 10
297.517158
 20
568.855479
 30
0.0
 10
315.225902
 20
572.877808
 30
0.0
 10
333.204551
 20
575.423386
 30
0.0
 10
334.566648
 20
577.829357
 30
0.0
 10
336.081024
 20
580.438599
 30
0.0
 10
337.650153
 20
583.098634
 30
0.0
 10
339.176212
 20
585.657281
 30
0.0
 10
340.561478
 20
587.962261
 30
0.0
 10
341.708225
 20
589.861196
 30
0.0
 10
342.519127
 20
591.201907
 30
0.0
 10
342.895369
 20
591.831618
 30
0.0
 10
343.123095
 20
592.254396
 30
0.0
 10
343.588448
 20
593.130645
 30
0.0
 10
344.255783
 20
594.388780
 30
0.0
 10
345.089457
 20
595.957117
 30
0.0
 10
346.052836
 20
597.763873
 30
0.0
 10
347.110969
 20
599.737265
 30
0.0
 10
348.227716
 20
601.805608
 30
0.0
 10
349.367334
 20
603.897022
 30
0.0
 10
349.367334
 20
609.538679
 30
0.0
 10
349.367334
 20
615.180237
 30
0.0
 10
349.367334
 20
620.821894
 30
0.0
 10
349.367334
 20
626.463551
 30
0.0
 10
349.367334
 20
632.105208
 30
0.0
 10
349.367334
 20
637.746767
 30
0.0
 10
349.367334
 20
643.388424
 30
0.0
  0
LWPOLYLINE
  5
119
100
AcDbEntity
  8
Layer_1
 62
4
100
AcDbPolyline
 90
56
 70
1
 10
360.445101
 20
649.010180
 30
0.0
 10
360.445101
 20
643.376839
 30
0.0
 10
360.445101
 20
637.743598
 30
0.0
 10
360.445101
 20
632.110258
 30
0.0
 10
360.445101
 20
626.476918
 30
0.0
 10
360.445101
 20
620.843676
 30
0.0
 10
360.445101
 20
615.210336
 30
0.0
 10
360.445101
 20
609.577095
 30
0.0
 10
360.445101
 20
603.943755
 30
0.0
 10
361.614424
 20
601.876302
 30
0.0
 10
362.759785
 20
599.832514
 30
0.0
 10
363.844650
 20
597.883280
 30
0.0
 10
364.832782
 20
596.099198
 30
0.0
 10
365.687249
 20
594.550861
 30
0.0
 10
366.371416
 20
593.308964
 30
0.0
 10
366.848650
 20
592.444596
 30
0.0
 10
367.082316
 20
592.027759
 30
0.0
 10
367.490242
 20
591.370325
 30
0.0
 10
368.372432
 20
589.965851
 30
0.0
 10
369.616804
 20
587.981073
 30
0.0
 10
371.112764
 20
585.582725
 30
0.0
 10
372.749320
 20
582.937245
 30
0.0
 10
374.415480
 20
580.211369
 30
0.0
 10
376.000055
 20
577.571532
 30
0.0
 10
377.392251
 20
575.184373
 30
0.0
 10
395.425257
 20
572.440575
 30
0.0
 10
413.171823
 20
568.213788
 30
0.0
 10
430.518087
 20
562.551734
 30
0.0
 10
447.350186
 20
555.502435
 30
0.0
 10
463.554258
 20
547.113613
 30
0.0
 10
479.016537
 20
537.433290
 30
0.0
 10
493.623162
 20
526.509287
 30
0.0
 10
507.260368
 20
514.389527
 30
0.0
 10
513.288961
 20
520.418119
 30
0.0
 10
519.317553
 20
526.446613
 30
0.0
 10
525.346047
 20
532.475206
 30
0.0
 10
531.374640
 20
538.503799
 30
0.0
 10
537.403233
 20
544.532392
 30
0.0
 10
543.431727
 20
550.560886
 30
0.0
 10
549.460320
 20
556.589479
 30
0.0
 10
555.488913
 20
562.618072
 30
0.0
 10
535.107263
 20
580.949794
 30
0.0
 10
513.260346
 20
597.453275
 30
0.0
 10
490.109651
 20
611.966631
 30
0.0
 10
465.816465
 20
624.327880
 30
0.0
 10
440.542178
 20
634.374842
 30
0.0
 10
414.448177
 20
641.945732
 30
0.0
 10
387.695751
 20
646.878370
 30
0.0
 10
360.446290
 20
649.010774
 30
0.0
 10
360.446290
 20
649.010774
 30
0.0
 10
360.446290
 20
649.010774
 30
0.0
 10
360.446290
 20
649.010774
 30
0.0
 10
360.446290
 20
649.010774
 30
0.0
 10
360.446290
 20
649.010873
 30
0.0
 10
360.446290
 20
649.010873
 30
0.0
 10
360.446290
 20
649.010873
 30
0.0
  0
LWPOLYLINE
  5
11a
100
AcDbEntity
  8
Layer_1
 62
4
100
AcDbPolyline
 90
48
 70
1
 10
147.105608
 20
556.810175
 30
0.0
 10
128.950126
 20
536.446545
 30
0.0
 10
112.613875
 20
514.639233
 30
0.0
 10
98.256362
 20
491.547152
 30
0.0
 10
86.037194
 20
467.329512
 30
0.0
 10
76.115977
 20
442.145522
 30
0.0
 10
68.652316
 20
416.154196
 30
0.0
 10
63.805817
 20
389.514841
 30
0.0
 10
61.736087
 20
362.386570
 30
0.0
 10
67.916266
 20
362.386570
 30
0.0
 10
74.096346
 20
362.386570
 30
0.0
 10
80.276525
 20
362.386570
 30
0.0
 10
86.456605
 20
362.386570
 30
0.0
 10
92.636784
 20
362.386570
 30
0.0
 10
98.816963
 20
362.386570
 30
0.0
 10
104.997043
 20
362.386570
 30
0.0
 10
111.177222
 20
362.386570
 30
0.0
 10
112.519022
 20
363.130143
 30
0.0
 10
113.858346
 20
363.871737
 30
0.0
 10
115.145590
 20
364.583628
 30
0.0
 10
116.331150
 20
365.239082
 30
0.0
 10
117.365223
 20
365.811366
 30
0.0
 10
118.197907
 20
366.272758
 30
0.0
 10
118.780093
 20
366.596525
 30
0.0
 10
119.061285
 20
366.755933
 30
0.0
 10
119.682085
 20
367.141086
 30
0.0
 10
121.001706
 20
367.968820
 30
0.0
 10
122.871433
 20
369.140716
 30
0.0
 10
125.141957
 20
370.557170
 30
0.0
 10
127.664168
 20
372.118775
 30
0.0
 10
130.289054
 20
373.726320
 30
0.0
 10
132.867503
 20
375.280400
 30
0.0
 10
135.250207
 20
376.681804
 30
0.0
 10
137.774794
 20
394.950555
 30
0.0
 10
141.824352
 20
412.944749
 30
0.0
 10
147.349077
 20
430.546758
 30
0.0
 10
154.299166
 20
447.639059
 30
0.0
 10
162.624522
 20
464.104222
 30
0.0
 10
172.275439
 20
479.824525
 30
0.0
 10
183.202016
 20
494.682638
 30
0.0
 10
195.354252
 20
508.560738
 30
0.0
 10
189.323085
 20
514.591905
 30
0.0
 10
183.292017
 20
520.622974
 30
0.0
 10
177.260850
 20
526.654141
 30
0.0
 10
171.229683
 20
532.685209
 30
0.0
 10
165.198614
 20
538.716376
 30
0.0
 10
159.167447
 20
544.747543
 30
0.0
 10
153.136379
 20
550.778611
 30
0.0
  0
LWPOLYLINE
  5
11b
100
AcDbEntity
  8
Layer_1
 62
4
100
AcDbPolyline
 90
56
 70
1
 10
563.285350
 20
554.743019
 30
0.0
 10
557.252896
 20
548.711258
 30
0.0
 10
551.220541
 20
542.679497
 30
0.0
 10
545.188086
 20
536.647735
 30
0.0
 10
539.155731
 20
530.615974
 30
0.0
 10
533.123277
 20
524.584213
 30
0.0
 10
527.090921
 20
518.552452
 30
0.0
 10
521.058566
 20
512.520691
 30
0.0
 10
515.026112
 20
506.488929
 30
0.0
 10
526.731115
 20
492.777564
 30
0.0
 10
537.257588
 20
478.143711
 30
0.0
 10
546.559391
 20
462.697769
 30
0.0
 10
554.590386
 20
446.549936
 30
0.0
 10
561.304334
 20
429.810214
 30
0.0
 10
566.655295
 20
412.589001
 30
0.0
 10
570.597128
 20
394.996397
 30
0.0
 10
573.083596
 20
377.142701
 30
0.0
 10
575.444814
 20
375.786644
 30
0.0
 10
577.914054
 20
374.342368
 30
0.0
 10
580.369829
 20
372.887795
 30
0.0
 10
582.690156
 20
371.501044
 30
0.0
 10
584.753351
 20
370.260236
 30
0.0
 10
586.437630
 20
369.243391
 30
0.0
 10
587.621309
 20
368.528530
 30
0.0
 10
588.182702
 20
368.193872
 30
0.0
 10
588.654985
 20
367.939414
 30
0.0
 10
589.642127
 20
367.414654
 30
0.0
 10
591.056205
 20
366.664150
 30
0.0
 10
592.808702
 20
365.731464
 30
0.0
 10
594.811204
 20
364.660658
 30
0.0
 10
596.975291
 20
363.496089
 30
0.0
 10
599.212647
 20
362.281816
 30
0.0
 10
601.434755
 20
361.061800
 30
0.0
 10
607.089184
 20
361.061800
 30
0.0
 10
612.743614
 20
361.061800
 30
0.0
 10
618.398044
 20
361.061800
 30
0.0
 10
624.052473
 20
361.061800
 30
0.0
 10
629.706804
 20
361.061800
 30
0.0
 10
635.361233
 20
361.061800
 30
0.0
 10
641.015663
 20
361.061800
 30
0.0
 10
646.670093
 20
361.061800
 30
0.0
 10
644.763038
 20
388.016901
 30
0.0
 10
640.110998
 20
414.499818
 30
0.0
 10
632.869815
 20
440.354410
 30
0.0
 10
623.195531
 20
465.424735
 30
0.0
 10
611.243991
 20
489.554849
 30
0.0
 10
597.171234
 20
512.588612
 30
0.0
 10
581.133205
 20
534.370082
 30
0.0
 10
563.285746
 20
554.743217
 30
0.0
 10
563.285746
 20
554.743217
 30
0.0
 10
563.285746
 20
554.743217
 30
0.0
 10
563.285746
 20
554.743316
 30
0.0
 10
563.285746
 20
554.743316
 30
0.0
 10
563.285746
 20
554.743316
 30
0.0
 10
563.285746
 20
554.743316
 30
0.0
 10
563.285746
 20
554.743415
 30
0.0
  0
LWPOLYLINE
  5
11c
100
AcDbEntity
  8
Layer_1
 62
4
100
AcDbPolyline
 90
48
 70
1
 10
61.730939
 20
351.304545
 30
0.0
 10
63.672449
 20
324.725587
 30
0.0
 10
68.283202
 20
298.609012
 30
0.0
 10
75.413393
 20
273.104424
 30
0.0
 10
84.912922
 20
248.361233
 30
0.0
 10
96.631886
 20
224.528944
 30
0.0
 10
110.420381
 20
201.756966
 30
0.0
 10
126.128307
 20
180.194806
 30
0.0
 10
143.605959
 20
159.991871
 30
0.0
 10
149.637720
 20
166.024226
 30
0.0
 10
155.669481
 20
172.056681
 30
0.0
 10
161.701242
 20
178.089036
 30
0.0
 10
167.733004
 20
184.121490
 30
0.0
 10
173.764765
 20
190.153846
 30
0.0
 10
179.796526
 20
196.186300
 30
0.0
 10
185.828287
 20
202.218655
 30
0.0
 10
191.860049
 20
208.251110
 30
0.0
 10
180.701191
 20
221.555935
 30
0.0
 10
170.640368
 20
235.708495
 30
0.0
 10
161.718470
 20
250.610173
 30
0.0
 10
153.976390
 20
266.162354
 30
0.0
 10
147.455019
 20
282.266127
 30
0.0
 10
142.195247
 20
298.822876
 30
0.0
 10
138.237969
 20
315.733887
 30
0.0
 10
135.624073
 20
332.900346
 30
0.0
 10
133.218795
 20
334.263037
 30
0.0
 10
130.613612
 20
335.776324
 30
0.0
 10
127.959915
 20
337.343176
 30
0.0
 10
125.408892
 20
338.866166
 30
0.0
 10
123.111733
 20
340.248164
 30
0.0
 10
121.219828
 20
341.391941
 30
0.0
 10
119.884167
 20
342.199873
 30
0.0
 10
119.256436
 20
342.575125
 30
0.0
 10
118.645537
 20
342.902852
 30
0.0
 10
117.343639
 20
343.592960
 30
0.0
 10
115.495892
 20
344.573171
 30
0.0
 10
113.247546
 20
345.771404
 30
0.0
 10
110.744048
 20
347.115679
 30
0.0
 10
108.130450
 20
348.533816
 30
0.0
 10
105.552298
 20
349.953834
 30
0.0
 10
103.154643
 20
351.303456
 30
0.0
 10
97.976655
 20
351.303456
 30
0.0
 10
92.798767
 20
351.303456
 30
0.0
 10
87.620779
 20
351.303456
 30
0.0
 10
82.442791
 20
351.303456
 30
0.0
 10
77.264902
 20
351.303456
 30
0.0
 10
72.086914
 20
351.303456
 30
0.0
 10
66.909026
 20
351.303456
 30
0.0
  0
LWPOLYLINE
  5
11d
100
AcDbEntity
  8
Layer_1
 62
4
100
AcDbPolyline
 90
48
 70
1
 10
599.152349
 20
349.984528
 30
0.0
 10
597.236384
 20
348.908276
 30
0.0
 10
595.367250
 20
347.866778
 30
0.0
 10
593.602970
 20
346.889537
 30
0.0
 10
592.001167
 20
346.007348
 30
0.0
 10
590.619862
 20
345.248922
 30
0.0
 10
589.516779
 20
344.643964
 30
0.0
 10
588.749442
 20
344.222176
 30
0.0
 10
588.376170
 20
344.013262
 30
0.0
 10
587.794974
 20
343.653852
 30
0.0
 10
586.566344
 20
342.884535
 30
0.0
 10
584.821074
 20
341.791650
 30
0.0
 10
582.690156
 20
340.462919
 30
0.0
 10
580.304877
 20
338.985376
 30
0.0
 10
577.796330
 20
337.446346
 30
0.0
 10
575.295704
 20
335.933059
 30
0.0
 10
572.934089
 20
334.532546
 30
0.0
 10
570.624356
 20
318.308375
 30
0.0
 10
567.111934
 20
302.299158
 30
0.0
 10
562.431181
 20
286.587767
 30
0.0
 10
556.616848
 20
271.256875
 30
0.0
 10
549.703491
 20
256.389257
 30
0.0
 10
541.725665
 20
242.067686
 30
0.0
 10
532.718123
 20
228.374934
 30
0.0
 10
522.715221
 20
215.393776
 30
0.0
 10
528.770052
 20
209.338945
 30
0.0
 10
534.824784
 20
203.284214
 30
0.0
 10
540.879615
 20
197.229383
 30
0.0
 10
546.934346
 20
191.174651
 30
0.0
 10
552.989177
 20
185.119820
 30
0.0
 10
559.043909
 20
179.065088
 30
0.0
 10
565.098740
 20
173.010257
 30
0.0
 10
571.153472
 20
166.955526
 30
0.0
 10
587.218135
 20
186.582809
 30
0.0
 10
601.645649
 20
207.395158
 30
0.0
 10
614.307595
 20
229.264451
 30
0.0
 10
625.075556
 20
252.062766
 30
0.0
 10
633.821015
 20
275.661982
 30
0.0
 10
640.415556
 20
299.933979
 30
0.0
 10
644.730662
 20
324.750835
 30
0.0
 10
646.637914
 20
349.984528
 30
0.0
 10
640.702095
 20
349.984528
 30
0.0
 10
634.766275
 20
349.984528
 30
0.0
 10
628.830456
 20
349.984528
 30
0.0
 10
622.894636
 20
349.984528
 30
0.0
 10
616.958718
 20
349.984528
 30
0.0
 10
611.022899
 20
349.984528
 30
0.0
 10
605.087079
 20
349.984528
 30
0.0
  0
LWPOLYLINE
  5
11e
100
AcDbEntity
  8
Layer_1
 62
4
100
AcDbPolyline
 90
56
 70
1
 10
515.384235
 20
207.053866
 30
0.0
 10
514.682246
 20
206.296431
 30
0.0
 10
513.977286
 20
205.541966
 30
0.0
 10
513.269356
 20
204.789481
 30
0.0
 10
512.558456
 20
204.040956
 30
0.0
 10
511.843595
 20
203.295402
 30
0.0
 10
511.124774
 20
202.553808
 30
0.0
 10
510.401993
 20
201.816175
 30
0.0
 10
509.674260
 20
201.083492
 30
0.0
 10
495.696456
 20
188.303921
 30
0.0
 10
480.654281
 20
176.806643
 30
0.0
 10
464.675757
 20
166.644631
 30
0.0
 10
447.888906
 20
157.870854
 30
0.0
 10
430.421651
 20
150.538581
 30
0.0
 10
412.401813
 20
144.700683
 30
0.0
 10
393.957515
 20
140.410133
 30
0.0
 10
375.216679
 20
137.720197
 30
0.0
 10
373.910523
 20
135.476702
 30
0.0
 10
372.573674
 20
133.208851
 30
0.0
 10
371.264746
 20
131.008328
 30
0.0
 10
370.042453
 20
128.967212
 30
0.0
 10
368.965608
 20
127.177288
 30
0.0
 10
368.092329
 20
125.730339
 30
0.0
 10
367.482420
 20
124.718345
 30
0.0
 10
367.193308
 20
124.233191
 30
0.0
 10
366.954691
 20
123.790611
 30
0.0
 10
366.464585
 20
122.868817
 30
0.0
 10
365.762596
 20
121.546918
 30
0.0
 10
364.888327
 20
119.902937
 30
0.0
 10
363.880195
 20
118.015090
 30
0.0
 10
362.777409
 20
115.961697
 30
0.0
 10
361.618978
 20
113.821076
 30
0.0
 10
360.443913
 20
111.671642
 30
0.0
 10
360.443913
 20
105.726813
 30
0.0
 10
360.443913
 20
99.782082
 30
0.0
 10
360.443913
 20
93.837253
 30
0.0
 10
360.443913
 20
87.892423
 30
0.0
 10
360.443913
 20
81.947693
 30
0.0
 10
360.443913
 20
76.002863
 30
0.0
 10
360.443913
 20
70.058133
 30
0.0
 10
360.443913
 20
64.113304
 30
0.0
 10
389.124284
 20
66.437987
 30
0.0
 10
417.244945
 20
71.857661
 30
0.0
 10
444.617280
 20
80.183215
 30
0.0
 10
471.052572
 20
91.225635
 30
0.0
 10
496.362306
 20
104.796008
 30
0.0
 10
520.357963
 20
120.705323
 30
0.0
 10
542.850927
 20
138.764567
 30
0.0
 10
563.652583
 20
158.784727
 30
0.0
 10
557.618841
 20
164.818369
 30
0.0
 10
551.585199
 20
170.852111
 30
0.0
 10
545.551556
 20
176.885753
 30
0.0
 10
539.517815
 20
182.919495
 30
0.0
 10
533.484073
 20
188.953137
 30
0.0
 10
527.450431
 20
194.986878
 30
0.0
 10
521.416690
 20
201.020521
 30
0.0
  0
LWPOLYLINE
  5
11f
100
AcDbEntity
  8
Layer_1
 62
4
100
AcDbPolyline
 90
48
 70
1
 10
199.539950
 20
200.259125
 30
0.0
 10
193.513337
 20
194.232413
 30
0.0
 10
187.486626
 20
188.205801
 30
0.0
 10
181.460013
 20
182.179089
 30
0.0
 10
175.433301
 20
176.152476
 30
0.0
 10
169.406689
 20
170.125765
 30
0.0
 10
163.380076
 20
164.099152
 30
0.0
 10
157.353364
 20
158.072440
 30
0.0
 10
151.326752
 20
152.045828
 30
0.0
 10
171.931672
 20
133.285189
 30
0.0
 10
194.061661
 20
116.403683
 30
0.0
 10
217.547213
 20
101.571313
 30
0.0
 10
242.218522
 20
88.957883
 30
0.0
 10
267.905884
 20
78.733394
 30
0.0
 10
294.439693
 20
71.067750
 30
0.0
 10
321.650243
 20
66.130855
 30
0.0
 10
349.367730
 20
64.092511
 30
0.0
 10
349.367730
 20
70.154966
 30
0.0
 10
349.367730
 20
76.217421
 30
0.0
 10
349.367730
 20
82.279875
 30
0.0
 10
349.367730
 20
88.342330
 30
0.0
 10
349.367730
 20
94.404884
 30
0.0
 10
349.367730
 20
100.467339
 30
0.0
 10
349.367730
 20
106.529793
 30
0.0
 10
349.367730
 20
112.592248
 30
0.0
 10
348.235736
 20
114.599898
 30
0.0
 10
347.132850
 20
116.572794
 30
0.0
 10
346.092738
 20
118.445888
 30
0.0
 10
345.149161
 20
120.154128
 30
0.0
 10
344.335289
 20
121.632563
 30
0.0
 10
343.684786
 20
122.816044
 30
0.0
 10
343.231314
 20
123.639817
 30
0.0
 10
343.008539
 20
124.037842
 30
0.0
 10
342.707545
 20
124.526957
 30
0.0
 10
342.069913
 20
125.547861
 30
0.0
 10
341.157030
 20
127.006692
 30
0.0
 10
340.032659
 20
128.809586
 30
0.0
 10
338.758286
 20
130.862484
 30
0.0
 10
337.396486
 20
133.071424
 30
0.0
 10
336.009241
 20
135.342443
 30
0.0
 10
334.658827
 20
137.581482
 30
0.0
 10
315.858881
 20
140.148644
 30
0.0
 10
297.347453
 20
144.327609
 30
0.0
 10
279.253259
 20
150.065109
 30
0.0
 10
261.704814
 20
157.307579
 30
0.0
 10
244.830734
 20
166.001652
 30
0.0
 10
228.759734
 20
176.093961
 30
0.0
 10
213.620231
 20
187.530940
 30
0.0
  0
LWPOLYLINE
  5
120
100
AcDbEntity
  8
Layer_1
 62
7
100
AcDbPolyline
 90
480
 70
1
 10
309.986597
 20
204.497695
 30
0.0
 10
314.762827
 20
206.185241
 30
0.0
 10
319.492383
 20
208.556955
 30
0.0
 10
324.112612
 20
211.557390
 30
0.0
 10
328.560847
 20
215.131001
 30
0.0
 10
332.774427
 20
219.222341
 30
0.0
 10
336.690685
 20
223.776063
 30
0.0
 10
340.246959
 20
228.736622
 30
0.0
 10
343.380594
 20
234.048572
 30
0.0
 10
346.157045
 20
238.585561
 30
0.0
 10
349.053370
 20
242.072636
 30
0.0
 10
351.960358
 20
244.480291
 30
0.0
 10
354.768761
 20
245.779120
 30
0.0
 10
357.369349
 20
245.939518
 30
0.0
 10
359.652903
 20
244.932178
 30
0.0
 10
361.510175
 20
242.727595
 30
0.0
 10
362.831934
 20
239.296363
 30
0.0
 10
363.402338
 20
237.769808
 30
0.0
 10
364.422618
 20
235.842259
 30
0.0
 10
365.835557
 20
233.592032
 30
0.0
 10
367.583927
 20
231.097148
 30
0.0
 10
369.610487
 20
228.435925
 30
0.0
 10
371.858021
 20
225.686583
 30
0.0
 10
374.269300
 20
222.927141
 30
0.0
 10
376.787085
 20
220.235819
 30
0.0
 10
384.386382
 20
213.240283
 30
0.0
 10
391.981727
 20
207.963383
 30
0.0
 10
399.632044
 20
204.397792
 30
0.0
 10
407.396264
 20
202.535590
 30
0.0
 10
415.333317
 20
202.369251
 30
0.0
 10
423.502115
 20
203.891350
 30
0.0
 10
431.961601
 20
207.094065
 30
0.0
 10
440.770686
 20
211.969970
 30
0.0
 10
446.799427
 20
216.408245
 30
0.0
 10
452.041544
 20
221.573460
 30
0.0
 10
456.492978
 20
227.456903
 30
0.0
 10
460.149689
 20
234.050156
 30
0.0
 10
463.007637
 20
241.344409
 30
0.0
 10
465.062772
 20
249.331146
 30
0.0
 10
466.311056
 20
258.001753
 30
0.0
 10
466.748487
 20
267.347518
 30
0.0
 10
466.803933
 20
271.335787
 30
0.0
 10
466.935420
 20
274.836130
 30
0.0
 10
467.137007
 20
277.803495
 30
0.0
 10
467.402357
 20
280.192635
 30
0.0
 10
467.725331
 20
281.958499
 30
0.0
 10
468.099594
 20
283.055939
 30
0.0
 10
468.518906
 20
283.440102
 30
0.0
 10
468.977031
 20
283.064850
 30
0.0
 10
471.644372
 20
282.539101
 30
0.0
 10
475.459649
 20
286.599945
 30
0.0
 10
479.990441
 20
294.243113
 30
0.0
 10
484.804364
 20
304.464137
 30
0.0
 10
489.469009
 20
316.258844
 30
0.0
 10
493.551972
 20
328.622865
 30
0.0
 10
496.620854
 20
340.551832
 30
0.0
 10
498.243251
 20
351.041472
 30
0.0
 10
498.480383
 20
354.473893
 30
0.0
 10
498.560582
 20
357.182641
 30
0.0
 10
498.456521
 20
359.249796
 30
0.0
 10
498.139487
 20
360.757340
 30
0.0
 10
497.581262
 20
361.787057
 30
0.0
 10
496.753529
 20
362.420728
 30
0.0
 10
495.628029
 20
362.741525
 30
0.0
 10
494.176505
 20
362.830635
 30
0.0
 10
492.776180
 20
362.671227
 30
0.0
 10
491.558085
 20
362.144487
 30
0.0
 10
490.483121
 20
361.176158
 30
0.0
 10
489.512217
 20
359.691782
 30
0.0
 10
488.606166
 20
357.617399
 30
0.0
 10
487.725957
 20
354.878750
 30
0.0
 10
486.832381
 20
351.401873
 30
0.0
 10
485.886428
 20
347.112411
 30
0.0
 10
484.401725
 20
340.655595
 30
0.0
 10
482.686099
 20
334.333830
 30
0.0
 10
480.789273
 20
328.276920
 30
0.0
 10
478.760989
 20
322.614570
 30
0.0
 10
476.650981
 20
317.476681
 30
0.0
 10
474.508993
 20
312.992960
 30
0.0
 10
472.384758
 20
309.293308
 30
0.0
 10
470.328009
 20
306.507530
 30
0.0
 10
469.615920
 20
305.558012
 30
0.0
 10
468.914426
 20
304.361858
 30
0.0
 10
468.241645
 20
302.967682
 30
0.0
 10
467.615498
 20
301.423899
 30
0.0
 10
467.054006
 20
299.778829
 30
0.0
 10
466.575188
 20
298.080688
 30
0.0
 10
466.197064
 20
296.378092
 30
0.0
 10
465.937655
 20
294.719159
 30
0.0
 10
465.653889
 20
292.903591
 30
0.0
 10
465.324181
 20
291.905954
 30
0.0
 10
464.935959
 20
291.756448
 30
0.0
 10
464.476448
 20
292.485170
 30
0.0
 10
463.932975
 20
294.121528
 30
0.0
 10
463.292769
 20
296.695917
 30
0.0
 10
462.543155
 20
300.238141
 30
0.0
 10
461.671461
 20
304.778299
 30
0.0
 10
460.744221
 20
310.057080
 30
0.0
 10
460.098272
 20
314.543574
 30
0.0
 10
459.738466
 20
318.448773
 30
0.0
 10
459.669158
 20
321.983769
 30
0.0
 10
459.896091
 20
325.359556
 30
0.0
 10
460.423623
 20
328.787224
 30
0.0
 10
461.256505
 20
332.477866
 30
0.0
 10
462.399639
 20
336.642474
 30
0.0
 10
465.465896
 20
344.763470
 30
0.0
 10
469.515444
 20
351.675738
 30
0.0
 10
474.409962
 20
357.296801
 30
0.0
 10
480.011134
 20
361.543687
 30
0.0
 10
486.180630
 20
364.333921
 30
0.0
 10
492.780131
 20
365.584730
 30
0.0
 10
499.671309
 20
365.213438
 30
0.0
 10
506.715856
 20
363.137272
 30
0.0
 10
510.664778
 20
361.730719
 30
0.0
 10
513.804413
 20
361.069325
 30
0.0
 10
516.055165
 20
361.068236
 30
0.0
 10
517.337429
 20
361.641510
 30
0.0
 10
517.571590
 20
362.702811
 30
0.0
 10
516.678113
 20
364.166692
 30
0.0
 10
514.577334
 20
365.947210
 30
0.0
 10
511.189676
 20
367.958820
 30
0.0
 10
506.588210
 20
369.887162
 30
0.0
 10
501.575948
 20
371.183713
 30
0.0
 10
496.308097
 20
371.855999
 30
0.0
 10
490.939840
 20
371.915406
 30
0.0
 10
485.626365
 20
371.360943
 30
0.0
 10
480.522893
 20
370.203601
 30
0.0
 10
475.784604
 20
368.450905
 30
0.0
 10
471.566688
 20
366.110182
 30
0.0
 10
465.174734
 20
360.917640
 30
0.0
 10
459.949033
 20
354.663301
 30
0.0
 10
455.852653
 20
347.204690
 30
0.0
 10
452.848693
 20
338.399526
 30
0.0
 10
450.900242
 20
328.105334
 30
0.0
 10
449.970329
 20
316.179734
 30
0.0
 10
450.021815
 20
302.480547
 30
0.0
 10
451.018363
 20
286.865097
 30
0.0
 10
451.318367
 20
283.300893
 30
0.0
 10
451.553914
 20
280.206595
 30
0.0
 10
451.723124
 20
277.633493
 30
0.0
 10
451.823918
 20
275.632873
 30
0.0
 10
451.854611
 20
274.255726
 30
0.0
 10
451.813026
 20
273.553737
 30
0.0
 10
451.696787
 20
273.573539
 30
0.0
 10
451.504211
 20
274.374539
 30
0.0
 10
451.099948
 20
276.219712
 30
0.0
 10
450.597862
 20
277.475570
 30
0.0
 10
449.842110
 20
278.096370
 30
0.0
 10
448.676669
 20
278.036963
 30
0.0
 10
446.945577
 20
277.252795
 30
0.0
 10
444.492892
 20
275.697824
 30
0.0
 10
441.162631
 20
273.326605
 30
0.0
 10
436.798842
 20
270.093890
 30
0.0
 10
432.131435
 20
266.725926
 30
0.0
 10
427.263570
 20
263.413210
 30
0.0
 10
422.400537
 20
260.277129
 30
0.0
 10
417.747615
 20
257.439073
 30
0.0
 10
413.510085
 20
255.020428
 30
0.0
 10
409.893217
 20
253.142582
 30
0.0
 10
407.102289
 20
251.926823
 30
0.0
 10
405.342593
 20
251.495134
 30
0.0
 10
405.086748
 20
251.707018
 30
0.0
 10
404.782685
 20
252.312967
 30
0.0
 10
404.441790
 20
253.271395
 30
0.0
 10
404.075349
 20
254.539530
 30
0.0
 10
403.694651
 20
256.074798
 30
0.0
 10
403.311082
 20
257.834721
 30
0.0
 10
402.935929
 20
259.776925
 30
0.0
 10
402.580478
 20
261.858734
 30
0.0
 10
402.241959
 20
264.513125
 30
0.0
 10
402.094829
 20
267.072267
 30
0.0
 10
402.142354
 20
269.557447
 30
0.0
 10
402.387110
 20
271.989558
 30
0.0
 10
402.832264
 20
274.389787
 30
0.0
 10
403.480886
 20
276.779323
 30
0.0
 10
404.335947
 20
279.179255
 30
0.0
 10
405.400515
 20
281.610574
 30
0.0
 10
406.585223
 20
284.234172
 30
0.0
 10
407.475433
 20
286.558856
 30
0.0
 10
408.078609
 20
288.660863
 30
0.0
 10
408.402178
 20
290.616136
 30
0.0
 10
408.453663
 20
292.500715
 30
0.0
 10
408.240393
 20
294.390838
 30
0.0
 10
407.769793
 20
296.362349
 30
0.0
 10
407.049289
 20
298.491485
 30
0.0
 10
406.201555
 20
300.833496
 30
0.0
 10
405.672142
 20
302.656787
 30
0.0
 10
405.503823
 20
304.046211
 30
0.0
 10
405.739668
 20
305.086719
 30
0.0
 10
406.422449
 20
305.862967
 30
0.0
 10
407.595147
 20
306.460004
 30
0.0
 10
409.300635
 20
306.962981
 30
0.0
 10
411.581823
 20
307.456057
 30
0.0
 10
412.501934
 20
307.640217
 30
0.0
 10
413.421945
 20
307.824378
 30
0.0
 10
414.342056
 20
308.008539
 30
0.0
 10
415.262167
 20
308.192700
 30
0.0
 10
416.182278
 20
308.376861
 30
0.0
 10
417.102389
 20
308.561021
 30
0.0
 10
418.022500
 20
308.745182
 30
0.0
 10
418.942611
 20
308.929343
 30
0.0
 10
418.882214
 20
312.789492
 30
0.0
 10
418.821817
 20
316.649542
 30
0.0
 10
418.761420
 20
320.509691
 30
0.0
 10
418.701024
 20
324.369840
 30
0.0
 10
418.640627
 20
328.229989
 30
0.0
 10
418.580230
 20
332.090039
 30
0.0
 10
418.519833
 20
335.950188
 30
0.0
 10
418.459436
 20
339.810337
 30
0.0
 10
418.408941
 20
346.485770
 30
0.0
 10
418.469337
 20
352.711494
 30
0.0
 10
418.633597
 20
358.395231
 30
0.0
 10
418.895977
 20
363.444999
 30
0.0
 10
419.250437
 20
367.768916
 30
0.0
 10
419.690838
 20
371.274605
 30
0.0
 10
420.211142
 20
373.870282
 30
0.0
 10
420.805308
 20
375.463669
 30
0.0
 10
421.690171
 20
376.597248
 30
0.0
 10
423.127536
 20
377.992712
 30
0.0
 10
425.042234
 20
379.595604
 30
0.0
 10
427.359037
 20
381.350973
 30
0.0
 10
430.002734
 20
383.204265
 30
0.0
 10
432.898128
 20
385.100626
 30
0.0
 10
435.969990
 20
386.985403
 30
0.0
 10
439.143110
 20
388.803941
 30
0.0
 10
445.594669
 20
392.644981
 30
0.0
 10
450.414018
 20
396.249087
 30
0.0
 10
453.648367
 20
399.808737
 30
0.0
 10
455.344973
 20
403.516409
 30
0.0
 10
455.551015
 20
407.564679
 30
0.0
 10
454.313791
 20
412.146124
 30
0.0
 10
451.680490
 20
417.453124
 30
0.0
 10
447.698349
 20
423.678254
 30
0.0
 10
441.944404
 20
431.480038
 30
0.0
 10
434.566942
 20
440.623622
 30
0.0
 10
426.030138
 20
450.601869
 30
0.0
 10
416.798128
 20
460.907448
 30
0.0
 10
407.335065
 20
471.033124
 30
0.0
 10
398.105114
 20
480.471563
 30
0.0
 10
389.572429
 20
488.715630
 30
0.0
 10
382.201165
 20
495.257893
 30
0.0
 10
375.780587
 20
500.409544
 30
0.0
 10
370.209812
 20
504.411180
 30
0.0
 10
365.312422
 20
507.320524
 30
0.0
 10
360.911989
 20
509.195202
 30
0.0
 10
356.832104
 20
510.093233
 30
0.0
 10
352.896331
 20
510.073431
 30
0.0
 10
348.928259
 20
509.190251
 30
0.0
 10
344.751473
 20
507.503398
 30
0.0
 10
336.623100
 20
502.264122
 30
0.0
 10
325.865753
 20
493.388562
 30
0.0
 10
313.400215
 20
481.831284
 30
0.0
 10
300.147242
 20
468.546854
 30
0.0
 10
287.027607
 20
454.489940
 30
0.0
 10
274.962074
 20
440.615206
 30
0.0
 10
264.871409
 20
427.877021
 30
0.0
 10
257.676385
 20
417.230051
 30
0.0
 10
255.692132
 20
413.773868
 30
0.0
 10
254.223460
 20
410.986109
 30
0.0
 10
253.246813
 20
408.720733
 30
0.0
 10
252.738688
 20
406.831402
 30
0.0
 10
252.675321
 20
405.172074
 30
0.0
 10
253.033642
 20
403.596608
 30
0.0
 10
253.789890
 20
401.958765
 30
0.0
 10
254.920498
 20
400.112503
 30
0.0
 10
255.934125
 20
398.814071
 30
0.0
 10
257.347837
 20
397.369002
 30
0.0
 10
259.097216
 20
395.825616
 30
0.0
 10
261.117856
 20
394.232229
 30
0.0
 10
263.345340
 20
392.637258
 30
0.0
 10
265.715262
 20
391.088921
 30
0.0
 10
268.163204
 20
389.635635
 30
0.0
 10
270.624761
 20
388.325816
 30
0.0
 10
276.624938
 20
385.203597
 30
0.0
 10
281.213571
 20
382.286134
 30
0.0
 10
284.601714
 20
379.094013
 30
0.0
 10
287.000428
 20
375.148319
 30
0.0
 10
288.620776
 20
369.969737
 30
0.0
 10
289.673809
 20
363.079351
 30
0.0
 10
290.370551
 20
353.997748
 30
0.0
 10
290.922142
 20
342.245913
 30
0.0
 10
291.365415
 20
331.972315
 30
0.0
 10
291.788094
 20
324.185580
 30
0.0
 10
292.277506
 20
318.516398
 30
0.0
 10
292.920881
 20
314.595456
 30
0.0
 10
293.805645
 20
312.053542
 30
0.0
 10
295.019067
 20
310.521146
 30
0.0
 10
296.648474
 20
309.629055
 30
0.0
 10
298.781185
 20
309.008255
 30
0.0
 10
300.182609
 20
308.582507
 30
0.0
 10
301.402516
 20
308.064678
 30
0.0
 10
302.429222
 20
307.465661
 30
0.0
 10
303.251114
 20
306.797335
 30
0.0
 10
303.856468
 20
306.071583
 30
0.0
 10
304.233503
 20
305.298306
 30
0.0
 10
304.370633
 20
304.490375
 30
0.0
 10
304.256176
 20
303.658681
 30
0.0
 10
303.314778
 20
299.980316
 30
0.0
 10
302.620017
 20
296.344725
 30
0.0
 10
302.174268
 20
292.865373
 30
0.0
 10
301.980107
 20
289.655430
 30
0.0
 10
302.040504
 20
286.828364
 30
0.0
 10
302.357142
 20
284.497641
 30
0.0
 10
302.932892
 20
282.776430
 30
0.0
 10
303.770328
 20
281.778200
 30
0.0
 10
305.142594
 20
279.723322
 30
0.0
 10
306.080923
 20
275.939213
 30
0.0
 10
306.596573
 20
271.043407
 30
0.0
 10
306.700634
 20
265.653238
 30
0.0
 10
306.404194
 20
260.386141
 30
0.0
 10
305.718443
 20
255.859448
 30
0.0
 10
304.654558
 20
252.690695
 30
0.0
 10
303.223658
 20
251.497214
 30
0.0
 10
300.737784
 20
252.133856
 30
0.0
 10
296.902972
 20
253.886552
 30
0.0
 10
292.096425
 20
256.517081
 30
0.0
 10
286.695375
 20
259.787816
 30
0.0
 10
281.077025
 20
263.461032
 30
0.0
 10
275.618588
 20
267.299101
 30
0.0
 10
270.697277
 20
271.064200
 30
0.0
 10
266.690314
 20
274.518700
 30
0.0
 10
265.789807
 20
275.365245
 30
0.0
 10
264.889301
 20
276.211791
 30
0.0
 10
263.988794
 20
277.058337
 30
0.0
 10
263.088287
 20
277.904882
 30
0.0
 10
262.187780
 20
278.751428
 30
0.0
 10
261.287274
 20
279.597973
 30
0.0
 10
260.386767
 20
280.444519
 30
0.0
 10
259.486260
 20
281.291065
 30
0.0
 10
259.486260
 20
279.945107
 30
0.0
 10
259.486260
 20
278.599149
 30
0.0
 10
259.486260
 20
277.253191
 30
0.0
 10
259.486260
 20
275.907233
 30
0.0
 10
259.486260
 20
274.561374
 30
0.0
 10
259.486260
 20
273.215416
 30
0.0
 10
259.486260
 20
271.869458
 30
0.0
 10
259.486260
 20
270.523500
 30
0.0
 10
259.546657
 20
267.038801
 30
0.0
 10
259.850721
 20
264.217180
 30
0.0
 10
260.583898
 20
261.822892
 30
0.0
 10
261.931421
 20
259.619893
 30
0.0
 10
264.078498
 20
257.372438
 30
0.0
 10
267.210340
 20
254.844683
 30
0.0
 10
271.512178
 20
251.800782
 30
0.0
 10
277.169222
 20
248.004792
 30
0.0
 10
280.874626
 20
245.574464
 30
0.0
 10
284.627823
 20
243.172255
 30
0.0
 10
288.325495
 20
240.860442
 30
0.0
 10
291.864283
 20
238.701207
 30
0.0
 10
295.140860
 20
236.756825
 30
0.0
 10
298.051888
 20
235.089378
 30
0.0
 10
300.494009
 20
233.761242
 30
0.0
 10
302.363904
 20
232.834497
 30
0.0
 10
304.718994
 20
231.812008
 30
0.0
 10
306.639356
 20
231.147643
 30
0.0
 10
308.251347
 20
230.877343
 30
0.0
 10
309.681316
 20
231.035761
 30
0.0
 10
311.055601
 20
231.657551
 30
0.0
 10
312.500550
 20
232.779051
 30
0.0
 10
314.142512
 20
234.434815
 30
0.0
 10
316.107845
 20
236.660091
 30
0.0
 10
317.393475
 20
238.326548
 30
0.0
 10
318.658115
 20
240.289445
 30
0.0
 10
319.869418
 20
242.476404
 30
0.0
 10
320.995046
 20
244.815345
 30
0.0
 10
322.002644
 20
247.234287
 30
0.0
 10
322.859882
 20
249.660853
 30
0.0
 10
323.534347
 20
252.023062
 30
0.0
 10
323.993758
 20
254.248734
 30
0.0
 10
324.695847
 20
257.572045
 30
0.0
 10
325.610611
 20
260.419606
 30
0.0
 10
326.641525
 20
262.680725
 30
0.0
 10
327.692064
 20
264.244804
 30
0.0
 10
328.665740
 20
265.001250
 30
0.0
 10
329.465948
 20
264.838872
 30
0.0
 10
329.996252
 20
263.647965
 30
0.0
 10
330.160016
 20
261.317242
 30
0.0
 10
329.743575
 20
259.136719
 30
0.0
 10
328.650274
 20
255.912419
 30
0.0
 10
327.036026
 20
251.970982
 30
0.0
 10
325.056743
 20
247.638748
 30
0.0
 10
322.868358
 20
243.241958
 30
0.0
 10
320.626814
 20
239.107152
 30
0.0
 10
318.488024
 20
235.560572
 30
0.0
 10
316.607930
 20
232.928756
 30
0.0
 10
312.465669
 20
228.867812
 30
0.0
 10
307.662795
 20
225.815792
 30
0.0
 10
302.383924
 20
223.787746
 30
0.0
 10
296.813684
 20
222.798625
 30
0.0
 10
291.136690
 20
222.867932
 30
0.0
 10
285.537558
 20
224.002997
 30
0.0
 10
280.200915
 20
226.222629
 30
0.0
 10
275.311356
 20
229.542078
 30
0.0
 10
270.066853
 20
234.235307
 30
0.0
 10
266.009691
 20
238.794673
 30
0.0
 10
262.989434
 20
243.804144
 30
0.0
 10
260.855644
 20
249.847192
 30
0.0
 10
259.457904
 20
257.507787
 30
0.0
 10
258.645715
 20
267.369498
 30
0.0
 10
258.268779
 20
280.016197
 30
0.0
 10
258.176699
 20
296.031552
 30
0.0
 10
258.157887
 20
310.146587
 30
0.0
 10
258.047093
 20
320.970093
 30
0.0
 10
257.762535
 20
329.125248
 30
0.0
 10
257.222429
 20
335.235228
 30
0.0
 10
256.344992
 20
339.923011
 30
0.0
 10
255.048371
 20
343.811775
 30
0.0
 10
253.250803
 20
347.524793
 30
0.0
 10
250.870515
 20
351.685045
 30
0.0
 10
249.247237
 20
354.262207
 30
0.0
 10
247.431926
 20
356.822141
 30
0.0
 10
245.485842
 20
359.297619
 30
0.0
 10
243.470231
 20
361.621411
 30
0.0
 10
241.446354
 20
363.726587
 30
0.0
 10
239.475437
 20
365.545818
 30
0.0
 10
237.618760
 20
367.011976
 30
0.0
 10
235.937550
 20
368.057930
 30
0.0
 10
232.193580
 20
369.619435
 30
0.0
 10
227.897842
 20
370.776282
 30
0.0
 10
223.231257
 20
371.523816
 30
0.0
 10
218.374709
 20
371.857484
 30
0.0
 10
213.509111
 20
371.768374
 30
0.0
 10
208.815357
 20
371.260447
 30
0.0
 10
204.474350
 20
370.324791
 30
0.0
 10
200.666994
 20
368.956853
 30
0.0
 10
198.215359
 20
367.634261
 30
0.0
 10
196.274423
 20
366.203946
 30
0.0
 10
194.894434
 20
364.794224
 30
0.0
 10
194.125613
 20
363.534010
 30
0.0
 10
194.018284
 20
362.551819
 30
0.0
 10
194.622649
 20
361.976564
 30
0.0
 10
195.988953
 20
361.936960
 30
0.0
 10
198.167447
 20
362.560730
 30
0.0
 10
204.295002
 20
364.503033
 30
0.0
 10
210.201375
 20
365.551660
 30
0.0
 10
215.863161
 20
365.712058
 30
0.0
 10
221.256954
 20
364.989276
 30
0.0
 10
226.359356
 20
363.388068
 30
0.0
 10
231.146973
 20
360.913877
 30
0.0
 10
235.596397
 20
357.572052
 30
0.0
 10
239.684222
 20
353.367641
 30
0.0
 10
242.928808
 20
349.052140
 30
0.0
 10
245.561397
 20
344.532378
 30
0.0
 10
247.587572
 20
339.782812
 30
0.0
 10
249.012917
 20
334.778093
 30
0.0
 10
249.843027
 20
329.492678
 30
0.0
 10
250.083426
 20
323.901121
 30
0.0
 10
249.739758
 20
317.977975
 30
0.0
 10
248.817568
 20
311.697696
 30
0.0
 10
247.205458
 20
301.853311
 30
0.0
 10
245.942422
 20
291.621792
 30
0.0
 10
245.041024
 20
281.363739
 30
0.0
 10
244.513789
 20
271.439551
 30
0.0
 10
244.373392
 20
262.210026
 30
0.0
 10
244.632306
 20
254.035365
 30
0.0
 10
245.303107
 20
247.276367
 30
0.0
 10
246.398418
 20
242.293530
 30
0.0
 10
248.496247
 20
237.286337
 30
0.0
 10
251.479355
 20
232.091319
 30
0.0
 10
255.189967
 20
226.880460
 30
0.0
 10
259.470320
 20
221.825741
 30
0.0
 10
264.162638
 20
217.099145
 30
0.0
 10
269.109147
 20
212.872754
 30
0.0
 10
274.152094
 20
209.318351
 30
0.0
 10
279.133693
 20
206.608118
 30
0.0
 10
283.391005
 20
204.773639
 30
0.0
 10
287.170104
 20
203.412829
 30
0.0
 10
290.652832
 20
202.512817
 30
0.0
 10
294.021074
 20
202.062317
 30
0.0
 10
297.456692
 20
202.052415
 30
0.0
 10
301.141552
 20
202.461332
 30
0.0
 10
305.257526
 20
203.282134
 30
0.0
 10
309.986468
 20
204.501952
 30
0.0
 10
309.986528
 20
204.501952
 30
0.0
 10
309.986587
 20
204.501952
 30
0.0
 10
309.986656
 20
204.501952
 30
0.0
 10
309.986716
 20
204.501952
 30
0.0
 10
309.986775
 20
204.501952
 30
0.0
 10
309.986835
 20
204.501952
 30
0.0
 10
309.986904
 20
204.501952
 30
0.0
  0
LWPOLYLINE
  5
121
100
AcDbEntity
  8
Layer_1
 62
7
100
AcDbPolyline
 90
32
 70
1
 10
400.948566
 20
226.607288
 30
0.0
 10
399.240554
 20
227.613538
 30
0.0
 10
397.969646
 20
228.437311
 30
0.0
 10
397.128051
 20
229.094746
 30
0.0
 10
396.708046
 20
229.601683
 30
0.0
 10
396.701818
 20
229.973965
 30
0.0
 10
397.101625
 20
230.228424
 30
0.0
 10
397.899655
 20
230.379911
 30
0.0
 10
399.088146
 20
230.449219
 30
0.0
 10
401.932579
 20
230.898729
 30
0.0
 10
405.682934
 20
232.098745
 30
0.0
 10
410.179725
 20
233.967977
 30
0.0
 10
415.263494
 20
236.425038
 30
0.0
 10
420.774753
 20
239.388245
 30
0.0
 10
426.554056
 20
242.776111
 30
0.0
 10
432.441904
 20
246.506951
 30
0.0
 10
438.278851
 20
250.499280
 30
0.0
 10
442.857059
 20
253.641895
 30
0.0
 10
446.304955
 20
255.709644
 30
0.0
 10
448.660421
 20
256.665102
 30
0.0
 10
449.961349
 20
256.470050
 30
0.0
 10
450.245610
 20
255.087161
 30
0.0
 10
449.551047
 20
252.478712
 30
0.0
 10
447.915629
 20
248.606780
 30
0.0
 10
445.377201
 20
243.433941
 30
0.0
 10
441.446120
 20
237.150691
 30
0.0
 10
436.699801
 20
231.928842
 30
0.0
 10
431.314078
 20
227.834828
 30
0.0
 10
425.464784
 20
224.935187
 30
0.0
 10
419.327755
 20
223.296750
 30
0.0
 10
413.078812
 20
222.985855
 30
0.0
 10
406.893782
 20
224.069136
 30
0.0
  0
LWPOLYLINE
  5
122
100
AcDbEntity
  8
Layer_1
 62
7
100
AcDbPolyline
 90
32
 70
1
 10
387.850179
 20
241.015494
 30
0.0
 10
387.313637
 20
242.067983
 30
0.0
 10
386.864820
 20
243.050174
 30
0.0
 10
386.509766
 20
243.940284
 30
0.0
 10
386.254614
 20
244.716532
 30
0.0
 10
386.105602
 20
245.358124
 30
0.0
 10
386.068968
 20
245.842289
 30
0.0
 10
386.150157
 20
246.149224
 30
0.0
 10
386.356001
 20
246.256156
 30
0.0
 10
386.676500
 20
246.149224
 30
0.0
 10
387.086110
 20
245.842289
 30
0.0
 10
387.567898
 20
245.358124
 30
0.0
 10
388.105034
 20
244.716532
 30
0.0
 10
388.680685
 20
243.940284
 30
0.0
 10
389.278019
 20
243.050174
 30
0.0
 10
389.880106
 20
242.067983
 30
0.0
 10
390.470114
 20
241.015494
 30
0.0
 10
391.006655
 20
239.963005
 30
0.0
 10
391.455473
 20
238.980814
 30
0.0
 10
391.810527
 20
238.090704
 30
0.0
 10
392.065679
 20
237.314456
 30
0.0
 10
392.214691
 20
236.672863
 30
0.0
 10
392.251325
 20
236.188699
 30
0.0
 10
392.170136
 20
235.881764
 30
0.0
 10
391.964292
 20
235.774832
 30
0.0
 10
391.643792
 20
235.881764
 30
0.0
 10
391.234183
 20
236.188699
 30
0.0
 10
390.752395
 20
236.672863
 30
0.0
 10
390.215259
 20
237.314456
 30
0.0
 10
389.639608
 20
238.090704
 30
0.0
 10
389.042274
 20
238.980814
 30
0.0
 10
388.440187
 20
239.963005
 30
0.0
  0
LWPOLYLINE
  5
123
100
AcDbEntity
  8
Layer_1
 62
7
100
AcDbPolyline
 90
32
 70
1
 10
381.796437
 20
255.077953
 30
0.0
 10
381.411977
 20
256.616488
 30
0.0
 10
381.109993
 20
258.108586
 30
0.0
 10
380.893059
 20
259.517417
 30
0.0
 10
380.763751
 20
260.806344
 30
0.0
 10
380.724146
 20
261.938636
 30
0.0
 10
380.777612
 20
262.877262
 30
0.0
 10
380.926525
 20
263.586182
 30
0.0
 10
381.173261
 20
264.028762
 30
0.0
 10
382.147234
 20
264.729761
 30
0.0
 10
383.007344
 20
264.818871
 30
0.0
 10
383.735076
 20
264.334707
 30
0.0
 10
384.311915
 20
263.328060
 30
0.0
 10
384.719346
 20
261.845763
 30
0.0
 10
384.938953
 20
259.934452
 30
0.0
 10
384.951825
 20
257.641056
 30
0.0
 10
384.740139
 20
255.012309
 30
0.0
 10
384.629642
 20
254.081604
 30
0.0
 10
384.519146
 20
253.150898
 30
0.0
 10
384.408649
 20
252.220193
 30
0.0
 10
384.298153
 20
251.289488
 30
0.0
 10
384.187656
 20
250.358783
 30
0.0
 10
384.077160
 20
249.428078
 30
0.0
 10
383.966663
 20
248.497373
 30
0.0
 10
383.856167
 20
247.566668
 30
0.0
 10
383.598639
 20
248.506284
 30
0.0
 10
383.341111
 20
249.445900
 30
0.0
 10
383.083583
 20
250.385516
 30
0.0
 10
382.826054
 20
251.325132
 30
0.0
 10
382.568526
 20
252.264748
 30
0.0
 10
382.310998
 20
253.204365
 30
0.0
 10
382.053470
 20
254.143981
 30
0.0
  0
LWPOLYLINE
  5
124
100
AcDbEntity
  8
Layer_1
 62
7
100
AcDbPolyline
 90
32
 70
1
 10
311.981771
 20
280.804524
 30
0.0
 10
309.942379
 20
283.372082
 30
0.0
 10
308.401002
 20
286.107068
 30
0.0
 10
307.366306
 20
288.917203
 30
0.0
 10
306.846893
 20
291.710605
 30
0.0
 10
306.851507
 20
294.395096
 30
0.0
 10
307.388742
 20
296.878593
 30
0.0
 10
308.467280
 20
299.069116
 30
0.0
 10
310.095747
 20
300.874486
 30
0.0
 10
311.134810
 20
301.497267
 30
0.0
 10
312.298548
 20
301.695289
 30
0.0
 10
313.638922
 20
301.438850
 30
0.0
 10
315.207922
 20
300.697256
 30
0.0
 10
317.057510
 20
299.439913
 30
0.0
 10
319.239667
 20
297.636623
 30
0.0
 10
321.806374
 20
295.256889
 30
0.0
 10
324.809601
 20
292.270514
 30
0.0
 10
327.035026
 20
289.907612
 30
0.0
 10
329.041329
 20
287.590354
 30
0.0
 10
330.789569
 20
285.377355
 30
0.0
 10
332.240845
 20
283.327428
 30
0.0
 10
333.356246
 20
281.499483
 30
0.0
 10
334.096850
 20
279.952136
 30
0.0
 10
334.423686
 20
278.744398
 30
0.0
 10
334.297941
 20
277.935477
 30
0.0
 10
332.691505
 20
276.385655
 30
0.0
 10
330.314811
 20
275.437127
 30
0.0
 10
327.383971
 20
275.060885
 30
0.0
 10
324.115097
 20
275.230194
 30
0.0
 10
320.724320
 20
275.917332
 30
0.0
 10
317.427753
 20
277.093981
 30
0.0
 10
314.441506
 20
278.732418
 30
0.0
  0
LWPOLYLINE
  5
125
100
AcDbEntity
  8
Layer_1
 62
7
100
AcDbPolyline
 90
24
 70
1
 10
375.910618
 20
277.935279
 30
0.0
 10
376.093096
 20
280.189664
 30
0.0
 10
378.094261
 20
283.689809
 30
0.0
 10
381.394432
 20
287.910853
 30
0.0
 10
385.473920
 20
292.327742
 30
0.0
 10
389.813026
 20
296.415419
 30
0.0
 10
393.892059
 20
299.649025
 30
0.0
 10
397.191329
 20
301.503405
 30
0.0
 10
399.191138
 20
301.453900
 30
0.0
 10
400.440510
 20
299.625757
 30
0.0
 10
401.217748
 20
297.233152
 30
0.0
 10
401.540227
 20
294.440542
 30
0.0
 10
401.425374
 20
291.412087
 30
0.0
 10
400.890516
 20
288.311948
 30
0.0
 10
399.953177
 20
285.304384
 30
0.0
 10
398.630734
 20
282.553655
 30
0.0
 10
396.940584
 20
280.224021
 30
0.0
 10
394.714872
 20
278.341522
 30
0.0
 10
391.944648
 20
276.868433
 30
0.0
 10
388.844578
 20
275.828024
 30
0.0
 10
385.629378
 20
275.243858
 30
0.0
 10
382.513694
 20
275.138906
 30
0.0
 10
379.712242
 20
275.536931
 30
0.0
 10
377.439678
 20
276.461695
 30
0.0
  0
LWPOLYLINE
  5
126
100
AcDbEntity
  8
Layer_1
 62
7
100
AcDbPolyline
 90
48
 70
1
 10
239.457863
 20
305.963166
 30
0.0
 10
236.664609
 20
310.270351
 30
0.0
 10
233.803453
 20
315.467546
 30
0.0
 10
231.010110
 20
321.222373
 30
0.0
 10
228.420324
 20
327.202451
 30
0.0
 10
226.169780
 20
333.075497
 30
0.0
 10
224.394222
 20
338.509033
 30
0.0
 10
223.229365
 20
343.170875
 30
0.0
 10
222.810944
 20
346.728644
 30
0.0
 10
222.686190
 20
350.193243
 30
0.0
 10
222.311928
 20
353.196748
 30
0.0
 10
221.688454
 20
355.738959
 30
0.0
 10
220.815770
 20
357.819580
 30
0.0
 10
219.694082
 20
359.438314
 30
0.0
 10
218.323520
 20
360.594863
 30
0.0
 10
216.704251
 20
361.288932
 30
0.0
 10
214.836395
 20
361.520618
 30
0.0
 10
213.482447
 20
361.441409
 30
0.0
 10
212.435533
 20
361.152296
 30
0.0
 10
211.674533
 20
360.596843
 30
0.0
 10
211.178388
 20
359.714654
 30
0.0
 10
210.926008
 20
358.444439
 30
0.0
 10
210.896305
 20
356.725605
 30
0.0
 10
211.067990
 20
354.497557
 30
0.0
 10
211.420173
 20
351.699501
 30
0.0
 10
213.026540
 20
342.450074
 30
0.0
 10
215.236183
 20
333.006684
 30
0.0
 10
217.949050
 20
323.636662
 30
0.0
 10
221.065080
 20
314.607040
 30
0.0
 10
224.484223
 20
306.185149
 30
0.0
 10
228.106419
 20
298.638022
 30
0.0
 10
231.831635
 20
292.232988
 30
0.0
 10
235.559792
 20
287.237082
 30
0.0
 10
236.930701
 20
285.718251
 30
0.0
 10
238.010725
 20
284.684574
 30
0.0
 10
238.868261
 20
284.170706
 30
0.0
 10
239.571834
 20
284.210310
 30
0.0
 10
240.189763
 20
284.841012
 30
0.0
 10
240.790563
 20
286.096473
 30
0.0
 10
241.442651
 20
288.011251
 30
0.0
 10
242.214443
 20
290.620096
 30
0.0
 10
242.809401
 20
292.940126
 30
0.0
 10
243.161584
 20
295.002232
 30
0.0
 10
243.258615
 20
296.877999
 30
0.0
 10
243.086830
 20
298.638715
 30
0.0
 10
242.633755
 20
300.356163
 30
0.0
 10
241.886518
 20
302.101829
 30
0.0
 10
240.832356
 20
303.947199
 30
0.0
  0
LWPOLYLINE
  5
127
100
AcDbEntity
  8
Layer_1
 62
7
100
AcDbPolyline
 90
56
 70
1
 10
223.223197
 20
397.021770
 30
0.0
 10
226.518061
 20
409.807777
 30
0.0
 10
231.352540
 20
422.592101
 30
0.0
 10
237.537521
 20
435.096421
 30
0.0
 10
244.883953
 20
447.042417
 30
0.0
 10
253.202724
 20
458.151868
 30
0.0
 10
262.304752
 20
468.146453
 30
0.0
 10
272.000967
 20
476.747950
 30
0.0
 10
282.102276
 20
483.677941
 30
0.0
 10
286.083704
 20
486.142725
 30
0.0
 10
289.222289
 20
488.365328
 30
0.0
 10
291.501021
 20
490.319215
 30
0.0
 10
292.902901
 20
491.977751
 30
0.0
 10
293.410927
 20
493.314006
 30
0.0
 10
293.008051
 20
494.301148
 30
0.0
 10
291.677281
 20
494.913037
 30
0.0
 10
289.401608
 20
495.122941
 30
0.0
 10
285.753254
 20
494.272435
 30
0.0
 10
280.805368
 20
491.896760
 30
0.0
 10
274.908242
 20
488.260575
 30
0.0
 10
268.412188
 20
483.628237
 30
0.0
 10
261.667506
 20
478.264406
 30
0.0
 10
255.024490
 20
472.433340
 30
0.0
 10
248.833449
 20
466.399599
 30
0.0
 10
243.444677
 20
460.427640
 30
0.0
 10
237.987646
 20
453.573789
 30
0.0
 10
233.078443
 20
446.772810
 30
0.0
 10
228.690159
 20
439.974009
 30
0.0
 10
224.795861
 20
433.126693
 30
0.0
 10
221.368648
 20
426.180068
 30
0.0
 10
218.381590
 20
419.083640
 30
0.0
 10
215.807794
 20
411.786516
 30
0.0
 10
213.620330
 20
404.238002
 30
0.0
 10
211.878575
 20
397.080880
 30
0.0
 10
210.657430
 20
390.963375
 30
0.0
 10
209.957520
 20
385.859349
 30
0.0
 10
209.779399
 20
381.742662
 30
0.0
 10
210.123661
 20
378.587175
 30
0.0
 10
210.990900
 20
376.366750
 30
0.0
 10
212.381700
 20
375.055347
 30
0.0
 10
214.296676
 20
374.626629
 30
0.0
 10
215.590900
 20
374.856335
 30
0.0
 10
216.750361
 20
375.609810
 30
0.0
 10
217.816959
 20
376.992600
 30
0.0
 10
218.832566
 20
379.109459
 30
0.0
 10
219.839074
 20
382.065636
 30
0.0
 10
220.878355
 20
385.966182
 30
0.0
 10
221.992320
 20
390.916147
 30
0.0
 10
223.222831
 20
397.020681
 30
0.0
 10
223.222890
 20
397.020681
 30
0.0
 10
223.222959
 20
397.020681
 30
0.0
 10
223.223019
 20
397.020681
 30
0.0
 10
223.223078
 20
397.020681
 30
0.0
 10
223.223138
 20
397.020681
 30
0.0
 10
223.223207
 20
397.020681
 30
0.0
 10
223.223266
 20
397.020681
 30
0.0
  0
LWPOLYLINE
  5
128
100
AcDbEntity
  8
Layer_1
 62
7
100
AcDbPolyline
 90
48
 70
1
 10
499.038845
 20
387.062136
 30
0.0
 10
497.800206
 20
393.886977
 30
0.0
 10
495.977311
 20
401.415589
 30
0.0
 10
493.678241
 20
409.342326
 30
0.0
 10
491.011108
 20
417.361340
 30
0.0
 10
488.083981
 20
425.166887
 30
0.0
 10
485.004971
 20
432.453318
 30
0.0
 10
481.882158
 20
438.914788
 30
0.0
 10
478.823633
 20
444.245451
 30
0.0
 10
472.885260
 20
452.469715
 30
0.0
 10
465.529689
 20
461.067351
 30
0.0
 10
457.275008
 20
469.585580
 30
0.0
 10
448.639302
 20
477.570931
 30
0.0
 10
440.140677
 20
484.570626
 30
0.0
 10
432.297210
 20
490.131292
 30
0.0
 10
425.626994
 20
493.800052
 30
0.0
 10
420.648128
 20
495.123634
 30
0.0
 10
418.443753
 20
494.912740
 30
0.0
 10
417.161350
 20
494.299861
 30
0.0
 10
416.782533
 20
493.313709
 30
0.0
 10
417.288976
 20
491.982999
 30
0.0
 10
418.662330
 20
490.337235
 30
0.0
 10
420.884220
 20
488.405329
 30
0.0
 10
423.936280
 20
486.216489
 30
0.0
 10
427.800151
 20
483.799824
 30
0.0
 10
438.949078
 20
476.040218
 30
0.0
 10
449.551235
 20
466.412569
 30
0.0
 10
459.381085
 20
455.266187
 30
0.0
 10
468.213080
 20
442.950186
 30
0.0
 10
475.821674
 20
429.813779
 30
0.0
 10
481.981328
 20
416.206078
 30
0.0
 10
486.466495
 20
402.476197
 30
0.0
 10
489.051637
 20
388.973547
 30
0.0
 10
489.569565
 20
384.959436
 30
0.0
 10
490.105116
 20
381.738701
 30
0.0
 10
490.695619
 20
379.231837
 30
0.0
 10
491.378400
 20
377.359139
 30
0.0
 10
492.190688
 20
376.041103
 30
0.0
 10
493.169809
 20
375.198517
 30
0.0
 10
494.353062
 20
374.750987
 30
0.0
 10
495.777724
 20
374.619302
 30
0.0
 10
497.279437
 20
374.698511
 30
0.0
 10
498.415976
 20
374.997525
 30
0.0
 10
499.213610
 20
375.618325
 30
0.0
 10
499.698666
 20
376.661705
 30
0.0
 10
499.897381
 20
378.227666
 30
0.0
 10
499.835994
 20
380.416605
 30
0.0
 10
499.540941
 20
383.328623
 30
0.0
  0
ENDSEC
  0
SECTION
  2
OBJECTS
  0
DICTIONARY
  5
C
330
0
100
AcDbDictionary
  3
ACAD_GROUP
350
D
  3
ACAD_MLINESTYLE
350
17
  0
DICTIONARY
  5
D
330
C
100
AcDbDictionary
  0
DICTIONARY
  5
1A
330
C
100
AcDbDictionary
  0
DICTIONARY
  5
17
330
C
100
AcDbDictionary
  3
STANDARD
350
18
  0
DICTIONARY
  5
19
330
C
100
AcDbDictionary
  0
ENDSEC
  0
EOF
