  0
SECTION
  2
HEADER
  9
$ACADVER
  1
AC1014
  9
$HANDSEED
  5
FFFF
  9
$MEASUREMENT
 70
     1
  0
ENDSEC
  0
SECTION
  2
TABLES
  0
TABLE
  2
VPORT
  5
8
330
0
100
AcDbSymbolTable
 70
     4
  0
VPORT
  5
2E
330
8
100
AcDbSymbolTableRecord
100
AcDbViewportTableRecord
  2
*ACTIVE
 70
     0
 10
0.0
 20
0.0
 11
1.0
 21
1.0
 12
210.0
 22
148.5
 13
0.0
 23
0.0
 14
10.0
 24
10.0
 15
10.0
 25
10.0
 16
0.0
 26
0.0
 36
1.0
 17
0.0
 27
0.0
 37
0.0
 40
341.0
 41
1.24
 42
50.0
 43
0.0
 44
0.0
 50
0.0
 51
0.0
 71
     0
 72
   100
 73
     1
 74
     3
 75
     0
 76
     0
 77
     0
 78
     0
  0
ENDTAB
  0
TABLE
  2
LTYPE
  5
5
330
0
100
AcDbSymbolTable
 70
     1
  0
LTYPE
  5
14
330
5
100
AcDbSymbolTableRecord
100
AcDbLinetypeTableRecord
  2
BYBLOCK
 70
     0
  3

 72
    65
 73
     0
 40
0.0
  0
LTYPE
  5
15
330
5
100
AcDbSymbolTableRecord
100
AcDbLinetypeTableRecord
  2
BYLAYER
 70
     0
  3

 72
    65
 73
     0
 40
0.0
  0
LTYPE
  5
16
330
5
100
AcDbSymbolTableRecord
100
AcDbLinetypeTableRecord
  2
CONTINUOUS
 70
     0
  3
Solid line
 72
    65
 73
     0
 40
0.0
  0
ENDTAB
  0
TABLE
  2
LAYER
  5
2
100
AcDbSymbolTable
 70
2
  0
LAYER
  5
50
100
AcDbSymbolTableRecord
100
AcDbLayerTableRecord
  2
0
 70
0
  6
CONTINUOUS
  0
LAYER
  5
51
100
AcDbSymbolTableRecord
100
AcDbLayerTableRecord
  2
Layer_1
 70
0
  6
CONTINUOUS
  0
ENDTAB
  0
TABLE
  2
STYLE
  5
3
330
0
100
AcDbSymbolTable
 70
     1
  0
STYLE
  5
11
330
3
100
AcDbSymbolTableRecord
100
AcDbTextStyleTableRecord
  2
STANDARD
 70
     0
 40
0.0
 41
1.0
 50
0.0
 71
     0
 42
2.5
  3
txt
  4

  0
ENDTAB
  0
TABLE
  2
VIEW
  5
6
330
0
100
AcDbSymbolTable
 70
     0
  0
ENDTAB
  0
TABLE
  2
UCS
  5
7
330
0
100
AcDbSymbolTable
 70
     0
  0
ENDTAB
  0
TABLE
  2
APPID
  5
9
330
0
100
AcDbSymbolTable
 70
     2
  0
APPID
  5
12
330
9
100
AcDbSymbolTableRecord
100
AcDbRegAppTableRecord
  2
ACAD
 70
     0
  0
ENDTAB
  0
TABLE
  2
DIMSTYLE
  5
A
330
0
100
AcDbSymbolTable
 70
     1
  0
DIMSTYLE
105
27
330
A
100
AcDbSymbolTableRecord
100
AcDbDimStyleTableRecord
  2
ISO-25
 70
     0
  3

  4

  5

  6

  7

 40
1.0
 41
2.5
 42
0.625
 43
3.75
 44
1.25
 45
0.0
 46
0.0
 47
0.0
 48
0.0
140
2.5
141
2.5
142
0.0
143
0.03937007874016
144
1.0
145
0.0
146
1.0
147
0.625
 71
     0
 72
     0
 73
     0
 74
     0
 75
     0
 76
     0
 77
     1
 78
     8
170
     0
171
     3
172
     1
173
     0
174
     0
175
     0
176
     0
177
     0
178
     0
270
     2
271
     2
272
     2
273
     2
274
     3
340
11
275
     0
280
     0
281
     0
282
     0
283
     0
284
     8
285
     0
286
     0
287
     3
288
     0
  0
ENDTAB
  0
TABLE
  2
BLOCK_RECORD
  5
1
330
0
100
AcDbSymbolTable
 70
     1
  0
BLOCK_RECORD
  5
1F
330
1
100
AcDbSymbolTableRecord
100
AcDbBlockTableRecord
  2
*MODEL_SPACE
  0
BLOCK_RECORD
  5
1B
330
1
100
AcDbSymbolTableRecord
100
AcDbBlockTableRecord
  2
*PAPER_SPACE
  0
ENDTAB
  0
ENDSEC
  0
SECTION
  2
BLOCKS
  0
BLOCK
  5
20
330
1F
100
AcDbEntity
  8
0
100
AcDbBlockBegin
  2
*MODEL_SPACE
 70
     0
 10
0.0
 20
0.0
 30
0.0
  3
*MODEL_SPACE
  1

  0
ENDBLK
  5
21
330
1F
100
AcDbEntity
  8
0
100
AcDbBlockEnd
  0
BLOCK
  5
1C
330
1B
100
AcDbEntity
 67
     1
  8
0
100
AcDbBlockBegin
  2
*PAPER_SPACE
  1

  0
ENDBLK
  5
1D
330
1B
100
AcDbEntity
 67
     1
  8
0
100
AcDbBlockEnd
  0
ENDSEC
  0
SECTION
  2
ENTITIES
  0
LWPOLYLINE
  5
100
100
AcDbEntity
  8
Layer_1
 62
5
100
AcDbPolyline
 90
24
 70
1
 10
299.810690
 20
660.679079
 30
0.0
 10
285.468532
 20
660.138908
 30
0.0
 10
271.204295
 20
658.688460
 30
0.0
 10
257.061220
 20
656.333521
 30
0.0
 10
243.082576
 20
653.079856
 30
0.0
 10
249.991733
 20
642.487825
 30
0.0
 10
255.640750
 20
631.218393
 30
0.0
 10
259.981377
 20
619.383250
 30
0.0
 10
262.965307
 20
607.094084
 30
0.0
 10
269.400299
 20
615.650255
 30
0.0
 10
277.712690
 20
622.339901
 30
0.0
 10
287.515477
 20
626.696698
 30
0.0
 10
298.421653
 20
628.254319
 30
0.0
 10
309.649944
 20
626.602426
 30
0.0
 10
319.691059
 20
621.986017
 30
0.0
 10
328.122536
 20
614.919670
 30
0.0
 10
334.521813
 20
605.917939
 30
0.0
 10
337.146434
 20
618.675767
 30
0.0
 10
341.224982
 20
630.999480
 30
0.0
 10
346.708452
 20
642.765554
 30
0.0
 10
353.547787
 20
653.850412
 30
0.0
 10
340.286360
 20
656.771140
 30
0.0
 10
326.885264
 20
658.885907
 30
0.0
 10
313.381149
 20
660.190119
 30
0.0
  0
LWPOLYLINE
  5
101
100
AcDbEntity
  8
Layer_1
 62
5
100
AcDbPolyline
 90
36
 70
1
 10
368.599245
 20
649.759301
 30
0.0
 10
361.119134
 20
639.304941
 30
0.0
 10
354.939990
 20
628.101178
 30
0.0
 10
350.117880
 20
616.265516
 30
0.0
 10
346.708971
 20
603.915484
 30
0.0
 10
359.323340
 20
598.515151
 30
0.0
 10
369.446527
 20
589.433786
 30
0.0
 10
376.180377
 20
577.563188
 30
0.0
 10
378.626784
 20
563.795177
 30
0.0
 10
377.529156
 20
554.763025
 30
0.0
 10
374.436755
 20
546.471788
 30
0.0
 10
369.654954
 20
539.087143
 30
0.0
 10
363.489126
 20
532.774690
 30
0.0
 10
362.854138
 20
528.142007
 30
0.0
 10
362.211727
 20
523.490765
 30
0.0
 10
361.768216
 20
519.026614
 30
0.0
 10
361.730061
 20
514.955256
 30
0.0
 10
361.735252
 20
514.836117
 30
0.0
 10
361.740443
 20
514.716979
 30
0.0
 10
361.745634
 20
514.597841
 30
0.0
 10
361.750825
 20
514.478703
 30
0.0
 10
361.869964
 20
511.820988
 30
0.0
 10
361.989102
 20
509.163298
 30
0.0
 10
362.108240
 20
506.505583
 30
0.0
 10
362.227378
 20
503.847894
 30
0.0
 10
375.842430
 20
537.002511
 30
0.0
 10
398.629224
 20
563.558458
 30
0.0
 10
428.517146
 20
581.756513
 30
0.0
 10
463.435580
 20
589.837351
 30
0.0
 10
442.711251
 20
609.226450
 30
0.0
 10
419.807524
 20
625.796335
 30
0.0
 10
395.008852
 20
639.367184
 30
0.0
 10
368.599790
 20
649.759275
 30
0.0
 10
368.599660
 20
649.759275
 30
0.0
 10
368.599530
 20
649.759275
 30
0.0
 10
368.599427
 20
649.759275
 30
0.0
  0
LWPOLYLINE
  5
102
100
AcDbEntity
  8
Layer_1
 62
5
100
AcDbPolyline
 90
33
 70
1
 10
228.147739
 20
648.689628
 30
0.0
 10
202.505418
 20
638.306387
 30
0.0
 10
178.416212
 20
624.913701
 30
0.0
 10
156.142856
 20
608.679427
 30
0.0
 10
135.948074
 20
589.771474
 30
0.0
 10
169.564800
 20
581.810632
 30
0.0
 10
198.529500
 20
564.425467
 30
0.0
 10
220.966901
 20
539.171526
 30
0.0
 10
235.001739
 20
507.604431
 30
0.0
 10
235.217174
 20
511.723445
 30
0.0
 10
235.432609
 20
515.842432
 30
0.0
 10
235.648044
 20
519.961420
 30
0.0
 10
235.863479
 20
524.080434
 30
0.0
 10
235.955623
 20
525.282769
 30
0.0
 10
236.098122
 20
526.479679
 30
0.0
 10
236.290456
 20
527.669581
 30
0.0
 10
236.532625
 20
528.850866
 30
0.0
 10
236.600111
 20
530.014344
 30
0.0
 10
236.433214
 20
531.236172
 30
0.0
 10
236.215962
 20
532.399677
 30
0.0
 10
236.132124
 20
533.388109
 30
0.0
 10
230.312394
 20
539.653763
 30
0.0
 10
225.825298
 20
546.921477
 30
0.0
 10
222.937846
 20
555.025545
 30
0.0
 10
221.917151
 20
563.800239
 30
0.0
 10
224.115367
 20
576.812020
 30
0.0
 10
230.192477
 20
588.135284
 30
0.0
 10
239.383895
 20
597.048635
 30
0.0
 10
250.925034
 20
602.830600
 30
0.0
 10
247.312864
 20
615.229767
 30
0.0
 10
242.273008
 20
627.085623
 30
0.0
 10
235.864803
 20
638.278718
 30
0.0
 10
228.147609
 20
648.689628
 30
0.0
  0
LWPOLYLINE
  5
103
100
AcDbEntity
  8
Layer_1
 62
5
100
AcDbPolyline
 90
132
 70
1
 10
472.768069
 20
579.652674
 30
0.0
 10
437.831181
 20
571.164872
 30
0.0
 10
408.127287
 20
552.667154
 30
0.0
 10
385.729417
 20
525.958248
 30
0.0
 10
372.710627
 20
492.836880
 30
0.0
 10
379.113486
 20
500.069734
 30
0.0
 10
386.976812
 20
505.655731
 30
0.0
 10
396.017295
 20
509.255468
 30
0.0
 10
405.951575
 20
510.529546
 30
0.0
 10
421.888393
 20
507.232533
 30
0.0
 10
435.022038
 20
498.300468
 30
0.0
 10
443.938244
 20
485.160074
 30
0.0
 10
447.222668
 20
469.238181
 30
0.0
 10
444.756897
 20
455.633979
 30
0.0
 10
437.989694
 20
444.048741
 30
0.0
 10
427.854463
 20
435.224575
 30
0.0
 10
415.284583
 20
429.903641
 30
0.0
 10
415.281987
 20
429.880281
 30
0.0
 10
415.274200
 20
429.828109
 30
0.0
 10
415.266414
 20
429.776197
 30
0.0
 10
415.263818
 20
429.752837
 30
0.0
 10
415.248244
 20
428.274148
 30
0.0
 10
415.156620
 20
426.799197
 30
0.0
 10
414.989463
 20
425.330917
 30
0.0
 10
414.746774
 20
423.872188
 30
0.0
 10
411.403171
 20
404.413812
 30
0.0
 10
409.129786
 20
387.334176
 30
0.0
 10
407.278421
 20
371.383446
 30
0.0
 10
405.200849
 20
355.311761
 30
0.0
 10
400.742460
 20
332.123218
 30
0.0
 10
395.282402
 20
313.800678
 30
0.0
 10
389.546017
 20
299.382522
 30
0.0
 10
384.258593
 20
287.907207
 30
0.0
 10
383.959528
 20
287.292620
 30
0.0
 10
383.645979
 20
286.685431
 30
0.0
 10
383.318076
 20
286.085847
 30
0.0
 10
382.976002
 20
285.494127
 30
0.0
 10
371.212264
 20
269.176327
 30
0.0
 10
357.172312
 20
256.199093
 30
0.0
 10
341.362964
 20
247.182748
 30
0.0
 10
324.291038
 20
242.747902
 30
0.0
 10
323.349171
 20
242.662247
 30
0.0
 10
322.405229
 20
242.607739
 30
0.0
 10
321.460014
 20
242.581783
 30
0.0
 10
320.514228
 20
242.581783
 30
0.0
 10
309.391656
 20
242.817983
 30
0.0
 10
298.269110
 20
243.054183
 30
0.0
 10
287.146538
 20
243.290383
 30
0.0
 10
276.023991
 20
243.526582
 30
0.0
 10
274.026364
 20
243.635598
 30
0.0
 10
272.043531
 20
243.882180
 30
0.0
 10
270.082709
 20
244.267108
 30
0.0
 10
268.151010
 20
244.788045
 30
0.0
 10
247.021144
 20
254.573986
 30
0.0
 10
230.220457
 20
268.395050
 30
0.0
 10
217.391899
 20
284.635216
 30
0.0
 10
208.178393
 20
301.678436
 30
0.0
 10
201.644041
 20
316.967054
 30
0.0
 10
197.231128
 20
332.997340
 30
0.0
 10
194.778673
 20
349.627469
 30
0.0
 10
194.125619
 20
366.715514
 30
0.0
 10
192.153584
 20
381.811331
 30
0.0
 10
190.181523
 20
396.907122
 30
0.0
 10
188.209478
 20
412.002939
 30
0.0
 10
186.237432
 20
427.098755
 30
0.0
 10
186.169661
 20
427.306663
 30
0.0
 10
186.090002
 20
427.428657
 30
0.0
 10
186.011823
 20
427.544161
 30
0.0
 10
185.948464
 20
427.732342
 30
0.0
 10
172.796177
 20
432.766098
 30
0.0
 10
162.141361
 20
441.598181
 30
0.0
 10
155.002546
 20
453.413363
 30
0.0
 10
152.398274
 20
467.396393
 30
0.0
 10
155.692896
 20
483.312628
 30
0.0
 10
164.619297
 20
496.446325
 30
0.0
 10
177.752958
 20
505.372836
 30
0.0
 10
193.669364
 20
508.667486
 30
0.0
 10
203.067366
 20
507.514130
 30
0.0
 10
211.646326
 20
504.246241
 30
0.0
 10
219.178219
 20
499.156186
 30
0.0
 10
225.435075
 20
492.536232
 30
0.0
 10
212.663049
 20
525.392537
 30
0.0
 10
190.648083
 20
552.007767
 30
0.0
 10
161.391315
 20
570.616784
 30
0.0
 10
126.893930
 20
579.454499
 30
0.0
 10
107.609865
 20
552.503008
 30
0.0
 10
92.557885
 20
523.176178
 30
0.0
 10
81.946857
 20
491.966731
 30
0.0
 10
75.985648
 20
459.367312
 30
0.0
 10
108.157503
 20
438.288735
 30
0.0
 10
133.231083
 20
409.307354
 30
0.0
 10
149.515240
 20
374.107323
 30
0.0
 10
155.318820
 20
334.372827
 30
0.0
 10
154.881658
 20
321.034130
 30
0.0
 10
154.766387
 20
308.754360
 30
0.0
 10
154.946341
 20
297.445216
 30
0.0
 10
155.394855
 20
287.018291
 30
0.0
 10
156.599233
 20
279.244461
 30
0.0
 10
158.231613
 20
271.620658
 30
0.0
 10
160.276981
 20
264.158508
 30
0.0
 10
162.720336
 20
256.869796
 30
0.0
 10
193.749906
 20
236.821622
 30
0.0
 10
227.408693
 20
222.193844
 30
0.0
 10
262.995909
 20
213.224999
 30
0.0
 10
299.810716
 20
210.154142
 30
0.0
 10
333.447571
 20
212.681740
 30
0.0
 10
366.151696
 20
220.152403
 30
0.0
 10
397.383854
 20
232.397936
 30
0.0
 10
426.604888
 20
249.250405
 30
0.0
 10
435.377428
 20
265.777126
 30
0.0
 10
441.884707
 20
283.537302
 30
0.0
 10
445.931874
 20
302.342261
 30
0.0
 10
447.324078
 20
322.003172
 30
0.0
 10
447.331865
 20
323.190971
 30
0.0
 10
447.355225
 20
324.387544
 30
0.0
 10
447.392342
 20
325.592137
 30
0.0
 10
447.441918
 20
326.803998
 30
0.0
 10
446.980913
 20
332.733107
 30
0.0
 10
446.613999
 20
338.892342
 30
0.0
 10
446.370791
 20
345.302494
 30
0.0
 10
446.280983
 20
351.984406
 30
0.0
 10
451.744726
 20
390.563963
 30
0.0
 10
467.108902
 20
424.926859
 30
0.0
 10
490.831620
 20
453.541197
 30
0.0
 10
521.370960
 20
474.875025
 30
0.0
 10
514.419703
 20
503.276991
 30
0.0
 10
503.899077
 20
530.428888
 30
0.0
 10
489.964013
 20
555.996871
 30
0.0
 10
472.769315
 20
579.647119
 30
0.0
 10
472.769341
 20
579.647119
 30
0.0
 10
472.769341
 20
579.647119
 30
0.0
 10
472.769366
 20
579.647119
 30
0.0
  0
LWPOLYLINE
  5
104
100
AcDbEntity
  8
Layer_1
 62
5
100
AcDbPolyline
 90
24
 70
1
 10
524.168085
 20
453.360387
 30
0.0
 10
502.548066
 20
434.733772
 30
0.0
 10
485.173232
 20
412.056460
 30
0.0
 10
472.739906
 20
386.019270
 30
0.0
 10
465.944463
 20
357.312970
 30
0.0
 10
465.493841
 20
346.886045
 30
0.0
 10
465.312148
 20
335.576901
 30
0.0
 10
465.426355
 20
323.297132
 30
0.0
 10
465.863351
 20
309.958434
 30
0.0
 10
465.644022
 20
302.221047
 30
0.0
 10
464.998184
 20
294.597814
 30
0.0
 10
463.944681
 20
287.097457
 30
0.0
 10
462.502331
 20
279.728775
 30
0.0
 10
489.204826
 20
313.574004
 30
0.0
 10
508.826413
 20
351.530357
 30
0.0
 10
520.929266
 20
392.508562
 30
0.0
 10
525.075612
 20
435.419297
 30
0.0
 10
524.982949
 20
439.910702
 30
0.0
 10
524.800737
 20
444.398888
 30
0.0
 10
524.529133
 20
448.882583
 30
0.0
 10
524.168111
 20
453.360387
 30
0.0
 10
524.168085
 20
453.360387
 30
0.0
 10
524.168033
 20
453.360387
 30
0.0
 10
524.168007
 20
453.360387
 30
0.0
  0
LWPOLYLINE
  5
105
100
AcDbEntity
  8
Layer_1
 62
5
100
AcDbPolyline
 90
28
 70
1
 10
74.657382
 20
437.639757
 30
0.0
 10
74.628701
 20
437.084739
 30
0.0
 10
74.601395
 20
436.529644
 30
0.0
 10
74.575439
 20
435.974496
 30
0.0
 10
74.550781
 20
435.419297
 30
0.0
 10
78.676063
 20
392.905871
 30
0.0
 10
90.614526
 20
352.282900
 30
0.0
 10
109.942647
 20
314.610948
 30
0.0
 10
136.236897
 20
280.950551
 30
0.0
 10
136.028808
 20
283.777889
 30
0.0
 10
135.870684
 20
286.618983
 30
0.0
 10
135.770208
 20
289.474925
 30
0.0
 10
135.735038
 20
292.346855
 30
0.0
 10
135.824845
 20
299.028767
 30
0.0
 10
136.067950
 20
305.438919
 30
0.0
 10
136.434833
 20
311.598128
 30
0.0
 10
136.895960
 20
317.527237
 30
0.0
 10
136.848486
 20
318.739124
 30
0.0
 10
136.811161
 20
319.943717
 30
0.0
 10
136.787022
 20
321.140290
 30
0.0
 10
136.779236
 20
322.328089
 30
0.0
 10
132.334726
 20
357.203617
 30
0.0
 10
119.749952
 20
388.790932
 30
0.0
 10
100.149296
 20
415.974756
 30
0.0
 10
74.657138
 20
437.639757
 30
0.0
 10
74.657141
 20
437.639757
 30
0.0
 10
74.657141
 20
437.639757
 30
0.0
 10
74.657143
 20
437.639757
 30
0.0
  0
LWPOLYLINE
  5
106
100
AcDbEntity
  8
Layer_1
 62
7
100
AcDbPolyline
 90
256
 70
1
 10
298.421858
 20
599.499153
 30
0.0
 10
293.551020
 20
598.514704
 30
0.0
 10
289.573827
 20
595.832020
 30
0.0
 10
286.892733
 20
591.853709
 30
0.0
 10
285.910187
 20
586.982479
 30
0.0
 10
286.612790
 20
582.864471
 30
0.0
 10
288.566992
 20
579.292497
 30
0.0
 10
291.562816
 20
576.535256
 30
0.0
 10
295.390247
 20
574.861154
 30
0.0
 10
295.105065
 20
568.737167
 30
0.0
 10
294.819884
 20
562.613081
 30
0.0
 10
294.534703
 20
556.489094
 30
0.0
 10
294.249522
 20
550.365107
 30
0.0
 10
293.458628
 20
525.799409
 30
0.0
 10
292.667831
 20
501.233710
 30
0.0
 10
291.876937
 20
476.668012
 30
0.0
 10
291.086043
 20
452.102314
 30
0.0
 10
289.560103
 20
420.816956
 30
0.0
 10
288.034154
 20
389.531598
 30
0.0
 10
286.508204
 20
358.246240
 30
0.0
 10
284.982264
 20
326.960882
 30
0.0
 10
284.054518
 20
328.119265
 30
0.0
 10
283.126772
 20
329.277647
 30
0.0
 10
282.199026
 20
330.436030
 30
0.0
 10
281.271280
 20
331.594413
 30
0.0
 10
281.000128
 20
345.962753
 30
0.0
 10
280.728975
 20
360.331093
 30
0.0
 10
280.457823
 20
374.699434
 30
0.0
 10
280.186572
 20
389.067774
 30
0.0
 10
279.531352
 20
405.986067
 30
0.0
 10
278.876132
 20
422.904360
 30
0.0
 10
278.220912
 20
439.822653
 30
0.0
 10
277.565692
 20
456.740946
 30
0.0
 10
277.565692
 20
472.499581
 30
0.0
 10
277.565692
 20
488.258314
 30
0.0
 10
277.565692
 20
504.016948
 30
0.0
 10
277.565692
 20
519.775583
 30
0.0
 10
276.469407
 20
529.324098
 30
0.0
 10
274.790900
 20
537.999215
 30
0.0
 10
272.643076
 20
545.970356
 30
0.0
 10
270.138819
 20
553.406941
 30
0.0
 10
272.476234
 20
555.422927
 30
0.0
 10
274.227650
 20
557.910389
 30
0.0
 10
275.327496
 20
560.746700
 30
0.0
 10
275.710190
 20
563.809626
 30
0.0
 10
274.726173
 20
568.679189
 30
0.0
 10
272.044764
 20
572.655733
 30
0.0
 10
268.068170
 20
575.337142
 30
0.0
 10
263.198617
 20
576.321198
 30
0.0
 10
258.327435
 20
575.338614
 30
0.0
 10
254.349184
 20
572.657597
 30
0.0
 10
251.666480
 20
568.680366
 30
0.0
 10
250.681943
 20
563.809626
 30
0.0
 10
251.664950
 20
558.937120
 30
0.0
 10
254.347310
 20
554.958318
 30
0.0
 10
258.326150
 20
552.275929
 30
0.0
 10
263.198617
 20
551.292853
 30
0.0
 10
263.215294
 20
551.292755
 30
0.0
 10
263.232953
 20
551.292755
 30
0.0
 10
263.250611
 20
551.292755
 30
0.0
 10
263.267288
 20
551.292853
 30
0.0
 10
264.580230
 20
544.764982
 30
0.0
 10
265.560754
 20
538.015500
 30
0.0
 10
265.724093
 20
530.721260
 30
0.0
 10
264.585302
 20
522.558723
 30
0.0
 10
263.765369
 20
506.963624
 30
0.0
 10
262.945437
 20
491.368426
 30
0.0
 10
262.125406
 20
475.773326
 30
0.0
 10
261.305474
 20
460.178128
 30
0.0
 10
260.599535
 20
443.762998
 30
0.0
 10
259.893597
 20
427.347868
 30
0.0
 10
259.187658
 20
410.932639
 30
0.0
 10
258.481720
 20
394.517509
 30
0.0
 10
258.385580
 20
375.542224
 30
0.0
 10
258.289441
 20
356.566938
 30
0.0
 10
258.193301
 20
337.591653
 30
0.0
 10
258.097162
 20
318.616367
 30
0.0
 10
255.847547
 20
322.832967
 30
0.0
 10
253.597932
 20
327.049566
 30
0.0
 10
251.348317
 20
331.266165
 30
0.0
 10
249.098702
 20
335.482764
 30
0.0
 10
243.796629
 20
348.879213
 30
0.0
 10
241.062275
 20
362.275269
 30
0.0
 10
239.497046
 20
375.671325
 30
0.0
 10
237.702347
 20
389.067774
 30
0.0
 10
235.385611
 20
399.265132
 30
0.0
 10
233.068866
 20
409.462490
 30
0.0
 10
230.752120
 20
419.659848
 30
0.0
 10
228.435384
 20
429.857206
 30
0.0
 10
224.190983
 20
439.983441
 30
0.0
 10
219.859153
 20
447.164276
 30
0.0
 10
215.527324
 20
452.759496
 30
0.0
 10
211.282923
 20
458.129278
 30
0.0
 10
209.782902
 20
459.286582
 30
0.0
 10
208.282880
 20
460.443885
 30
0.0
 10
206.782859
 20
461.601189
 30
0.0
 10
205.282838
 20
462.758493
 30
0.0
 10
205.673871
 20
463.883226
 30
0.0
 10
205.955618
 20
465.037293
 30
0.0
 10
206.126609
 20
466.212941
 30
0.0
 10
206.185470
 20
467.402226
 30
0.0
 10
205.200933
 20
472.272966
 30
0.0
 10
202.518229
 20
476.250198
 30
0.0
 10
198.539977
 20
478.931214
 30
0.0
 10
193.668796
 20
479.913799
 30
0.0
 10
188.799223
 20
478.929841
 30
0.0
 10
184.822600
 20
476.248432
 30
0.0
 10
182.141161
 20
472.271789
 30
0.0
 10
181.157125
 20
467.402226
 30
0.0
 10
182.139670
 20
462.530995
 30
0.0
 10
184.820765
 20
458.552684
 30
0.0
 10
188.797957
 20
455.870000
 30
0.0
 10
193.668796
 20
454.885552
 30
0.0
 10
196.156150
 20
455.138654
 30
0.0
 10
198.521240
 20
455.871472
 30
0.0
 10
200.695768
 20
457.055655
 30
0.0
 10
202.611436
 20
458.662264
 30
0.0
 10
205.925628
 20
453.827919
 30
0.0
 10
209.140327
 20
448.497083
 30
0.0
 10
212.070187
 20
441.742009
 30
0.0
 10
214.529887
 20
432.635245
 30
0.0
 10
216.614740
 20
416.644698
 30
0.0
 10
218.699593
 20
400.654053
 30
0.0
 10
220.784447
 20
384.663506
 30
0.0
 10
222.869300
 20
368.672861
 30
0.0
 10
223.227371
 20
353.546098
 30
0.0
 10
225.156105
 20
339.361698
 30
0.0
 10
228.723351
 20
326.160374
 30
0.0
 10
233.996975
 20
313.982738
 30
0.0
 10
240.975965
 20
300.387536
 30
0.0
 10
249.899171
 20
288.593380
 30
0.0
 10
261.531205
 20
279.064681
 30
0.0
 10
276.636700
 20
272.265560
 30
0.0
 10
287.760548
 20
272.034040
 30
0.0
 10
298.884407
 20
271.802521
 30
0.0
 10
310.008255
 20
271.570020
 30
0.0
 10
321.132114
 20
271.338500
 30
0.0
 10
331.074859
 20
273.817722
 30
0.0
 10
340.600114
 20
279.224783
 30
0.0
 10
349.662281
 20
287.873511
 30
0.0
 10
358.215761
 20
300.077732
 30
0.0
 10
363.387565
 20
311.151234
 30
0.0
 10
368.380501
 20
323.476022
 30
0.0
 10
372.925878
 20
338.933780
 30
0.0
 10
376.754986
 20
359.406388
 30
0.0
 10
378.717173
 20
374.742893
 30
0.0
 10
380.575324
 20
390.842725
 30
0.0
 10
382.964292
 20
408.713093
 30
0.0
 10
386.518931
 20
429.361009
 30
0.0
 10
386.604280
 20
433.201193
 30
0.0
 10
387.452858
 20
442.425776
 30
0.0
 10
389.952151
 20
453.590317
 30
0.0
 10
394.989840
 20
463.250766
 30
0.0
 10
396.985647
 20
460.543164
 30
0.0
 10
399.581276
 20
458.494706
 30
0.0
 10
402.622530
 20
457.196921
 30
0.0
 10
405.955235
 20
456.741730
 30
0.0
 10
410.824857
 20
457.725689
 30
0.0
 10
414.801500
 20
460.407097
 30
0.0
 10
417.482928
 20
464.383740
 30
0.0
 10
418.466906
 20
469.253401
 30
0.0
 10
417.484361
 20
474.124632
 30
0.0
 10
414.803266
 20
478.102943
 30
0.0
 10
410.826073
 20
480.785627
 30
0.0
 10
405.955235
 20
481.770076
 30
0.0
 10
401.082827
 20
480.787098
 30
0.0
 10
397.103996
 20
478.104709
 30
0.0
 10
394.421626
 20
474.125809
 30
0.0
 10
393.438561
 20
469.253401
 30
0.0
 10
393.455238
 20
468.664792
 30
0.0
 10
393.499384
 20
468.077164
 30
0.0
 10
393.570998
 20
467.492479
 30
0.0
 10
393.672337
 20
466.911718
 30
0.0
 10
391.991436
 20
465.643168
 30
0.0
 10
390.310545
 20
464.374715
 30
0.0
 10
388.629644
 20
463.106164
 30
0.0
 10
386.948753
 20
461.837712
 30
0.0
 10
379.715189
 20
450.430075
 30
0.0
 10
373.674049
 20
438.264801
 30
0.0
 10
368.939993
 20
424.792421
 30
0.0
 10
365.627664
 20
409.463569
 30
0.0
 10
363.194482
 20
387.980319
 30
0.0
 10
360.011412
 20
366.647065
 30
0.0
 10
355.233603
 20
345.632838
 30
0.0
 10
348.016186
 20
325.106469
 30
0.0
 10
346.625842
 20
324.873969
 30
0.0
 10
345.235499
 20
324.642449
 30
0.0
 10
343.845155
 20
324.409948
 30
0.0
 10
342.454811
 20
324.178429
 30
0.0
 10
341.296429
 20
344.805057
 30
0.0
 10
340.138046
 20
365.431784
 30
0.0
 10
338.979663
 20
386.058412
 30
0.0
 10
337.821281
 20
406.685138
 30
0.0
 10
336.622333
 20
433.312832
 30
0.0
 10
335.423385
 20
459.940625
 30
0.0
 10
334.224438
 20
486.568319
 30
0.0
 10
333.025490
 20
513.196111
 30
0.0
 10
332.902274
 20
522.730695
 30
0.0
 10
333.574760
 20
532.265182
 30
0.0
 10
334.856015
 20
541.799668
 30
0.0
 10
336.559018
 20
551.334252
 30
0.0
 10
336.757674
 20
551.324442
 30
0.0
 10
336.956427
 20
551.314632
 30
0.0
 10
337.155377
 20
551.305705
 30
0.0
 10
337.354621
 20
551.302369
 30
0.0
 10
342.227029
 20
552.285444
 30
0.0
 10
346.205850
 20
554.967834
 30
0.0
 10
348.888230
 20
558.946635
 30
0.0
 10
349.871296
 20
563.819043
 30
0.0
 10
348.886808
 20
568.689882
 30
0.0
 10
346.204124
 20
572.667113
 30
0.0
 10
342.225852
 20
575.348130
 30
0.0
 10
337.354621
 20
576.330714
 30
0.0
 10
332.485000
 20
575.346756
 30
0.0
 10
328.508357
 20
572.665347
 30
0.0
 10
325.826928
 20
568.688704
 30
0.0
 10
324.842950
 20
563.819043
 30
0.0
 10
325.383097
 20
560.180556
 30
0.0
 10
326.917307
 20
556.918877
 30
0.0
 10
329.316693
 20
554.229130
 30
0.0
 10
332.452342
 20
552.306144
 30
0.0
 10
328.803338
 20
543.095098
 30
0.0
 10
325.136058
 20
533.929081
 30
0.0
 10
322.064922
 20
523.272706
 30
0.0
 10
320.204367
 20
509.590292
 30
0.0
 10
319.140388
 20
490.163445
 30
0.0
 10
318.517345
 20
469.374753
 30
0.0
 10
318.275231
 20
447.836467
 30
0.0
 10
318.353712
 20
426.160938
 30
0.0
 10
317.889888
 20
402.985534
 30
0.0
 10
317.426064
 20
379.810130
 30
0.0
 10
316.962240
 20
356.634726
 30
0.0
 10
316.498416
 20
333.459323
 30
0.0
 10
315.571945
 20
334.385401
 30
0.0
 10
314.645475
 20
335.311479
 30
0.0
 10
313.719004
 20
336.237558
 30
0.0
 10
312.792533
 20
337.163636
 30
0.0
 10
311.170297
 20
371.462868
 30
0.0
 10
309.548071
 20
405.762003
 30
0.0
 10
307.925835
 20
440.061236
 30
0.0
 10
306.303608
 20
474.360468
 30
0.0
 10
305.026081
 20
499.471120
 30
0.0
 10
303.748555
 20
524.581773
 30
0.0
 10
302.471028
 20
549.692523
 30
0.0
 10
301.193501
 20
574.803176
 30
0.0
 10
305.116561
 20
576.431759
 30
0.0
 10
308.197262
 20
579.192335
 30
0.0
 10
310.211992
 20
582.805120
 30
0.0
 10
310.937159
 20
586.990425
 30
0.0
 10
309.954093
 20
591.862833
 30
0.0
 10
307.271713
 20
595.841634
 30
0.0
 10
303.292893
 20
598.524024
 30
0.0
 10
298.420485
 20
599.507099
 30
0.0
 10
298.421103
 20
599.507001
 30
0.0
 10
298.421711
 20
599.506903
 30
0.0
 10
298.422319
 20
599.506805
 30
0.0
  0
LWPOLYLINE
  5
107
100
AcDbEntity
  8
Layer_1
 62
7
100
AcDbPolyline
 90
62
 70
1
 10
131.451820
 20
668.755581
 30
0.0
 10
130.798464
 20
669.659096
 30
0.0
 10
130.145108
 20
670.562611
 30
0.0
 10
131.013306
 20
671.524987
 30
0.0
 10
131.596029
 20
672.363755
 30
0.0
 10
131.909954
 20
673.184864
 30
0.0
 10
131.959005
 20
674.000088
 30
0.0
 10
131.754954
 20
674.843761
 30
0.0
 10
131.320364
 20
675.748257
 30
0.0
 10
130.654255
 20
676.799317
 30
0.0
 10
129.798809
 20
678.025880
 30
0.0
 10
119.925284
 20
691.677294
 30
0.0
 10
110.051857
 20
705.328709
 30
0.0
 10
108.942722
 20
704.526238
 30
0.0
 10
107.833684
 20
703.723768
 30
0.0
 10
106.451630
 20
702.578236
 30
0.0
 10
105.591280
 20
701.518250
 30
0.0
 10
105.126278
 20
700.431089
 30
0.0
 10
104.929094
 20
699.204133
 30
0.0
 10
105.037006
 20
697.812955
 30
0.0
 10
105.438241
 20
696.193692
 30
0.0
 10
105.979762
 20
694.551669
 30
0.0
 10
106.553655
 20
693.037570
 30
0.0
 10
104.677758
 20
691.680826
 30
0.0
 10
102.801959
 20
690.324082
 30
0.0
 10
99.325928
 20
695.130075
 30
0.0
 10
95.849897
 20
699.936166
 30
0.0
 10
111.965916
 20
711.592196
 30
0.0
 10
128.082033
 20
723.248324
 30
0.0
 10
131.558064
 20
718.442232
 30
0.0
 10
135.034095
 20
713.636141
 30
0.0
 10
133.158198
 20
712.279397
 30
0.0
 10
131.282301
 20
710.922653
 30
0.0
 10
129.648224
 20
712.201701
 30
0.0
 10
128.480129
 20
713.066956
 30
0.0
 10
127.574652
 20
713.641831
 30
0.0
 10
126.726074
 20
714.050914
 30
0.0
 10
125.940281
 20
714.358953
 30
0.0
 10
125.206481
 20
714.536517
 30
0.0
 10
124.514866
 20
714.595378
 30
0.0
 10
123.855623
 20
714.556137
 30
0.0
 10
123.174799
 20
714.388383
 30
0.0
 10
122.420398
 20
714.060724
 30
0.0
 10
121.552200
 20
713.588856
 30
0.0
 10
120.514286
 20
712.890373
 30
0.0
 10
119.528366
 20
712.177175
 30
0.0
 10
118.542544
 20
711.463977
 30
0.0
 10
128.415970
 20
697.812563
 30
0.0
 10
138.289496
 20
684.161149
 30
0.0
 10
139.236175
 20
682.895737
 30
0.0
 10
139.975861
 20
682.002032
 30
0.0
 10
140.577223
 20
681.415385
 30
0.0
 10
141.148174
 20
681.015131
 30
0.0
 10
141.694599
 20
680.763991
 30
0.0
 10
142.222385
 20
680.624687
 30
0.0
 10
142.799222
 20
680.633516
 30
0.0
 10
143.475142
 20
680.738485
 30
0.0
 10
144.289384
 20
681.024941
 30
0.0
 10
145.265494
 20
681.491904
 30
0.0
 10
145.918850
 20
680.588389
 30
0.0
 10
146.572206
 20
679.684875
 30
0.0
 10
139.013485
 20
674.220032
 30
0.0
  0
LWPOLYLINE
  5
108
100
AcDbEntity
  8
Layer_1
 62
7
100
AcDbPolyline
 90
98
 70
1
 10
191.903837
 20
713.912003
 30
0.0
 10
192.909770
 20
711.958409
 30
0.0
 10
193.652399
 20
710.778640
 30
0.0
 10
194.344995
 20
710.147847
 30
0.0
 10
195.168067
 20
709.749555
 30
0.0
 10
196.285345
 20
709.634776
 30
0.0
 10
197.859776
 20
709.854524
 30
0.0
 10
198.347341
 20
708.851436
 30
0.0
 10
198.834905
 20
707.848348
 30
0.0
 10
190.901534
 20
703.992075
 30
0.0
 10
182.968065
 20
700.135901
 30
0.0
 10
182.480500
 20
701.138989
 30
0.0
 10
181.992936
 20
702.142077
 30
0.0
 10
183.222736
 20
703.303501
 30
0.0
 10
183.829003
 20
704.161889
 30
0.0
 10
184.003624
 20
704.923157
 30
0.0
 10
183.934953
 20
705.793317
 30
0.0
 10
183.469952
 20
707.155163
 30
0.0
 10
182.477851
 20
709.331545
 30
0.0
 10
179.515480
 20
715.426003
 30
0.0
 10
176.553207
 20
721.520462
 30
0.0
 10
169.683648
 20
718.181380
 30
0.0
 10
162.813991
 20
714.842299
 30
0.0
 10
165.776363
 20
708.747841
 30
0.0
 10
168.738734
 20
702.653382
 30
0.0
 10
169.252786
 20
701.634892
 30
0.0
 10
169.759971
 20
700.706852
 30
0.0
 10
170.254403
 20
699.923021
 30
0.0
 10
170.727252
 20
699.335393
 30
0.0
 10
171.205987
 20
698.910613
 30
0.0
 10
171.717096
 20
698.614347
 30
0.0
 10
172.323364
 20
698.448555
 30
0.0
 10
173.028713
 20
698.389694
 30
0.0
 10
173.830203
 20
698.458365
 30
0.0
 10
174.754319
 20
698.626119
 30
0.0
 10
175.241884
 20
697.623031
 30
0.0
 10
175.729448
 20
696.619943
 30
0.0
 10
167.750460
 20
692.741499
 30
0.0
 10
159.771373
 20
688.863154
 30
0.0
 10
159.283808
 20
689.866242
 30
0.0
 10
158.796244
 20
690.869330
 30
0.0
 10
159.647765
 20
691.668857
 30
0.0
 10
160.249127
 20
692.365378
 30
0.0
 10
160.619951
 20
693.071709
 30
0.0
 10
160.749445
 20
693.811395
 30
0.0
 10
160.670964
 20
694.658011
 30
0.0
 10
160.404128
 20
695.598804
 30
0.0
 10
159.941088
 20
696.726285
 30
0.0
 10
159.314220
 20
698.074788
 30
0.0
 10
152.946254
 20
711.175657
 30
0.0
 10
146.578387
 20
724.276526
 30
0.0
 10
145.916202
 20
725.580000
 30
0.0
 10
145.319744
 20
726.633513
 30
0.0
 10
144.762528
 20
727.451679
 30
0.0
 10
144.156260
 20
728.021649
 30
0.0
 10
143.495056
 20
728.376777
 30
0.0
 10
142.710244
 20
728.521967
 30
0.0
 10
141.761602
 20
728.522948
 30
0.0
 10
140.577125
 20
728.349308
 30
0.0
 10
140.089560
 20
729.352396
 30
0.0
 10
139.601996
 20
730.355484
 30
0.0
 10
147.580984
 20
734.233829
 30
0.0
 10
155.560071
 20
738.112175
 30
0.0
 10
156.047636
 20
737.109087
 30
0.0
 10
156.535200
 20
736.106097
 30
0.0
 10
155.407621
 20
734.966157
 30
0.0
 10
154.804297
 20
734.024383
 30
0.0
 10
154.619866
 20
733.145393
 30
0.0
 10
154.688537
 20
732.166340
 30
0.0
 10
155.112336
 20
730.831473
 30
0.0
 10
156.011927
 20
728.826180
 30
0.0
 10
158.479278
 20
723.749917
 30
0.0
 10
160.946727
 20
718.673752
 30
0.0
 10
167.816286
 20
722.012833
 30
0.0
 10
174.685844
 20
725.352013
 30
0.0
 10
172.218493
 20
730.428177
 30
0.0
 10
169.751142
 20
735.504342
 30
0.0
 10
168.748642
 20
737.431448
 30
0.0
 10
167.987375
 20
738.592578
 30
0.0
 10
167.299683
 20
739.272421
 30
0.0
 10
166.488384
 20
739.666789
 30
0.0
 10
165.378855
 20
739.803151
 30
0.0
 10
163.767048
 20
739.617739
 30
0.0
 10
163.279483
 20
740.620827
 30
0.0
 10
162.791918
 20
741.623915
 30
0.0
 10
170.725388
 20
745.480089
 30
0.0
 10
178.658857
 20
749.336263
 30
0.0
 10
179.146422
 20
748.333175
 30
0.0
 10
179.633987
 20
747.330185
 30
0.0
 10
178.663763
 20
746.388411
 30
0.0
 10
178.073191
 20
745.593789
 30
0.0
 10
177.770058
 20
744.882553
 30
0.0
 10
177.691577
 20
744.131095
 30
0.0
 10
177.816165
 20
743.355112
 30
0.0
 10
178.051609
 20
742.539888
 30
0.0
 10
178.494047
 20
741.514531
 30
0.0
 10
179.172909
 20
740.078620
 30
0.0
 10
185.532831
 20
726.994821
 30
0.0
  0
LWPOLYLINE
  5
109
100
AcDbEntity
  8
Layer_1
 62
7
100
AcDbPolyline
 90
82
 70
1
 10
224.379363
 20
763.582075
 30
0.0
 10
225.893069
 20
758.425957
 30
0.0
 10
227.406874
 20
753.269840
 30
0.0
 10
225.185463
 20
752.617465
 30
0.0
 10
222.964150
 20
751.965090
 30
0.0
 10
221.218238
 20
754.252719
 30
0.0
 10
219.929576
 20
755.582779
 30
0.0
 10
218.822795
 20
756.323446
 30
0.0
 10
217.641456
 20
756.777656
 30
0.0
 10
216.096161
 20
756.856137
 30
0.0
 10
213.916346
 20
756.392117
 30
0.0
 10
210.381650
 20
755.354399
 30
0.0
 10
206.846954
 20
754.316681
 30
0.0
 10
209.131837
 20
746.533895
 30
0.0
 10
211.416719
 20
738.751110
 30
0.0
 10
213.557000
 20
739.378960
 30
0.0
 10
215.697281
 20
740.007790
 30
0.0
 10
216.941502
 20
740.478678
 30
0.0
 10
217.820492
 20
741.053552
 30
0.0
 10
218.396348
 20
741.821687
 30
0.0
 10
218.750494
 20
742.806234
 30
0.0
 10
218.933944
 20
744.163174
 30
0.0
 10
218.931491
 20
746.029457
 30
0.0
 10
220.763733
 20
746.567054
 30
0.0
 10
222.595877
 20
747.104650
 30
0.0
 10
224.528477
 20
740.521744
 30
0.0
 10
226.461077
 20
733.938740
 30
0.0
 10
224.628933
 20
733.401144
 30
0.0
 10
222.796691
 20
732.863547
 30
0.0
 10
221.833334
 20
734.376960
 30
0.0
 10
220.954345
 20
735.422133
 30
0.0
 10
220.093994
 20
736.102958
 30
0.0
 10
219.206176
 20
736.458085
 30
0.0
 10
218.172676
 20
736.497326
 30
0.0
 10
216.812400
 20
736.211850
 30
0.0
 10
214.672120
 20
735.583020
 30
0.0
 10
212.531839
 20
734.954189
 30
0.0
 10
215.073747
 20
726.295847
 30
0.0
 10
217.615656
 20
717.637506
 30
0.0
 10
221.134165
 20
718.670416
 30
0.0
 10
224.652575
 20
719.703327
 30
0.0
 10
225.688920
 20
720.042759
 30
0.0
 10
226.527688
 20
720.394943
 30
0.0
 10
227.203607
 20
720.821685
 30
0.0
 10
227.769653
 20
721.322983
 30
0.0
 10
228.245445
 20
721.920422
 30
0.0
 10
228.651586
 20
722.638525
 30
0.0
 10
229.006713
 20
723.439033
 30
0.0
 10
229.266682
 20
724.264067
 30
0.0
 10
229.485448
 20
725.226443
 30
0.0
 10
229.654183
 20
726.420730
 30
0.0
 10
229.758171
 20
727.957000
 30
0.0
 10
229.777791
 20
729.945322
 30
0.0
 10
231.999202
 20
730.597697
 30
0.0
 10
234.220514
 20
731.250072
 30
0.0
 10
235.649951
 20
725.241550
 30
0.0
 10
237.079291
 20
719.232931
 30
0.0
 10
221.140737
 20
714.553685
 30
0.0
 10
205.202184
 20
709.874438
 30
0.0
 10
204.888259
 20
710.944628
 30
0.0
 10
204.574335
 20
712.014719
 30
0.0
 10
205.546521
 20
712.661208
 30
0.0
 10
206.254814
 20
713.247855
 30
0.0
 10
206.737473
 20
713.882572
 30
0.0
 10
206.987632
 20
714.589884
 30
0.0
 10
207.056303
 20
715.437481
 30
0.0
 10
206.948391
 20
716.409667
 30
0.0
 10
206.678612
 20
717.598461
 30
0.0
 10
206.284244
 20
719.032411
 30
0.0
 10
202.181050
 20
733.009032
 30
0.0
 10
198.077758
 20
746.985653
 30
0.0
 10
197.641206
 20
748.381049
 30
0.0
 10
197.228199
 20
749.518928
 30
0.0
 10
196.814210
 20
750.418519
 30
0.0
 10
196.311931
 20
751.080704
 30
0.0
 10
195.718417
 20
751.540801
 30
0.0
 10
194.968921
 20
751.813523
 30
0.0
 10
194.034014
 20
751.970485
 30
0.0
 10
192.837077
 20
751.999916
 30
0.0
 10
192.523152
 20
753.070105
 30
0.0
 10
192.209227
 20
754.140196
 30
0.0
 10
208.291990
 20
758.862607
 30
0.0
  0
LWPOLYLINE
  5
10a
100
AcDbEntity
  8
Layer_1
 62
7
100
AcDbPolyline
 90
50
 70
1
 10
272.149797
 20
732.851481
 30
0.0
 10
272.361697
 20
730.953217
 30
0.0
 10
272.600083
 20
729.702128
 30
0.0
 10
272.892426
 20
728.896715
 30
0.0
 10
273.271098
 20
728.268865
 30
0.0
 10
273.794960
 20
727.815636
 30
0.0
 10
274.463031
 20
727.459527
 30
0.0
 10
275.428350
 20
727.197596
 30
0.0
 10
276.775774
 20
727.021014
 30
0.0
 10
276.874857
 20
725.910112
 30
0.0
 10
276.973939
 20
724.799211
 30
0.0
 10
267.918483
 20
723.991835
 30
0.0
 10
258.863124
 20
723.184460
 30
0.0
 10
258.764042
 20
724.295361
 30
0.0
 10
258.664959
 20
725.406263
 30
0.0
 10
259.745057
 20
725.850663
 30
0.0
 10
260.554394
 20
726.287214
 30
0.0
 10
261.151833
 20
726.815981
 30
0.0
 10
261.535410
 20
727.461489
 30
0.0
 10
261.767910
 20
728.279656
 30
0.0
 10
261.846391
 20
729.253804
 30
0.0
 10
261.816961
 20
730.472421
 30
0.0
 10
261.710030
 20
731.955814
 30
0.0
 10
260.416169
 20
746.464734
 30
0.0
 10
259.122308
 20
760.973654
 30
0.0
 10
258.967308
 20
762.427322
 30
0.0
 10
258.783858
 20
763.624062
 30
0.0
 10
258.553320
 20
764.587419
 30
0.0
 10
258.190344
 20
765.334953
 30
0.0
 10
257.698855
 20
765.901979
 30
0.0
 10
257.017050
 20
766.315968
 30
0.0
 10
256.130212
 20
766.652456
 30
0.0
 10
254.961529
 20
766.913406
 30
0.0
 10
254.862446
 20
768.024308
 30
0.0
 10
254.763364
 20
769.135209
 30
0.0
 10
264.542613
 20
770.007332
 30
0.0
 10
274.321765
 20
770.879454
 30
0.0
 10
281.838107
 20
770.777428
 30
0.0
 10
287.353374
 20
768.953525
 30
0.0
 10
290.878357
 20
765.382826
 30
0.0
 10
292.429539
 20
759.973411
 30
0.0
 10
292.305931
 20
755.746412
 30
0.0
 10
291.136757
 20
752.020026
 30
0.0
 10
288.963514
 20
748.899712
 30
0.0
 10
285.827601
 20
746.490927
 30
0.0
 10
281.698606
 20
744.850277
 30
0.0
 10
276.552005
 20
743.967364
 30
0.0
 10
273.578155
 20
743.735844
 30
0.0
 10
271.187519
 20
743.624989
 30
0.0
 10
271.668217
 20
738.238333
 30
0.0
  0
LWPOLYLINE
  5
10b
100
AcDbEntity
  8
Layer_1
 62
7
100
AcDbPolyline
 90
18
 70
1
 10
270.849952
 20
747.427698
 30
0.0
 10
272.297440
 20
747.557192
 30
0.0
 10
273.745026
 20
747.685705
 30
0.0
 10
276.745265
 20
748.190928
 30
0.0
 10
279.013372
 20
749.106215
 30
0.0
 10
280.626847
 20
750.514070
 30
0.0
 10
281.668980
 20
752.430777
 30
0.0
 10
282.182051
 20
754.945021
 30
0.0
 10
282.142810
 20
758.139599
 30
0.0
 10
281.618948
 20
761.256873
 30
0.0
 10
280.671287
 20
763.606993
 30
0.0
 10
279.342404
 20
765.286785
 30
0.0
 10
277.613071
 20
766.320186
 30
0.0
 10
275.442084
 20
766.788130
 30
0.0
 10
272.788438
 20
766.768510
 30
0.0
 10
270.702800
 20
766.565440
 30
0.0
 10
269.158878
 20
766.377085
 30
0.0
 10
270.003532
 20
756.900675
 30
0.0
  0
LWPOLYLINE
  5
10c
100
AcDbEntity
  8
Layer_1
 62
7
100
AcDbPolyline
 90
50
 70
1
 10
319.594339
 20
739.144301
 30
0.0
 10
312.387605
 20
739.503352
 30
0.0
 10
305.180872
 20
739.862404
 30
0.0
 10
304.544193
 20
738.286795
 30
0.0
 10
303.907514
 20
736.711187
 30
0.0
 10
303.411120
 20
735.399275
 30
0.0
 10
303.000075
 20
734.116991
 30
0.0
 10
302.707732
 20
732.837158
 30
0.0
 10
302.563523
 20
731.465405
 30
0.0
 10
303.314981
 20
728.881607
 30
0.0
 10
305.897896
 20
727.746278
 30
0.0
 10
305.839035
 20
726.632335
 30
0.0
 10
305.780174
 20
725.518491
 30
0.0
 10
298.573440
 20
725.877542
 30
0.0
 10
291.366805
 20
726.236594
 30
0.0
 10
291.425666
 20
727.350537
 30
0.0
 10
291.484527
 20
728.464381
 30
0.0
 10
292.671849
 20
728.690996
 30
0.0
 10
293.722320
 20
729.232516
 30
0.0
 10
294.669000
 20
730.065398
 30
0.0
 10
295.545046
 20
731.172277
 30
0.0
 10
296.425017
 20
732.693538
 30
0.0
 10
297.382488
 20
734.769267
 30
0.0
 10
305.354315
 20
753.169678
 30
0.0
 10
313.326240
 20
771.569991
 30
0.0
 10
317.832533
 20
771.345338
 30
0.0
 10
322.338826
 20
771.120686
 30
0.0
 10
326.966864
 20
751.940466
 30
0.0
 10
331.594999
 20
732.760148
 30
0.0
 10
332.169874
 20
730.557377
 30
0.0
 10
332.663324
 20
729.086149
 30
0.0
 10
333.197977
 20
728.103662
 30
0.0
 10
333.893517
 20
727.299230
 30
0.0
 10
334.836273
 20
726.693943
 30
0.0
 10
336.108257
 20
726.241695
 30
0.0
 10
336.049396
 20
725.127851
 30
0.0
 10
335.990535
 20
724.013908
 30
0.0
 10
326.674129
 20
724.477928
 30
0.0
 10
317.357722
 20
724.941948
 30
0.0
 10
317.416583
 20
726.055793
 30
0.0
 10
317.475444
 20
727.169736
 30
0.0
 10
319.020052
 20
727.439515
 30
0.0
 10
320.123302
 20
728.019295
 30
0.0
 10
320.803145
 20
728.923791
 30
0.0
 10
321.076849
 20
730.170955
 30
0.0
 10
321.071159
 20
731.279404
 30
0.0
 10
320.956380
 20
732.511854
 30
0.0
 10
320.716031
 20
733.978864
 30
0.0
 10
320.341283
 20
735.790995
 30
0.0
 10
319.968498
 20
737.467255
 30
0.0
  0
LWPOLYLINE
  5
10d
100
AcDbEntity
  8
Layer_1
 62
7
100
AcDbPolyline
 90
6
 70
1
 10
306.660341
 20
743.747616
 30
0.0
 10
312.736160
 20
743.444483
 30
0.0
 10
318.812077
 20
743.142330
 30
0.0
 10
316.584976
 20
752.778842
 30
0.0
 10
314.357876
 20
762.415452
 30
0.0
 10
310.509059
 20
753.081485
 30
0.0
  0
LWPOLYLINE
  5
10e
100
AcDbEntity
  8
Layer_1
 62
7
100
AcDbPolyline
 90
62
 70
1
 10
343.853666
 20
721.832817
 30
0.0
 10
344.079299
 20
722.925079
 30
0.0
 10
344.304933
 20
724.017440
 30
0.0
 10
345.600854
 20
724.024307
 30
0.0
 10
346.612379
 20
724.162630
 30
0.0
 10
347.429564
 20
724.485384
 30
0.0
 10
348.062319
 20
725.001398
 30
0.0
 10
348.546940
 20
725.721463
 30
0.0
 10
348.920707
 20
726.654408
 30
0.0
 10
349.246404
 20
727.855563
 30
0.0
 10
349.573082
 20
729.315118
 30
0.0
 10
352.973379
 20
745.816185
 30
0.0
 10
356.373676
 20
762.317252
 30
0.0
 10
355.033020
 20
762.593898
 30
0.0
 10
353.692365
 20
762.869563
 30
0.0
 10
351.914079
 20
763.114817
 30
0.0
 10
350.551547
 20
763.036336
 30
0.0
 10
349.435740
 20
762.644911
 30
0.0
 10
348.397826
 20
761.962124
 30
0.0
 10
347.445260
 20
760.942065
 30
0.0
 10
346.521144
 20
759.553732
 30
0.0
 10
345.675509
 20
758.045716
 30
0.0
 10
344.946615
 20
756.600092
 30
0.0
 10
342.679096
 20
757.068036
 30
0.0
 10
340.411676
 20
757.535980
 30
0.0
 10
341.608711
 20
763.345258
 30
0.0
 10
342.805844
 20
769.154535
 30
0.0
 10
362.286058
 20
765.140319
 30
0.0
 10
381.766272
 20
761.126201
 30
0.0
 10
380.569139
 20
755.316924
 30
0.0
 10
379.372104
 20
749.507647
 30
0.0
 10
377.104586
 20
749.975591
 30
0.0
 10
374.837165
 20
750.443535
 30
0.0
 10
374.677260
 20
752.512496
 30
0.0
 10
374.526184
 20
753.958316
 30
0.0
 10
374.338810
 20
755.014968
 30
0.0
 10
374.067069
 20
755.916521
 30
0.0
 10
373.762954
 20
756.704276
 30
0.0
 10
373.398997
 20
757.365480
 30
0.0
 10
372.978142
 20
757.917791
 30
0.0
 10
372.503330
 20
758.377888
 30
0.0
 10
371.918645
 20
758.766370
 30
0.0
 10
371.168169
 20
759.101877
 30
0.0
 10
370.233261
 20
759.423650
 30
0.0
 10
369.017195
 20
759.717954
 30
0.0
 10
367.825556
 20
759.963208
 30
0.0
 10
366.633917
 20
760.208462
 30
0.0
 10
363.233620
 20
743.707395
 30
0.0
 10
359.833324
 20
727.206327
 30
0.0
 10
359.539019
 20
725.653675
 30
0.0
 10
359.380095
 20
724.504612
 30
0.0
 10
359.350664
 20
723.664863
 30
0.0
 10
359.448766
 20
722.973247
 30
0.0
 10
359.633196
 20
722.400334
 30
0.0
 10
359.886298
 20
721.916694
 30
0.0
 10
360.282628
 20
721.498781
 30
0.0
 10
360.815320
 20
721.069097
 30
0.0
 10
361.576587
 20
720.661975
 30
0.0
 10
362.580068
 20
720.256816
 30
0.0
 10
362.354434
 20
719.164456
 30
0.0
 10
362.129782
 20
718.072095
 30
0.0
 10
352.991724
 20
719.954467
 30
0.0
  0
LWPOLYLINE
  5
10f
100
AcDbEntity
  8
Layer_1
 62
7
100
AcDbPolyline
 90
98
 70
1
 10
417.983683
 20
707.754759
 30
0.0
 10
417.223396
 20
705.693254
 30
0.0
 10
416.855516
 20
704.348674
 30
0.0
 10
416.857968
 20
703.411805
 30
0.0
 10
417.119899
 20
702.535758
 30
0.0
 10
417.789933
 20
701.635187
 30
0.0
 10
419.016202
 20
700.623368
 30
0.0
 10
418.606137
 20
699.586238
 30
0.0
 10
418.196073
 20
698.549011
 30
0.0
 10
409.993020
 20
701.792443
 30
0.0
 10
401.789968
 20
705.035876
 30
0.0
 10
402.200032
 20
706.073103
 30
0.0
 10
402.610097
 20
707.110232
 30
0.0
 10
404.297246
 20
706.987605
 30
0.0
 10
405.340164
 20
707.120042
 30
0.0
 10
406.020007
 20
707.505581
 30
0.0
 10
406.616464
 20
708.142260
 30
0.0
 10
407.306118
 20
709.404728
 30
0.0
 10
408.240044
 20
711.606813
 30
0.0
 10
410.731627
 20
717.908364
 30
0.0
 10
413.223209
 20
724.209915
 30
0.0
 10
406.120169
 20
727.018463
 30
0.0
 10
399.017129
 20
729.826913
 30
0.0
 10
396.525546
 20
723.525362
 30
0.0
 10
394.033964
 20
717.223713
 30
0.0
 10
393.630767
 20
716.156761
 30
0.0
 10
393.289374
 20
715.156028
 30
0.0
 10
393.045101
 20
714.262323
 30
0.0
 10
392.932284
 20
713.516752
 30
0.0
 10
392.941898
 20
712.876149
 30
0.0
 10
393.068449
 20
712.299312
 30
0.0
 10
393.355886
 20
711.740133
 30
0.0
 10
393.787533
 20
711.178992
 30
0.0
 10
394.381047
 20
710.635510
 30
0.0
 10
395.128581
 20
710.067502
 30
0.0
 10
394.718516
 20
709.030373
 30
0.0
 10
394.308452
 20
707.993146
 30
0.0
 10
386.058213
 20
711.255217
 30
0.0
 10
377.808072
 20
714.517289
 30
0.0
 10
378.218136
 20
715.554516
 30
0.0
 10
378.628200
 20
716.591645
 30
0.0
 10
379.792665
 20
716.503354
 30
0.0
 10
380.711877
 20
716.532784
 30
0.0
 10
381.482954
 20
716.736836
 30
0.0
 10
382.114728
 20
717.141014
 30
0.0
 10
382.689603
 20
717.767883
 30
0.0
 10
383.200712
 20
718.601745
 30
0.0
 10
383.718688
 20
719.705191
 30
0.0
 10
384.288658
 20
721.078809
 30
0.0
 10
389.644608
 20
734.624862
 30
0.0
 10
395.000656
 20
748.170915
 30
0.0
 10
395.514708
 20
749.539628
 30
0.0
 10
395.888475
 20
750.691143
 30
0.0
 10
396.115090
 20
751.655481
 30
0.0
 10
396.124900
 20
752.487382
 30
0.0
 10
395.938507
 20
753.214314
 30
0.0
 10
395.516670
 20
753.890234
 30
0.0
 10
394.875087
 20
754.589698
 30
0.0
 10
393.948027
 20
755.347041
 30
0.0
 10
394.358092
 20
756.384269
 30
0.0
 10
394.768156
 20
757.421398
 30
0.0
 10
403.018297
 20
754.159326
 30
0.0
 10
411.268536
 20
750.897255
 30
0.0
 10
410.858472
 20
749.860125
 30
0.0
 10
410.448408
 20
748.822898
 30
0.0
 10
408.846214
 20
748.881759
 30
0.0
 10
407.744043
 20
748.690461
 30
0.0
 10
406.971984
 20
748.232327
 30
0.0
 10
406.299008
 20
747.517167
 30
0.0
 10
405.600525
 20
746.303063
 30
0.0
 10
404.730365
 20
744.285114
 30
0.0
 10
402.655027
 20
739.036389
 30
0.0
 10
400.579788
 20
733.787664
 30
0.0
 10
407.682828
 20
730.979214
 30
0.0
 10
414.785868
 20
728.170763
 30
0.0
 10
416.861107
 20
733.419489
 30
0.0
 10
418.936445
 20
738.668116
 30
0.0
 10
419.680055
 20
740.709216
 30
0.0
 10
420.021448
 20
742.055169
 30
0.0
 10
420.060688
 20
743.021469
 30
0.0
 10
419.802681
 20
743.886724
 30
0.0
 10
419.154230
 20
744.797106
 30
0.0
 10
417.930905
 20
745.862489
 30
0.0
 10
418.340969
 20
746.899716
 30
0.0
 10
418.751033
 20
747.936845
 30
0.0
 10
426.954086
 20
744.693413
 30
0.0
 10
435.157138
 20
741.449981
 30
0.0
 10
434.747074
 20
740.412851
 30
0.0
 10
434.337009
 20
739.375624
 30
0.0
 10
432.987329
 20
739.454105
 30
0.0
 10
432.002390
 20
739.355023
 30
0.0
 10
431.274476
 20
739.097997
 30
0.0
 10
430.669190
 20
738.646730
 30
0.0
 10
430.180644
 20
738.031633
 30
0.0
 10
429.739188
 20
737.306663
 30
0.0
 10
429.282035
 20
736.287977
 30
0.0
 10
428.681653
 20
734.817141
 30
0.0
 10
423.331491
 20
721.285018
 30
0.0
  0
LWPOLYLINE
  5
110
100
AcDbEntity
  8
Layer_1
 62
7
100
AcDbPolyline
 90
22
 70
1
 10
453.743451
 20
675.874514
 30
0.0
 10
447.472998
 20
682.081789
 30
0.0
 10
444.894400
 20
689.240060
 30
0.0
 10
446.037773
 20
697.318033
 30
0.0
 10
450.876532
 20
706.323556
 30
0.0
 10
455.431484
 20
711.733560
 30
0.0
 10
460.323022
 20
715.540390
 30
0.0
 10
465.517202
 20
717.695876
 30
0.0
 10
470.885612
 20
718.135371
 30
0.0
 10
476.302385
 20
716.885459
 30
0.0
 10
481.641658
 20
713.973708
 30
0.0
 10
488.029440
 20
707.683537
 30
0.0
 10
490.683871
 20
700.471703
 30
0.0
 10
489.641935
 20
692.405011
 30
0.0
 10
484.901571
 20
683.495334
 30
0.0
 10
481.164590
 20
678.862686
 30
0.0
 10
477.323131
 20
675.400389
 30
0.0
 10
473.448121
 20
673.047718
 30
0.0
 10
469.516605
 20
671.728057
 30
0.0
 10
465.553108
 20
671.403341
 30
0.0
 10
461.582547
 20
672.035115
 30
0.0
 10
457.649461
 20
673.540286
 30
0.0
  0
LWPOLYLINE
  5
111
100
AcDbEntity
  8
Layer_1
 62
7
100
AcDbPolyline
 90
24
 70
1
 10
460.181952
 20
700.869308
 30
0.0
 10
455.541750
 20
693.243877
 30
0.0
 10
453.396564
 20
687.042390
 30
0.0
 10
453.787008
 20
682.205102
 30
0.0
 10
456.659421
 20
678.656182
 30
0.0
 10
458.826287
 20
677.550087
 30
0.0
 10
461.075264
 20
677.234201
 30
0.0
 10
463.395855
 20
677.663885
 30
0.0
 10
465.738618
 20
678.740059
 30
0.0
 10
468.132981
 20
680.431525
 30
0.0
 10
470.514494
 20
682.690705
 30
0.0
 10
472.911114
 20
685.425285
 30
0.0
 10
475.295667
 20
688.582191
 30
0.0
 10
478.637593
 20
693.783338
 30
0.0
 10
480.904327
 20
698.399210
 30
0.0
 10
482.126083
 20
702.428926
 30
0.0
 10
482.238900
 20
705.855514
 30
0.0
 10
481.259847
 20
708.687901
 30
0.0
 10
479.111718
 20
710.918729
 30
0.0
 10
474.941913
 20
712.425666
 30
0.0
 10
470.438661
 20
711.292496
 30
0.0
 10
465.562918
 20
707.464182
 30
0.0
 10
460.181461
 20
700.869112
 30
0.0
 10
460.181461
 20
700.869112
 30
0.0
  0
LWPOLYLINE
  5
112
100
AcDbEntity
  8
Layer_1
 62
7
100
AcDbPolyline
 90
76
 70
1
 10
492.316574
 20
655.681298
 30
0.0
 10
491.230296
 20
654.533608
 30
0.0
 10
490.475896
 20
653.652657
 30
0.0
 10
490.000103
 20
652.960060
 30
0.0
 10
489.702856
 20
652.329267
 30
0.0
 10
489.548836
 20
651.748506
 30
0.0
 10
489.499785
 20
651.204043
 30
0.0
 10
489.605735
 20
650.637997
 30
0.0
 10
489.824502
 20
649.988565
 30
0.0
 10
490.245357
 20
649.234164
 30
0.0
 10
490.870264
 20
648.351251
 30
0.0
 10
490.090357
 20
647.553685
 30
0.0
 10
489.310450
 20
646.756120
 30
0.0
 10
482.808870
 20
653.110842
 30
0.0
 10
476.307290
 20
659.465564
 30
0.0
 10
477.087197
 20
660.263129
 30
0.0
 10
477.867104
 20
661.060694
 30
0.0
 10
478.895012
 20
660.517212
 30
0.0
 10
479.765172
 20
660.198382
 30
0.0
 10
480.554889
 20
660.088508
 30
0.0
 10
481.294575
 20
660.218002
 30
0.0
 10
482.073501
 20
660.579016
 30
0.0
 10
482.884800
 20
661.168606
 30
0.0
 10
483.790277
 20
661.985792
 30
0.0
 10
484.847615
 20
663.031554
 30
0.0
 10
495.017505
 20
673.436495
 30
0.0
 10
505.187493
 20
683.841436
 30
0.0
 10
506.190973
 20
684.904562
 30
0.0
 10
506.981672
 20
685.821811
 30
0.0
 10
507.563414
 20
686.623300
 30
0.0
 10
507.895978
 20
687.385549
 30
0.0
 10
508.005851
 20
688.128178
 30
0.0
 10
507.876357
 20
688.914952
 30
0.0
 10
507.555565
 20
689.807676
 30
0.0
 10
506.993444
 20
690.864719
 30
0.0
 10
507.773351
 20
691.662285
 30
0.0
 10
508.553258
 20
692.459850
 30
0.0
 10
520.239110
 20
681.037891
 30
0.0
 10
531.925061
 20
669.615931
 30
0.0
 10
528.168950
 20
665.773001
 30
0.0
 10
524.412839
 20
661.930070
 30
0.0
 10
522.757180
 20
663.548353
 30
0.0
 10
521.101619
 20
665.166537
 30
0.0
 10
522.242441
 20
667.808509
 30
0.0
 10
522.772190
 20
669.583067
 30
0.0
 10
522.876177
 20
670.910773
 30
0.0
 10
522.693708
 20
672.163333
 30
0.0
 10
522.003074
 20
673.547644
 30
0.0
 10
520.532140
 20
675.221746
 30
0.0
 10
518.199776
 20
677.501429
 30
0.0
 10
515.867511
 20
679.781014
 30
0.0
 10
509.855261
 20
673.629951
 30
0.0
 10
503.843110
 20
667.478790
 30
0.0
 10
505.389975
 20
665.966947
 30
0.0
 10
506.936839
 20
664.455007
 30
0.0
 10
508.022529
 20
663.559340
 30
0.0
 10
509.007762
 20
663.092377
 30
0.0
 10
510.042243
 20
663.013896
 30
0.0
 10
511.180416
 20
663.283675
 30
0.0
 10
512.523622
 20
663.908581
 30
0.0
 10
514.125032
 20
664.942767
 30
0.0
 10
515.490605
 20
663.607998
 30
0.0
 10
516.856178
 20
662.273229
 30
0.0
 10
511.706241
 20
657.004295
 30
0.0
 10
506.556303
 20
651.735361
 30
0.0
 10
505.190730
 20
653.070130
 30
0.0
 10
503.825157
 20
654.404899
 30
0.0
 10
504.821869
 20
656.065365
 30
0.0
 10
505.415383
 20
657.434372
 30
0.0
 10
505.658675
 20
658.602270
 30
0.0
 10
505.557630
 20
659.610852
 30
0.0
 10
505.073990
 20
660.579114
 30
0.0
 10
504.171456
 20
661.626348
 30
0.0
 10
502.624591
 20
663.138288
 30
0.0
 10
501.077824
 20
664.650131
 30
0.0
 10
496.697101
 20
660.165224
 30
0.0
  0
LWPOLYLINE
  5
113
100
AcDbEntity
  8
Layer_1
 62
7
100
AcDbPolyline
 90
98
 70
1
 10
183.180194
 20
125.609240
 30
0.0
 10
182.133058
 20
123.677425
 30
0.0
 10
181.576823
 20
122.399162
 30
0.0
 10
181.445269
 20
121.472103
 30
0.0
 10
181.579864
 20
120.567607
 30
0.0
 10
182.114713
 20
119.580215
 30
0.0
 10
183.183971
 20
118.403487
 30
0.0
 10
182.629991
 20
117.435225
 30
0.0
 10
182.076012
 20
116.466963
 30
0.0
 10
174.420033
 20
120.848373
 30
0.0
 10
166.764063
 20
125.229685
 30
0.0
 10
167.318042
 20
126.197947
 30
0.0
 10
167.872021
 20
127.166209
 30
0.0
 10
169.524483
 20
126.805195
 30
0.0
 10
170.575621
 20
126.785575
 30
0.0
 10
171.303142
 20
127.070069
 30
0.0
 10
171.984653
 20
127.614533
 30
0.0
 10
172.847848
 20
128.766048
 30
0.0
 10
174.086850
 20
130.811759
 30
0.0
 10
177.452576
 20
136.693043
 30
0.0
 10
180.818312
 20
142.574327
 30
0.0
 10
174.189004
 20
146.368109
 30
0.0
 10
167.559696
 20
150.161891
 30
0.0
 10
164.193960
 20
144.280607
 30
0.0
 10
160.828235
 20
138.399323
 30
0.0
 10
160.276315
 20
137.400944
 30
0.0
 10
159.795716
 20
136.459169
 30
0.0
 10
159.426266
 20
135.609610
 30
0.0
 10
159.207794
 20
134.887583
 30
0.0
 10
159.126369
 20
134.252866
 30
0.0
 10
159.169534
 20
133.664257
 30
0.0
 10
159.374566
 20
133.069762
 30
0.0
 10
159.722140
 20
132.451722
 30
0.0
 10
160.232072
 20
131.828778
 30
0.0
 10
160.890823
 20
131.159725
 30
0.0
 10
160.336844
 20
130.191463
 30
0.0
 10
159.782865
 20
129.223202
 30
0.0
 10
152.082887
 20
133.629725
 30
0.0
 10
144.382918
 20
138.036249
 30
0.0
 10
144.936898
 20
139.004511
 30
0.0
 10
145.490877
 20
139.972773
 30
0.0
 10
146.630934
 20
139.719671
 30
0.0
 10
147.544750
 20
139.614703
 30
0.0
 10
148.337116
 20
139.702994
 30
0.0
 10
149.020589
 20
140.013976
 30
0.0
 10
149.679046
 20
140.552553
 30
0.0
 10
150.304149
 20
141.304992
 30
0.0
 10
150.974477
 20
142.323482
 30
0.0
 10
151.735058
 20
143.601254
 30
0.0
 10
158.970113
 20
156.243890
 30
0.0
 10
166.205179
 20
168.886527
 30
0.0
 10
166.909155
 20
170.167831
 30
0.0
 10
167.443318
 20
171.254207
 30
0.0
 10
167.805509
 20
172.176361
 30
0.0
 10
167.934904
 20
172.998452
 30
0.0
 10
167.855442
 20
173.745004
 30
0.0
 10
167.533179
 20
174.474880
 30
0.0
 10
166.998133
 20
175.257730
 30
0.0
 10
166.188599
 20
176.139662
 30
0.0
 10
166.742579
 20
177.107924
 30
0.0
 10
167.296558
 20
178.076186
 30
0.0
 10
174.996526
 20
173.669662
 30
0.0
 10
182.696504
 20
169.263139
 30
0.0
 10
182.142525
 20
168.294877
 30
0.0
 10
181.588546
 20
167.326615
 30
0.0
 10
180.011495
 20
167.615033
 30
0.0
 10
178.893256
 20
167.585603
 30
0.0
 10
178.064102
 20
167.242247
 30
0.0
 10
177.295476
 20
166.631075
 30
0.0
 10
176.431202
 20
165.529297
 30
0.0
 10
175.281384
 20
163.656048
 30
0.0
 10
172.478005
 20
158.757447
 30
0.0
 10
169.674637
 20
153.858748
 30
0.0
 10
176.303945
 20
150.064966
 30
0.0
 10
182.933253
 20
146.271185
 30
0.0
 10
185.736631
 20
151.169884
 30
0.0
 10
188.540009
 20
156.068485
 30
0.0
 10
189.567211
 20
157.982543
 30
0.0
 10
190.097253
 20
159.266006
 30
0.0
 10
190.271776
 20
160.217590
 30
0.0
 10
190.140418
 20
161.110314
 30
0.0
 10
189.628622
 20
162.104082
 30
0.0
 10
188.569881
 20
163.333098
 30
0.0
 10
189.123860
 20
164.301360
 30
0.0
 10
189.677840
 20
165.269622
 30
0.0
 10
197.333809
 20
160.888310
 30
0.0
 10
204.989789
 20
156.506900
 30
0.0
 10
204.435810
 20
155.538639
 30
0.0
 10
203.881831
 20
154.570377
 30
0.0
 10
202.557333
 20
154.841137
 30
0.0
 10
201.568047
 20
154.880377
 30
0.0
 10
200.810213
 20
154.728320
 30
0.0
 10
200.146655
 20
154.370249
 30
0.0
 10
199.575213
 20
153.830691
 30
0.0
 10
199.035066
 20
153.176354
 30
0.0
 10
198.437138
 20
152.233599
 30
0.0
 10
197.633490
 20
150.863218
 30
0.0
 10
190.406685
 20
138.235297
 30
0.0
  0
LWPOLYLINE
  5
114
100
AcDbEntity
  8
Layer_1
 62
7
100
AcDbPolyline
 90
50
 70
1
 10
215.672759
 20
119.189673
 30
0.0
 10
208.880377
 20
121.624651
 30
0.0
 10
202.087995
 20
124.059530
 30
0.0
 10
201.021318
 20
122.736533
 30
0.0
 10
199.954650
 20
121.413536
 30
0.0
 10
199.098518
 20
120.302242
 30
0.0
 10
198.333327
 20
119.194284
 30
0.0
 10
197.682325
 20
118.054344
 30
0.0
 10
197.146004
 20
116.783635
 30
0.0
 10
197.114611
 20
114.093103
 30
0.0
 10
199.256844
 20
112.257035
 30
0.0
 10
198.880527
 20
111.207153
 30
0.0
 10
198.504210
 20
110.157270
 30
0.0
 10
191.711827
 20
112.592248
 30
0.0
 10
184.919445
 20
115.027128
 30
0.0
 10
185.295763
 20
116.077010
 30
0.0
 10
185.672080
 20
117.126892
 30
0.0
 10
186.874569
 20
117.001322
 30
0.0
 10
188.036543
 20
117.214203
 30
0.0
 10
189.184114
 20
117.736103
 30
0.0
 10
190.343380
 20
118.541516
 30
0.0
 10
191.626450
 20
119.742083
 30
0.0
 10
193.145424
 20
121.450422
 30
0.0
 10
206.114170
 20
136.745429
 30
0.0
 10
219.082915
 20
152.040437
 30
0.0
 10
223.330142
 20
150.517901
 30
0.0
 10
227.577378
 20
148.995366
 30
0.0
 10
226.439999
 20
129.297464
 30
0.0
 10
225.302620
 20
109.599563
 30
0.0
 10
225.214329
 20
107.324589
 30
0.0
 10
225.259455
 20
105.773408
 30
0.0
 10
225.486070
 20
104.677908
 30
0.0
 10
225.918599
 20
103.705722
 30
0.0
 10
226.645041
 20
102.853220
 30
0.0
 10
227.730809
 20
102.050750
 30
0.0
 10
227.354492
 20
101.000867
 30
0.0
 10
226.978174
 20
99.950985
 30
0.0
 10
218.197392
 20
103.098768
 30
0.0
 10
209.416600
 20
106.246551
 30
0.0
 10
209.792918
 20
107.296434
 30
0.0
 10
210.169333
 20
108.346316
 30
0.0
 10
211.725841
 20
108.157961
 30
0.0
 10
212.949795
 20
108.395367
 30
0.0
 10
213.862826
 20
109.064419
 30
0.0
 10
214.486555
 20
110.178362
 30
0.0
 10
214.804404
 20
111.240213
 30
0.0
 10
215.050835
 20
112.453336
 30
0.0
 10
215.247038
 20
113.926919
 30
0.0
 10
215.414007
 20
115.769854
 30
0.0
 10
215.543305
 20
117.479273
 30
0.0
  0
LWPOLYLINE
  5
115
100
AcDbEntity
  8
Layer_1
 62
7
100
AcDbPolyline
 90
6
 70
1
 10
204.631316
 20
127.348482
 30
0.0
 10
210.357914
 20
125.295609
 30
0.0
 10
216.084521
 20
123.242639
 30
0.0
 10
216.749845
 20
133.110866
 30
0.0
 10
217.415170
 20
142.978996
 30
0.0
 10
211.023238
 20
135.163739
 30
0.0
  0
LWPOLYLINE
  5
116
100
AcDbEntity
  8
Layer_1
 62
7
100
AcDbPolyline
 90
80
 70
1
 10
248.440922
 20
95.979835
 30
0.0
 10
239.705669
 20
97.529741
 30
0.0
 10
230.970415
 20
99.079647
 30
0.0
 10
231.165245
 20
100.177796
 30
0.0
 10
231.360075
 20
101.275944
 30
0.0
 10
232.518732
 20
101.422115
 30
0.0
 10
233.414105
 20
101.632052
 30
0.0
 10
234.129068
 20
101.986199
 30
0.0
 10
234.667940
 20
102.508099
 30
0.0
 10
235.106159
 20
103.236993
 30
0.0
 10
235.440882
 20
104.156204
 30
0.0
 10
235.728319
 20
105.340878
 30
0.0
 10
236.013108
 20
106.800629
 30
0.0
 10
238.557871
 20
121.143070
 30
0.0
 10
241.102644
 20
135.485512
 30
0.0
 10
241.333084
 20
136.929174
 30
0.0
 10
241.469249
 20
138.132192
 30
0.0
 10
241.498680
 20
139.122331
 30
0.0
 10
241.343287
 20
139.939517
 30
0.0
 10
241.017001
 20
140.615436
 30
0.0
 10
240.467339
 20
141.193254
 30
0.0
 10
239.699400
 20
141.749490
 30
0.0
 10
238.639766
 20
142.306706
 30
0.0
 10
238.834596
 20
143.404855
 30
0.0
 10
239.029425
 20
144.503003
 30
0.0
 10
248.729723
 20
142.781910
 30
0.0
 10
258.430010
 20
141.060719
 30
0.0
 10
262.032131
 20
140.275907
 30
0.0
 10
264.985075
 20
139.314512
 30
0.0
 10
267.451328
 20
138.173297
 30
0.0
 10
269.515040
 20
136.794578
 30
0.0
 10
270.924886
 20
135.454610
 30
0.0
 10
272.024222
 20
133.912356
 30
0.0
 10
272.810702
 20
132.202446
 30
0.0
 10
273.270013
 20
130.293097
 30
0.0
 10
273.410494
 20
128.183031
 30
0.0
 10
273.162101
 20
125.815743
 30
0.0
 10
272.333634
 20
122.839147
 30
0.0
 10
271.005467
 20
120.431834
 30
0.0
 10
269.286709
 20
118.531412
 30
0.0
 10
267.219877
 20
117.087456
 30
0.0
 10
264.692811
 20
115.999804
 30
0.0
 10
261.514960
 20
115.112966
 30
0.0
 10
261.485529
 20
114.946194
 30
0.0
 10
261.456099
 20
114.779421
 30
0.0
 10
263.480894
 20
113.132983
 30
0.0
 10
265.008139
 20
111.197244
 30
0.0
 10
266.199788
 20
108.917758
 30
0.0
 10
267.139404
 20
106.185238
 30
0.0
 10
267.786187
 20
103.736428
 30
0.0
 10
268.432971
 20
101.287618
 30
0.0
 10
269.351397
 20
98.387247
 30
0.0
 10
270.386054
 20
96.238529
 30
0.0
 10
271.694454
 20
94.762101
 30
0.0
 10
273.355754
 20
93.824251
 30
0.0
 10
273.160924
 20
92.726103
 30
0.0
 10
272.966094
 20
91.627954
 30
0.0
 10
266.560242
 20
92.764558
 30
0.0
 10
260.154390
 20
93.901163
 30
0.0
 10
258.687007
 20
97.576830
 30
0.0
 10
257.200318
 20
102.594624
 30
0.0
 10
256.407363
 20
105.670107
 30
0.0
 10
255.614409
 20
108.745491
 30
0.0
 10
254.916711
 20
111.100418
 30
0.0
 10
254.255506
 20
112.693685
 30
0.0
 10
253.566343
 20
113.742782
 30
0.0
 10
252.784867
 20
114.464810
 30
0.0
 10
251.731551
 20
114.961203
 30
0.0
 10
250.160269
 20
115.342818
 30
0.0
 10
249.195244
 20
115.513515
 30
0.0
 10
248.230219
 20
115.684211
 30
0.0
 10
247.279616
 20
110.326593
 30
0.0
 10
246.329012
 20
104.968877
 30
0.0
 10
246.010869
 20
102.837229
 30
0.0
 10
245.942198
 20
101.433495
 30
0.0
 10
246.123980
 20
100.474062
 30
0.0
 10
246.557392
 20
99.676497
 30
0.0
 10
247.405382
 20
98.942697
 30
0.0
 10
248.830924
 20
98.174563
 30
0.0
 10
248.635997
 20
97.076218
 30
0.0
  0
LWPOLYLINE
  5
117
100
AcDbEntity
  8
Layer_1
 62
7
100
AcDbPolyline
 90
20
 70
1
 10
252.203802
 20
138.080885
 30
0.0
 10
250.562387
 20
128.829814
 30
0.0
 10
248.920982
 20
119.578743
 30
0.0
 10
250.568204
 20
119.286401
 30
0.0
 10
252.215427
 20
118.994058
 30
0.0
 10
254.675656
 20
118.738995
 30
0.0
 10
256.732001
 20
118.916558
 30
0.0
 10
258.432904
 20
119.507129
 30
0.0
 10
259.814988
 20
120.429284
 30
0.0
 10
260.929647
 20
121.681746
 30
0.0
 10
261.749972
 20
123.209579
 30
0.0
 10
262.371249
 20
124.970010
 30
0.0
 10
262.822417
 20
126.932335
 30
0.0
 10
262.992525
 20
130.986772
 30
0.0
 10
261.897075
 20
134.098749
 30
0.0
 10
259.552655
 20
136.265223
 30
0.0
 10
255.975903
 20
137.483349
 30
0.0
 10
253.601954
 20
137.887527
 30
0.0
 10
252.203782
 20
138.083730
 30
0.0
 10
252.203802
 20
138.082946
 30
0.0
  0
LWPOLYLINE
  5
118
100
AcDbEntity
  8
Layer_1
 62
7
100
AcDbPolyline
 90
94
 70
1
 10
327.565572
 20
135.846035
 30
0.0
 10
326.070681
 20
135.288818
 30
0.0
 10
325.151077
 20
134.690399
 30
0.0
 10
324.613383
 20
133.996821
 30
0.0
 10
324.265123
 20
133.086439
 30
0.0
 10
324.110515
 20
131.714882
 30
0.0
 10
324.086970
 20
129.568126
 30
0.0
 10
324.330360
 20
114.952963
 30
0.0
 10
324.573750
 20
100.337799
 30
0.0
 10
324.655174
 20
98.488586
 30
0.0
 10
324.830972
 20
97.063367
 30
0.0
 10
325.152549
 20
96.020842
 30
0.0
 10
325.672389
 20
95.251726
 30
0.0
 10
326.645164
 20
94.684699
 30
0.0
 10
328.259159
 20
94.179477
 30
0.0
 10
328.277798
 20
93.064357
 30
0.0
 10
328.296438
 20
91.949237
 30
0.0
 10
319.628727
 20
91.805027
 30
0.0
 10
310.961027
 20
91.660818
 30
0.0
 10
310.942388
 20
92.775938
 30
0.0
 10
310.923748
 20
93.891156
 30
0.0
 10
312.176181
 20
94.292391
 30
0.0
 10
312.973256
 20
94.634766
 30
0.0
 10
313.474358
 20
94.989893
 30
0.0
 10
313.838904
 20
95.426445
 30
0.0
 10
314.115746
 20
96.056257
 30
0.0
 10
314.287227
 20
96.921512
 30
0.0
 10
314.391706
 20
98.258341
 30
0.0
 10
314.401025
 20
100.235970
 30
0.0
 10
314.263193
 20
108.515051
 30
0.0
 10
314.125360
 20
116.794132
 30
0.0
 10
314.100835
 20
119.776712
 30
0.0
 10
314.118493
 20
123.250095
 30
0.0
 10
314.166563
 20
126.428289
 30
0.0
 10
314.233272
 20
128.525111
 30
0.0
 10
313.878438
 20
128.520206
 30
0.0
 10
313.523605
 20
128.515301
 30
0.0
 10
313.123547
 20
127.165032
 30
0.0
 10
312.689448
 20
125.831145
 30
0.0
 10
312.077393
 20
124.021074
 30
0.0
 10
311.076963
 20
121.173482
 30
0.0
 10
306.751932
 20
108.899020
 30
0.0
 10
302.426911
 20
96.624657
 30
0.0
 10
299.453190
 20
96.575606
 30
0.0
 10
296.479478
 20
96.526555
 30
0.0
 10
291.486601
 20
110.149913
 30
0.0
 10
286.493724
 20
123.773368
 30
0.0
 10
285.660941
 20
126.083364
 30
0.0
 10
284.929790
 20
128.378155
 30
0.0
 10
284.625675
 20
128.373250
 30
0.0
 10
284.321561
 20
128.368345
 30
0.0
 10
284.676296
 20
122.289975
 30
0.0
 10
284.878973
 20
115.195077
 30
0.0
 10
285.008369
 20
107.422789
 30
0.0
 10
285.137765
 20
99.650598
 30
0.0
 10
285.231943
 20
97.531115
 30
0.0
 10
285.432168
 20
96.173978
 30
0.0
 10
285.801912
 20
95.284198
 30
0.0
 10
286.405335
 20
94.568057
 30
0.0
 10
287.386723
 20
93.993182
 30
0.0
 10
288.890168
 20
93.528181
 30
0.0
 10
288.908807
 20
92.413061
 30
0.0
 10
288.927446
 20
91.297941
 30
0.0
 10
282.540714
 20
91.191991
 30
0.0
 10
276.153982
 20
91.085060
 30
0.0
 10
276.135342
 20
92.200180
 30
0.0
 10
276.116703
 20
93.315300
 30
0.0
 10
277.225937
 20
93.689067
 30
0.0
 10
278.064214
 20
94.091283
 30
0.0
 10
278.706779
 20
94.574924
 30
0.0
 10
279.161284
 20
95.191001
 30
0.0
 10
279.444110
 20
95.965022
 30
0.0
 10
279.571838
 20
96.922493
 30
0.0
 10
279.627756
 20
98.114917
 30
0.0
 10
279.628247
 20
99.593797
 30
0.0
 10
279.384857
 20
114.208863
 30
0.0
 10
279.141467
 20
128.824026
 30
0.0
 10
279.046309
 20
130.985693
 30
0.0
 10
278.846574
 20
132.334491
 30
0.0
 10
278.519700
 20
133.190917
 30
0.0
 10
277.975923
 20
133.874685
 30
0.0
 10
277.011487
 20
134.450541
 30
0.0
 10
275.422409
 20
134.982251
 30
0.0
 10
275.403770
 20
136.097371
 30
0.0
 10
275.385131
 20
137.212589
 30
0.0
 10
283.782493
 20
137.352874
 30
0.0
 10
292.179865
 20
137.493159
 30
0.0
 10
297.091072
 20
123.699301
 30
0.0
 10
302.002279
 20
109.905542
 30
0.0
 10
306.840126
 20
123.861659
 30
0.0
 10
311.677972
 20
137.817777
 30
0.0
 10
319.602250
 20
137.950214
 30
0.0
 10
327.526527
 20
138.081670
 30
0.0
 10
327.545166
 20
136.965667
 30
0.0
  0
LWPOLYLINE
  5
119
100
AcDbEntity
  8
Layer_1
 62
7
100
AcDbPolyline
 90
24
 70
1
 10
354.727899
 20
96.945939
 30
0.0
 10
345.914253
 20
96.534894
 30
0.0
 10
338.900878
 20
99.484905
 30
0.0
 10
333.730869
 20
105.796167
 30
0.0
 10
330.381213
 20
115.455046
 30
0.0
 10
329.484761
 20
122.470188
 30
0.0
 10
329.995968
 20
128.647444
 30
0.0
 10
331.927243
 20
133.929033
 30
0.0
 10
335.239170
 20
138.176829
 30
0.0
 10
339.826789
 20
141.316371
 30
0.0
 10
345.585133
 20
143.273300
 30
0.0
 10
354.539201
 20
143.713776
 30
0.0
 10
361.643428
 20
140.783386
 30
0.0
 10
366.873554
 20
134.554234
 30
0.0
 10
370.219541
 20
125.032795
 30
0.0
 10
371.097844
 20
119.146018
 30
0.0
 10
371.043888
 20
113.974694
 30
0.0
 10
370.151066
 20
109.530303
 30
0.0
 10
368.459777
 20
105.743683
 30
0.0
 10
366.014881
 20
102.607280
 30
0.0
 10
362.861241
 20
100.113441
 30
0.0
 10
359.090346
 20
98.238721
 30
0.0
 10
354.727615
 20
96.945154
 30
0.0
 10
354.727625
 20
96.945154
 30
0.0
  0
LWPOLYLINE
  5
11a
100
AcDbEntity
  8
Layer_1
 62
7
100
AcDbPolyline
 90
22
 70
1
 10
340.695939
 20
118.609206
 30
0.0
 10
343.164713
 20
110.031210
 30
0.0
 10
346.275306
 20
104.253227
 30
0.0
 10
350.099117
 20
101.264957
 30
0.0
 10
354.655697
 20
100.975557
 30
0.0
 10
356.936900
 20
101.821192
 30
0.0
 10
358.692348
 20
103.262205
 30
0.0
 10
359.947440
 20
105.260926
 30
0.0
 10
360.741866
 20
107.713561
 30
0.0
 10
361.118575
 20
110.620898
 30
0.0
 10
361.068544
 20
113.903080
 30
0.0
 10
360.679277
 20
117.518317
 30
0.0
 10
359.971082
 20
121.410691
 30
0.0
 10
358.407000
 20
127.391941
 30
0.0
 10
356.545436
 20
132.185475
 30
0.0
 10
354.407598
 20
135.813367
 30
0.0
 10
351.962859
 20
138.216952
 30
0.0
 10
349.215909
 20
139.414772
 30
0.0
 10
346.119619
 20
139.346101
 30
0.0
 10
342.187200
 20
137.298330
 30
0.0
 10
339.971558
 20
133.217307
 30
0.0
 10
339.486936
 20
127.037107
 30
0.0
  0
LWPOLYLINE
  5
11b
100
AcDbEntity
  8
Layer_1
 62
7
100
AcDbPolyline
 90
80
 70
1
 10
402.356921
 20
162.129981
 30
0.0
 10
402.777384
 20
161.096972
 30
0.0
 10
403.197847
 20
160.063963
 30
0.0
 10
402.278636
 20
159.251683
 30
0.0
 10
401.693951
 20
158.648358
 30
0.0
 10
401.358247
 20
158.128420
 30
0.0
 10
401.123294
 20
157.539811
 30
0.0
 10
401.060509
 20
156.820727
 30
0.0
 10
401.177544
 20
155.882877
 30
0.0
 10
401.524039
 20
154.628158
 30
0.0
 10
402.174648
 20
152.895195
 30
0.0
 10
409.271537
 20
135.459319
 30
0.0
 10
416.368417
 20
118.023442
 30
0.0
 10
412.392912
 20
116.405356
 30
0.0
 10
408.417397
 20
114.787171
 30
0.0
 10
396.417825
 20
124.097397
 30
0.0
 10
384.418254
 20
133.407525
 30
0.0
 10
380.148778
 20
136.814689
 30
0.0
 10
377.063790
 20
139.463332
 30
0.0
 10
376.922916
 20
139.404471
 30
0.0
 10
376.782042
 20
139.345610
 30
0.0
 10
379.832636
 20
132.523238
 30
0.0
 10
382.879601
 20
125.261372
 30
0.0
 10
384.930952
 20
120.221603
 30
0.0
 10
386.982294
 20
115.181735
 30
0.0
 10
387.849315
 20
113.208424
 30
0.0
 10
388.539263
 20
111.984117
 30
0.0
 10
389.219794
 20
111.275824
 30
0.0
 10
389.996071
 20
110.825538
 30
0.0
 10
391.095269
 20
110.679366
 30
0.0
 10
392.707489
 20
110.796107
 30
0.0
 10
393.127952
 20
109.763098
 30
0.0
 10
393.548415
 20
108.730089
 30
0.0
 10
387.632109
 20
106.321991
 30
0.0
 10
381.715803
 20
103.913894
 30
0.0
 10
381.295340
 20
104.946903
 30
0.0
 10
380.874877
 20
105.979813
 30
0.0
 10
381.774075
 20
106.729309
 30
0.0
 10
382.410165
 20
107.407190
 30
0.0
 10
382.826508
 20
108.088015
 30
0.0
 10
383.004170
 20
108.816909
 30
0.0
 10
382.986512
 20
109.667449
 30
0.0
 10
382.780008
 20
110.622958
 30
0.0
 10
382.404475
 20
111.747300
 30
0.0
 10
381.880123
 20
113.102866
 30
0.0
 10
376.369525
 20
126.641562
 30
0.0
 10
370.858928
 20
140.180160
 30
0.0
 10
369.998283
 20
142.137775
 30
0.0
 10
369.327465
 20
143.315190
 30
0.0
 10
368.684606
 20
144.020540
 30
0.0
 10
367.870657
 20
144.473769
 30
0.0
 10
366.760158
 20
144.668991
 30
0.0
 10
365.165067
 20
144.580699
 30
0.0
 10
364.744604
 20
145.613708
 30
0.0
 10
364.324141
 20
146.646717
 30
0.0
 10
370.663039
 20
149.226885
 30
0.0
 10
377.001937
 20
151.806955
 30
0.0
 10
386.460541
 20
144.436490
 30
0.0
 10
395.919156
 20
137.065927
 30
0.0
 10
397.978267
 20
135.413603
 30
0.0
 10
400.611606
 20
133.247031
 30
0.0
 10
403.403114
 20
130.871209
 30
0.0
 10
405.936733
 20
128.591035
 30
0.0
 10
406.187186
 20
128.693061
 30
0.0
 10
406.437639
 20
128.795086
 30
0.0
 10
402.994070
 20
136.515774
 30
0.0
 10
399.442364
 20
144.995178
 30
0.0
 10
398.257425
 20
147.906439
 30
0.0
 10
397.072486
 20
150.817601
 30
0.0
 10
396.319851
 20
152.554685
 30
0.0
 10
395.718293
 20
153.696390
 30
0.0
 10
395.189918
 20
154.411550
 30
0.0
 10
394.656835
 20
154.869684
 30
0.0
 10
394.105995
 20
155.147312
 30
0.0
 10
393.461762
 20
155.295445
 30
0.0
 10
392.607984
 20
155.334685
 30
0.0
 10
391.365833
 20
155.246394
 30
0.0
 10
390.945370
 20
156.279403
 30
0.0
 10
390.524907
 20
157.312412
 30
0.0
 10
396.441223
 20
159.720804
 30
0.0
  0
LWPOLYLINE
  5
11c
100
AcDbEntity
  8
Layer_1
 62
7
100
AcDbPolyline
 90
78
 70
1
 10
441.061925
 20
152.142336
 30
0.0
 10
443.484797
 20
148.196694
 30
0.0
 10
445.907669
 20
144.250953
 30
0.0
 10
446.756051
 20
142.917851
 30
0.0
 10
447.426575
 20
141.971171
 30
0.0
 10
447.982222
 20
141.341360
 30
0.0
 10
448.521486
 20
140.898922
 30
0.0
 10
449.047604
 20
140.607560
 30
0.0
 10
449.563912
 20
140.428035
 30
0.0
 10
450.139572
 20
140.388794
 30
0.0
 10
450.821574
 20
140.447655
 30
0.0
 10
451.655339
 20
140.672307
 30
0.0
 10
452.664254
 20
141.063732
 30
0.0
 10
453.247860
 20
140.113129
 30
0.0
 10
453.831466
 20
139.162525
 30
0.0
 10
445.882545
 20
134.281386
 30
0.0
 10
437.933625
 20
129.400247
 30
0.0
 10
437.350019
 20
130.350851
 30
0.0
 10
436.766413
 20
131.301455
 30
0.0
 10
437.683368
 20
132.182406
 30
0.0
 10
438.320145
 20
132.970161
 30
0.0
 10
438.707842
 20
133.744182
 30
0.0
 10
438.819874
 20
134.546653
 30
0.0
 10
438.680766
 20
135.403079
 30
0.0
 10
438.314553
 20
136.337986
 30
0.0
 10
437.746545
 20
137.456638
 30
0.0
 10
436.979489
 20
138.770315
 30
0.0
 10
434.556627
 20
142.716056
 30
0.0
 10
432.133755
 20
146.661699
 30
0.0
 10
423.173340
 20
152.502271
 30
0.0
 10
414.212914
 20
158.342843
 30
0.0
 10
412.189894
 20
159.619045
 30
0.0
 10
410.718891
 20
160.480376
 30
0.0
 10
409.476279
 20
161.115093
 30
0.0
 10
408.523419
 20
161.472183
 30
0.0
 10
407.807376
 20
161.636993
 30
0.0
 10
407.217295
 20
161.656614
 30
0.0
 10
406.628784
 20
161.532025
 30
0.0
 10
405.917254
 20
161.254397
 30
0.0
 10
405.333648
 20
162.205001
 30
0.0
 10
404.750042
 20
163.155605
 30
0.0
 10
412.425358
 20
167.868696
 30
0.0
 10
420.100673
 20
172.581787
 30
0.0
 10
420.684279
 20
171.631183
 30
0.0
 10
421.267885
 20
170.680579
 30
0.0
 10
420.029098
 20
168.968021
 30
0.0
 10
420.394330
 20
167.129991
 30
0.0
 10
420.984803
 20
166.361857
 30
0.0
 10
421.836422
 20
165.556443
 30
0.0
 10
423.061612
 20
164.643118
 30
0.0
 10
424.715015
 20
163.517011
 30
0.0
 10
430.473466
 20
159.596972
 30
0.0
 10
436.231917
 20
155.676836
 30
0.0
 10
435.621921
 20
162.579945
 30
0.0
 10
435.011926
 20
169.482956
 30
0.0
 10
434.778445
 20
171.332562
 30
0.0
 10
434.468150
 20
172.758173
 30
0.0
 10
434.055829
 20
173.962566
 30
0.0
 10
433.493903
 20
175.055122
 30
0.0
 10
432.776781
 20
175.884080
 30
0.0
 10
431.898773
 20
176.297087
 30
0.0
 10
430.913000
 20
176.336328
 30
0.0
 10
429.850394
 20
175.951770
 30
0.0
 10
429.266788
 20
176.902374
 30
0.0
 10
428.683182
 20
177.852977
 30
0.0
 10
434.457672
 20
181.398857
 30
0.0
 10
440.232163
 20
184.944736
 30
0.0
 10
440.815769
 20
183.994132
 30
0.0
 10
441.399375
 20
183.043528
 30
0.0
 10
440.814788
 20
182.397039
 30
0.0
 10
440.404037
 20
181.758399
 30
0.0
 10
440.119935
 20
181.058935
 30
0.0
 10
439.893222
 20
180.136781
 30
0.0
 10
439.721545
 20
178.930819
 30
0.0
 10
439.638158
 20
177.322935
 30
0.0
 10
439.653854
 20
175.279873
 30
0.0
 10
439.778051
 20
172.768376
 30
0.0
 10
440.420322
 20
162.454375
 30
0.0
  0
ENDSEC
  0
SECTION
  2
OBJECTS
  0
DICTIONARY
  5
C
330
0
100
AcDbDictionary
  3
ACAD_GROUP
350
D
  3
ACAD_MLINESTYLE
350
17
  0
DICTIONARY
  5
D
330
C
100
AcDbDictionary
  0
DICTIONARY
  5
1A
330
C
100
AcDbDictionary
  0
DICTIONARY
  5
17
330
C
100
AcDbDictionary
  3
STANDARD
350
18
  0
DICTIONARY
  5
19
330
C
100
AcDbDictionary
  0
ENDSEC
  0
EOF
