  0
SECTION
  2
HEADER
  9
$ACADVER
  1
AC1014
  9
$HANDSEED
  5
FFFF
  9
$MEASUREMENT
 70
     1
  0
ENDSEC
  0
SECTION
  2
TABLES
  0
TABLE
  2
VPORT
  5
8
330
0
100
AcDbSymbolTable
 70
     4
  0
VPORT
  5
2E
330
8
100
AcDbSymbolTableRecord
100
AcDbViewportTableRecord
  2
*ACTIVE
 70
     0
 10
0.0
 20
0.0
 11
1.0
 21
1.0
 12
210.0
 22
148.5
 13
0.0
 23
0.0
 14
10.0
 24
10.0
 15
10.0
 25
10.0
 16
0.0
 26
0.0
 36
1.0
 17
0.0
 27
0.0
 37
0.0
 40
341.0
 41
1.24
 42
50.0
 43
0.0
 44
0.0
 50
0.0
 51
0.0
 71
     0
 72
   100
 73
     1
 74
     3
 75
     0
 76
     0
 77
     0
 78
     0
  0
ENDTAB
  0
TABLE
  2
LTYPE
  5
5
330
0
100
AcDbSymbolTable
 70
     1
  0
LTYPE
  5
14
330
5
100
AcDbSymbolTableRecord
100
AcDbLinetypeTableRecord
  2
BYBLOCK
 70
     0
  3

 72
    65
 73
     0
 40
0.0
  0
LTYPE
  5
15
330
5
100
AcDbSymbolTableRecord
100
AcDbLinetypeTableRecord
  2
BYLAYER
 70
     0
  3

 72
    65
 73
     0
 40
0.0
  0
LTYPE
  5
16
330
5
100
AcDbSymbolTableRecord
100
AcDbLinetypeTableRecord
  2
CONTINUOUS
 70
     0
  3
Solid line
 72
    65
 73
     0
 40
0.0
  0
ENDTAB
  0
TABLE
  2
LAYER
  5
2
100
AcDbSymbolTable
 70
2
  0
LAYER
  5
50
100
AcDbSymbolTableRecord
100
AcDbLayerTableRecord
  2
0
 70
0
  6
CONTINUOUS
  0
LAYER
  5
51
100
AcDbSymbolTableRecord
100
AcDbLayerTableRecord
  2
Layer_1
 70
0
  6
CONTINUOUS
  0
ENDTAB
  0
TABLE
  2
STYLE
  5
3
330
0
100
AcDbSymbolTable
 70
     1
  0
STYLE
  5
11
330
3
100
AcDbSymbolTableRecord
100
AcDbTextStyleTableRecord
  2
STANDARD
 70
     0
 40
0.0
 41
1.0
 50
0.0
 71
     0
 42
2.5
  3
txt
  4

  0
ENDTAB
  0
TABLE
  2
VIEW
  5
6
330
0
100
AcDbSymbolTable
 70
     0
  0
ENDTAB
  0
TABLE
  2
UCS
  5
7
330
0
100
AcDbSymbolTable
 70
     0
  0
ENDTAB
  0
TABLE
  2
APPID
  5
9
330
0
100
AcDbSymbolTable
 70
     2
  0
APPID
  5
12
330
9
100
AcDbSymbolTableRecord
100
AcDbRegAppTableRecord
  2
ACAD
 70
     0
  0
ENDTAB
  0
TABLE
  2
DIMSTYLE
  5
A
330
0
100
AcDbSymbolTable
 70
     1
  0
DIMSTYLE
105
27
330
A
100
AcDbSymbolTableRecord
100
AcDbDimStyleTableRecord
  2
ISO-25
 70
     0
  3

  4

  5

  6

  7

 40
1.0
 41
2.5
 42
0.625
 43
3.75
 44
1.25
 45
0.0
 46
0.0
 47
0.0
 48
0.0
140
2.5
141
2.5
142
0.0
143
0.03937007874016
144
1.0
145
0.0
146
1.0
147
0.625
 71
     0
 72
     0
 73
     0
 74
     0
 75
     0
 76
     0
 77
     1
 78
     8
170
     0
171
     3
172
     1
173
     0
174
     0
175
     0
176
     0
177
     0
178
     0
270
     2
271
     2
272
     2
273
     2
274
     3
340
11
275
     0
280
     0
281
     0
282
     0
283
     0
284
     8
285
     0
286
     0
287
     3
288
     0
  0
ENDTAB
  0
TABLE
  2
BLOCK_RECORD
  5
1
330
0
100
AcDbSymbolTable
 70
     1
  0
BLOCK_RECORD
  5
1F
330
1
100
AcDbSymbolTableRecord
100
AcDbBlockTableRecord
  2
*MODEL_SPACE
  0
BLOCK_RECORD
  5
1B
330
1
100
AcDbSymbolTableRecord
100
AcDbBlockTableRecord
  2
*PAPER_SPACE
  0
ENDTAB
  0
ENDSEC
  0
SECTION
  2
BLOCKS
  0
BLOCK
  5
20
330
1F
100
AcDbEntity
  8
0
100
AcDbBlockBegin
  2
*MODEL_SPACE
 70
     0
 10
0.0
 20
0.0
 30
0.0
  3
*MODEL_SPACE
  1

  0
ENDBLK
  5
21
330
1F
100
AcDbEntity
  8
0
100
AcDbBlockEnd
  0
BLOCK
  5
1C
330
1B
100
AcDbEntity
 67
     1
  8
0
100
AcDbBlockBegin
  2
*PAPER_SPACE
  1

  0
ENDBLK
  5
1D
330
1B
100
AcDbEntity
 67
     1
  8
0
100
AcDbBlockEnd
  0
ENDSEC
  0
SECTION
  2
ENTITIES
  0
LWPOLYLINE
  5
100
100
AcDbEntity
  8
Layer_1
 62
7
100
AcDbPolyline
 90
24
 70
1
 10
367.009049
 20
575.365876
 30
0.0
 10
383.066552
 20
563.042646
 30
0.0
 10
399.124167
 20
550.719418
 30
0.0
 10
416.260203
 20
529.919580
 30
0.0
 10
427.504937
 20
511.135695
 30
0.0
 10
436.605460
 20
490.196474
 30
0.0
 10
440.948431
 20
472.298853
 30
0.0
 10
440.556095
 20
446.202025
 30
0.0
 10
438.707755
 20
430.474540
 30
0.0
 10
432.304628
 20
408.032161
 30
0.0
 10
421.529915
 20
382.675341
 30
0.0
 10
412.940995
 20
366.617794
 30
0.0
 10
404.352074
 20
350.560246
 30
0.0
 10
403.231737
 20
350.560246
 30
0.0
 10
402.111399
 20
350.560246
 30
0.0
 10
404.337655
 20
368.140248
 30
0.0
 10
405.098854
 20
388.650241
 30
0.0
 10
406.965972
 20
414.043567
 30
0.0
 10
408.833201
 20
439.436900
 30
0.0
 10
407.934517
 20
461.146338
 30
0.0
 10
402.857844
 20
484.248653
 30
0.0
 10
397.628483
 20
503.294978
 30
0.0
 10
390.908022
 20
523.832364
 30
0.0
 10
381.143323
 20
547.414089
 30
0.0
  0
LWPOLYLINE
  5
101
100
AcDbEntity
  8
Layer_1
 62
7
100
AcDbPolyline
 90
24
 70
1
 10
147.008618
 20
574.928374
 30
0.0
 10
130.951003
 20
562.605143
 30
0.0
 10
114.893500
 20
550.281913
 30
0.0
 10
97.757464
 20
529.482075
 30
0.0
 10
86.512730
 20
510.698191
 30
0.0
 10
77.412208
 20
489.758970
 30
0.0
 10
73.069236
 20
471.861349
 30
0.0
 10
73.461573
 20
445.764521
 30
0.0
 10
75.309912
 20
430.037036
 30
0.0
 10
81.713039
 20
407.594667
 30
0.0
 10
92.487752
 20
382.237847
 30
0.0
 10
101.076673
 20
366.180300
 30
0.0
 10
109.665593
 20
350.122752
 30
0.0
 10
110.785931
 20
350.122752
 30
0.0
 10
111.906268
 20
350.122752
 30
0.0
 10
109.680012
 20
367.702754
 30
0.0
 10
108.918813
 20
388.212747
 30
0.0
 10
107.051584
 20
413.606073
 30
0.0
 10
105.184466
 20
438.999396
 30
0.0
 10
106.083150
 20
460.708834
 30
0.0
 10
111.159936
 20
483.811149
 30
0.0
 10
116.389296
 20
502.857473
 30
0.0
 10
123.109757
 20
523.394860
 30
0.0
 10
132.874456
 20
546.976585
 30
0.0
  0
LWPOLYLINE
  5
102
100
AcDbEntity
  8
Layer_1
 62
7
100
AcDbPolyline
 90
26
 70
1
 10
439.017153
 20
506.420224
 30
0.0
 10
452.834093
 20
484.447064
 30
0.0
 10
466.651144
 20
455.633583
 30
0.0
 10
468.891707
 20
437.087780
 30
0.0
 10
471.132271
 20
410.074958
 30
0.0
 10
470.906482
 20
384.424423
 30
0.0
 10
465.903917
 20
354.807134
 30
0.0
 10
455.098018
 20
330.712474
 30
0.0
 10
444.991841
 20
318.957736
 30
0.0
 10
433.832168
 20
305.506799
 30
0.0
 10
412.876723
 20
288.336380
 30
0.0
 10
396.819108
 20
277.880308
 30
0.0
 10
380.761605
 20
267.424226
 30
0.0
 10
371.052347
 20
262.943054
 30
0.0
 10
361.343201
 20
258.461882
 30
0.0
 10
365.614412
 20
269.076632
 30
0.0
 10
391.964535
 20
306.261068
 30
0.0
 10
399.571497
 20
316.628254
 30
0.0
 10
416.611070
 20
339.123010
 30
0.0
 10
428.931096
 20
362.266372
 30
0.0
 10
435.282583
 20
372.731833
 30
0.0
 10
439.796907
 20
382.104520
 30
0.0
 10
448.726188
 20
416.049858
 30
0.0
 10
449.846414
 20
433.940180
 30
0.0
 10
450.966751
 20
450.405541
 30
0.0
 10
447.712373
 20
478.412883
 30
0.0
  0
LWPOLYLINE
  5
103
100
AcDbEntity
  8
Layer_1
 62
7
100
AcDbPolyline
 90
26
 70
1
 10
76.301930
 20
507.732727
 30
0.0
 10
62.484879
 20
485.759567
 30
0.0
 10
48.667940
 20
456.946086
 30
0.0
 10
46.427376
 20
438.400284
 30
0.0
 10
44.186812
 20
411.387474
 30
0.0
 10
44.412601
 20
385.736938
 30
0.0
 10
49.415278
 20
356.119649
 30
0.0
 10
60.221177
 20
332.024989
 30
0.0
 10
70.327354
 20
320.270252
 30
0.0
 10
81.487027
 20
306.819314
 30
0.0
 10
102.442472
 20
289.648895
 30
0.0
 10
118.499975
 20
279.192824
 30
0.0
 10
134.557590
 20
268.736741
 30
0.0
 10
144.266736
 20
264.255569
 30
0.0
 10
153.975994
 20
259.774397
 30
0.0
 10
149.704783
 20
270.389147
 30
0.0
 10
123.354660
 20
307.573583
 30
0.0
 10
115.747586
 20
317.940770
 30
0.0
 10
98.708125
 20
340.435525
 30
0.0
 10
86.388099
 20
363.578887
 30
0.0
 10
80.036612
 20
374.044348
 30
0.0
 10
75.522288
 20
383.417035
 30
0.0
 10
66.593007
 20
417.362373
 30
0.0
 10
65.472781
 20
435.252685
 30
0.0
 10
64.352444
 20
451.718044
 30
0.0
 10
67.606822
 20
479.725386
 30
0.0
  0
LWPOLYLINE
  5
104
100
AcDbEntity
  8
Layer_1
 62
7
100
AcDbPolyline
 90
28
 70
1
 10
479.732145
 20
399.075238
 30
0.0
 10
483.661766
 20
374.738861
 30
0.0
 10
485.707056
 20
343.807392
 30
0.0
 10
481.248172
 20
317.139923
 30
0.0
 10
471.516671
 20
291.527045
 30
0.0
 10
459.566849
 20
270.876180
 30
0.0
 10
447.617139
 20
256.424484
 30
0.0
 10
427.917840
 20
240.879320
 30
0.0
 10
414.008238
 20
234.018624
 30
0.0
 10
389.647069
 20
223.578827
 30
0.0
 10
372.930866
 20
219.828216
 30
0.0
 10
353.128174
 20
216.208161
 30
0.0
 10
334.006537
 20
215.909270
 30
0.0
 10
328.378916
 20
216.743795
 30
0.0
 10
325.028745
 20
217.493593
 30
0.0
 10
333.742520
 20
227.527730
 30
0.0
 10
342.456407
 20
237.561855
 30
0.0
 10
362.755164
 20
244.949836
 30
0.0
 10
376.783585
 20
251.292760
 30
0.0
 10
392.362907
 20
261.062825
 30
0.0
 10
407.942230
 20
270.832878
 30
0.0
 10
422.729279
 20
280.469794
 30
0.0
 10
437.516440
 20
295.125997
 30
0.0
 10
447.550521
 20
307.272568
 30
0.0
 10
457.584713
 20
319.419139
 30
0.0
 10
467.081707
 20
335.529546
 30
0.0
 10
473.428052
 20
352.690162
 30
0.0
 10
479.031976
 20
376.351665
 30
0.0
  0
LWPOLYLINE
  5
105
100
AcDbEntity
  8
Layer_1
 62
7
100
AcDbPolyline
 90
28
 70
1
 10
34.089913
 20
399.512755
 30
0.0
 10
30.160292
 20
375.176378
 30
0.0
 10
28.115002
 20
344.244908
 30
0.0
 10
32.573774
 20
317.577440
 30
0.0
 10
42.305387
 20
291.964562
 30
0.0
 10
54.255097
 20
271.313697
 30
0.0
 10
66.204919
 20
256.862000
 30
0.0
 10
85.904218
 20
241.316837
 30
0.0
 10
99.813820
 20
234.456140
 30
0.0
 10
124.174877
 20
224.016343
 30
0.0
 10
140.891192
 20
220.265733
 30
0.0
 10
160.693884
 20
216.645677
 30
0.0
 10
179.815521
 20
216.346786
 30
0.0
 10
185.443142
 20
217.181311
 30
0.0
 10
188.793313
 20
217.931109
 30
0.0
 10
180.079426
 20
227.965235
 30
0.0
 10
171.365651
 20
237.999372
 30
0.0
 10
151.066894
 20
245.387352
 30
0.0
 10
137.038473
 20
251.730276
 30
0.0
 10
121.459151
 20
261.500330
 30
0.0
 10
105.879829
 20
271.270394
 30
0.0
 10
91.092668
 20
280.907310
 30
0.0
 10
76.305619
 20
295.563514
 30
0.0
 10
66.271426
 20
307.710085
 30
0.0
 10
56.237345
 20
319.856656
 30
0.0
 10
46.740351
 20
335.967062
 30
0.0
 10
40.394006
 20
353.127678
 30
0.0
 10
34.790082
 20
376.789181
 30
0.0
  0
LWPOLYLINE
  5
106
100
AcDbEntity
  8
Layer_1
 62
7
100
AcDbPolyline
 90
22
 70
1
 10
316.169326
 20
208.315934
 30
0.0
 10
338.201739
 20
205.715192
 30
0.0
 10
360.234153
 20
207.569042
 30
0.0
 10
375.544764
 20
209.809628
 30
0.0
 10
390.855487
 20
212.050214
 30
0.0
 10
406.166210
 20
218.398548
 30
0.0
 10
421.476933
 20
224.746882
 30
0.0
 10
434.920426
 20
233.335814
 30
0.0
 10
448.363919
 20
241.924734
 30
0.0
 10
456.579394
 20
248.646492
 30
0.0
 10
464.794980
 20
255.368239
 30
0.0
 10
452.845158
 20
237.816975
 30
0.0
 10
440.895337
 20
220.265710
 30
0.0
 10
427.451732
 20
207.942476
 30
0.0
 10
414.008238
 20
195.619242
 30
0.0
 10
399.796839
 20
187.408999
 30
0.0
 10
379.652557
 20
180.681999
 30
0.0
 10
357.837102
 20
176.597891
 30
0.0
 10
328.119035
 20
176.947641
 30
0.0
 10
304.853501
 20
178.982077
 30
0.0
 10
287.041663
 20
179.188193
 30
0.0
 10
301.605494
 20
193.752035
 30
0.0
  0
LWPOLYLINE
  5
107
100
AcDbEntity
  8
Layer_1
 62
7
100
AcDbPolyline
 90
22
 70
1
 10
197.259279
 20
208.497157
 30
0.0
 10
175.226865
 20
205.896415
 30
0.0
 10
153.194451
 20
207.750265
 30
0.0
 10
137.883728
 20
209.990851
 30
0.0
 10
122.573117
 20
212.231437
 30
0.0
 10
107.262394
 20
218.579771
 30
0.0
 10
91.951671
 20
224.928106
 30
0.0
 10
78.508178
 20
233.517037
 30
0.0
 10
65.064685
 20
242.105958
 30
0.0
 10
56.849210
 20
248.827715
 30
0.0
 10
48.633624
 20
255.549462
 30
0.0
 10
60.583446
 20
237.998198
 30
0.0
 10
72.533267
 20
220.446934
 30
0.0
 10
85.976761
 20
208.123700
 30
0.0
 10
99.420366
 20
195.800466
 30
0.0
 10
113.631653
 20
187.590223
 30
0.0
 10
133.776047
 20
180.863223
 30
0.0
 10
155.591390
 20
176.779115
 30
0.0
 10
185.309569
 20
177.128864
 30
0.0
 10
208.575103
 20
179.163300
 30
0.0
 10
226.386941
 20
179.369417
 30
0.0
 10
211.823110
 20
193.933259
 30
0.0
  0
LWPOLYLINE
  5
108
100
AcDbEntity
  8
Layer_1
 62
7
100
AcDbPolyline
 90
50
 70
1
 10
279.892506
 20
508.224435
 30
0.0
 10
278.331666
 20
508.135713
 30
0.0
 10
276.738679
 20
507.929846
 30
0.0
 10
267.776884
 20
506.436693
 30
0.0
 10
258.815088
 20
504.943539
 30
0.0
 10
248.360119
 20
506.064125
 30
0.0
 10
237.905149
 20
507.184714
 30
0.0
 10
229.407847
 20
505.557442
 30
0.0
 10
221.471805
 20
499.716061
 30
0.0
 10
212.137433
 20
490.006235
 30
0.0
 10
202.803062
 20
480.296409
 30
0.0
 10
191.600071
 20
479.923842
 30
0.0
 10
180.397110
 20
479.551277
 30
0.0
 10
181.514809
 20
464.238516
 30
0.0
 10
182.632509
 20
448.925758
 30
0.0
 10
174.791281
 20
439.218819
 30
0.0
 10
166.950084
 20
429.511882
 30
0.0
 10
167.322631
 20
421.667775
 30
0.0
 10
167.695207
 20
413.823667
 30
0.0
 10
157.612814
 20
401.127537
 30
0.0
 10
147.530421
 20
388.431405
 30
0.0
 10
154.999072
 20
380.217619
 30
0.0
 10
162.467722
 20
372.003834
 30
0.0
 10
152.385329
 20
349.222421
 30
0.0
 10
142.302936
 20
326.441009
 30
0.0
 10
167.698076
 20
288.725182
 30
0.0
 10
193.093245
 20
251.009352
 30
0.0
 10
225.581590
 20
219.269019
 30
0.0
 10
258.069936
 20
187.528696
 30
0.0
 10
290.182836
 20
216.655277
 30
0.0
 10
322.295736
 20
245.781873
 30
0.0
 10
350.677195
 20
284.990854
 30
0.0
 10
379.058653
 20
324.199837
 30
0.0
 10
367.855662
 20
347.726382
 30
0.0
 10
356.652701
 20
371.252926
 30
0.0
 10
364.869373
 20
380.217619
 30
0.0
 10
373.086045
 20
389.182313
 30
0.0
 10
363.003652
 20
400.757856
 30
0.0
 10
352.921259
 20
412.333403
 30
0.0
 10
352.921259
 20
421.295207
 30
0.0
 10
352.921259
 20
430.257014
 30
0.0
 10
345.825155
 20
438.098233
 30
0.0
 10
338.729081
 20
445.939451
 30
0.0
 10
337.608483
 20
462.369909
 30
0.0
 10
336.487915
 20
478.800367
 30
0.0
 10
326.405521
 20
480.296409
 30
0.0
 10
316.323128
 20
481.792449
 30
0.0
 10
306.240735
 20
491.874839
 30
0.0
 10
296.158342
 20
501.957233
 30
0.0
 10
289.589488
 20
506.287358
 30
0.0
  0
LWPOLYLINE
  5
109
100
AcDbEntity
  8
Layer_1
 62
7
100
AcDbPolyline
 90
40
 70
1
 10
276.819565
 20
499.294400
 30
0.0
 10
281.089701
 20
498.909364
 30
0.0
 10
284.473054
 20
497.890777
 30
0.0
 10
291.733236
 20
493.971571
 30
0.0
 10
295.303469
 20
490.052448
 30
0.0
 10
292.877434
 20
487.063254
 30
0.0
 10
290.451429
 20
484.074058
 30
0.0
 10
295.678914
 20
483.701494
 30
0.0
 10
300.906399
 20
483.328926
 30
0.0
 10
303.345978
 20
481.947300
 30
0.0
 10
306.133883
 20
477.356315
 30
0.0
 10
298.665233
 20
476.796022
 30
0.0
 10
291.196552
 20
476.235729
 30
0.0
 10
297.172059
 20
473.061697
 30
0.0
 10
303.147565
 20
469.887662
 30
0.0
 10
299.973538
 20
467.273922
 30
0.0
 10
296.799512
 20
464.660183
 30
0.0
 10
285.838024
 20
468.102456
 30
0.0
 10
284.848499
 20
467.271036
 30
0.0
 10
275.214245
 20
465.369216
 30
0.0
 10
266.924879
 20
459.432704
 30
0.0
 10
266.737083
 20
460.738129
 30
0.0
 10
266.549286
 20
462.043557
 30
0.0
 10
274.205674
 20
470.820522
 30
0.0
 10
281.862062
 20
479.597487
 30
0.0
 10
278.127722
 20
480.715187
 30
0.0
 10
274.393382
 20
481.832886
 30
0.0
 10
268.605613
 20
479.034308
 30
0.0
 10
262.817844
 20
476.235729
 30
0.0
 10
262.630048
 20
477.728883
 30
0.0
 10
262.442251
 20
479.222033
 30
0.0
 10
265.804015
 20
483.328926
 30
0.0
 10
269.165779
 20
487.435819
 30
0.0
 10
274.765840
 20
490.425012
 30
0.0
 10
280.365872
 20
493.414209
 30
0.0
 10
272.897221
 20
493.414209
 30
0.0
 10
265.428541
 20
493.414209
 30
0.0
 10
266.736876
 20
495.279927
 30
0.0
 10
268.045181
 20
497.145645
 30
0.0
 10
273.098267
 20
498.695767
 30
0.0
  0
LWPOLYLINE
  5
10a
100
AcDbEntity
  8
Layer_1
 62
7
100
AcDbPolyline
 90
40
 70
1
 10
240.273426
 20
498.503058
 30
0.0
 10
244.550631
 20
498.194072
 30
0.0
 10
250.970963
 20
496.354303
 30
0.0
 10
252.279269
 20
494.485695
 30
0.0
 10
253.587604
 20
492.617088
 30
0.0
 10
246.118953
 20
492.617088
 30
0.0
 10
238.650302
 20
492.617088
 30
0.0
 10
244.250334
 20
489.630781
 30
0.0
 10
249.850395
 20
486.644477
 30
0.0
 10
253.212129
 20
482.537584
 30
0.0
 10
256.573893
 20
478.430691
 30
0.0
 10
256.386096
 20
476.937538
 30
0.0
 10
256.198300
 20
475.444387
 30
0.0
 10
250.410531
 20
478.242966
 30
0.0
 10
244.622762
 20
481.041544
 30
0.0
 10
240.888452
 20
479.920955
 30
0.0
 10
237.154111
 20
478.800370
 30
0.0
 10
244.810470
 20
470.026294
 30
0.0
 10
252.466858
 20
461.252215
 30
0.0
 10
252.279062
 20
459.943901
 30
0.0
 10
252.091265
 20
458.635586
 30
0.0
 10
243.801929
 20
464.575009
 30
0.0
 10
234.167645
 20
466.479694
 30
0.0
 10
233.178120
 20
467.308237
 30
0.0
 10
222.216958
 20
463.863065
 30
0.0
 10
219.042902
 20
466.479694
 30
0.0
 10
215.868875
 20
469.096320
 30
0.0
 10
221.844381
 20
472.270352
 30
0.0
 10
227.819888
 20
475.444387
 30
0.0
 10
220.351237
 20
476.004680
 30
0.0
 10
212.882586
 20
476.564973
 30
0.0
 10
215.670491
 20
481.155997
 30
0.0
 10
218.110041
 20
482.537584
 30
0.0
 10
223.337526
 20
482.910149
 30
0.0
 10
228.565011
 20
483.282716
 30
0.0
 10
226.139006
 20
486.271910
 30
0.0
 10
223.713001
 20
489.261106
 30
0.0
 10
227.283204
 20
493.180270
 30
0.0
 10
234.543415
 20
497.099435
 30
0.0
 10
237.237156
 20
497.923566
 30
0.0
  0
LWPOLYLINE
  5
10b
100
AcDbEntity
  8
Layer_1
 62
7
100
AcDbPolyline
 90
18
 70
1
 10
322.041575
 20
475.103589
 30
0.0
 10
323.959051
 20
474.861760
 30
0.0
 10
326.142695
 20
473.821267
 30
0.0
 10
329.078146
 20
468.766632
 30
0.0
 10
329.129014
 20
462.990853
 30
0.0
 10
329.129014
 20
452.908459
 30
0.0
 10
329.129014
 20
442.826069
 30
0.0
 10
325.770119
 20
441.893209
 30
0.0
 10
322.411253
 20
440.960348
 30
0.0
 10
322.987093
 20
451.806411
 30
0.0
 10
320.915210
 20
460.004546
 30
0.0
 10
314.120320
 20
461.086576
 30
0.0
 10
301.495577
 20
459.253638
 30
0.0
 10
301.495577
 20
461.494813
 30
0.0
 10
301.495577
 20
463.735985
 30
0.0
 10
310.084796
 20
468.963463
 30
0.0
 10
318.674044
 20
474.190945
 30
0.0
 10
320.307903
 20
474.796981
 30
0.0
  0
LWPOLYLINE
  5
10c
100
AcDbEntity
  8
Layer_1
 62
7
100
AcDbPolyline
 90
18
 70
1
 10
200.180654
 20
472.244359
 30
0.0
 10
201.914326
 20
471.937751
 30
0.0
 10
203.548214
 20
471.331719
 30
0.0
 10
212.137463
 20
466.104240
 30
0.0
 10
220.726682
 20
460.876758
 30
0.0
 10
220.726682
 20
458.635583
 30
0.0
 10
220.726682
 20
456.394411
 30
0.0
 10
208.101909
 20
458.227349
 30
0.0
 10
201.307019
 20
457.145322
 30
0.0
 10
199.235136
 20
448.947181
 30
0.0
 10
199.810976
 20
438.101122
 30
0.0
 10
196.452111
 20
439.033982
 30
0.0
 10
193.093245
 20
439.966843
 30
0.0
 10
193.093245
 20
450.049233
 30
0.0
 10
193.093245
 20
460.131626
 30
0.0
 10
193.144113
 20
465.907406
 30
0.0
 10
196.079534
 20
470.962041
 30
0.0
 10
198.263178
 20
472.002531
 30
0.0
  0
LWPOLYLINE
  5
10d
100
AcDbEntity
  8
Layer_1
 62
7
100
AcDbPolyline
 90
48
 70
1
 10
285.044902
 20
439.227487
 30
0.0
 10
286.109279
 20
439.244640
 30
0.0
 10
287.193649
 20
439.221572
 30
0.0
 10
284.955351
 20
438.100983
 30
0.0
 10
282.717083
 20
436.980397
 30
0.0
 10
289.065136
 20
433.991204
 30
0.0
 10
295.413219
 20
431.002010
 30
0.0
 10
306.124124
 20
421.056135
 30
0.0
 10
312.591686
 20
402.623441
 30
0.0
 10
308.857346
 20
395.154788
 30
0.0
 10
305.123036
 20
387.686137
 30
0.0
 10
310.350520
 20
383.579244
 30
0.0
 10
315.578005
 20
379.472351
 30
0.0
 10
318.542114
 20
366.028197
 30
0.0
 10
314.081962
 20
352.584046
 30
0.0
 10
305.868159
 20
355.197786
 30
0.0
 10
297.654385
 20
357.811525
 30
0.0
 10
297.278910
 20
351.463457
 30
0.0
 10
296.903465
 20
345.115393
 30
0.0
 10
297.055773
 20
333.635613
 30
0.0
 10
291.676010
 20
315.240784
 30
0.0
 10
290.162371
 20
310.312295
 30
0.0
 10
278.234751
 20
298.807436
 30
0.0
 10
270.662206
 20
293.275718
 30
0.0
 10
258.815118
 20
290.593651
 30
0.0
 10
251.719014
 20
294.700544
 30
0.0
 10
244.622940
 20
298.807436
 30
0.0
 10
235.699413
 20
306.728103
 30
0.0
 10
229.685638
 20
320.468263
 30
0.0
 10
225.631482
 20
337.749427
 30
0.0
 10
222.967878
 20
357.811525
 30
0.0
 10
214.751205
 20
355.570421
 30
0.0
 10
206.534533
 20
353.329317
 30
0.0
 10
202.802056
 20
361.173931
 30
0.0
 10
203.548244
 20
374.990143
 30
0.0
 10
209.148276
 20
381.338208
 30
0.0
 10
214.748337
 20
387.686276
 30
0.0
 10
211.389471
 20
393.286319
 30
0.0
 10
208.030576
 20
398.886366
 30
0.0
 10
210.644318
 20
409.344210
 30
0.0
 10
213.258061
 20
419.802057
 30
0.0
 10
223.013836
 20
428.992763
 30
0.0
 10
234.167970
 20
433.988456
 30
0.0
 10
234.915992
 20
436.605082
 30
0.0
 10
235.664013
 20
439.221711
 30
0.0
 10
249.038670
 20
436.064548
 30
0.0
 10
259.560241
 20
425.774670
 30
0.0
 10
271.073081
 20
434.960050
 30
0.0
  0
LWPOLYLINE
  5
10e
100
AcDbEntity
  8
Layer_1
 62
7
100
AcDbPolyline
 90
32
 70
1
 10
243.340571
 20
353.849176
 30
0.0
 10
240.035353
 20
351.377713
 30
0.0
 10
240.354282
 20
347.870790
 30
0.0
 10
247.713182
 20
342.816595
 30
0.0
 10
255.072083
 20
337.762404
 30
0.0
 10
255.334998
 20
331.633833
 30
0.0
 10
255.597913
 20
325.505265
 30
0.0
 10
244.986969
 20
321.005591
 30
0.0
 10
234.376055
 20
316.505914
 30
0.0
 10
235.869199
 20
312.771588
 30
0.0
 10
237.362373
 20
309.037263
 30
0.0
 10
247.251262
 20
313.978818
 30
0.0
 10
257.140151
 20
318.920373
 30
0.0
 10
259.950266
 20
319.206297
 30
0.0
 10
262.760411
 20
319.492221
 30
0.0
 10
273.963373
 20
313.892174
 30
0.0
 10
285.166363
 20
308.292128
 30
0.0
 10
286.659508
 20
310.530414
 30
0.0
 10
288.152682
 20
312.768699
 30
0.0
 10
282.902100
 20
315.821430
 30
0.0
 10
277.651518
 20
318.874163
 30
0.0
 10
271.372462
 20
321.845719
 30
0.0
 10
264.995810
 20
324.719699
 30
0.0
 10
264.250658
 20
330.695200
 30
0.0
 10
263.505534
 20
336.670700
 30
0.0
 10
272.467330
 20
340.777593
 30
0.0
 10
281.429155
 20
344.884483
 30
0.0
 10
281.411410
 20
349.674768
 30
0.0
 10
277.697742
 20
352.353136
 30
0.0
 10
269.284668
 20
350.221712
 30
0.0
 10
260.871622
 20
348.090287
 30
0.0
 10
252.106200
 20
350.969730
 30
0.0
  0
LWPOLYLINE
  5
10f
100
AcDbEntity
  8
Layer_1
 62
7
100
AcDbPolyline
 90
16
 70
1
 10
272.481633
 20
411.310549
 30
0.0
 10
270.742723
 20
408.232521
 30
0.0
 10
269.950226
 20
405.424009
 30
0.0
 10
278.026539
 20
401.540518
 30
0.0
 10
278.819035
 20
387.809613
 30
0.0
 10
279.812730
 20
381.220132
 30
0.0
 10
281.459424
 20
380.416122
 30
0.0
 10
281.459424
 20
389.922125
 30
0.0
 10
289.117021
 20
389.658109
 30
0.0
 10
296.246473
 20
396.259506
 30
0.0
 10
299.679247
 20
403.653064
 30
0.0
 10
300.207951
 20
410.254460
 30
0.0
 10
295.190854
 20
407.085793
 30
0.0
 10
284.100484
 20
407.349809
 30
0.0
 10
278.027209
 20
404.445203
 30
0.0
 10
272.481297
 20
411.310582
 30
0.0
  0
LWPOLYLINE
  5
110
100
AcDbEntity
  8
Layer_1
 62
7
100
AcDbPolyline
 90
16
 70
1
 10
247.549285
 20
411.123647
 30
0.0
 10
249.288195
 20
408.045653
 30
0.0
 10
250.080691
 20
405.237152
 30
0.0
 10
242.004379
 20
401.353694
 30
0.0
 10
241.211882
 20
387.622711
 30
0.0
 10
240.218187
 20
381.033252
 30
0.0
 10
238.571493
 20
380.229578
 30
0.0
 10
238.571493
 20
389.735626
 30
0.0
 10
230.913896
 20
389.471833
 30
0.0
 10
223.784444
 20
396.073252
 30
0.0
 10
220.351671
 20
403.466721
 30
0.0
 10
219.822967
 20
410.068140
 30
0.0
 10
224.840063
 20
406.899494
 30
0.0
 10
235.930434
 20
407.163287
 30
0.0
 10
242.003708
 20
404.258659
 30
0.0
 10
247.549620
 20
411.124094
 30
0.0
  0
LWPOLYLINE
  5
111
100
AcDbEntity
  8
Layer_1
 62
7
100
AcDbPolyline
 90
92
 70
1
 10
321.551932
 20
396.648097
 30
0.0
 10
328.273623
 20
387.125596
 30
0.0
 10
334.995425
 20
377.603094
 30
0.0
 10
337.415167
 20
367.520457
 30
0.0
 10
335.368759
 20
357.437809
 30
0.0
 10
329.953961
 20
352.209779
 30
0.0
 10
324.539275
 20
346.981749
 30
0.0
 10
314.830017
 20
343.060724
 30
0.0
 10
305.120871
 20
339.139687
 30
0.0
 10
304.747537
 20
332.044483
 30
0.0
 10
304.374203
 20
324.949279
 30
0.0
 10
305.307538
 20
321.961846
 30
0.0
 10
306.240874
 20
318.974402
 30
0.0
 10
307.361211
 20
308.518297
 30
0.0
 10
305.494205
 20
295.074804
 30
0.0
 10
297.390955
 20
281.071119
 30
0.0
 10
284.955352
 20
267.067435
 30
0.0
 10
273.752422
 20
254.694438
 30
0.0
 10
262.549492
 20
244.288140
 30
0.0
 10
249.547964
 20
253.987506
 30
0.0
 10
234.168833
 20
268.561162
 30
0.0
 10
220.809396
 20
284.583668
 30
0.0
 10
215.123763
 20
293.954500
 30
0.0
 10
214.084240
 20
315.286375
 30
0.0
 10
214.377095
 20
321.961846
 30
0.0
 10
214.190428
 20
325.696160
 30
0.0
 10
214.003761
 20
329.430463
 30
0.0
 10
215.684100
 20
333.724923
 30
0.0
 10
217.364551
 20
338.019383
 30
0.0
 10
209.149076
 20
341.753697
 30
0.0
 10
200.933602
 20
345.488010
 30
0.0
 10
198.180207
 20
347.422831
 30
0.0
 10
195.426812
 20
349.357641
 30
0.0
 10
191.271737
 20
352.277438
 30
0.0
 10
187.116662
 20
355.197223
 30
0.0
 10
184.229694
 20
367.589904
 30
0.0
 10
185.622991
 20
374.989074
 30
0.0
 10
190.675073
 20
386.930780
 30
0.0
 10
198.693038
 20
396.648097
 30
0.0
 10
188.812091
 20
395.639536
 30
0.0
 10
179.648080
 20
391.046666
 30
0.0
 10
175.913733
 20
385.762278
 30
0.0
 10
172.179385
 20
377.603139
 30
0.0
 10
171.063854
 20
371.428304
 30
0.0
 10
170.686049
 20
363.039319
 30
0.0
 10
173.300058
 20
356.877708
 30
0.0
 10
175.914068
 20
350.716096
 30
0.0
 10
173.860171
 20
342.313899
 30
0.0
 10
171.806387
 20
333.911690
 30
0.0
 10
170.686049
 20
327.003210
 30
0.0
 10
169.565711
 20
320.094718
 30
0.0
 10
170.486751
 20
315.986980
 30
0.0
 10
176.287402
 20
311.879232
 30
0.0
 10
178.500022
 20
321.472265
 30
0.0
 10
180.768529
 20
327.563367
 30
0.0
 10
188.289423
 20
335.206053
 30
0.0
 10
193.838689
 20
337.272558
 30
0.0
 10
195.145693
 20
325.322759
 30
0.0
 10
196.452698
 20
313.372960
 30
0.0
 10
199.626821
 20
299.929444
 30
0.0
 10
202.801055
 20
286.485917
 30
0.0
 10
209.714219
 20
273.236121
 30
0.0
 10
218.111666
 20
262.212884
 30
0.0
 10
228.567704
 20
252.316959
 30
0.0
 10
239.023854
 20
242.421034
 30
0.0
 10
249.479892
 20
234.952418
 30
0.0
 10
259.936041
 20
227.483790
 30
0.0
 10
276.635366
 20
236.586637
 30
0.0
 10
284.582465
 20
244.288174
 30
0.0
 10
296.765676
 20
254.977646
 30
0.0
 10
305.494652
 20
265.200328
 30
0.0
 10
313.334557
 20
275.843122
 30
0.0
 10
318.938146
 20
286.485917
 30
0.0
 10
321.365376
 20
302.170030
 30
0.0
 10
323.792719
 20
317.854143
 30
0.0
 10
324.539387
 20
327.376644
 30
0.0
 10
325.286055
 20
336.899135
 30
0.0
 10
333.837978
 20
333.687969
 30
0.0
 10
338.729549
 20
326.816498
 30
0.0
 10
342.277117
 20
319.347870
 30
0.0
 10
345.824685
 20
311.879232
 30
0.0
 10
348.812141
 20
317.293996
 30
0.0
 10
351.799596
 20
322.708749
 30
0.0
 10
349.536118
 20
336.707829
 30
0.0
 10
343.584122
 20
349.969227
 30
0.0
 10
345.638018
 20
352.956682
 30
0.0
 10
347.691915
 20
355.944126
 30
0.0
 10
348.895862
 20
370.127134
 30
0.0
 10
347.318581
 20
379.096867
 30
0.0
 10
343.056759
 20
387.627562
 30
0.0
 10
340.223444
 20
391.793535
 30
0.0
 10
331.229557
 20
395.589863
 30
0.0
  0
LWPOLYLINE
  5
112
100
AcDbEntity
  8
Layer_1
 62
7
100
AcDbPolyline
 90
62
 70
1
 10
57.500312
 20
572.164072
 30
0.0
 10
56.602745
 20
573.063706
 30
0.0
 10
55.705178
 20
573.963341
 30
0.0
 10
56.509970
 20
575.201322
 30
0.0
 10
57.015201
 20
576.249050
 30
0.0
 10
57.220870
 20
577.229063
 30
0.0
 10
57.131449
 20
578.154977
 30
0.0
 10
56.751408
 20
579.067611
 30
0.0
 10
56.098632
 20
580.007798
 30
0.0
 10
55.160826
 20
581.070861
 30
0.0
 10
53.977893
 20
582.297587
 30
0.0
 10
40.420164
 20
595.887538
 30
0.0
 10
26.862435
 20
609.477489
 30
0.0
 10
25.758081
 20
608.376011
 30
0.0
 10
24.653727
 20
607.274532
 30
0.0
 10
23.304024
 20
605.737675
 30
0.0
 10
22.526058
 20
604.390744
 30
0.0
 10
22.197435
 20
603.084124
 30
0.0
 10
22.195982
 20
601.668198
 30
0.0
 10
22.568198
 20
600.122488
 30
0.0
 10
23.308160
 20
598.372121
 30
0.0
 10
24.211315
 20
596.621560
 30
0.0
 10
25.127884
 20
595.020745
 30
0.0
 10
23.260431
 20
593.157750
 30
0.0
 10
21.392978
 20
591.294756
 30
0.0
 10
16.619890
 20
596.079181
 30
0.0
 10
11.846802
 20
600.863608
 30
0.0
 10
27.890333
 20
616.869042
 30
0.0
 10
43.933864
 20
632.874476
 30
0.0
 10
48.706952
 20
628.090049
 30
0.0
 10
53.480040
 20
623.305624
 30
0.0
 10
51.612587
 20
621.442630
 30
0.0
 10
49.745134
 20
619.579635
 30
0.0
 10
47.677153
 20
620.725726
 30
0.0
 10
46.207625
 20
621.489894
 30
0.0
 10
45.084940
 20
621.974549
 30
0.0
 10
44.057712
 20
622.282100
 30
0.0
 10
43.118788
 20
622.487436
 30
0.0
 10
42.261461
 20
622.556525
 30
0.0
 10
41.471200
 20
622.503006
 30
0.0
 10
40.735709
 20
622.340503
 30
0.0
 10
40.000219
 20
622.028239
 30
0.0
 10
39.209958
 20
621.525434
 30
0.0
 10
38.317980
 20
620.838952
 30
0.0
 10
37.275103
 20
619.866741
 30
0.0
 10
36.293704
 20
618.887649
 30
0.0
 10
35.312305
 20
617.908557
 30
0.0
 10
48.870034
 20
604.318606
 30
0.0
 10
62.427651
 20
590.728655
 30
0.0
 10
63.719566
 20
589.474569
 30
0.0
 10
64.712143
 20
588.602051
 30
0.0
 10
65.494580
 20
588.049729
 30
0.0
 10
66.208833
 20
587.701701
 30
0.0
 10
66.869433
 20
587.517124
 30
0.0
 10
67.488676
 20
587.455088
 30
0.0
 10
68.135863
 20
587.570051
 30
0.0
 10
68.878060
 20
587.807420
 30
0.0
 10
69.743212
 20
588.276099
 30
0.0
 10
70.758144
 20
588.976045
 30
0.0
 10
71.655711
 20
588.076410
 30
0.0
 10
72.553277
 20
587.176776
 30
0.0
 10
65.029030
 20
579.670403
 30
0.0
  0
LWPOLYLINE
  5
113
100
AcDbEntity
  8
Layer_1
 62
7
100
AcDbPolyline
 90
98
 70
1
 10
118.280671
 20
633.025813
 30
0.0
 10
119.717002
 20
630.975089
 30
0.0
 10
120.736405
 20
629.757459
 30
0.0
 10
121.614970
 20
629.151283
 30
0.0
 10
122.605311
 20
628.828125
 30
0.0
 10
123.884036
 20
628.870712
 30
0.0
 10
125.627864
 20
629.361859
 30
0.0
 10
126.333175
 20
628.304463
 30
0.0
 10
127.037368
 20
627.247066
 30
0.0
 10
118.674237
 20
621.672672
 30
0.0
 10
110.311217
 20
616.098278
 30
0.0
 10
109.605906
 20
617.155678
 30
0.0
 10
108.900596
 20
618.213079
 30
0.0
 10
110.110243
 20
619.713552
 30
0.0
 10
110.662420
 20
620.776190
 30
0.0
 10
110.740663
 20
621.662643
 30
0.0
 10
110.532759
 20
622.634561
 30
0.0
 10
109.798386
 20
624.100485
 30
0.0
 10
108.343165
 20
626.404865
 30
0.0
 10
104.060889
 20
632.829378
 30
0.0
 10
99.778724
 20
639.253892
 30
0.0
 10
92.537048
 20
634.427022
 30
0.0
 10
85.295484
 20
629.600151
 30
0.0
 10
89.577760
 20
623.175637
 30
0.0
 10
93.860037
 20
616.751124
 30
0.0
 10
94.596645
 20
615.680369
 30
0.0
 10
95.312016
 20
614.711079
 30
0.0
 10
95.989383
 20
613.901995
 30
0.0
 10
96.614214
 20
613.311861
 30
0.0
 10
97.220044
 20
612.905962
 30
0.0
 10
97.842640
 20
612.649586
 30
0.0
 10
98.552422
 20
612.556075
 30
0.0
 10
99.359450
 20
612.596059
 30
0.0
 10
100.253663
 20
612.798910
 30
0.0
 10
101.270831
 20
613.129913
 30
0.0
 10
101.975024
 20
612.072512
 30
0.0
 10
102.680335
 20
611.015111
 30
0.0
 10
94.269140
 20
605.408680
 30
0.0
 10
85.858056
 20
599.802249
 30
0.0
 10
85.152745
 20
600.859645
 30
0.0
 10
84.448552
 20
601.917047
 30
0.0
 10
85.286877
 20
602.950291
 30
0.0
 10
85.858056
 20
603.828693
 30
0.0
 10
86.167677
 20
604.683086
 30
0.0
 10
86.201210
 20
605.537503
 30
0.0
 10
85.985481
 20
606.482721
 30
0.0
 10
85.539492
 20
607.502720
 30
0.0
 10
84.843124
 20
608.704304
 30
0.0
 10
83.926555
 20
610.130191
 30
0.0
 10
74.721298
 20
623.940492
 30
0.0
 10
65.516153
 20
637.750794
 30
0.0
 10
64.568287
 20
639.120612
 30
0.0
 10
63.732197
 20
640.218080
 30
0.0
 10
62.976587
 20
641.056539
 30
0.0
 10
62.205327
 20
641.606637
 30
0.0
 10
61.403889
 20
641.905751
 30
0.0
 10
60.496262
 20
641.948562
 30
0.0
 10
59.425441
 20
641.801799
 30
0.0
 10
58.114189
 20
641.425424
 30
0.0
 10
57.408878
 20
642.482821
 30
0.0
 10
56.704685
 20
643.540217
 30
0.0
 10
65.115769
 20
649.146648
 30
0.0
 10
73.526964
 20
654.753079
 30
0.0
 10
74.232275
 20
653.695672
 30
0.0
 10
74.937586
 20
652.638276
 30
0.0
 10
73.839939
 20
651.177843
 30
0.0
 10
73.303411
 20
650.021752
 30
0.0
 10
73.236345
 20
649.001801
 30
0.0
 10
73.468840
 20
647.907060
 30
0.0
 10
74.151796
 20
646.465171
 30
0.0
 10
75.475902
 20
644.339697
 30
0.0
 10
79.042696
 20
638.988606
 30
0.0
 10
82.609490
 20
633.637515
 30
0.0
 10
89.851054
 20
638.464384
 30
0.0
 10
97.092619
 20
643.291255
 30
0.0
 10
93.525825
 20
648.642345
 30
0.0
 10
89.959142
 20
653.993437
 30
0.0
 10
88.530748
 20
656.014789
 30
0.0
 10
87.492343
 20
657.208390
 30
0.0
 10
86.611543
 20
657.870634
 30
0.0
 10
85.634614
 20
658.191120
 30
0.0
 10
84.360807
 20
658.175248
 30
0.0
 10
82.569362
 20
657.721490
 30
0.0
 10
81.864052
 20
658.778886
 30
0.0
 10
81.158741
 20
659.836283
 30
0.0
 10
89.521760
 20
665.410676
 30
0.0
 10
97.884892
 20
670.985070
 30
0.0
 10
98.589085
 20
669.927674
 30
0.0
 10
99.294396
 20
668.870278
 30
0.0
 10
98.344294
 20
667.658149
 30
0.0
 10
97.799941
 20
666.670278
 30
0.0
 10
97.567446
 20
665.821211
 30
0.0
 10
97.600979
 20
664.961447
 30
0.0
 10
97.860301
 20
664.104332
 30
0.0
 10
98.252637
 20
663.220514
 30
0.0
 10
98.908766
 20
662.131071
 30
0.0
 10
99.896872
 20
660.614400
 30
0.0
 10
109.090951
 20
646.820116
 30
0.0
  0
LWPOLYLINE
  5
114
100
AcDbEntity
  8
Layer_1
 62
7
100
AcDbPolyline
 90
82
 70
1
 10
148.438020
 20
693.772679
 30
0.0
 10
150.845913
 20
688.143259
 30
0.0
 10
153.253919
 20
682.513839
 30
0.0
 10
150.828700
 20
681.476451
 30
0.0
 10
148.403369
 20
680.439062
 30
0.0
 10
146.119548
 20
682.791870
 30
0.0
 10
144.482243
 20
684.122839
 30
0.0
 10
143.130193
 20
684.811450
 30
0.0
 10
141.732313
 20
685.166374
 30
0.0
 10
139.973843
 20
685.042459
 30
0.0
 10
137.570309
 20
684.223739
 30
0.0
 10
133.711107
 20
682.573006
 30
0.0
 10
129.851905
 20
680.922273
 30
0.0
 10
133.486548
 20
672.425035
 30
0.0
 10
137.121190
 20
663.927798
 30
0.0
 10
139.457993
 20
664.927327
 30
0.0
 10
141.794685
 20
665.926857
 30
0.0
 10
143.138911
 20
666.627495
 30
0.0
 10
144.055480
 20
667.396686
 30
0.0
 10
144.604304
 20
668.343111
 30
0.0
 10
144.871450
 20
669.504626
 30
0.0
 10
144.893805
 20
671.064499
 30
0.0
 10
144.638954
 20
673.175710
 30
0.0
 10
146.639422
 20
674.031360
 30
0.0
 10
148.639777
 20
674.887011
 30
0.0
 10
151.714083
 20
667.699763
 30
0.0
 10
154.788389
 20
660.512517
 30
0.0
 10
152.788033
 20
659.656866
 30
0.0
 10
150.787566
 20
658.801216
 30
0.0
 10
149.493080
 20
660.383500
 30
0.0
 10
148.357317
 20
661.447390
 30
0.0
 10
147.292086
 20
662.101675
 30
0.0
 10
146.239149
 20
662.384302
 30
0.0
 10
145.064600
 20
662.290298
 30
0.0
 10
143.563886
 20
661.784442
 30
0.0
 10
141.227083
 20
660.784912
 30
0.0
 10
138.890391
 20
659.785383
 30
0.0
 10
142.933913
 20
650.332205
 30
0.0
 10
146.977546
 20
640.879029
 30
0.0
 10
150.818975
 20
642.522190
 30
0.0
 10
154.660405
 20
644.165352
 30
0.0
 10
155.787114
 20
644.689171
 30
0.0
 10
156.689151
 20
645.200493
 30
0.0
 10
157.395580
 20
645.775159
 30
0.0
 10
157.968994
 20
646.418188
 30
0.0
 10
158.427279
 20
647.158619
 30
0.0
 10
158.789435
 20
648.025537
 30
0.0
 10
159.083408
 20
648.978455
 30
0.0
 10
159.265604
 20
649.946620
 30
0.0
 10
159.384087
 20
651.065258
 30
0.0
 10
159.417620
 20
652.439305
 30
0.0
 10
159.328199
 20
654.191399
 30
0.0
 10
159.085643
 20
656.444179
 30
0.0
 10
161.510862
 20
657.481567
 30
0.0
 10
163.936193
 20
658.518955
 30
0.0
 10
166.363647
 20
651.913643
 30
0.0
 10
168.791213
 20
645.308331
 30
0.0
 10
151.389483
 20
637.864886
 30
0.0
 10
133.987866
 20
630.421440
 30
0.0
 10
133.488224
 20
631.589811
 30
0.0
 10
132.988582
 20
632.758181
 30
0.0
 10
134.001279
 20
633.620851
 30
0.0
 10
134.723357
 20
634.380061
 30
0.0
 10
135.183876
 20
635.163470
 30
0.0
 10
135.371661
 20
635.997637
 30
0.0
 10
135.326951
 20
636.965958
 30
0.0
 10
135.074335
 20
638.050729
 30
0.0
 10
134.609344
 20
639.359389
 30
0.0
 10
133.968864
 20
640.928574
 30
0.0
 10
127.441665
 20
656.188197
 30
0.0
 10
120.914465
 20
671.447820
 30
0.0
 10
120.232627
 20
672.967735
 30
0.0
 10
119.612267
 20
674.199394
 30
0.0
 10
119.022086
 20
675.161780
 30
0.0
 10
118.363721
 20
675.843584
 30
0.0
 10
117.630466
 20
676.283996
 30
0.0
 10
116.746313
 20
676.491934
 30
0.0
 10
115.666550
 20
676.543239
 30
0.0
 10
114.308575
 20
676.412684
 30
0.0
 10
113.808933
 20
677.581055
 30
0.0
 10
113.309291
 20
678.749425
 30
0.0
 10
130.869855
 20
686.261040
 30
0.0
  0
LWPOLYLINE
  5
115
100
AcDbEntity
  8
Layer_1
 62
7
100
AcDbPolyline
 90
50
 70
1
 10
207.045776
 20
664.840262
 30
0.0
 10
207.487294
 20
662.709319
 30
0.0
 10
207.890808
 20
661.315361
 30
0.0
 10
208.307735
 20
660.432917
 30
0.0
 10
208.804024
 20
659.760760
 30
0.0
 10
209.446740
 20
659.301637
 30
0.0
 10
210.242590
 20
658.968609
 30
0.0
 10
211.365051
 20
658.774140
 30
0.0
 10
212.912487
 20
658.716799
 30
0.0
 10
213.142747
 20
657.467081
 30
0.0
 10
213.373007
 20
656.217363
 30
0.0
 10
203.185904
 20
654.339717
 30
0.0
 10
192.998801
 20
652.462072
 30
0.0
 10
192.768541
 20
653.711789
 30
0.0
 10
192.538281
 20
654.961507
 30
0.0
 10
193.716407
 20
655.580023
 30
0.0
 10
194.588265
 20
656.161631
 30
0.0
 10
195.209743
 20
656.824433
 30
0.0
 10
195.576371
 20
657.596832
 30
0.0
 10
195.754096
 20
658.549606
 30
0.0
 10
195.744595
 20
659.663807
 30
0.0
 10
195.578048
 20
661.042840
 30
0.0
 10
195.299724
 20
662.714366
 30
0.0
 10
192.291254
 20
679.036436
 30
0.0
 10
189.282897
 20
695.358508
 30
0.0
 10
188.952038
 20
696.991160
 30
0.0
 10
188.617825
 20
698.329316
 30
0.0
 10
188.254551
 20
699.397890
 30
0.0
 10
187.762734
 20
700.207835
 30
0.0
 10
187.144609
 20
700.798754
 30
0.0
 10
186.327521
 20
701.196310
 30
0.0
 10
185.285762
 20
701.483978
 30
0.0
 10
183.932818
 20
701.655500
 30
0.0
 10
183.702558
 20
702.905217
 30
0.0
 10
183.472298
 20
704.154935
 30
0.0
 10
194.473582
 20
706.182652
 30
0.0
 10
205.474867
 20
708.210370
 30
0.0
 10
214.012482
 20
708.893170
 30
0.0
 10
220.462891
 20
707.409637
 30
0.0
 10
224.840848
 20
703.733114
 30
0.0
 10
227.174969
 20
697.761205
 30
0.0
 10
227.483472
 20
692.952871
 30
0.0
 10
226.552372
 20
688.601355
 30
0.0
 10
224.418220
 20
684.830735
 30
0.0
 10
221.116561
 20
681.765093
 30
0.0
 10
216.606707
 20
679.465467
 30
0.0
 10
210.861944
 20
677.917155
 30
0.0
 10
207.512891
 20
677.339035
 30
0.0
 10
204.812590
 20
676.958804
 30
0.0
 10
205.929239
 20
670.899562
 30
0.0
  0
LWPOLYLINE
  5
116
100
AcDbEntity
  8
Layer_1
 62
7
100
AcDbPolyline
 90
18
 70
1
 10
204.023447
 20
681.238073
 30
0.0
 10
205.651809
 20
681.538216
 30
0.0
 10
207.280284
 20
681.838359
 30
0.0
 10
210.630231
 20
682.729912
 30
0.0
 10
213.106196
 20
684.008557
 30
0.0
 10
214.787094
 20
685.776953
 30
0.0
 10
215.766258
 20
688.062018
 30
0.0
 10
216.081468
 20
690.968894
 30
0.0
 10
215.699192
 20
694.588769
 30
0.0
 10
214.773681
 20
698.069563
 30
0.0
 10
213.449463
 20
700.634935
 30
0.0
 10
211.763535
 20
702.399499
 30
0.0
 10
209.691978
 20
703.388163
 30
0.0
 10
207.179461
 20
703.688630
 30
0.0
 10
204.170768
 20
703.388588
 30
0.0
 10
201.826252
 20
702.936887
 30
0.0
 10
200.094720
 20
702.558993
 30
0.0
 10
202.059419
 20
691.898526
 30
0.0
  0
LWPOLYLINE
  5
117
100
AcDbEntity
  8
Layer_1
 62
7
100
AcDbPolyline
 90
50
 70
1
 10
260.643590
 20
676.306186
 30
0.0
 10
252.423533
 20
676.147541
 30
0.0
 10
244.203587
 20
675.988896
 30
0.0
 10
243.603346
 20
674.147839
 30
0.0
 10
243.003106
 20
672.306783
 30
0.0
 10
242.541468
 20
670.776520
 30
0.0
 10
242.175958
 20
669.286618
 30
0.0
 10
241.944580
 20
667.808940
 30
0.0
 10
241.888692
 20
666.238354
 30
0.0
 10
242.948335
 20
663.360476
 30
0.0
 10
245.970777
 20
662.273034
 30
0.0
 10
245.993132
 20
661.002502
 30
0.0
 10
246.015487
 20
659.731970
 30
0.0
 10
237.795542
 20
659.573326
 30
0.0
 10
229.575596
 20
659.414681
 30
0.0
 10
229.553241
 20
660.685213
 30
0.0
 10
229.530886
 20
661.955745
 30
0.0
 10
230.862481
 20
662.308825
 30
0.0
 10
232.014116
 20
663.005071
 30
0.0
 10
233.024578
 20
664.025972
 30
0.0
 10
233.933322
 20
665.353026
 30
0.0
 10
234.813005
 20
667.151344
 30
0.0
 10
235.738516
 20
669.586042
 30
0.0
 10
243.353190
 20
691.128257
 30
0.0
 10
250.967865
 20
712.670472
 30
0.0
 10
256.107692
 20
712.769730
 30
0.0
 10
261.247631
 20
712.868876
 30
0.0
 10
268.016380
 20
691.430943
 30
0.0
 10
274.785129
 20
669.993011
 30
0.0
 10
275.612276
 20
667.534371
 30
0.0
 10
276.288525
 20
665.900901
 30
0.0
 10
276.973716
 20
664.826067
 30
0.0
 10
277.827690
 20
663.966337
 30
0.0
 10
278.946686
 20
663.352437
 30
0.0
 10
280.428063
 20
662.938092
 30
0.0
 10
280.450418
 20
661.667560
 30
0.0
 10
280.472773
 20
660.397028
 30
0.0
 10
269.846500
 20
660.191940
 30
0.0
 10
259.220337
 20
659.986852
 30
0.0
 10
259.197982
 20
661.257383
 30
0.0
 10
259.175627
 20
662.527915
 30
0.0
 10
260.910177
 20
662.956177
 30
0.0
 10
262.118595
 20
663.701660
 30
0.0
 10
262.819435
 20
664.783994
 30
0.0
 10
263.031811
 20
666.222800
 30
0.0
 10
262.942389
 20
667.482406
 30
0.0
 10
262.713247
 20
668.874165
 30
0.0
 10
262.325382
 20
670.522833
 30
0.0
 10
261.756439
 20
672.553167
 30
0.0
 10
261.199791
 20
674.429682
 30
0.0
  0
LWPOLYLINE
  5
118
100
AcDbEntity
  8
Layer_1
 62
7
100
AcDbPolyline
 90
6
 70
1
 10
245.579782
 20
680.521744
 30
0.0
 10
252.509936
 20
680.655496
 30
0.0
 10
259.440090
 20
680.789248
 30
0.0
 10
256.150838
 20
691.567823
 30
0.0
 10
252.861586
 20
702.346399
 30
0.0
 10
249.220684
 20
691.434071
 30
0.0
  0
LWPOLYLINE
  5
119
100
AcDbEntity
  8
Layer_1
 62
7
100
AcDbPolyline
 90
62
 70
1
 10
289.564018
 20
658.198952
 30
0.0
 10
289.761863
 20
659.454219
 30
0.0
 10
289.959708
 20
660.709487
 30
0.0
 10
291.434042
 20
660.788960
 30
0.0
 10
292.578076
 20
660.998452
 30
0.0
 10
293.491292
 20
661.410069
 30
0.0
 10
294.184307
 20
662.031838
 30
0.0
 10
294.697362
 20
662.876780
 30
0.0
 10
295.072932
 20
663.957918
 30
0.0
 10
295.379200
 20
665.342337
 30
0.0
 10
295.673173
 20
667.021038
 30
0.0
 10
298.662417
 20
685.983177
 30
0.0
 10
301.651660
 20
704.945317
 30
0.0
 10
300.111042
 20
705.188174
 30
0.0
 10
298.570536
 20
705.431031
 30
0.0
 10
296.533518
 20
705.615697
 30
0.0
 10
294.987087
 20
705.450134
 30
0.0
 10
293.737983
 20
704.945339
 30
0.0
 10
292.593054
 20
704.112245
 30
0.0
 10
291.563591
 20
702.900316
 30
0.0
 10
290.585545
 20
701.270991
 30
0.0
 10
289.703627
 20
699.509564
 30
0.0
 10
288.951370
 20
697.825244
 30
0.0
 10
286.345744
 20
698.236001
 30
0.0
 10
283.740118
 20
698.646746
 30
0.0
 10
284.793054
 20
705.322485
 30
0.0
 10
285.845990
 20
711.998223
 30
0.0
 10
308.231507
 20
708.469335
 30
0.0
 10
330.617135
 20
704.940446
 30
0.0
 10
329.564198
 20
698.264708
 30
0.0
 10
328.512380
 20
691.588970
 30
0.0
 10
325.906753
 20
691.999716
 30
0.0
 10
323.301127
 20
692.410461
 30
0.0
 10
323.008272
 20
694.756665
 30
0.0
 10
322.759010
 20
696.394194
 30
0.0
 10
322.488511
 20
697.586784
 30
0.0
 10
322.131943
 20
698.598173
 30
0.0
 10
321.744078
 20
699.477933
 30
0.0
 10
321.294736
 20
700.211535
 30
0.0
 10
320.786152
 20
700.818002
 30
0.0
 10
320.221680
 20
701.316347
 30
0.0
 10
319.536488
 20
701.726578
 30
0.0
 10
318.664630
 20
702.068705
 30
0.0
 10
317.583750
 20
702.385245
 30
0.0
 10
316.183859
 20
702.654660
 30
0.0
 10
314.814483
 20
702.870523
 30
0.0
 10
313.445106
 20
703.086387
 30
0.0
 10
310.455863
 20
684.124247
 30
0.0
 10
307.466619
 20
665.162108
 30
0.0
 10
307.215121
 20
663.379316
 30
0.0
 10
307.095520
 20
662.063009
 30
0.0
 10
307.106698
 20
661.105586
 30
0.0
 10
307.244183
 20
660.323362
 30
0.0
 10
307.484503
 20
659.681294
 30
0.0
 10
307.799713
 20
659.144353
 30
0.0
 10
308.273646
 20
658.689533
 30
0.0
 10
308.902949
 20
658.229740
 30
0.0
 10
309.791574
 20
657.807056
 30
0.0
 10
310.955169
 20
657.399440
 30
0.0
 10
310.757324
 20
656.144172
 30
0.0
 10
310.559480
 20
654.888906
 30
0.0
 10
300.060855
 20
656.543925
 30
0.0
  0
LWPOLYLINE
  5
11a
100
AcDbEntity
  8
Layer_1
 62
7
100
AcDbPolyline
 90
98
 70
1
 10
374.584269
 20
645.181867
 30
0.0
 10
373.782830
 20
642.809901
 30
0.0
 10
373.406143
 20
641.266952
 30
0.0
 10
373.439676
 20
640.200178
 30
0.0
 10
373.766064
 20
639.210675
 30
0.0
 10
374.558561
 20
638.205489
 30
0.0
 10
375.987067
 20
637.091646
 30
0.0
 10
375.552255
 20
635.897442
 30
0.0
 10
375.117444
 20
634.703237
 30
0.0
 10
365.672426
 20
638.139179
 30
0.0
 10
356.227408
 20
641.575119
 30
0.0
 10
356.662219
 20
642.769323
 30
0.0
 10
357.095913
 20
643.963528
 30
0.0
 10
359.021378
 20
643.877683
 30
0.0
 10
360.204870
 20
644.061735
 30
0.0
 10
360.966069
 20
644.522232
 30
0.0
 10
361.625551
 20
645.265681
 30
0.0
 10
362.371102
 20
646.725507
 30
0.0
 10
363.365914
 20
649.262773
 30
0.0
 10
366.005409
 20
656.518468
 30
0.0
 10
368.644903
 20
663.774163
 30
0.0
 10
360.466427
 20
666.749345
 30
0.0
 10
352.287951
 20
669.724527
 30
0.0
 10
349.648456
 20
662.468832
 30
0.0
 10
347.008962
 20
655.213139
 30
0.0
 10
346.583092
 20
653.985210
 30
0.0
 10
346.225407
 20
652.834589
 30
0.0
 10
345.975027
 20
651.808971
 30
0.0
 10
345.874428
 20
650.956059
 30
0.0
 10
345.907961
 20
650.227320
 30
0.0
 10
346.070037
 20
649.574242
 30
0.0
 10
346.415427
 20
648.946638
 30
0.0
 10
346.925129
 20
648.320655
 30
0.0
 10
347.618144
 20
647.720146
 30
0.0
 10
348.487767
 20
647.096589
 30
0.0
 10
348.054074
 20
645.902385
 30
0.0
 10
347.619262
 20
644.708180
 30
0.0
 10
338.119921
 20
648.163868
 30
0.0
 10
328.620579
 20
651.619556
 30
0.0
 10
329.055391
 20
652.813760
 30
0.0
 10
329.490202
 20
654.007964
 30
0.0
 10
330.819339
 20
653.944474
 30
0.0
 10
331.865568
 20
654.004387
 30
0.0
 10
332.737426
 20
654.260892
 30
0.0
 10
333.444973
 20
654.741140
 30
0.0
 10
334.079864
 20
655.473076
 30
0.0
 10
334.636512
 20
656.438615
 30
0.0
 10
335.192042
 20
657.711762
 30
0.0
 10
335.798990
 20
659.294161
 30
0.0
 10
341.472886
 20
674.891191
 30
0.0
 10
347.146894
 20
690.488220
 30
0.0
 10
347.689011
 20
692.063225
 30
0.0
 10
348.077994
 20
693.386566
 30
0.0
 10
348.306018
 20
694.491970
 30
0.0
 10
348.294840
 20
695.439490
 30
0.0
 10
348.060109
 20
696.262010
 30
0.0
 10
347.558232
 20
697.018771
 30
0.0
 10
346.805975
 20
697.794479
 30
0.0
 10
345.726212
 20
698.627797
 30
0.0
 10
346.161024
 20
699.822001
 30
0.0
 10
346.595835
 20
701.016205
 30
0.0
 10
356.095176
 20
697.560517
 30
0.0
 10
365.594629
 20
694.104829
 30
0.0
 10
365.159818
 20
692.910625
 30
0.0
 10
364.726125
 20
691.716421
 30
0.0
 10
362.899358
 20
691.735535
 30
0.0
 10
361.650030
 20
691.483188
 30
0.0
 10
360.785997
 20
690.937170
 30
0.0
 10
360.041564
 20
690.101606
 30
0.0
 10
359.284836
 20
688.696886
 30
0.0
 10
358.357089
 20
686.370993
 30
0.0
 10
356.158554
 20
680.327597
 30
0.0
 10
353.960130
 20
674.284200
 30
0.0
 10
362.138606
 20
671.309017
 30
0.0
 10
370.317083
 20
668.333834
 30
0.0
 10
372.515506
 20
674.377231
 30
0.0
 10
374.714042
 20
680.420628
 30
0.0
 10
375.496479
 20
682.768746
 30
0.0
 10
375.842986
 20
684.312520
 30
0.0
 10
375.854164
 20
685.414661
 30
0.0
 10
375.534483
 20
686.391824
 30
0.0
 10
374.767695
 20
687.408522
 30
0.0
 10
373.340642
 20
688.583227
 30
0.0
 10
373.775453
 20
689.777431
 30
0.0
 10
374.209147
 20
690.971635
 30
0.0
 10
383.654165
 20
687.535694
 30
0.0
 10
393.099294
 20
684.099753
 30
0.0
 10
392.664483
 20
682.905549
 30
0.0
 10
392.230789
 20
681.711345
 30
0.0
 10
390.691066
 20
681.759297
 30
0.0
 10
389.572516
 20
681.613037
 30
0.0
 10
388.750958
 20
681.297302
 30
0.0
 10
388.075827
 20
680.764418
 30
0.0
 10
387.539298
 20
680.048097
 30
0.0
 10
387.058659
 20
679.208397
 30
0.0
 10
386.570195
 20
678.033940
 30
0.0
 10
385.933068
 20
676.339685
 30
0.0
 10
380.265319
 20
660.760773
 30
0.0
  0
LWPOLYLINE
  5
11b
100
AcDbEntity
  8
Layer_1
 62
7
100
AcDbPolyline
 90
22
 70
1
 10
415.826288
 20
609.172586
 30
0.0
 10
408.693930
 20
616.257486
 30
0.0
 10
405.770075
 20
624.418682
 30
0.0
 10
407.088481
 20
633.620482
 30
0.0
 10
412.619750
 20
643.871735
 30
0.0
 10
417.820272
 20
650.026894
 30
0.0
 10
423.401170
 20
654.354788
 30
0.0
 10
429.323658
 20
656.800436
 30
0.0
 10
435.441308
 20
657.290565
 30
0.0
 10
441.610598
 20
655.855981
 30
0.0
 10
447.688455
 20
652.527500
 30
0.0
 10
454.954275
 20
645.347962
 30
0.0
 10
457.964533
 20
637.125531
 30
0.0
 10
456.761257
 20
627.936460
 30
0.0
 10
451.342770
 20
617.794174
 30
0.0
 10
447.075695
 20
612.523176
 30
0.0
 10
442.691926
 20
608.585751
 30
0.0
 10
438.272164
 20
605.912810
 30
0.0
 10
433.789919
 20
604.416962
 30
0.0
 10
429.273358
 20
604.054665
 30
0.0
 10
424.750539
 20
604.782374
 30
0.0
 10
420.272206
 20
606.505151
 30
0.0
  0
LWPOLYLINE
  5
11c
100
AcDbEntity
  8
Layer_1
 62
7
100
AcDbPolyline
 90
22
 70
1
 10
423.211597
 20
637.638809
 30
0.0
 10
417.909470
 20
628.959647
 30
0.0
 10
415.453066
 20
621.897940
 30
0.0
 10
415.887877
 20
616.385589
 30
0.0
 10
419.153880
 20
612.336197
 30
0.0
 10
421.620568
 20
611.071634
 30
0.0
 10
424.182489
 20
610.707197
 30
0.0
 10
426.827349
 20
611.192481
 30
0.0
 10
429.498812
 20
612.414248
 30
0.0
 10
432.230299
 20
614.336807
 30
0.0
 10
434.948149
 20
616.906173
 30
0.0
 10
437.684330
 20
620.017262
 30
0.0
 10
440.407434
 20
623.609529
 30
0.0
 10
444.225502
 20
629.529100
 30
0.0
 10
446.817268
 20
634.783911
 30
0.0
 10
448.217382
 20
639.372968
 30
0.0
 10
448.352632
 20
643.276980
 30
0.0
 10
447.242690
 20
646.506087
 30
0.0
 10
444.799251
 20
649.052136
 30
0.0
 10
440.051202
 20
650.777285
 30
0.0
 10
434.917969
 20
649.495052
 30
0.0
 10
429.354955
 20
645.142603
 30
0.0
  0
LWPOLYLINE
  5
11d
100
AcDbEntity
  8
Layer_1
 62
7
100
AcDbPolyline
 90
76
 70
1
 10
459.527394
 20
585.469990
 30
0.0
 10
458.253811
 20
584.197362
 30
0.0
 10
457.366304
 20
583.217953
 30
0.0
 10
456.801832
 20
582.444279
 30
0.0
 10
456.443028
 20
581.735313
 30
0.0
 10
456.248537
 20
581.078111
 30
0.0
 10
456.181471
 20
580.459740
 30
0.0
 10
456.282070
 20
579.811223
 30
0.0
 10
456.507859
 20
579.065404
 30
0.0
 10
456.962790
 20
578.193267
 30
0.0
 10
457.646863
 20
577.167582
 30
0.0
 10
456.733648
 20
576.283909
 30
0.0
 10
455.820432
 20
575.400236
 30
0.0
 10
448.617096
 20
582.844361
 30
0.0
 10
441.413871
 20
590.288486
 30
0.0
 10
442.327087
 20
591.172159
 30
0.0
 10
443.240302
 20
592.055832
 30
0.0
 10
444.393837
 20
591.403705
 30
0.0
 10
445.374119
 20
591.013123
 30
0.0
 10
446.270568
 20
590.862236
 30
0.0
 10
447.116717
 20
590.984520
 30
0.0
 10
448.014284
 20
591.371435
 30
0.0
 10
448.957679
 20
592.016319
 30
0.0
 10
450.013969
 20
592.918066
 30
0.0
 10
451.251784
 20
594.075547
 30
0.0
 10
463.165166
 20
605.603492
 30
0.0
 10
475.078549
 20
617.131436
 30
0.0
 10
476.255334
 20
618.310341
 30
0.0
 10
477.184198
 20
619.329921
 30
0.0
 10
477.872742
 20
620.224095
 30
0.0
 10
478.275138
 20
621.082131
 30
0.0
 10
478.427155
 20
621.923889
 30
0.0
 10
478.309789
 20
622.824575
 30
0.0
 10
477.973341
 20
623.851358
 30
0.0
 10
477.366394
 20
625.073197
 30
0.0
 10
478.279609
 20
625.956870
 30
0.0
 10
479.192825
 20
626.840542
 30
0.0
 10
492.140030
 20
613.460488
 30
0.0
 10
505.087235
 20
600.080433
 30
0.0
 10
500.687146
 20
595.822725
 30
0.0
 10
496.287057
 20
591.565017
 30
0.0
 10
494.452801
 20
593.460640
 30
0.0
 10
492.618546
 20
595.356263
 30
0.0
 10
494.001894
 20
598.329154
 30
0.0
 10
494.661376
 20
600.333558
 30
0.0
 10
494.822335
 20
601.842346
 30
0.0
 10
494.654670
 20
603.274828
 30
0.0
 10
493.911355
 20
604.873370
 30
0.0
 10
492.288805
 20
606.826781
 30
0.0
 10
489.704751
 20
609.497258
 30
0.0
 10
487.120586
 20
612.167734
 30
0.0
 10
480.077761
 20
605.352724
 30
0.0
 10
473.034936
 20
598.537714
 30
0.0
 10
474.748696
 20
596.766620
 30
0.0
 10
476.462456
 20
594.995528
 30
0.0
 10
477.670650
 20
593.940803
 30
0.0
 10
478.778357
 20
593.377940
 30
0.0
 10
479.954024
 20
593.256484
 30
0.0
 10
481.259017
 20
593.527788
 30
0.0
 10
482.808801
 20
594.196749
 30
0.0
 10
484.665523
 20
595.323624
 30
0.0
 10
486.178532
 20
593.760081
 30
0.0
 10
487.691430
 20
592.196538
 30
0.0
 10
481.658619
 20
586.358926
 30
0.0
 10
475.625807
 20
580.521314
 30
0.0
 10
474.112910
 20
582.084857
 30
0.0
 10
472.599901
 20
583.648400
 30
0.0
 10
473.787975
 20
585.507947
 30
0.0
 10
474.507817
 20
587.048397
 30
0.0
 10
474.821909
 20
588.370836
 30
0.0
 10
474.743666
 20
589.522799
 30
0.0
 10
474.223904
 20
590.641089
 30
0.0
 10
473.229092
 20
591.862499
 30
0.0
 10
471.515332
 20
593.633591
 30
0.0
 10
469.801460
 20
595.404685
 30
0.0
 10
464.665768
 20
590.437337
 30
0.0
  0
LWPOLYLINE
  5
11e
100
AcDbEntity
  8
Layer_1
 62
7
100
AcDbPolyline
 90
50
 70
1
 10
94.205617
 20
66.125211
 30
0.0
 10
92.963778
 20
64.338081
 30
0.0
 10
92.230523
 20
63.085735
 30
0.0
 10
91.877309
 20
62.175761
 30
0.0
 10
91.730881
 20
61.353420
 30
0.0
 10
91.842658
 20
60.571207
 30
0.0
 10
92.147808
 20
59.764850
 30
0.0
 10
92.779346
 20
58.816760
 30
0.0
 10
93.802103
 20
57.654640
 30
0.0
 10
93.054317
 20
56.627412
 30
0.0
 10
92.306531
 20
55.600185
 30
0.0
 10
83.932893
 20
61.698016
 30
0.0
 10
75.559142
 20
67.795848
 30
0.0
 10
76.306928
 20
68.823076
 30
0.0
 10
77.054714
 20
69.850303
 30
0.0
 10
78.314326
 20
69.421304
 30
0.0
 10
79.335965
 20
69.189256
 30
0.0
 10
80.244709
 20
69.194342
 30
0.0
 10
81.057326
 20
69.460035
 30
0.0
 10
81.869942
 20
69.987621
 30
0.0
 10
82.671381
 20
70.761451
 30
0.0
 10
83.557770
 20
71.831042
 30
0.0
 10
84.578291
 20
73.183730
 30
0.0
 10
94.348356
 20
86.600341
 30
0.0
 10
104.118532
 20
100.016941
 30
0.0
 10
105.075340
 20
101.380270
 30
0.0
 10
105.815302
 20
102.544133
 30
0.0
 10
106.340652
 20
103.543193
 30
0.0
 10
106.589914
 20
104.457527
 30
0.0
 10
106.593268
 20
105.312507
 30
0.0
 10
106.319415
 20
106.178999
 30
0.0
 10
105.810831
 20
107.132678
 30
0.0
 10
105.003803
 20
108.232449
 30
0.0
 10
105.751589
 20
109.259677
 30
0.0
 10
106.499375
 20
110.286904
 30
0.0
 10
115.542444
 20
103.701704
 30
0.0
 10
124.585401
 20
97.116504
 30
0.0
 10
130.957008
 20
91.392912
 30
0.0
 10
134.320480
 20
85.692401
 30
0.0
 10
134.666988
 20
79.985956
 30
0.0
 10
131.941313
 20
74.182298
 30
0.0
 10
128.665586
 20
70.648881
 30
0.0
 10
124.868196
 20
68.328944
 30
0.0
 10
120.664052
 20
67.281820
 30
0.0
 10
116.167611
 20
67.567075
 30
0.0
 10
111.395306
 20
69.255964
 30
0.0
 10
106.318074
 20
72.357812
 30
0.0
 10
103.593629
 20
74.389431
 30
0.0
 10
101.459141
 20
76.086615
 30
0.0
 10
97.832211
 20
71.105947
 30
0.0
  0
LWPOLYLINE
  5
11f
100
AcDbEntity
  8
Layer_1
 62
7
100
AcDbPolyline
 90
18
 70
1
 10
104.021063
 20
79.604071
 30
0.0
 10
105.359588
 20
78.629378
 30
0.0
 10
106.698114
 20
77.654685
 30
0.0
 10
109.650695
 20
75.838102
 30
0.0
 10
112.282366
 20
74.921980
 30
0.0
 10
114.722227
 20
74.919778
 30
0.0
 10
117.053441
 20
75.782582
 30
0.0
 10
119.379626
 20
77.554176
 30
0.0
 10
121.741803
 20
80.323734
 30
0.0
 10
123.630046
 20
83.390864
 30
0.0
 10
124.579030
 20
86.117410
 30
0.0
 10
124.698631
 20
88.554980
 30
0.0
 10
123.989967
 20
90.738247
 30
0.0
 10
122.478635
 20
92.767709
 30
0.0
 10
120.190119
 20
94.743865
 30
0.0
 10
118.248781
 20
96.133752
 30
0.0
 10
116.782830
 20
97.129794
 30
0.0
 10
110.401835
 20
88.366983
 30
0.0
  0
LWPOLYLINE
  5
120
100
AcDbEntity
  8
Layer_1
 62
7
100
AcDbPolyline
 90
80
 70
1
 10
133.307336
 20
31.019553
 30
0.0
 10
124.197425
 20
35.400137
 30
0.0
 10
115.087513
 20
39.780721
 30
0.0
 10
115.637454
 20
40.925963
 30
0.0
 10
116.188513
 20
42.071204
 30
0.0
 10
117.504796
 20
41.876266
 30
0.0
 10
118.552143
 20
41.832673
 30
0.0
 10
119.445239
 20
42.001456
 30
0.0
 10
120.197496
 20
42.409217
 30
0.0
 10
120.901689
 20
43.074624
 30
0.0
 10
121.551112
 20
43.980238
 30
0.0
 10
122.229596
 20
45.192021
 30
0.0
 10
122.989678
 20
46.706516
 30
0.0
 10
130.182172
 20
61.664081
 30
0.0
 10
137.374666
 20
76.621634
 30
0.0
 10
138.071035
 20
78.135113
 30
0.0
 10
138.589678
 20
79.413335
 30
0.0
 10
138.926126
 20
80.490639
 30
0.0
 10
139.004370
 20
81.434816
 30
0.0
 10
138.854589
 20
82.276383
 30
0.0
 10
138.427602
 20
83.079387
 30
0.0
 10
137.755824
 20
83.925871
 30
0.0
 10
136.764365
 20
84.862225
 30
0.0
 10
137.315424
 20
86.007466
 30
0.0
 10
137.865366
 20
87.152708
 30
0.0
 10
147.981714
 20
82.288175
 30
0.0
 10
158.097951
 20
77.423643
 30
0.0
 10
161.809831
 20
75.457167
 30
0.0
 10
164.755147
 20
73.496079
 30
0.0
 10
167.111287
 20
71.487161
 30
0.0
 10
168.952920
 20
69.341116
 30
0.0
 10
170.088907
 20
67.438230
 30
0.0
 10
170.822162
 20
65.408566
 30
0.0
 10
171.160845
 20
63.291002
 30
0.0
 10
171.082601
 20
61.054999
 30
0.0
 10
170.589666
 20
58.696399
 30
0.0
 10
169.590383
 20
56.174985
 30
0.0
 10
167.768199
 20
53.162905
 30
0.0
 10
165.572234
 20
50.928735
 30
0.0
 10
163.103087
 20
49.370680
 30
0.0
 10
160.392168
 20
48.420355
 30
0.0
 10
157.285558
 20
48.002086
 30
0.0
 10
153.526508
 20
48.004411
 30
0.0
 10
153.448265
 20
47.830934
 30
0.0
 10
153.370021
 20
47.657345
 30
0.0
 10
155.086799
 20
45.229499
 30
0.0
 10
156.168797
 20
42.636839
 30
0.0
 10
156.776862
 20
39.769924
 30
0.0
 10
156.970236
 20
36.483220
 30
0.0
 10
156.925525
 20
33.597660
 30
0.0
 10
156.891992
 20
30.712100
 30
0.0
 10
157.012711
 20
27.247705
 30
0.0
 10
157.486644
 20
24.572509
 30
0.0
 10
158.469161
 20
22.551005
 30
0.0
 10
160.004414
 20
21.011661
 30
0.0
 10
159.454473
 20
19.866420
 30
0.0
 10
158.903414
 20
18.721178
 30
0.0
 10
152.222857
 20
21.933607
 30
0.0
 10
145.542300
 20
25.146035
 30
0.0
 10
145.060542
 20
29.629599
 30
0.0
 10
144.971121
 20
35.591778
 30
0.0
 10
145.049365
 20
39.209822
 30
0.0
 10
145.127608
 20
42.827877
 30
0.0
 10
145.082898
 20
45.626016
 30
0.0
 10
144.845931
 20
47.577223
 30
0.0
 10
144.411120
 20
48.939781
 30
0.0
 10
143.775111
 20
49.971927
 30
0.0
 10
142.771356
 20
50.839090
 30
0.0
 10
141.164231
 20
51.740122
 30
0.0
 10
140.158241
 20
52.224115
 30
0.0
 10
139.152251
 20
52.708108
 30
0.0
 10
136.465586
 20
47.120716
 30
0.0
 10
133.778810
 20
41.533324
 30
0.0
 10
132.775055
 20
39.291721
 30
0.0
 10
132.268707
 20
37.772553
 30
0.0
 10
132.179286
 20
36.664510
 30
0.0
 10
132.410663
 20
35.656173
 30
0.0
 10
133.115974
 20
34.590606
 30
0.0
 10
134.444776
 20
33.310707
 30
0.0
 10
133.890363
 20
32.165443
 30
0.0
  0
LWPOLYLINE
  5
121
100
AcDbEntity
  8
Layer_1
 62
7
100
AcDbPolyline
 90
20
 70
1
 10
150.352386
 20
76.063421
 30
0.0
 10
145.713206
 20
66.415618
 30
0.0
 10
141.073915
 20
56.767826
 30
0.0
 10
142.791811
 20
55.941797
 30
0.0
 10
144.509707
 20
55.115767
 30
0.0
 10
147.130758
 20
54.079709
 30
0.0
 10
149.441071
 20
53.641768
 30
0.0
 10
151.488708
 20
53.768187
 30
0.0
 10
153.288089
 20
54.355574
 30
0.0
 10
154.895549
 20
55.387943
 30
0.0
 10
156.264255
 20
56.812794
 30
0.0
 10
157.486197
 20
58.553984
 30
0.0
 10
158.582727
 20
60.568826
 30
0.0
 10
160.013356
 20
64.965651
 30
0.0
 10
159.766330
 20
68.716530
 30
0.0
 10
157.858302
 20
71.813147
 30
0.0
 10
154.307268
 20
74.247140
 30
0.0
 10
151.826273
 20
75.418794
 30
0.0
 10
150.352274
 20
76.063522
 30
0.0
 10
150.352274
 20
76.063544
 30
0.0
  0
LWPOLYLINE
  5
122
100
AcDbEntity
  8
Layer_1
 62
7
100
AcDbPolyline
 90
24
 70
1
 10
183.077245
 20
11.787000
 30
0.0
 10
173.918040
 20
15.931322
 30
0.0
 10
168.325518
 20
22.555331
 30
0.0
 10
166.343605
 20
31.637365
 30
0.0
 10
167.942124
 20
43.175525
 30
0.0
 10
170.662656
 20
50.760400
 30
0.0
 10
174.378337
 20
56.766317
 30
0.0
 10
179.072063
 20
61.128156
 30
0.0
 10
184.632282
 20
63.726104
 30
0.0
 10
190.913908
 20
64.538944
 30
0.0
 10
197.771855
 20
63.545249
 30
0.0
 10
207.089224
 20
59.358933
 30
0.0
 10
212.784134
 20
52.707762
 30
0.0
 10
214.869440
 20
43.677938
 30
0.0
 10
213.338547
 20
32.281244
 30
0.0
 10
211.183604
 20
25.851089
 30
0.0
 10
208.453011
 20
20.629531
 30
0.0
 10
205.246585
 20
16.580096
 30
0.0
 10
201.570139
 20
13.611620
 30
0.0
 10
197.465140
 20
11.693152
 30
0.0
 10
192.973394
 20
10.793797
 30
0.0
 10
188.175380
 20
10.841861
 30
0.0
 10
183.077469
 20
11.786709
 30
0.0
 10
183.077357
 20
11.786709
 30
0.0
  0
LWPOLYLINE
  5
123
100
AcDbEntity
  8
Layer_1
 62
7
100
AcDbPolyline
 90
24
 70
1
 10
180.044520
 20
41.038857
 30
0.0
 10
178.111231
 20
31.053746
 30
0.0
 10
178.278896
 20
23.578859
 30
0.0
 10
180.613911
 20
18.566547
 30
0.0
 10
185.089337
 20
15.914444
 30
0.0
 10
187.842397
 20
15.592080
 30
0.0
 10
190.370115
 20
16.146380
 30
0.0
 10
192.678527
 20
17.525704
 30
0.0
 10
194.754220
 20
19.604326
 30
0.0
 10
196.641234
 20
22.360504
 30
0.0
 10
198.289381
 20
25.717952
 30
0.0
 10
199.765057
 20
29.589270
 30
0.0
 10
201.060549
 20
33.906890
 30
0.0
 10
202.568193
 20
40.787751
 30
0.0
 10
203.159491
 20
46.617050
 30
0.0
 10
202.866636
 20
51.405999
 30
0.0
 10
201.628821
 20
55.111095
 30
0.0
 10
199.460242
 20
57.748499
 30
0.0
 10
196.280978
 20
59.279661
 30
0.0
 10
191.229454
 20
59.236068
 30
0.0
 10
186.868375
 20
56.240140
 30
0.0
 10
183.178068
 20
50.217500
 30
0.0
 10
180.044632
 20
41.039036
 30
0.0
 10
180.044632
 20
41.039036
 30
0.0
  0
LWPOLYLINE
  5
124
100
AcDbEntity
  8
Layer_1
 62
7
100
AcDbPolyline
 90
72
 70
1
 10
257.980477
 20
53.358034
 30
0.0
 10
257.613849
 20
47.902214
 30
0.0
 10
257.247222
 20
42.446405
 30
0.0
 10
254.615440
 20
42.623571
 30
0.0
 10
251.983546
 20
42.800737
 30
0.0
 10
251.224582
 20
45.717516
 30
0.0
 10
250.280069
 20
47.894132
 30
0.0
 10
249.096578
 20
49.517611
 30
0.0
 10
247.535952
 20
50.703315
 30
0.0
 10
245.553816
 20
51.502519
 30
0.0
 10
243.023304
 20
51.894743
 30
0.0
 10
239.401180
 20
51.550024
 30
0.0
 10
236.141884
 20
50.003638
 30
0.0
 10
233.326900
 20
47.173028
 30
0.0
 10
231.032237
 20
42.898665
 30
0.0
 10
229.377047
 20
37.230425
 30
0.0
 10
228.475010
 20
30.141346
 30
0.0
 10
228.330818
 20
23.840729
 30
0.0
 10
228.802515
 20
18.386307
 30
0.0
 10
229.949120
 20
13.918917
 30
0.0
 10
231.745819
 20
10.507750
 30
0.0
 10
234.220778
 20
8.285964
 30
0.0
 10
237.325376
 20
7.391974
 30
0.0
 10
240.298188
 20
7.693660
 30
0.0
 10
242.454584
 20
9.053736
 30
0.0
 10
243.842068
 20
11.604133
 30
0.0
 10
244.502668
 20
15.399891
 30
0.0
 10
244.558556
 20
16.129904
 30
0.0
 10
244.614445
 20
16.859918
 30
0.0
 10
244.735164
 20
19.360530
 30
0.0
 10
244.701631
 20
21.022336
 30
0.0
 10
244.523906
 20
22.143747
 30
0.0
 10
244.213166
 20
22.946303
 30
0.0
 10
243.798475
 20
23.533802
 30
0.0
 10
243.242945
 20
24.015112
 30
0.0
 10
242.367733
 20
24.488933
 30
0.0
 10
240.996904
 20
25.053965
 30
0.0
 10
241.086326
 20
26.321859
 30
0.0
 10
241.175747
 20
27.589764
 30
0.0
 10
251.011536
 20
26.927711
 30
0.0
 10
260.847325
 20
26.265657
 30
0.0
 10
260.757904
 20
24.997752
 30
0.0
 10
260.668483
 20
23.729858
 30
0.0
 10
259.013517
 20
23.223733
 30
0.0
 10
257.968405
 20
22.599349
 30
0.0
 10
257.324571
 20
21.783938
 30
0.0
 10
256.876347
 20
20.704510
 30
0.0
 10
256.605847
 20
19.275345
 30
0.0
 10
256.418062
 20
17.338959
 30
0.0
 10
255.930716
 20
10.096557
 30
0.0
 10
255.443370
 20
2.854165
 30
0.0
 10
252.638334
 20
2.464065
 30
0.0
 10
249.833186
 20
2.073964
 30
0.0
 10
248.619962
 20
3.545046
 30
0.0
 10
247.406738
 20
5.016139
 30
0.0
 10
242.356891
 20
3.242947
 30
0.0
 10
236.728935
 20
2.917342
 30
0.0
 10
227.041474
 20
5.209702
 30
0.0
 10
220.416917
 20
10.576459
 30
0.0
 10
216.851688
 20
19.104762
 30
0.0
 10
216.259271
 20
30.810028
 30
0.0
 10
217.191489
 20
37.347086
 30
0.0
 10
219.046423
 20
42.972929
 30
0.0
 10
221.703802
 20
47.618469
 30
0.0
 10
225.043018
 20
51.214638
 30
0.0
 10
228.944695
 20
53.846677
 30
0.0
 10
233.206852
 20
55.528156
 30
0.0
 10
237.818087
 20
56.375647
 30
0.0
 10
242.685067
 20
56.433770
 30
0.0
 10
250.719240
 20
55.381617
 30
0.0
 10
257.993331
 20
53.357866
 30
0.0
 10
257.991319
 20
53.357810
 30
0.0
  0
LWPOLYLINE
  5
125
100
AcDbEntity
  8
Layer_1
 62
7
100
AcDbPolyline
 90
80
 70
1
 10
285.309317
 20
4.822631
 30
0.0
 10
275.282278
 20
3.542844
 30
0.0
 10
265.255127
 20
2.263046
 30
0.0
 10
265.094169
 20
3.523585
 30
0.0
 10
264.933210
 20
4.784124
 30
0.0
 10
266.143752
 20
5.336524
 30
0.0
 10
267.045789
 20
5.869028
 30
0.0
 10
267.703036
 20
6.496431
 30
0.0
 10
268.112139
 20
7.247458
 30
0.0
 10
268.341281
 20
8.188953
 30
0.0
 10
268.397170
 20
9.302026
 30
0.0
 10
268.307748
 20
10.688124
 30
0.0
 10
268.123317
 20
12.372509
 30
0.0
 10
266.022027
 20
28.835962
 30
0.0
 10
263.920737
 20
45.299404
 30
0.0
 10
263.681535
 20
46.947820
 30
0.0
 10
263.421095
 20
48.302442
 30
0.0
 10
263.117063
 20
49.389470
 30
0.0
 10
262.671074
 20
50.225336
 30
0.0
 10
262.086482
 20
50.849497
 30
0.0
 10
261.292867
 20
51.291685
 30
0.0
 10
260.268993
 20
51.636516
 30
0.0
 10
258.927114
 20
51.882649
 30
0.0
 10
258.766155
 20
53.143188
 30
0.0
 10
258.605197
 20
54.403738
 30
0.0
 10
269.739943
 20
55.824923
 30
0.0
 10
280.874689
 20
57.246107
 30
0.0
 10
285.059049
 20
57.615194
 30
0.0
 10
288.597228
 20
57.571601
 30
0.0
 10
291.667063
 20
57.167528
 30
0.0
 10
294.379771
 20
56.368549
 30
0.0
 10
296.368167
 20
55.389720
 30
0.0
 10
298.087404
 20
54.085488
 30
0.0
 10
299.523287
 20
52.492715
 30
0.0
 10
300.671010
 20
50.572011
 30
0.0
 10
301.540633
 20
48.324596
 30
0.0
 10
302.073807
 20
45.665551
 30
0.0
 10
302.185584
 20
42.146844
 30
0.0
 10
301.558517
 20
39.077601
 30
0.0
 10
300.334115
 20
36.427130
 30
0.0
 10
298.576539
 20
34.154990
 30
0.0
 10
296.197148
 20
32.114093
 30
0.0
 10
293.041693
 20
30.071184
 30
0.0
 10
293.064048
 20
29.880269
 30
0.0
 10
293.086403
 20
29.689243
 30
0.0
 10
295.847623
 20
28.585895
 30
0.0
 10
298.165871
 20
26.998991
 30
0.0
 10
300.235863
 20
24.924248
 30
0.0
 10
302.185472
 20
22.271262
 30
0.0
 10
303.720278
 20
19.827354
 30
0.0
 10
305.254972
 20
17.383457
 30
0.0
 10
307.238673
 20
14.540686
 30
0.0
 10
309.093383
 20
12.554951
 30
0.0
 10
311.017730
 20
11.393311
 30
0.0
 10
313.143164
 20
10.936704
 30
0.0
 10
313.304122
 20
9.676153
 30
0.0
 10
313.465081
 20
8.415614
 30
0.0
 10
306.111964
 20
7.477137
 30
0.0
 10
298.758735
 20
6.538660
 30
0.0
 10
295.914912
 20
10.038332
 30
0.0
 10
292.594362
 20
14.991168
 30
0.0
 10
290.687787
 20
18.066972
 30
0.0
 10
288.781212
 20
21.142787
 30
0.0
 10
287.222934
 20
23.467216
 30
0.0
 10
285.962763
 20
24.975676
 30
0.0
 10
284.857292
 20
25.882744
 30
0.0
 10
283.761881
 20
26.402953
 30
0.0
 10
282.447834
 20
26.584702
 30
0.0
 10
280.609331
 20
26.466665
 30
0.0
 10
279.501624
 20
26.325268
 30
0.0
 10
278.393917
 20
26.183870
 30
0.0
 10
279.178589
 20
20.033951
 30
0.0
 10
279.963262
 20
13.884031
 30
0.0
 10
280.341067
 20
11.457427
 30
0.0
 10
280.742345
 20
9.907341
 30
0.0
 10
281.265460
 20
8.925942
 30
0.0
 10
282.007657
 20
8.205429
 30
0.0
 10
283.179189
 20
7.695057
 30
0.0
 10
284.990418
 20
7.343855
 30
0.0
 10
285.153612
 20
6.083159
 30
0.0
  0
LWPOLYLINE
  5
126
100
AcDbEntity
  8
Layer_1
 62
7
100
AcDbPolyline
 90
20
 70
1
 10
275.109136
 20
51.891121
 30
0.0
 10
276.464540
 20
41.272012
 30
0.0
 10
277.819832
 20
30.652892
 30
0.0
 10
279.710646
 20
30.894218
 30
0.0
 10
281.601461
 20
31.135544
 30
0.0
 10
284.364357
 20
31.691968
 30
0.0
 10
286.541208
 20
32.581263
 30
0.0
 10
288.190696
 20
33.801105
 30
0.0
 10
289.381006
 20
35.272935
 30
0.0
 10
290.167914
 20
37.013578
 30
0.0
 10
290.541248
 20
38.953753
 30
0.0
 10
290.619492
 20
41.079432
 30
0.0
 10
290.441767
 20
43.366853
 30
0.0
 10
289.250563
 20
47.834444
 30
0.0
 10
287.002510
 20
50.847272
 30
0.0
 10
283.717058
 20
52.407787
 30
0.0
 10
279.413321
 20
52.518446
 30
0.0
 10
276.694129
 20
52.152042
 30
0.0
 10
275.106677
 20
51.891155
 30
0.0
 10
275.108353
 20
51.891155
 30
0.0
  0
LWPOLYLINE
  5
127
100
AcDbEntity
  8
Layer_1
 62
7
100
AcDbPolyline
 90
82
 70
1
 10
337.470465
 20
71.547353
 30
0.0
 10
339.323052
 20
65.711548
 30
0.0
 10
341.175526
 20
59.875743
 30
0.0
 10
338.661445
 20
59.077658
 30
0.0
 10
336.147252
 20
58.279572
 30
0.0
 10
334.101516
 20
60.842109
 30
0.0
 10
332.600467
 20
62.325106
 30
0.0
 10
331.321294
 20
63.141187
 30
0.0
 10
329.964325
 20
63.629540
 30
0.0
 10
328.202054
 20
63.676486
 30
0.0
 10
325.730672
 20
63.093906
 30
0.0
 10
321.730072
 20
61.823910
 30
0.0
 10
317.729361
 20
60.553915
 30
0.0
 10
320.525679
 20
51.745152
 30
0.0
 10
323.321996
 20
42.936390
 30
0.0
 10
325.744308
 20
43.705413
 30
0.0
 10
328.166733
 20
44.474437
 30
0.0
 10
329.572436
 20
45.041815
 30
0.0
 10
330.559424
 20
45.718735
 30
0.0
 10
331.195434
 20
46.607806
 30
0.0
 10
331.574357
 20
47.738003
 30
0.0
 10
331.748728
 20
49.288267
 30
0.0
 10
331.704018
 20
51.414126
 30
0.0
 10
333.777810
 20
52.072378
 30
0.0
 10
335.851491
 20
52.730631
 30
0.0
 10
338.216686
 20
45.279888
 30
0.0
 10
340.581881
 20
37.829134
 30
0.0
 10
338.508200
 20
37.170881
 30
0.0
 10
336.434407
 20
36.512628
 30
0.0
 10
335.298756
 20
38.212640
 30
0.0
 10
334.271528
 20
39.381321
 30
0.0
 10
333.274480
 20
40.135478
 30
0.0
 10
332.253959
 20
40.518537
 30
0.0
 10
331.075833
 20
40.538657
 30
0.0
 10
329.533203
 20
40.180189
 30
0.0
 10
327.110778
 20
39.411165
 30
0.0
 10
324.688354
 20
38.642142
 30
0.0
 10
327.799211
 20
28.842401
 30
0.0
 10
330.910180
 20
19.042648
 30
0.0
 10
334.892447
 20
20.306820
 30
0.0
 10
338.874827
 20
21.570981
 30
0.0
 10
340.046806
 20
21.983437
 30
0.0
 10
340.993554
 20
22.405170
 30
0.0
 10
341.752518
 20
22.908724
 30
0.0
 10
342.385174
 20
23.493428
 30
0.0
 10
342.912760
 20
24.186108
 30
0.0
 10
343.356513
 20
25.013926
 30
0.0
 10
343.741025
 20
25.933960
 30
0.0
 10
344.017113
 20
26.879926
 30
0.0
 10
344.242902
 20
27.981821
 30
0.0
 10
344.406096
 20
29.346547
 30
0.0
 10
344.484340
 20
31.099116
 30
0.0
 10
344.461985
 20
33.364650
 30
0.0
 10
346.976177
 20
34.162736
 30
0.0
 10
349.490370
 20
34.960821
 30
0.0
 10
351.268067
 20
28.151811
 30
0.0
 10
353.045763
 20
21.342789
 30
0.0
 10
335.006124
 20
15.616179
 30
0.0
 10
316.966485
 20
9.889557
 30
0.0
 10
316.581974
 20
11.100770
 30
0.0
 10
316.197462
 20
12.311970
 30
0.0
 10
317.289520
 20
13.072611
 30
0.0
 10
318.082017
 20
13.758473
 30
0.0
 10
318.616309
 20
14.493740
 30
0.0
 10
318.883456
 20
15.305797
 30
0.0
 10
318.939344
 20
16.273224
 30
0.0
 10
318.792916
 20
17.377578
 30
0.0
 10
318.456469
 20
18.725113
 30
0.0
 10
317.971358
 20
20.348792
 30
0.0
 10
312.949679
 20
36.167864
 30
0.0
 10
307.927999
 20
51.986925
 30
0.0
 10
307.395942
 20
53.565603
 30
0.0
 10
306.897418
 20
54.851527
 30
0.0
 10
306.403365
 20
55.866347
 30
0.0
 10
305.814302
 20
56.608544
 30
0.0
 10
305.126876
 20
57.117799
 30
0.0
 10
304.266195
 20
57.410207
 30
0.0
 10
303.196492
 20
57.565688
 30
0.0
 10
301.832482
 20
57.566974
 30
0.0
 10
301.447970
 20
58.778186
 30
0.0
 10
301.063458
 20
59.989387
 30
0.0
 10
319.267632
 20
65.768498
 30
0.0
  0
LWPOLYLINE
  5
128
100
AcDbEntity
  8
Layer_1
 62
7
100
AcDbPolyline
 90
76
 70
1
 10
358.735755
 20
38.200411
 30
0.0
 10
361.666763
 20
35.185917
 30
0.0
 10
364.651760
 20
33.488767
 30
0.0
 10
367.897531
 20
33.233469
 30
0.0
 10
371.576437
 20
34.441250
 30
0.0
 10
373.421087
 20
35.574688
 30
0.0
 10
374.887262
 20
36.949854
 30
0.0
 10
375.897723
 20
38.571231
 30
0.0
 10
376.375010
 20
40.443233
 30
0.0
 10
376.257644
 20
42.557366
 30
0.0
 10
375.452852
 20
44.801842
 30
0.0
 10
374.263548
 20
46.693930
 30
0.0
 10
372.823641
 20
48.095655
 30
0.0
 10
371.021466
 20
49.123441
 30
0.0
 10
368.779672
 20
49.824728
 30
0.0
 10
365.951722
 20
50.234278
 30
0.0
 10
362.391412
 20
50.386853
 30
0.0
 10
359.149664
 20
50.482981
 30
0.0
 10
356.140748
 20
50.759405
 30
0.0
 10
353.369021
 20
51.272236
 30
0.0
 10
350.838844
 20
52.077364
 30
0.0
 10
348.571901
 20
53.239416
 30
0.0
 10
346.555226
 20
54.719630
 30
0.0
 10
344.840684
 20
56.608321
 30
0.0
 10
343.411060
 20
58.961511
 30
0.0
 10
341.984566
 20
63.144462
 30
0.0
 10
341.928678
 20
67.213111
 30
0.0
 10
343.201255
 20
71.094344
 30
0.0
 10
345.764854
 20
74.715026
 30
0.0
 10
349.494618
 20
78.023705
 30
0.0
 10
354.231155
 20
80.865672
 30
0.0
 10
357.273157
 20
82.272583
 30
0.0
 10
360.263072
 20
83.438480
 30
0.0
 10
363.472292
 20
84.487728
 30
0.0
 10
367.206751
 20
85.475834
 30
0.0
 10
369.695235
 20
80.477337
 30
0.0
 10
372.183720
 20
75.478841
 30
0.0
 10
369.822437
 20
74.303252
 30
0.0
 10
367.461043
 20
73.127663
 30
0.0
 10
365.497127
 20
75.193307
 30
0.0
 10
363.626656
 20
76.595780
 30
0.0
 10
361.798324
 20
77.438465
 30
0.0
 10
359.925953
 20
77.721595
 30
0.0
 10
357.927833
 20
77.436564
 30
0.0
 10
355.721920
 20
76.574990
 30
0.0
 10
353.946236
 20
75.475890
 30
0.0
 10
352.549028
 20
74.135050
 30
0.0
 10
351.591101
 20
72.582472
 30
0.0
 10
351.131699
 20
70.848212
 30
0.0
 10
351.198765
 20
69.022619
 30
0.0
 10
351.862719
 20
67.127122
 30
0.0
 10
352.983615
 20
65.351381
 30
0.0
 10
354.354444
 20
64.022971
 30
0.0
 10
356.122416
 20
63.107185
 30
0.0
 10
358.398860
 20
62.466146
 30
0.0
 10
361.377485
 20
62.099406
 30
0.0
 10
365.286428
 20
61.937665
 30
0.0
 10
370.159556
 20
61.632292
 30
0.0
 10
374.102031
 20
60.906414
 30
0.0
 10
377.320529
 20
59.755662
 30
0.0
 10
379.986850
 20
58.071958
 30
0.0
 10
382.204611
 20
55.820742
 30
0.0
 10
384.042108
 20
52.864104
 30
0.0
 10
385.524490
 20
48.655220
 30
0.0
 10
385.750279
 20
44.508786
 30
0.0
 10
384.706285
 20
40.558274
 30
0.0
 10
382.413745
 20
36.868246
 30
0.0
 10
378.981083
 20
33.610716
 30
0.0
 10
374.550479
 20
30.888774
 30
0.0
 10
370.905218
 20
29.203059
 30
0.0
 10
367.001864
 20
27.646949
 30
0.0
 10
363.085992
 20
26.288907
 30
0.0
 10
359.299780
 20
25.232058
 30
0.0
 10
356.656821
 20
30.540803
 30
0.0
 10
354.013861
 20
35.849558
 30
0.0
 10
356.374920
 20
37.025102
 30
0.0
  0
LWPOLYLINE
  5
129
100
AcDbEntity
  8
Layer_1
 62
7
100
AcDbPolyline
 90
76
 70
1
 10
392.815571
 20
56.387070
 30
0.0
 10
396.152553
 20
53.829105
 30
0.0
 10
399.351937
 20
52.582404
 30
0.0
 10
402.600502
 20
52.800033
 30
0.0
 10
406.065468
 20
54.528146
 30
0.0
 10
407.726357
 20
55.916904
 30
0.0
 10
408.977809
 20
57.490027
 30
0.0
 10
409.743479
 20
59.240673
 30
0.0
 10
409.943560
 20
61.162014
 30
0.0
 10
409.524397
 20
63.236891
 30
0.0
 10
408.399812
 20
65.340952
 30
0.0
 10
406.948839
 20
67.040752
 30
0.0
 10
405.321035
 20
68.219034
 30
0.0
 10
403.388975
 20
68.974868
 30
0.0
 10
401.069162
 20
69.343955
 30
0.0
 10
398.211703
 20
69.339428
 30
0.0
 10
394.666929
 20
68.974365
 30
0.0
 10
391.445525
 20
68.599690
 30
0.0
 10
388.428225
 20
68.437167
 30
0.0
 10
385.611452
 20
68.543354
 30
0.0
 10
382.991295
 20
68.973136
 30
0.0
 10
380.579937
 20
69.794471
 30
0.0
 10
378.370000
 20
70.966852
 30
0.0
 10
376.399936
 20
72.587178
 30
0.0
 10
374.644371
 20
74.708375
 30
0.0
 10
372.626914
 20
78.640478
 30
0.0
 10
371.980845
 20
82.657843
 30
0.0
 10
372.674978
 20
86.682497
 30
0.0
 10
374.689641
 20
90.636441
 30
0.0
 10
377.900762
 20
94.450663
 30
0.0
 10
382.175437
 20
97.948961
 30
0.0
 10
384.981479
 20
99.781819
 30
0.0
 10
387.770866
 20
101.368656
 30
0.0
 10
390.794202
 20
102.871885
 30
0.0
 10
394.346130
 20
104.390684
 30
0.0
 10
397.532659
 20
99.805526
 30
0.0
 10
400.719077
 20
95.220380
 30
0.0
 10
398.553069
 20
93.715027
 30
0.0
 10
396.386948
 20
92.209675
 30
0.0
 10
394.144373
 20
93.968939
 30
0.0
 10
392.090476
 20
95.085588
 30
0.0
 10
390.159310
 20
95.654532
 30
0.0
 10
388.265702
 20
95.663306
 30
0.0
 10
386.329953
 20
95.091792
 30
0.0
 10
384.272256
 20
93.919702
 30
0.0
 10
382.674632
 20
92.574894
 30
0.0
 10
381.486334
 20
91.045722
 30
0.0
 10
380.763139
 20
89.370648
 30
0.0
 10
380.559705
 20
87.588134
 30
0.0
 10
380.892800
 20
85.791961
 30
0.0
 10
381.825017
 20
84.012688
 30
0.0
 10
383.191152
 20
82.418071
 30
0.0
 10
384.740265
 20
81.302316
 30
0.0
 10
386.622249
 20
80.652335
 30
0.0
 10
388.967436
 20
80.347855
 30
0.0
 10
391.967857
 20
80.416039
 30
0.0
 10
395.859027
 20
80.822571
 30
0.0
 10
400.725001
 20
81.226420
 30
0.0
 10
404.730966
 20
81.079545
 30
0.0
 10
408.082143
 20
80.407209
 30
0.0
 10
410.964416
 20
79.127667
 30
0.0
 10
413.484868
 20
77.221551
 30
0.0
 10
415.731468
 20
74.562395
 30
0.0
 10
417.808167
 20
70.612743
 30
0.0
 10
418.631961
 20
66.542719
 30
0.0
 10
418.171441
 20
62.482566
 30
0.0
 10
416.437673
 20
58.499292
 30
0.0
 10
413.513260
 20
54.778738
 30
0.0
 10
409.523838
 20
51.443512
 30
0.0
 10
406.161372
 20
49.247390
 30
0.0
 10
402.524718
 20
47.142099
 30
0.0
 10
398.846929
 20
45.230964
 30
0.0
 10
395.253756
 20
43.636603
 30
0.0
 10
391.869494
 20
48.506345
 30
0.0
 10
388.485231
 20
53.376097
 30
0.0
 10
390.651016
 20
54.881472
 30
0.0
  0
ENDSEC
  0
SECTION
  2
OBJECTS
  0
DICTIONARY
  5
C
330
0
100
AcDbDictionary
  3
ACAD_GROUP
350
D
  3
ACAD_MLINESTYLE
350
17
  0
DICTIONARY
  5
D
330
C
100
AcDbDictionary
  0
DICTIONARY
  5
1A
330
C
100
AcDbDictionary
  0
DICTIONARY
  5
17
330
C
100
AcDbDictionary
  3
STANDARD
350
18
  0
DICTIONARY
  5
19
330
C
100
AcDbDictionary
  0
ENDSEC
  0
EOF
