  0
SECTION
  2
HEADER
  9
$ACADVER
  1
AC1014
  9
$HANDSEED
  5
FFFF
  9
$MEASUREMENT
 70
     1
  0
ENDSEC
  0
SECTION
  2
TABLES
  0
TABLE
  2
VPORT
  5
8
330
0
100
AcDbSymbolTable
 70
     4
  0
VPORT
  5
2E
330
8
100
AcDbSymbolTableRecord
100
AcDbViewportTableRecord
  2
*ACTIVE
 70
     0
 10
0.0
 20
0.0
 11
1.0
 21
1.0
 12
210.0
 22
148.5
 13
0.0
 23
0.0
 14
10.0
 24
10.0
 15
10.0
 25
10.0
 16
0.0
 26
0.0
 36
1.0
 17
0.0
 27
0.0
 37
0.0
 40
341.0
 41
1.24
 42
50.0
 43
0.0
 44
0.0
 50
0.0
 51
0.0
 71
     0
 72
   100
 73
     1
 74
     3
 75
     0
 76
     0
 77
     0
 78
     0
  0
ENDTAB
  0
TABLE
  2
LTYPE
  5
5
330
0
100
AcDbSymbolTable
 70
     1
  0
LTYPE
  5
14
330
5
100
AcDbSymbolTableRecord
100
AcDbLinetypeTableRecord
  2
BYBLOCK
 70
     0
  3

 72
    65
 73
     0
 40
0.0
  0
LTYPE
  5
15
330
5
100
AcDbSymbolTableRecord
100
AcDbLinetypeTableRecord
  2
BYLAYER
 70
     0
  3

 72
    65
 73
     0
 40
0.0
  0
LTYPE
  5
16
330
5
100
AcDbSymbolTableRecord
100
AcDbLinetypeTableRecord
  2
CONTINUOUS
 70
     0
  3
Solid line
 72
    65
 73
     0
 40
0.0
  0
ENDTAB
  0
TABLE
  2
LAYER
  5
2
100
AcDbSymbolTable
 70
2
  0
LAYER
  5
50
100
AcDbSymbolTableRecord
100
AcDbLayerTableRecord
  2
0
 70
0
  6
CONTINUOUS
  0
LAYER
  5
51
100
AcDbSymbolTableRecord
100
AcDbLayerTableRecord
  2
Layer_1
 70
0
  6
CONTINUOUS
  0
ENDTAB
  0
TABLE
  2
STYLE
  5
3
330
0
100
AcDbSymbolTable
 70
     1
  0
STYLE
  5
11
330
3
100
AcDbSymbolTableRecord
100
AcDbTextStyleTableRecord
  2
STANDARD
 70
     0
 40
0.0
 41
1.0
 50
0.0
 71
     0
 42
2.5
  3
txt
  4

  0
ENDTAB
  0
TABLE
  2
VIEW
  5
6
330
0
100
AcDbSymbolTable
 70
     0
  0
ENDTAB
  0
TABLE
  2
UCS
  5
7
330
0
100
AcDbSymbolTable
 70
     0
  0
ENDTAB
  0
TABLE
  2
APPID
  5
9
330
0
100
AcDbSymbolTable
 70
     2
  0
APPID
  5
12
330
9
100
AcDbSymbolTableRecord
100
AcDbRegAppTableRecord
  2
ACAD
 70
     0
  0
ENDTAB
  0
TABLE
  2
DIMSTYLE
  5
A
330
0
100
AcDbSymbolTable
 70
     1
  0
DIMSTYLE
105
27
330
A
100
AcDbSymbolTableRecord
100
AcDbDimStyleTableRecord
  2
ISO-25
 70
     0
  3

  4

  5

  6

  7

 40
1.0
 41
2.5
 42
0.625
 43
3.75
 44
1.25
 45
0.0
 46
0.0
 47
0.0
 48
0.0
140
2.5
141
2.5
142
0.0
143
0.03937007874016
144
1.0
145
0.0
146
1.0
147
0.625
 71
     0
 72
     0
 73
     0
 74
     0
 75
     0
 76
     0
 77
     1
 78
     8
170
     0
171
     3
172
     1
173
     0
174
     0
175
     0
176
     0
177
     0
178
     0
270
     2
271
     2
272
     2
273
     2
274
     3
340
11
275
     0
280
     0
281
     0
282
     0
283
     0
284
     8
285
     0
286
     0
287
     3
288
     0
  0
ENDTAB
  0
TABLE
  2
BLOCK_RECORD
  5
1
330
0
100
AcDbSymbolTable
 70
     1
  0
BLOCK_RECORD
  5
1F
330
1
100
AcDbSymbolTableRecord
100
AcDbBlockTableRecord
  2
*MODEL_SPACE
  0
BLOCK_RECORD
  5
1B
330
1
100
AcDbSymbolTableRecord
100
AcDbBlockTableRecord
  2
*PAPER_SPACE
  0
ENDTAB
  0
ENDSEC
  0
SECTION
  2
BLOCKS
  0
BLOCK
  5
20
330
1F
100
AcDbEntity
  8
0
100
AcDbBlockBegin
  2
*MODEL_SPACE
 70
     0
 10
0.0
 20
0.0
 30
0.0
  3
*MODEL_SPACE
  1

  0
ENDBLK
  5
21
330
1F
100
AcDbEntity
  8
0
100
AcDbBlockEnd
  0
BLOCK
  5
1C
330
1B
100
AcDbEntity
 67
     1
  8
0
100
AcDbBlockBegin
  2
*PAPER_SPACE
  1

  0
ENDBLK
  5
1D
330
1B
100
AcDbEntity
 67
     1
  8
0
100
AcDbBlockEnd
  0
ENDSEC
  0
SECTION
  2
ENTITIES
  0
LWPOLYLINE
  5
100
100
AcDbEntity
  8
Layer_1
 62
1
100
AcDbPolyline
 90
32
 70
1
 10
286.937992
 20
651.382307
 30
0.0
 10
231.269541
 20
645.771954
 30
0.0
 10
179.418463
 20
629.676249
 30
0.0
 10
132.496588
 20
604.209939
 30
0.0
 10
91.615730
 20
570.480444
 30
0.0
 10
57.886236
 20
529.599586
 30
0.0
 10
32.418462
 20
482.679180
 30
0.0
 10
16.321294
 20
430.829565
 30
0.0
 10
10.709477
 20
375.161107
 30
0.0
 10
16.321294
 20
319.491187
 30
0.0
 10
32.415532
 20
267.638646
 30
0.0
 10
57.883305
 20
220.718241
 30
0.0
 10
91.614260
 20
179.835913
 30
0.0
 10
132.495126
 20
146.106418
 30
0.0
 10
179.417001
 20
120.638645
 30
0.0
 10
231.268071
 20
104.542925
 30
0.0
 10
286.937992
 20
98.931125
 30
0.0
 10
342.607920
 20
104.542925
 30
0.0
 10
394.458990
 20
120.638645
 30
0.0
 10
441.380865
 20
146.106418
 30
0.0
 10
482.261723
 20
179.835913
 30
0.0
 10
515.991218
 20
220.718241
 30
0.0
 10
541.460461
 20
267.638646
 30
0.0
 10
557.554696
 20
319.491187
 30
0.0
 10
563.166511
 20
375.161107
 30
0.0
 10
557.554696
 20
430.829565
 30
0.0
 10
541.457529
 20
482.679180
 30
0.0
 10
515.989756
 20
529.599586
 30
0.0
 10
482.258798
 20
570.480444
 30
0.0
 10
441.377940
 20
604.209939
 30
0.0
 10
394.457527
 20
629.676249
 30
0.0
 10
342.606450
 20
645.771954
 30
0.0
  0
LWPOLYLINE
  5
101
100
AcDbEntity
  8
Layer_1
 62
1
100
AcDbPolyline
 90
16
 70
1
 10
285.713384
 20
618.626934
 30
0.0
 10
292.160579
 20
617.324844
 30
0.0
 10
297.425324
 20
613.774846
 30
0.0
 10
300.974849
 20
608.509786
 30
0.0
 10
302.276377
 20
602.062479
 30
0.0
 10
300.974849
 20
595.615171
 30
0.0
 10
297.425324
 20
590.350111
 30
0.0
 10
292.160579
 20
586.800114
 30
0.0
 10
285.713384
 20
585.498024
 30
0.0
 10
279.265724
 20
586.799694
 30
0.0
 10
274.000499
 20
590.349594
 30
0.0
 10
270.450599
 20
595.614819
 30
0.0
 10
269.148929
 20
602.062479
 30
0.0
 10
270.450599
 20
608.510139
 30
0.0
 10
274.000499
 20
613.775364
 30
0.0
 10
279.265724
 20
617.325264
 30
0.0
  0
LWPOLYLINE
  5
102
100
AcDbEntity
  8
Layer_1
 62
1
100
AcDbPolyline
 90
16
 70
1
 10
167.506356
 20
592.275856
 30
0.0
 10
173.289553
 20
581.736309
 30
0.0
 10
179.072758
 20
571.198224
 30
0.0
 10
184.855963
 20
560.660138
 30
0.0
 10
190.639168
 20
550.120583
 30
0.0
 10
170.734866
 20
530.430151
 30
0.0
 10
150.832041
 20
510.738263
 30
0.0
 10
130.929208
 20
491.047830
 30
0.0
 10
111.026375
 20
471.355935
 30
0.0
 10
100.620125
 20
475.691873
 30
0.0
 10
88.880863
 20
480.026348
 30
0.0
 10
77.143070
 20
484.360815
 30
0.0
 10
66.736822
 20
488.696753
 30
0.0
 10
89.838875
 20
514.584938
 30
0.0
 10
123.660650
 20
549.111308
 30
0.0
 10
154.214361
 20
579.326641
 30
0.0
  0
LWPOLYLINE
  5
103
100
AcDbEntity
  8
Layer_1
 62
1
100
AcDbPolyline
 90
16
 70
1
 10
402.855473
 20
590.289526
 30
0.0
 10
425.178233
 20
567.849586
 30
0.0
 10
453.782235
 20
538.750463
 30
0.0
 10
482.207528
 20
509.141581
 30
0.0
 10
503.994151
 20
485.176733
 30
0.0
 10
494.005381
 20
480.604958
 30
0.0
 10
484.044443
 20
475.967265
 30
0.0
 10
474.092296
 20
471.307598
 30
0.0
 10
464.129888
 20
466.671368
 30
0.0
 10
443.586923
 20
487.436993
 30
0.0
 10
423.043950
 20
508.202618
 30
0.0
 10
402.499523
 20
528.966773
 30
0.0
 10
381.956550
 20
549.732398
 30
0.0
 10
386.526862
 20
559.574686
 30
0.0
 10
391.480965
 20
569.909161
 30
0.0
 10
396.896490
 20
580.293436
 30
0.0
  0
LWPOLYLINE
  5
104
100
AcDbEntity
  8
Layer_1
 62
1
100
AcDbPolyline
 90
29
 70
1
 10
331.687507
 20
559.335916
 30
0.0
 10
331.687507
 20
559.334416
 30
0.0
 10
333.451177
 20
559.299241
 30
0.0
 10
335.204595
 20
559.174733
 30
0.0
 10
336.943365
 20
558.921316
 30
0.0
 10
338.663092
 20
558.506761
 30
0.0
 10
334.580572
 20
549.752858
 30
0.0
 10
330.499522
 20
541.000411
 30
0.0
 10
326.418464
 20
532.247971
 30
0.0
 10
322.337407
 20
523.494068
 30
0.0
 10
304.341802
 20
523.494068
 30
0.0
 10
286.346197
 20
523.494068
 30
0.0
 10
268.350592
 20
523.494068
 30
0.0
 10
250.353524
 20
523.494068
 30
0.0
 10
246.581549
 20
531.582931
 30
0.0
 10
242.809574
 20
539.670338
 30
0.0
 10
239.037606
 20
547.759201
 30
0.0
 10
235.265631
 20
555.846608
 30
0.0
 10
234.511236
 20
557.684986
 30
0.0
 10
235.636236
 20
558.707446
 30
0.0
 10
237.716316
 20
559.161548
 30
0.0
 10
239.827154
 20
559.294846
 30
0.0
 10
261.023444
 20
559.294846
 30
0.0
 10
282.221197
 20
559.294846
 30
0.0
 10
303.417487
 20
559.294846
 30
0.0
 10
324.615239
 20
559.294846
 30
0.0
 10
326.375984
 20
559.258246
 30
0.0
 10
328.145512
 20
559.278796
 30
0.0
 10
329.917972
 20
559.315396
 30
0.0
  0
LWPOLYLINE
  5
105
100
AcDbEntity
  8
Layer_1
 62
1
100
AcDbPolyline
 90
16
 70
1
 10
374.113777
 20
540.692851
 30
0.0
 10
393.902347
 20
520.192358
 30
0.0
 10
413.690925
 20
499.690411
 30
0.0
 10
433.478033
 20
479.188455
 30
0.0
 10
453.266610
 20
458.686500
 30
0.0
 10
445.788585
 20
455.200170
 30
0.0
 10
438.310553
 20
451.712378
 30
0.0
 10
430.832528
 20
448.224585
 30
0.0
 10
423.354503
 20
444.736793
 30
0.0
 10
407.330573
 20
460.760723
 30
0.0
 10
391.305180
 20
476.784645
 30
0.0
 10
375.281257
 20
492.808568
 30
0.0
 10
359.257335
 20
508.832498
 30
0.0
 10
362.972175
 20
516.798316
 30
0.0
 10
366.685552
 20
524.762671
 30
0.0
 10
370.400400
 20
532.728496
 30
0.0
  0
LWPOLYLINE
  5
106
100
AcDbEntity
  8
Layer_1
 62
1
100
AcDbPolyline
 90
16
 70
1
 10
198.054209
 20
539.308568
 30
0.0
 10
201.981449
 20
530.884253
 30
0.0
 10
205.908696
 20
522.459938
 30
0.0
 10
209.835944
 20
514.035623
 30
0.0
 10
213.763191
 20
505.611308
 30
0.0
 10
199.217294
 20
491.063940
 30
0.0
 10
184.669926
 20
476.516580
 30
0.0
 10
170.122566
 20
461.969213
 30
0.0
 10
155.575198
 20
447.421853
 30
0.0
 10
145.275883
 20
452.324685
 30
0.0
 10
133.831063
 20
457.880835
 30
0.0
 10
124.542485
 20
462.430643
 30
0.0
 10
120.713383
 20
464.315895
 30
0.0
 10
138.118656
 20
481.829565
 30
0.0
 10
157.838383
 20
501.436501
 30
0.0
 10
178.331548
 20
521.230936
 30
0.0
  0
LWPOLYLINE
  5
107
100
AcDbEntity
  8
Layer_1
 62
1
100
AcDbPolyline
 90
16
 70
1
 10
315.698737
 20
509.260231
 30
0.0
 10
311.308597
 20
498.755835
 30
0.0
 10
306.952154
 20
487.018043
 30
0.0
 10
303.616709
 20
477.467265
 30
0.0
 10
302.285167
 20
473.523900
 30
0.0
 10
294.695804
 20
473.523900
 30
0.0
 10
287.106449
 20
473.523900
 30
0.0
 10
279.515632
 20
473.523900
 30
0.0
 10
271.926277
 20
473.523900
 30
0.0
 10
267.865732
 20
482.232398
 30
0.0
 10
263.806649
 20
490.942358
 30
0.0
 10
259.746096
 20
499.650856
 30
0.0
 10
255.685551
 20
508.360816
 30
0.0
 10
262.161629
 20
508.318366
 30
0.0
 10
277.954109
 20
508.321366
 30
0.0
 10
297.616709
 20
508.568926
 30
0.0
  0
LWPOLYLINE
  5
108
100
AcDbEntity
  8
Layer_1
 62
1
100
AcDbPolyline
 90
16
 70
1
 10
356.649907
 20
496.940895
 30
0.0
 10
370.850107
 20
482.774393
 30
0.0
 10
385.048837
 20
468.609353
 30
0.0
 10
399.247567
 20
454.444313
 30
0.0
 10
413.447760
 20
440.279273
 30
0.0
 10
405.659190
 20
436.275855
 30
0.0
 10
396.490732
 20
431.339332
 30
0.0
 10
387.342780
 20
426.871560
 30
0.0
 10
379.614262
 20
424.271460
 30
0.0
 10
367.812022
 20
435.571268
 30
0.0
 10
354.175792
 20
448.322730
 30
0.0
 10
342.911137
 20
458.746560
 30
0.0
 10
338.222175
 20
463.060523
 30
0.0
 10
342.829110
 20
471.530250
 30
0.0
 10
347.436045
 20
480.001440
 30
0.0
 10
352.042972
 20
488.471168
 30
0.0
  0
LWPOLYLINE
  5
109
100
AcDbEntity
  8
Layer_1
 62
1
100
AcDbPolyline
 90
16
 70
1
 10
217.231941
 20
489.842265
 30
0.0
 10
219.142094
 20
486.285623
 30
0.0
 10
223.560066
 20
477.840795
 30
0.0
 10
228.520026
 20
467.840310
 30
0.0
 10
232.056156
 20
459.619605
 30
0.0
 10
223.636236
 20
451.201148
 30
0.0
 10
215.216316
 20
442.782690
 30
0.0
 10
206.796396
 20
434.364233
 30
0.0
 10
198.376469
 20
425.947245
 30
0.0
 10
194.881356
 20
427.570290
 30
0.0
 10
186.448251
 20
431.566387
 30
0.0
 10
176.162113
 20
436.620098
 30
0.0
 10
167.104986
 20
441.417458
 30
0.0
 10
179.636721
 20
453.524393
 30
0.0
 10
192.168463
 20
465.629858
 30
0.0
 10
204.700199
 20
477.736793
 30
0.0
  0
LWPOLYLINE
  5
10a
100
AcDbEntity
  8
Layer_1
 62
1
100
AcDbPolyline
 90
32
 70
1
 10
274.831064
 20
433.924785
 30
0.0
 10
290.879887
 20
433.517558
 30
0.0
 10
304.722667
 20
432.452618
 30
0.0
 10
314.438969
 20
431.355442
 30
0.0
 10
318.105472
 20
430.851540
 30
0.0
 10
339.396982
 20
420.779272
 30
0.0
 10
352.873545
 20
409.221660
 30
0.0
 10
364.346197
 20
392.802225
 30
0.0
 10
379.627447
 20
368.140117
 30
0.0
 10
373.599615
 20
357.212377
 30
0.0
 10
367.548345
 20
345.331034
 30
0.0
 10
358.664070
 20
331.839817
 30
0.0
 10
344.135752
 20
316.085429
 30
0.0
 10
330.266609
 20
306.248999
 30
0.0
 10
318.011722
 20
301.146952
 30
0.0
 10
306.689947
 20
298.781227
 30
0.0
 10
295.621589
 20
297.152317
 30
0.0
 10
276.253424
 20
296.865209
 30
0.0
 10
259.668464
 20
300.288554
 30
0.0
 10
244.792971
 20
305.989724
 30
0.0
 10
230.548836
 20
312.533182
 30
0.0
 10
216.556649
 20
322.256812
 30
0.0
 10
204.530279
 20
334.436992
 30
0.0
 10
194.863776
 20
349.565894
 30
0.0
 10
187.952646
 20
368.140117
 30
0.0
 10
198.991709
 20
389.424292
 30
0.0
 10
210.725106
 20
405.440895
 30
0.0
 10
223.791509
 20
417.893535
 30
0.0
 10
238.829594
 20
428.482890
 30
0.0
 10
246.528816
 20
431.008275
 30
0.0
 10
255.372074
 20
432.666480
 30
0.0
 10
264.944834
 20
433.593728
 30
0.0
  0
LWPOLYLINE
  5
10b
100
AcDbEntity
  8
Layer_1
 62
1
100
AcDbPolyline
 90
16
 70
1
 10
97.826668
 20
430.599585
 30
0.0
 10
106.396003
 20
426.603495
 30
0.0
 10
114.963875
 20
422.607397
 30
0.0
 10
123.531740
 20
418.612770
 30
0.0
 10
132.101083
 20
414.616680
 30
0.0
 10
132.101083
 20
394.119120
 30
0.0
 10
132.101083
 20
373.620097
 30
0.0
 10
132.101083
 20
353.122537
 30
0.0
 10
132.101083
 20
332.623514
 30
0.0
 10
124.469240
 20
329.065409
 30
0.0
 10
116.837405
 20
325.505834
 30
0.0
 10
109.205570
 20
321.947729
 30
0.0
 10
101.573735
 20
318.389624
 30
0.0
 10
100.986335
 20
332.841772
 30
0.0
 10
99.695803
 20
366.282690
 30
0.0
 10
98.408210
 20
403.828102
 30
0.0
  0
LWPOLYLINE
  5
10c
100
AcDbEntity
  8
Layer_1
 62
1
100
AcDbPolyline
 90
16
 70
1
 10
476.373053
 20
422.705542
 30
0.0
 10
476.140148
 20
398.153295
 30
0.0
 10
477.175793
 20
369.641580
 30
0.0
 10
477.893566
 20
339.688454
 30
0.0
 10
476.708506
 20
310.817849
 30
0.0
 10
467.384775
 20
314.475562
 30
0.0
 10
458.061045
 20
318.133274
 30
0.0
 10
448.737315
 20
321.790994
 30
0.0
 10
439.413585
 20
325.448707
 30
0.0
 10
439.413585
 20
346.163062
 30
0.0
 10
439.413585
 20
366.878887
 30
0.0
 10
439.413585
 20
387.593242
 30
0.0
 10
439.413585
 20
408.309060
 30
0.0
 10
448.653818
 20
411.908182
 30
0.0
 10
457.892588
 20
415.507305
 30
0.0
 10
467.132820
 20
419.106420
 30
0.0
  0
LWPOLYLINE
  5
10d
100
AcDbEntity
  8
Layer_1
 62
1
100
AcDbPolyline
 90
20
 70
1
 10
142.136721
 20
412.461892
 30
0.0
 10
150.673836
 20
408.284160
 30
0.0
 10
159.212406
 20
404.106420
 30
0.0
 10
167.749521
 20
399.927225
 30
0.0
 10
176.286628
 20
395.749492
 30
0.0
 10
176.838876
 20
395.513647
 30
0.0
 10
177.395511
 20
395.311500
 30
0.0
 10
177.956548
 20
395.132790
 30
0.0
 10
178.519048
 20
394.965795
 30
0.0
 10
178.519048
 20
384.628395
 30
0.0
 10
178.519048
 20
374.289525
 30
0.0
 10
178.519048
 20
363.952124
 30
0.0
 10
178.519048
 20
353.614724
 30
0.0
 10
174.815923
 20
351.921367
 30
0.0
 10
165.821781
 20
347.891579
 30
0.0
 10
154.713876
 20
343.098607
 30
0.0
 10
144.672366
 20
339.120097
 30
0.0
 10
144.738291
 20
347.153294
 30
0.0
 10
144.634281
 20
366.653295
 30
0.0
 10
143.916508
 20
390.722145
 30
0.0
  0
LWPOLYLINE
  5
10e
100
AcDbEntity
  8
Layer_1
 62
1
100
AcDbPolyline
 90
24
 70
1
 10
426.744150
 20
402.083475
 30
0.0
 10
426.801300
 20
383.270482
 30
0.0
 10
426.858450
 20
364.458960
 30
0.0
 10
426.914100
 20
345.645974
 30
0.0
 10
426.971250
 20
326.832982
 30
0.0
 10
418.193910
 20
331.577617
 30
0.0
 10
409.416563
 20
336.322244
 30
0.0
 10
400.639222
 20
341.066872
 30
0.0
 10
391.861875
 20
345.810037
 30
0.0
 10
391.855875
 20
345.944804
 30
0.0
 10
391.839750
 20
346.075169
 30
0.0
 10
391.822200
 20
346.207012
 30
0.0
 10
391.816200
 20
346.341772
 30
0.0
 10
391.816200
 20
356.235329
 30
0.0
 10
391.816200
 20
366.127417
 30
0.0
 10
391.816200
 20
376.020975
 30
0.0
 10
391.816200
 20
385.914525
 30
0.0
 10
392.078400
 20
386.005350
 30
0.0
 10
392.342077
 20
386.088847
 30
0.0
 10
392.604285
 20
386.176732
 30
0.0
 10
392.863560
 20
386.283667
 30
0.0
 10
401.334750
 20
390.234352
 30
0.0
 10
409.807410
 20
394.183567
 30
0.0
 10
418.278600
 20
398.134252
 30
0.0
  0
LWPOLYLINE
  5
10f
100
AcDbEntity
  8
Layer_1
 62
1
100
AcDbPolyline
 90
16
 70
1
 10
54.687017
 20
385.313940
 30
0.0
 10
61.134678
 20
384.012270
 30
0.0
 10
66.399901
 20
380.462377
 30
0.0
 10
69.949796
 20
375.197152
 30
0.0
 10
71.251470
 20
368.749492
 30
0.0
 10
69.949798
 20
362.301832
 30
0.0
 10
66.399904
 20
357.036607
 30
0.0
 10
61.134679
 20
353.486707
 30
0.0
 10
54.687017
 20
352.185037
 30
0.0
 10
48.239355
 20
353.486707
 30
0.0
 10
42.974130
 20
357.036607
 30
0.0
 10
39.424236
 20
362.301832
 30
0.0
 10
38.122563
 20
368.749492
 30
0.0
 10
39.424237
 20
375.197152
 30
0.0
 10
42.974133
 20
380.462377
 30
0.0
 10
48.239356
 20
384.012270
 30
0.0
  0
LWPOLYLINE
  5
110
100
AcDbEntity
  8
Layer_1
 62
1
100
AcDbPolyline
 90
16
 70
1
 10
520.170421
 20
382.592265
 30
0.0
 10
526.618081
 20
381.290587
 30
0.0
 10
531.883306
 20
377.740695
 30
0.0
 10
535.433198
 20
372.475470
 30
0.0
 10
536.734869
 20
366.027810
 30
0.0
 10
535.433198
 20
359.580149
 30
0.0
 10
531.883306
 20
354.314924
 30
0.0
 10
526.618081
 20
350.765032
 30
0.0
 10
520.170421
 20
349.463354
 30
0.0
 10
513.722761
 20
350.765024
 30
0.0
 10
508.457536
 20
354.314924
 30
0.0
 10
504.907636
 20
359.580149
 30
0.0
 10
503.605966
 20
366.027810
 30
0.0
 10
504.907636
 20
372.475470
 30
0.0
 10
508.457536
 20
377.740695
 30
0.0
 10
513.722761
 20
381.290595
 30
0.0
  0
LWPOLYLINE
  5
111
100
AcDbEntity
  8
Layer_1
 62
1
100
AcDbPolyline
 90
28
 70
1
 10
192.540531
 20
316.272929
 30
0.0
 10
193.444341
 20
315.739724
 30
0.0
 10
194.323251
 20
315.152317
 30
0.0
 10
195.168463
 20
314.497537
 30
0.0
 10
195.969733
 20
313.762184
 30
0.0
 10
204.369149
 20
305.365702
 30
0.0
 10
212.767094
 20
296.969212
 30
0.0
 10
221.166509
 20
288.571266
 30
0.0
 10
229.564461
 20
280.174784
 30
0.0
 10
229.500036
 20
280.060521
 30
0.0
 10
229.429761
 20
279.952124
 30
0.0
 10
229.360911
 20
279.843726
 30
0.0
 10
229.299411
 20
279.728001
 30
0.0
 10
225.688574
 20
271.984836
 30
0.0
 10
222.077736
 20
264.241679
 30
0.0
 10
218.468361
 20
256.498514
 30
0.0
 10
214.857516
 20
248.753886
 30
0.0
 10
207.665136
 20
255.117164
 30
0.0
 10
191.163673
 20
270.207981
 30
0.0
 10
172.964451
 20
288.030741
 30
0.0
 10
160.680268
 20
302.588354
 30
0.0
 10
167.945893
 20
305.582497
 30
0.0
 10
175.210056
 20
308.576639
 30
0.0
 10
182.474218
 20
311.570774
 30
0.0
 10
189.739843
 20
314.564917
 30
0.0
 10
190.486911
 20
314.939917
 30
0.0
 10
191.200288
 20
315.351539
 30
0.0
 10
191.884371
 20
315.796852
 30
0.0
  0
LWPOLYLINE
  5
112
100
AcDbEntity
  8
Layer_1
 62
1
100
AcDbPolyline
 90
16
 70
1
 10
375.673837
 20
311.529764
 30
0.0
 10
378.958012
 20
309.786599
 30
0.0
 10
387.005865
 20
305.482889
 30
0.0
 10
397.100107
 20
300.001439
 30
0.0
 10
406.530773
 20
294.732396
 30
0.0
 10
395.434575
 20
283.382789
 30
0.0
 10
384.336922
 20
272.031711
 30
0.0
 10
373.240732
 20
260.680641
 30
0.0
 10
362.143072
 20
249.329564
 30
0.0
 10
358.274422
 20
257.627909
 30
0.0
 10
354.404302
 20
265.926246
 30
0.0
 10
350.535652
 20
274.224584
 30
0.0
 10
346.667002
 20
282.522929
 30
0.0
 10
353.917972
 20
289.775369
 30
0.0
 10
361.170420
 20
297.026347
 30
0.0
 10
368.421397
 20
304.278787
 30
0.0
  0
LWPOLYLINE
  5
113
100
AcDbEntity
  8
Layer_1
 62
1
100
AcDbPolyline
 90
20
 70
1
 10
148.529301
 20
298.964332
 30
0.0
 10
148.879401
 20
298.706519
 30
0.0
 10
149.226568
 20
298.445774
 30
0.0
 10
149.567878
 20
298.177709
 30
0.0
 10
149.900398
 20
297.896459
 30
0.0
 10
165.098151
 20
282.729471
 30
0.0
 10
180.281256
 20
267.546366
 30
0.0
 10
195.461428
 20
252.360329
 30
0.0
 10
210.644541
 20
237.178686
 30
0.0
 10
206.417001
 20
229.180641
 30
0.0
 10
200.292486
 20
218.400853
 30
0.0
 10
194.780278
 20
208.930641
 30
0.0
 10
192.385258
 20
204.865701
 30
0.0
 10
172.992193
 20
224.635228
 30
0.0
 10
147.209481
 20
251.348121
 30
0.0
 10
124.672858
 20
274.835429
 30
0.0
 10
115.018070
 20
284.923806
 30
0.0
 10
122.841800
 20
288.323706
 30
0.0
 10
131.774421
 20
291.944804
 30
0.0
 10
140.707041
 20
295.564431
 30
0.0
  0
LWPOLYLINE
  5
114
100
AcDbEntity
  8
Layer_1
 62
1
100
AcDbPolyline
 90
24
 70
1
 10
415.615733
 20
289.557104
 30
0.0
 10
424.243658
 20
285.533181
 30
0.0
 10
432.871590
 20
281.510721
 30
0.0
 10
441.499523
 20
277.488261
 30
0.0
 10
450.128918
 20
273.464331
 30
0.0
 10
450.105443
 20
273.445281
 30
0.0
 10
450.084968
 20
273.421881
 30
0.0
 10
450.065918
 20
273.395481
 30
0.0
 10
450.042518
 20
273.369156
 30
0.0
 10
433.384313
 20
256.710951
 30
0.0
 10
416.726115
 20
240.052746
 30
0.0
 10
400.067910
 20
223.394548
 30
0.0
 10
383.409705
 20
206.736343
 30
0.0
 10
383.399430
 20
206.726068
 30
0.0
 10
383.390655
 20
206.715793
 30
0.0
 10
383.380380
 20
206.707018
 30
0.0
 10
383.370105
 20
206.696743
 30
0.0
 10
379.346175
 20
215.326138
 30
0.0
 10
375.320782
 20
223.957003
 30
0.0
 10
371.296860
 20
232.586391
 30
0.0
 10
367.271467
 20
241.215786
 30
0.0
 10
379.356427
 20
253.300754
 30
0.0
 10
391.441395
 20
265.387176
 30
0.0
 10
403.527818
 20
277.472136
 30
0.0
  0
LWPOLYLINE
  5
115
100
AcDbEntity
  8
Layer_1
 62
1
100
AcDbPolyline
 90
20
 70
1
 10
104.633795
 20
277.715309
 30
0.0
 10
104.875490
 20
277.501439
 30
0.0
 10
105.118655
 20
277.284644
 30
0.0
 10
105.357425
 20
277.064916
 30
0.0
 10
105.591800
 20
276.836399
 30
0.0
 10
126.124520
 20
256.081034
 30
0.0
 10
146.658696
 20
235.325661
 30
0.0
 10
167.192878
 20
214.568826
 30
0.0
 10
187.727053
 20
193.813453
 30
0.0
 10
182.768563
 20
183.181618
 30
0.0
 10
177.810066
 20
172.548313
 30
0.0
 10
172.853031
 20
161.916478
 30
0.0
 10
167.894541
 20
151.283180
 30
0.0
 10
144.202153
 20
174.924291
 30
0.0
 10
114.982918
 20
204.594703
 30
0.0
 10
86.230963
 20
234.118626
 30
0.0
 10
63.940435
 20
257.314431
 30
0.0
 10
74.113774
 20
262.415016
 30
0.0
 10
84.287113
 20
267.515601
 30
0.0
 10
94.460458
 20
272.616186
 30
0.0
  0
LWPOLYLINE
  5
116
100
AcDbEntity
  8
Layer_1
 62
1
100
AcDbPolyline
 90
16
 70
1
 10
459.375008
 20
269.622044
 30
0.0
 10
470.603033
 20
263.815409
 30
0.0
 10
484.709483
 20
255.982889
 30
0.0
 10
496.776863
 20
249.102516
 30
0.0
 10
501.892096
 20
246.146459
 30
0.0
 10
483.231451
 20
227.627908
 30
0.0
 10
451.303718
 20
195.959451
 30
0.0
 10
421.130865
 20
166.037083
 30
0.0
 10
407.734868
 20
152.752415
 30
0.0
 10
402.685553
 20
163.316871
 30
0.0
 10
396.971197
 20
174.991678
 30
0.0
 10
391.256842
 20
186.665016
 30
0.0
 10
386.207527
 20
197.230933
 30
0.0
 10
404.499030
 20
215.327616
 30
0.0
 10
422.790533
 20
233.425761
 30
0.0
 10
441.083505
 20
251.523899
 30
0.0
  0
LWPOLYLINE
  5
117
100
AcDbEntity
  8
Layer_1
 62
1
100
AcDbPolyline
 90
16
 70
1
 10
269.370127
 20
266.140116
 30
0.0
 10
279.265147
 20
266.090316
 30
0.0
 10
289.160167
 20
266.040516
 30
0.0
 10
299.055179
 20
265.989216
 30
0.0
 10
308.950199
 20
265.939416
 30
0.0
 10
312.039554
 20
257.885706
 30
0.0
 10
314.712899
 20
249.178671
 30
0.0
 10
317.396489
 20
240.476039
 30
0.0
 10
320.512214
 20
232.435506
 30
0.0
 10
304.122074
 20
232.649376
 30
0.0
 10
287.730472
 20
232.863246
 30
0.0
 10
271.338877
 20
233.077109
 30
0.0
 10
254.948736
 20
233.289509
 30
0.0
 10
258.553716
 20
241.502894
 30
0.0
 10
262.160166
 20
249.714801
 30
0.0
 10
265.765147
 20
257.928186
 30
0.0
  0
LWPOLYLINE
  5
118
100
AcDbEntity
  8
Layer_1
 62
1
100
AcDbPolyline
 90
24
 70
1
 10
245.545904
 20
219.728001
 30
0.0
 10
267.268072
 20
219.728001
 30
0.0
 10
288.988777
 20
219.728001
 30
0.0
 10
310.710944
 20
219.728001
 30
0.0
 10
332.431649
 20
219.728001
 30
0.0
 10
336.180180
 20
211.144018
 30
0.0
 10
339.927255
 20
202.558566
 30
0.0
 10
343.675792
 20
193.974583
 30
0.0
 10
347.422860
 20
185.389138
 30
0.0
 10
344.879887
 20
183.580056
 30
0.0
 10
341.591317
 20
183.253393
 30
0.0
 10
337.877940
 20
183.628393
 30
0.0
 10
334.056157
 20
183.927223
 30
0.0
 10
310.498544
 20
183.927223
 30
0.0
 10
286.940924
 20
183.927223
 30
0.0
 10
263.383304
 20
183.927223
 30
0.0
 10
239.827154
 20
183.927223
 30
0.0
 10
237.394049
 20
183.789523
 30
0.0
 10
235.338876
 20
183.641578
 30
0.0
 10
233.471196
 20
183.880348
 30
0.0
 10
231.596196
 20
184.904271
 30
0.0
 10
235.083989
 20
193.609836
 30
0.0
 10
238.571781
 20
202.315408
 30
0.0
 10
242.059574
 20
211.022436
 30
0.0
  0
LWPOLYLINE
  5
119
100
AcDbEntity
  8
Layer_1
 62
1
100
AcDbPolyline
 90
16
 70
1
 10
290.242679
 20
161.414038
 30
0.0
 10
296.690339
 20
160.112368
 30
0.0
 10
301.955564
 20
156.562468
 30
0.0
 10
305.505464
 20
151.297243
 30
0.0
 10
306.807134
 20
144.849583
 30
0.0
 10
305.505457
 20
138.401923
 30
0.0
 10
301.955564
 20
133.136698
 30
0.0
 10
296.690339
 20
129.586805
 30
0.0
 10
290.242679
 20
128.285135
 30
0.0
 10
283.795019
 20
129.586805
 30
0.0
 10
278.529802
 20
133.136705
 30
0.0
 10
274.979902
 20
138.401923
 30
0.0
 10
273.678232
 20
144.849583
 30
0.0
 10
274.979902
 20
151.297243
 30
0.0
 10
278.529794
 20
156.562468
 30
0.0
 10
283.795019
 20
160.112360
 30
0.0
  0
LWPOLYLINE
  5
11a
100
AcDbEntity
  8
Layer_1
 62
7
100
AcDbPolyline
 90
76
 70
1
 10
107.748230
 20
87.906926
 30
0.0
 10
105.996944
 20
83.534879
 30
0.0
 10
105.619092
 20
79.707053
 30
0.0
 10
106.835157
 20
76.268668
 30
0.0
 10
109.745908
 20
73.052961
 30
0.0
 10
111.745604
 20
71.680270
 30
0.0
 10
113.820517
 20
70.805401
 30
0.0
 10
115.939926
 20
70.509802
 30
0.0
 10
118.073013
 20
70.873672
 30
0.0
 10
120.183727
 20
71.956261
 30
0.0
 10
122.114346
 20
73.802091
 30
0.0
 10
123.509612
 20
75.880649
 30
0.0
 10
124.288959
 20
77.992376
 30
0.0
 10
124.520139
 20
80.304906
 30
0.0
 10
124.217580
 20
82.918728
 30
0.0
 10
123.349565
 20
85.999626
 30
0.0
 10
121.885123
 20
89.713073
 30
0.0
 10
120.507807
 20
93.074819
 30
0.0
 10
119.421131
 20
96.280469
 30
0.0
 10
118.684420
 20
99.350875
 30
0.0
 10
118.356796
 20
102.307031
 30
0.0
 10
118.514540
 20
105.156318
 30
0.0
 10
119.111591
 20
107.894078
 30
0.0
 10
120.264357
 20
110.508818
 30
0.0
 10
122.022176
 20
113.043121
 30
0.0
 10
125.654282
 20
116.407141
 30
0.0
 10
129.792481
 20
118.317963
 30
0.0
 10
134.344304
 20
118.782873
 30
0.0
 10
139.217097
 20
117.806911
 30
0.0
 10
144.301384
 20
115.495347
 30
0.0
 10
149.366177
 20
111.940971
 30
0.0
 10
152.190842
 20
109.467791
 30
0.0
 10
154.745119
 20
106.938080
 30
0.0
 10
157.279876
 20
104.130832
 30
0.0
 10
159.991064
 20
100.758272
 30
0.0
 10
156.007631
 20
95.936090
 30
0.0
 10
152.024189
 20
91.113782
 30
0.0
 10
149.746095
 20
92.995626
 30
0.0
 10
147.468002
 20
94.877470
 30
0.0
 10
148.688255
 20
97.828004
 30
0.0
 10
149.272362
 20
100.380777
 30
0.0
 10
149.302644
 20
102.635758
 30
0.0
 10
148.740211
 20
104.680920
 30
0.0
 10
147.538944
 20
106.596369
 30
0.0
 10
145.653080
 20
108.461936
 30
0.0
 10
143.719863
 20
109.779340
 30
0.0
 10
141.711441
 20
110.598922
 30
0.0
 10
139.686453
 20
110.878548
 30
0.0
 10
137.702232
 20
110.558604
 30
0.0
 10
135.865578
 20
109.656081
 30
0.0
 10
134.227709
 20
108.113337
 30
0.0
 10
132.920304
 20
106.158063
 30
0.0
 10
132.184757
 20
104.149991
 30
0.0
 10
132.051802
 20
101.923665
 30
0.0
 10
132.431732
 20
99.301822
 30
0.0
 10
133.412169
 20
96.086046
 30
0.0
 10
135.025897
 20
92.011523
 30
0.0
 10
136.931357
 20
86.884613
 30
0.0
 10
137.982999
 20
82.519081
 30
0.0
 10
138.270045
 20
78.701071
 30
0.0
 10
137.760503
 20
75.205481
 30
0.0
 10
136.465730
 20
71.910897
 30
0.0
 10
134.275914
 20
68.684279
 30
0.0
 10
130.642729
 20
65.251277
 30
0.0
 10
126.501274
 20
63.133258
 30
0.0
 10
121.982445
 20
62.404647
 30
0.0
 10
117.162067
 20
63.071482
 30
0.0
 10
112.265400
 20
65.102308
 30
0.0
 10
107.462685
 20
68.398159
 30
0.0
 10
104.078066
 20
71.361854
 30
0.0
 10
100.708641
 20
74.648747
 30
0.0
 10
97.536205
 20
78.038691
 30
0.0
 10
94.731037
 20
81.432841
 30
0.0
 10
98.961719
 20
86.554413
 30
0.0
 10
103.192401
 20
91.675986
 30
0.0
 10
105.470391
 20
89.793774
 30
0.0
  0
LWPOLYLINE
  5
11b
100
AcDbEntity
  8
Layer_1
 62
7
100
AcDbPolyline
 90
50
 70
1
 10
164.113241
 20
53.218236
 30
0.0
 10
156.058335
 20
57.683076
 30
0.0
 10
148.003441
 20
62.147915
 30
0.0
 10
146.387587
 20
60.700940
 30
0.0
 10
144.771724
 20
59.253840
 30
0.0
 10
143.464606
 20
58.030253
 30
0.0
 10
142.272787
 20
56.792117
 30
0.0
 10
141.218261
 20
55.490169
 30
0.0
 10
140.281119
 20
53.999722
 30
0.0
 10
139.688376
 20
50.617072
 30
0.0
 10
142.009004
 20
47.863410
 30
0.0
 10
141.318823
 20
46.618379
 30
0.0
 10
140.628642
 20
45.373348
 30
0.0
 10
132.573746
 20
49.838313
 30
0.0
 10
124.518853
 20
54.303152
 30
0.0
 10
125.209033
 20
55.548183
 30
0.0
 10
125.899204
 20
56.793088
 30
0.0
 10
127.388016
 20
56.387242
 30
0.0
 10
128.895221
 20
56.414476
 30
0.0
 10
130.448191
 20
56.836292
 30
0.0
 10
132.074108
 20
57.611695
 30
0.0
 10
133.937340
 20
58.859779
 30
0.0
 10
136.202261
 20
60.699390
 30
0.0
 10
155.685463
 20
77.296934
 30
0.0
 10
175.168677
 20
93.894476
 30
0.0
 10
180.205344
 20
91.102705
 30
0.0
 10
185.242014
 20
88.310808
 30
0.0
 10
179.756045
 20
63.732645
 30
0.0
 10
174.270079
 20
39.154355
 30
0.0
 10
173.690426
 20
36.306903
 30
0.0
 10
173.428067
 20
34.343826
 30
0.0
 10
173.487934
 20
32.917293
 30
0.0
 10
173.832930
 20
31.604058
 30
0.0
 10
174.572475
 20
30.379974
 30
0.0
 10
175.775134
 20
29.147030
 30
0.0
 10
175.084954
 20
27.901999
 30
0.0
 10
174.394773
 20
26.656968
 30
0.0
 10
163.981879
 20
32.428833
 30
0.0
 10
153.569006
 20
38.200822
 30
0.0
 10
154.259178
 20
39.445728
 30
0.0
 10
154.949358
 20
40.690758
 30
0.0
 10
156.870919
 20
40.131441
 30
0.0
 10
158.460899
 20
40.174980
 30
0.0
 10
159.748559
 20
40.829197
 30
0.0
 10
160.763342
 20
42.103906
 30
0.0
 10
161.382272
 20
43.376332
 30
0.0
 10
161.942317
 20
44.853526
 30
0.0
 10
162.492578
 20
46.669253
 30
0.0
 10
163.082220
 20
48.956396
 30
0.0
 10
163.597568
 20
51.087329
 30
0.0
  0
LWPOLYLINE
  5
11c
100
AcDbEntity
  8
Layer_1
 62
7
100
AcDbPolyline
 90
6
 70
1
 10
151.883867
 20
65.767293
 30
0.0
 10
158.674887
 20
62.003109
 30
0.0
 10
165.465897
 20
58.238801
 30
0.0
 10
168.334569
 20
70.532197
 30
0.0
 10
171.203240
 20
82.825593
 30
0.0
 10
161.543558
 20
74.296505
 30
0.0
  0
LWPOLYLINE
  5
11d
100
AcDbEntity
  8
Layer_1
 62
7
100
AcDbPolyline
 90
52
 70
1
 10
219.946830
 20
73.989116
 30
0.0
 10
219.489297
 20
72.641248
 30
0.0
 10
219.031754
 20
71.293256
 30
0.0
 10
217.568284
 20
71.304134
 30
0.0
 10
216.398028
 20
71.179690
 30
0.0
 10
215.448355
 20
70.897824
 30
0.0
 10
214.620158
 20
70.370641
 30
0.0
 10
213.923447
 20
69.559708
 30
0.0
 10
213.286542
 20
68.455409
 30
0.0
 10
212.705850
 20
67.046841
 30
0.0
 10
212.068647
 20
65.270126
 30
0.0
 10
205.163595
 20
44.928357
 30
0.0
 10
198.258543
 20
24.586588
 30
0.0
 10
202.220696
 20
23.241657
 30
0.0
 10
206.182860
 20
21.896725
 30
0.0
 10
208.379463
 20
21.355410
 30
0.0
 10
210.231219
 20
21.342619
 30
0.0
 10
211.874218
 20
21.821628
 30
0.0
 10
213.444619
 20
22.756964
 30
0.0
 10
215.028100
 20
24.201127
 30
0.0
 10
216.600722
 20
26.149913
 30
0.0
 10
218.113181
 20
28.324157
 30
0.0
 10
219.406807
 20
30.390481
 30
0.0
 10
222.204803
 20
29.440511
 30
0.0
 10
225.002811
 20
28.490540
 30
0.0
 10
221.752653
 20
20.392023
 30
0.0
 10
218.502498
 20
12.293380
 30
0.0
 10
199.038918
 20
18.900331
 30
0.0
 10
179.575338
 20
25.507282
 30
0.0
 10
180.032881
 20
26.855274
 30
0.0
 10
180.490424
 20
28.203267
 30
0.0
 10
181.984181
 20
28.177528
 30
0.0
 10
183.164609
 20
28.298686
 30
0.0
 10
184.134820
 20
28.607871
 30
0.0
 10
184.915381
 20
29.162537
 30
0.0
 10
185.608903
 20
29.997571
 30
0.0
 10
186.208277
 20
31.092168
 30
0.0
 10
186.799343
 20
32.531465
 30
0.0
 10
187.440082
 20
34.318334
 30
0.0
 10
193.409203
 20
51.903044
 30
0.0
 10
199.378326
 20
69.487627
 30
0.0
 10
199.947366
 20
71.264631
 30
0.0
 10
200.351154
 20
72.756098
 30
0.0
 10
200.579749
 20
73.999703
 30
0.0
 10
200.541116
 20
75.059960
 30
0.0
 10
200.259663
 20
75.975445
 30
0.0
 10
199.677774
 20
76.810818
 30
0.0
 10
198.816247
 20
77.661186
 30
0.0
 10
197.586750
 20
78.568429
 30
0.0
 10
198.044283
 20
79.916297
 30
0.0
 10
198.501826
 20
81.264289
 30
0.0
 10
209.223920
 20
77.624725
 30
0.0
  0
LWPOLYLINE
  5
11e
100
AcDbEntity
  8
Layer_1
 62
7
100
AcDbPolyline
 90
50
 70
1
 10
261.838749
 20
50.816442
 30
0.0
 10
262.694830
 20
52.454575
 30
0.0
 10
263.384134
 20
54.011594
 30
0.0
 10
263.944044
 20
55.579461
 30
0.0
 10
264.326782
 20
57.264655
 30
0.0
 10
264.361034
 20
59.150906
 30
0.0
 10
263.759416
 20
60.641382
 30
0.0
 10
262.545448
 20
61.743337
 30
0.0
 10
260.657100
 20
62.478440
 30
0.0
 10
260.893982
 20
63.882147
 30
0.0
 10
261.130854
 20
65.285729
 30
0.0
 10
270.297151
 20
63.739523
 30
0.0
 10
279.463461
 20
62.193316
 30
0.0
 10
279.226589
 20
60.789734
 30
0.0
 10
278.989707
 20
59.386027
 30
0.0
 10
277.423839
 20
59.243962
 30
0.0
 10
276.045569
 20
58.790020
 30
0.0
 10
274.822527
 20
58.022895
 30
0.0
 10
273.623493
 20
56.879739
 30
0.0
 10
272.322234
 20
55.130688
 30
0.0
 10
270.692927
 20
52.474598
 30
0.0
 10
257.777007
 20
30.243798
 30
0.0
 10
244.861086
 20
8.012998
 30
0.0
 10
239.948254
 20
8.841320
 30
0.0
 10
235.035435
 20
9.669640
 30
0.0
 10
232.036391
 20
34.673310
 30
0.0
 10
229.037356
 20
59.677106
 30
0.0
 10
228.635315
 20
62.544743
 30
0.0
 10
228.224335
 20
64.451430
 30
0.0
 10
227.696917
 20
65.798132
 30
0.0
 10
226.931584
 20
66.901116
 30
0.0
 10
225.832513
 20
67.841132
 30
0.0
 10
224.289857
 20
68.615234
 30
0.0
 10
224.526729
 20
70.018816
 30
0.0
 10
224.763610
 20
71.422523
 30
0.0
 10
236.524486
 20
69.437832
 30
0.0
 10
248.285374
 20
67.453140
 30
0.0
 10
248.048627
 20
66.049548
 30
0.0
 10
247.811745
 20
64.645841
 30
0.0
 10
245.813635
 20
64.536660
 30
0.0
 10
244.328447
 20
63.965280
 30
0.0
 10
243.331728
 20
62.919747
 30
0.0
 10
242.798596
 20
61.380357
 30
0.0
 10
242.627765
 20
59.976648
 30
0.0
 10
242.587499
 20
58.572549
 30
0.0
 10
242.690233
 20
56.783492
 30
0.0
 10
242.933124
 20
54.139677
 30
0.0
 10
244.567466
 20
38.159094
 30
0.0
 10
246.201820
 20
22.178509
 30
0.0
 10
254.020724
 20
36.498384
 30
0.0
  0
LWPOLYLINE
  5
11f
100
AcDbEntity
  8
Layer_1
 62
7
100
AcDbPolyline
 90
50
 70
1
 10
295.946874
 20
24.027254
 30
0.0
 10
286.737731
 20
23.934236
 30
0.0
 10
277.528601
 20
23.841217
 30
0.0
 10
276.837499
 20
21.785186
 30
0.0
 10
276.146398
 20
19.729154
 30
0.0
 10
275.613524
 20
18.019845
 30
0.0
 10
275.188112
 20
16.354724
 30
0.0
 10
274.913699
 20
14.701975
 30
0.0
 10
274.833898
 20
12.943255
 30
0.0
 10
275.987995
 20
9.708742
 30
0.0
 10
279.365401
 20
8.459781
 30
0.0
 10
279.380178
 20
7.036427
 30
0.0
 10
279.394946
 20
5.612947
 30
0.0
 10
270.185803
 20
5.519930
 30
0.0
 10
260.976660
 20
5.426912
 30
0.0
 10
260.961892
 20
6.850391
 30
0.0
 10
260.947115
 20
8.273745
 30
0.0
 10
262.442376
 20
8.656001
 30
0.0
 10
263.739554
 20
9.423765
 30
0.0
 10
264.882235
 20
10.557395
 30
0.0
 10
265.913413
 20
12.034409
 30
0.0
 10
266.917843
 20
14.039606
 30
0.0
 10
267.979733
 20
16.757197
 30
0.0
 10
276.732331
 20
40.808579
 30
0.0
 10
285.484932
 20
64.859836
 30
0.0
 10
291.243320
 20
64.917769
 30
0.0
 10
297.001708
 20
64.975702
 30
0.0
 10
304.361608
 20
40.892228
 30
0.0
 10
311.721509
 20
16.808754
 30
0.0
 10
312.622655
 20
14.046173
 30
0.0
 10
313.363187
 20
12.209474
 30
0.0
 10
314.119882
 20
10.997899
 30
0.0
 10
315.068151
 20
10.026661
 30
0.0
 10
316.315533
 20
9.327763
 30
0.0
 10
317.970347
 20
8.847757
 30
0.0
 10
317.987612
 20
7.424088
 30
0.0
 10
318.004876
 20
6.000419
 30
0.0
 10
306.099959
 20
5.881433
 30
0.0
 10
294.194946
 20
5.761198
 30
0.0
 10
294.180178
 20
7.184677
 30
0.0
 10
294.165411
 20
8.608157
 30
0.0
 10
296.112806
 20
9.070287
 30
0.0
 10
297.474139
 20
9.892188
 30
0.0
 10
298.270891
 20
11.097091
 30
0.0
 10
298.524443
 20
12.706724
 30
0.0
 10
298.434579
 20
14.118587
 30
0.0
 10
298.192589
 20
15.679902
 30
0.0
 10
297.774973
 20
17.530711
 30
0.0
 10
297.158958
 20
19.810751
 30
0.0
 10
296.555456
 20
21.918558
 30
0.0
  0
LWPOLYLINE
  5
120
100
AcDbEntity
  8
Layer_1
 62
7
100
AcDbPolyline
 90
6
 70
1
 10
279.117024
 20
28.905250
 30
0.0
 10
286.881181
 20
28.983881
 30
0.0
 10
294.645255
 20
29.061262
 30
0.0
 10
291.072494
 20
41.168870
 30
0.0
 10
287.499736
 20
53.276351
 30
0.0
 10
283.308385
 20
41.090863
 30
0.0
  0
LWPOLYLINE
  5
121
100
AcDbEntity
  8
Layer_1
 62
7
100
AcDbPolyline
 90
62
 70
1
 10
328.083656
 20
8.964662
 30
0.0
 10
327.796691
 20
10.358997
 30
0.0
 10
327.509726
 20
11.753332
 30
0.0
 10
329.024610
 20
12.416632
 30
0.0
 10
330.141667
 20
13.086340
 30
0.0
 10
330.936434
 20
13.877256
 30
0.0
 10
331.418696
 20
14.802450
 30
0.0
 10
331.627034
 20
15.890380
 30
0.0
 10
331.595196
 20
17.172005
 30
0.0
 10
331.371991
 20
18.744197
 30
0.0
 10
331.018723
 20
20.620500
 30
0.0
 10
326.687303
 20
41.683113
 30
0.0
 10
322.355749
 20
62.745611
 30
0.0
 10
320.644544
 20
62.393596
 30
0.0
 10
318.933214
 20
62.041591
 30
0.0
 10
316.724356
 20
61.433597
 30
0.0
 10
315.167798
 20
60.651662
 30
0.0
 10
314.056702
 20
59.631155
 30
0.0
 10
313.183926
 20
58.306715
 30
0.0
 10
312.581747
 20
56.630556
 30
0.0
 10
312.197682
 20
54.536725
 30
0.0
 10
311.966690
 20
52.342219
 30
0.0
 10
311.839897
 20
50.279422
 30
0.0
 10
308.945667
 20
49.684641
 30
0.0
 10
306.051437
 20
49.089860
 30
0.0
 10
304.526520
 20
56.505129
 30
0.0
 10
303.001594
 20
63.920273
 30
0.0
 10
327.866936
 20
69.033777
 30
0.0
 10
352.732229
 20
74.147285
 30
0.0
 10
354.257121
 20
66.732018
 30
0.0
 10
355.782013
 20
59.316751
 30
0.0
 10
352.887783
 20
58.721970
 30
0.0
 10
349.993553
 20
58.127189
 30
0.0
 10
348.762542
 20
60.472349
 30
0.0
 10
347.857297
 20
62.091656
 30
0.0
 10
347.104307
 20
63.236396
 30
0.0
 10
346.331723
 20
64.156596
 30
0.0
 10
345.577895
 20
64.927195
 30
0.0
 10
344.817977
 20
65.518688
 30
0.0
 10
344.046185
 20
65.954120
 30
0.0
 10
343.257798
 20
66.253940
 30
0.0
 10
342.376766
 20
66.408867
 30
0.0
 10
341.327026
 20
66.425941
 30
0.0
 10
340.069277
 20
66.333268
 30
0.0
 10
338.494819
 20
66.063773
 30
0.0
 10
336.973629
 20
65.750043
 30
0.0
 10
335.452659
 20
65.437551
 30
0.0
 10
339.784089
 20
44.375063
 30
0.0
 10
344.115634
 20
23.312440
 30
0.0
 10
344.553536
 20
21.343682
 30
0.0
 10
344.945962
 20
19.916084
 30
0.0
 10
345.338421
 20
18.918066
 30
0.0
 10
345.792528
 20
18.152689
 30
0.0
 10
346.297279
 20
17.574329
 30
0.0
 10
346.838981
 20
17.135055
 30
0.0
 10
347.515098
 20
16.845031
 30
0.0
 10
348.356152
 20
16.610268
 30
0.0
 10
349.453879
 20
16.514200
 30
0.0
 10
350.835175
 20
16.547246
 30
0.0
 10
351.122140
 20
15.152910
 30
0.0
 10
351.409105
 20
13.758575
 30
0.0
 10
339.747518
 20
11.362537
 30
0.0
  0
LWPOLYLINE
  5
122
100
AcDbEntity
  8
Layer_1
 62
7
100
AcDbPolyline
 90
50
 70
1
 10
388.553231
 20
36.474290
 30
0.0
 10
389.088097
 20
35.119863
 30
0.0
 10
389.624230
 20
33.881117
 30
0.0
 10
390.160592
 20
32.826946
 30
0.0
 10
390.693572
 20
32.025431
 30
0.0
 10
391.252212
 20
31.429158
 30
0.0
 10
391.866992
 20
30.993115
 30
0.0
 10
392.617910
 20
30.712469
 30
0.0
 10
393.508930
 20
30.556783
 30
0.0
 10
394.535899
 20
30.553998
 30
0.0
 10
395.730544
 20
30.659006
 30
0.0
 10
396.233240
 20
29.327370
 30
0.0
 10
396.735927
 20
27.995608
 30
0.0
 10
386.142519
 20
23.995995
 30
0.0
 10
375.549235
 20
19.996372
 30
0.0
 10
375.046549
 20
21.328134
 30
0.0
 10
374.543862
 20
22.659895
 30
0.0
 10
375.719867
 20
23.576262
 30
0.0
 10
376.565415
 20
24.390941
 30
0.0
 10
377.118896
 20
25.245420
 30
0.0
 10
377.368762
 20
26.169458
 30
0.0
 10
377.376011
 20
27.255105
 30
0.0
 10
377.141525
 20
28.480948
 30
0.0
 10
376.683305
 20
29.968050
 30
0.0
 10
376.043226
 20
31.755166
 30
0.0
 10
369.468613
 20
49.168654
 30
0.0
 10
362.894124
 20
66.582132
 30
0.0
 10
362.197539
 20
68.336252
 30
0.0
 10
361.569810
 20
69.724490
 30
0.0
 10
360.968513
 20
70.799926
 30
0.0
 10
360.268452
 20
71.584015
 30
0.0
 10
359.458335
 20
72.142911
 30
0.0
 10
358.474247
 20
72.428738
 30
0.0
 10
357.279906
 20
72.509302
 30
0.0
 10
355.757550
 20
72.417924
 30
0.0
 10
355.254863
 20
73.749685
 30
0.0
 10
354.752176
 20
75.081447
 30
0.0
 10
365.345575
 20
79.080935
 30
0.0
 10
375.938983
 20
83.080548
 30
0.0
 10
376.441679
 20
81.748912
 30
0.0
 10
376.944366
 20
80.417150
 30
0.0
 10
375.677209
 20
79.408516
 30
0.0
 10
374.848624
 20
78.519714
 30
0.0
 10
374.378357
 20
77.719180
 30
0.0
 10
374.135249
 20
76.867460
 30
0.0
 10
374.111864
 20
75.899822
 30
0.0
 10
374.289908
 20
74.757383
 30
0.0
 10
374.714096
 20
73.268601
 30
0.0
 10
375.424440
 20
71.266183
 30
0.0
 10
381.991729
 20
53.871962
 30
0.0
  0
LWPOLYLINE
  5
123
100
AcDbEntity
  8
Layer_1
 62
7
100
AcDbPolyline
 90
24
 70
1
 10
422.917836
 20
42.362321
 30
0.0
 10
412.393337
 20
38.355708
 30
0.0
 10
402.714302
 20
39.142282
 30
0.0
 10
393.932267
 20
44.737588
 30
0.0
 10
386.025148
 20
55.117061
 30
0.0
 10
382.145298
 20
63.267141
 30
0.0
 10
380.306118
 20
70.961607
 30
0.0
 10
380.545470
 20
78.135292
 30
0.0
 10
382.870624
 20
84.604812
 30
0.0
 10
387.184037
 20
90.238453
 30
0.0
 10
393.387983
 20
94.903762
 30
0.0
 10
404.070723
 20
99.003065
 30
0.0
 10
413.851889
 20
98.271506
 30
0.0
 10
422.674086
 20
92.799722
 30
0.0
 10
430.522073
 20
82.585480
 30
0.0
 10
433.930595
 20
75.796420
 30
0.0
 10
435.924292
 20
69.504142
 30
0.0
 10
436.611100
 20
63.759078
 30
0.0
 10
436.067391
 20
58.493887
 30
0.0
 10
434.351335
 20
53.717204
 30
0.0
 10
431.519708
 20
49.437517
 30
0.0
 10
427.693293
 20
45.662841
 30
0.0
 10
422.917600
 20
42.357567
 30
0.0
 10
422.917600
 20
42.357567
 30
0.0
  0
LWPOLYLINE
  5
124
100
AcDbEntity
  8
Layer_1
 62
7
100
AcDbPolyline
 90
24
 70
1
 10
397.277783
 20
63.046407
 30
0.0
 10
403.686398
 20
53.626914
 30
0.0
 10
409.758737
 20
47.858650
 30
0.0
 10
415.585385
 20
45.757074
 30
0.0
 10
421.226235
 20
47.219809
 30
0.0
 10
423.656089
 20
49.153106
 30
0.0
 10
425.211179
 20
51.599360
 30
0.0
 10
425.937130
 20
54.522830
 30
0.0
 10
425.923759
 20
57.813336
 30
0.0
 10
425.222666
 20
61.488927
 30
0.0
 10
423.856110
 20
65.449336
 30
0.0
 10
421.944797
 20
69.678474
 30
0.0
 10
419.536430
 20
74.116707
 30
0.0
 10
415.258558
 20
80.747131
 30
0.0
 10
411.092924
 20
85.819078
 30
0.0
 10
407.056114
 20
89.367327
 30
0.0
 10
403.134655
 20
91.308895
 30
0.0
 10
399.327198
 20
91.673896
 30
0.0
 10
395.600316
 20
90.356378
 30
0.0
 10
391.646813
 20
86.307577
 30
0.0
 10
390.584153
 20
80.476734
 30
0.0
 10
392.456516
 20
72.789288
 30
0.0
 10
397.276894
 20
63.052879
 30
0.0
 10
397.277144
 20
63.052860
 30
0.0
  0
LWPOLYLINE
  5
125
100
AcDbEntity
  8
Layer_1
 62
7
100
AcDbPolyline
 90
80
 70
1
 10
451.066130
 20
140.606933
 30
0.0
 10
452.035394
 20
139.565033
 30
0.0
 10
453.004658
 20
138.523134
 30
0.0
 10
452.275183
 20
137.137940
 30
0.0
 10
451.849918
 20
136.153158
 30
0.0
 10
451.678191
 20
135.381396
 30
0.0
 10
451.666868
 20
134.572317
 30
0.0
 10
451.917105
 20
133.685576
 30
0.0
 10
452.481423
 20
132.619232
 30
0.0
 10
453.463143
 20
131.278904
 30
0.0
 10
455.024196
 20
129.505355
 30
0.0
 10
471.386715
 20
111.911058
 30
0.0
 10
487.749243
 20
94.316886
 30
0.0
 10
483.737555
 20
90.586066
 30
0.0
 10
479.726002
 20
86.855361
 30
0.0
 10
461.191417
 20
92.533351
 30
0.0
 10
442.656948
 20
98.211208
 30
0.0
 10
436.019485
 20
100.344205
 30
0.0
 10
431.138980
 20
102.108468
 30
0.0
 10
430.997060
 20
101.976112
 30
0.0
 10
430.855140
 20
101.843757
 30
0.0
 10
437.584203
 20
95.083238
 30
0.0
 10
444.507829
 20
87.796838
 30
0.0
 10
449.237373
 20
82.711249
 30
0.0
 10
453.966918
 20
77.625659
 30
0.0
 10
455.894847
 20
75.663341
 30
0.0
 10
457.272538
 20
74.515027
 30
0.0
 10
458.404535
 20
73.978105
 30
0.0
 10
459.534316
 20
73.791697
 30
0.0
 10
460.912179
 20
74.116331
 30
0.0
 10
462.782542
 20
74.987408
 30
0.0
 10
463.751806
 20
73.945509
 30
0.0
 10
464.721070
 20
72.903609
 30
0.0
 10
458.751036
 20
67.351546
 30
0.0
 10
452.781003
 20
61.799482
 30
0.0
 10
451.811739
 20
62.841381
 30
0.0
 10
450.842475
 20
63.883281
 30
0.0
 10
451.576851
 20
65.184345
 30
0.0
 10
452.028238
 20
66.281410
 30
0.0
 10
452.217347
 20
67.281647
 30
0.0
 10
452.100060
 20
68.232361
 30
0.0
 10
451.694438
 20
69.238915
 30
0.0
 10
451.014418
 20
70.286435
 30
0.0
 10
450.057529
 20
71.457988
 30
0.0
 10
448.817814
 20
72.838663
 30
0.0
 10
436.112641
 20
86.500321
 30
0.0
 10
423.407460
 20
100.161854
 30
0.0
 10
421.494151
 20
102.108368
 30
0.0
 10
420.160578
 20
103.209375
 30
0.0
 10
419.074857
 20
103.760357
 30
0.0
 10
417.899180
 20
103.937699
 30
0.0
 10
416.485699
 20
103.669771
 30
0.0
 10
414.623928
 20
102.835712
 30
0.0
 10
413.654665
 20
103.877611
 30
0.0
 10
412.685401
 20
104.919511
 30
0.0
 10
419.081915
 20
110.868210
 30
0.0
 10
425.478304
 20
116.816918
 30
0.0
 10
440.102503
 20
112.303366
 30
0.0
 10
454.726694
 20
107.789688
 30
0.0
 10
457.931917
 20
106.749719
 30
0.0
 10
462.055167
 20
105.356116
 30
0.0
 10
466.461939
 20
103.783979
 30
0.0
 10
470.517725
 20
102.210039
 30
0.0
 10
470.770475
 20
102.445722
 30
0.0
 10
471.023225
 20
102.681406
 30
0.0
 10
463.418624
 20
110.335928
 30
0.0
 10
455.341354
 20
118.846897
 30
0.0
 10
452.609373
 20
121.784549
 30
0.0
 10
449.877393
 20
124.722202
 30
0.0
 10
448.192897
 20
126.454411
 30
0.0
 10
446.958170
 20
127.544132
 30
0.0
 10
446.004056
 20
128.157933
 30
0.0
 10
445.160830
 20
128.463182
 30
0.0
 10
444.378674
 20
128.547800
 30
0.0
 10
443.542333
 20
128.431857
 30
0.0
 10
442.507782
 20
128.087384
 30
0.0
 10
441.064098
 20
127.422434
 30
0.0
 10
440.094834
 20
128.464333
 30
0.0
 10
439.125571
 20
129.506233
 30
0.0
 10
445.096228
 20
135.058249
 30
0.0
  0
LWPOLYLINE
  5
126
100
AcDbEntity
  8
Layer_1
 62
7
100
AcDbPolyline
 90
62
 70
1
 10
72.656302
 20
572.168950
 30
0.0
 10
71.600866
 20
573.123783
 30
0.0
 10
70.544178
 20
574.078586
 30
0.0
 10
71.373320
 20
575.509943
 30
0.0
 10
71.877453
 20
576.710897
 30
0.0
 10
72.049460
 20
577.818545
 30
0.0
 10
71.887691
 20
578.849130
 30
0.0
 10
71.409817
 20
579.848173
 30
0.0
 10
70.625969
 20
580.862264
 30
0.0
 10
69.514765
 20
581.997341
 30
0.0
 10
68.120249
 20
583.301199
 30
0.0
 10
52.168217
 20
597.720818
 30
0.0
 10
36.216182
 20
612.140562
 30
0.0
 10
35.044301
 20
610.844592
 30
0.0
 10
33.872422
 20
609.548497
 30
0.0
 10
32.451431
 20
607.751194
 30
0.0
 10
31.659054
 20
606.199498
 30
0.0
 10
31.367178
 20
604.718931
 30
0.0
 10
31.443567
 20
603.134662
 30
0.0
 10
31.950073
 20
601.427042
 30
0.0
 10
32.878744
 20
599.511708
 30
0.0
 10
33.990054
 20
597.605483
 30
0.0
 10
35.108510
 20
595.867640
 30
0.0
 10
33.127061
 20
593.675602
 30
0.0
 10
31.145609
 20
591.483689
 30
0.0
 10
25.529487
 20
596.560291
 30
0.0
 10
19.913493
 20
601.636771
 30
0.0
 10
36.936468
 20
620.468909
 30
0.0
 10
53.959571
 20
639.300926
 30
0.0
 10
59.575565
 20
634.224446
 30
0.0
 10
65.191687
 20
629.147844
 30
0.0
 10
63.210238
 20
626.955806
 30
0.0
 10
61.228789
 20
624.763768
 30
0.0
 10
58.849020
 20
625.926631
 30
0.0
 10
57.160970
 20
626.696880
 30
0.0
 10
55.877139
 20
627.173933
 30
0.0
 10
54.709120
 20
627.458437
 30
0.0
 10
53.646473
 20
627.634051
 30
0.0
 10
52.682667
 20
627.660537
 30
0.0
 10
51.802346
 20
627.551296
 30
0.0
 10
50.989935
 20
627.328490
 30
0.0
 10
50.185420
 20
626.936793
 30
0.0
 10
49.329852
 20
626.328419
 30
0.0
 10
48.370505
 20
625.508338
 30
0.0
 10
47.260132
 20
624.360165
 30
0.0
 10
46.218726
 20
623.208672
 30
0.0
 10
45.177320
 20
622.057179
 30
0.0
 10
61.129352
 20
607.637560
 30
0.0
 10
77.081387
 20
593.217816
 30
0.0
 10
78.599119
 20
591.889547
 30
0.0
 10
79.760125
 20
590.971117
 30
0.0
 10
80.667173
 20
590.398412
 30
0.0
 10
81.486058
 20
590.050246
 30
0.0
 10
82.235405
 20
589.881986
 30
0.0
 10
82.932593
 20
589.848967
 30
0.0
 10
83.648748
 20
590.013053
 30
0.0
 10
84.465270
 20
590.323633
 30
0.0
 10
85.405593
 20
590.897762
 30
0.0
 10
86.500949
 20
591.738710
 30
0.0
 10
87.556385
 20
590.783876
 30
0.0
 10
88.611822
 20
589.829043
 30
0.0
 10
80.629968
 20
580.997393
 30
0.0
  0
LWPOLYLINE
  5
127
100
AcDbEntity
  8
Layer_1
 62
7
100
AcDbPolyline
 90
98
 70
1
 10
138.007525
 20
643.039668
 30
0.0
 10
139.683330
 20
640.790817
 30
0.0
 10
140.865684
 20
639.461095
 30
0.0
 10
141.869797
 20
638.811862
 30
0.0
 10
142.990071
 20
638.482352
 30
0.0
 10
144.420696
 20
638.567501
 30
0.0
 10
146.356930
 20
639.174797
 30
0.0
 10
147.180696
 20
638.013891
 30
0.0
 10
148.004462
 20
636.852985
 30
0.0
 10
138.824146
 20
630.335738
 30
0.0
 10
129.643704
 20
623.818487
 30
0.0
 10
128.819938
 20
624.979393
 30
0.0
 10
127.996171
 20
626.140299
 30
0.0
 10
129.301200
 20
627.860238
 30
0.0
 10
129.885321
 20
629.068162
 30
0.0
 10
129.948622
 20
630.062929
 30
0.0
 10
129.682923
 20
631.143571
 30
0.0
 10
128.812906
 20
632.760874
 30
0.0
 10
127.107868
 20
635.292946
 30
0.0
 10
122.101266
 20
642.345363
 30
0.0
 10
117.094664
 20
649.397779
 30
0.0
 10
109.145415
 20
643.754488
 30
0.0
 10
101.196044
 20
638.111069
 30
0.0
 10
106.202643
 20
631.058777
 30
0.0
 10
111.209245
 20
624.006361
 30
0.0
 10
112.069679
 20
622.831323
 30
0.0
 10
112.902288
 20
621.769580
 30
0.0
 10
113.687954
 20
620.885791
 30
0.0
 10
114.406273
 20
620.245839
 30
0.0
 10
115.098253
 20
619.811899
 30
0.0
 10
115.803679
 20
619.544870
 30
0.0
 10
116.602231
 20
619.464236
 30
0.0
 10
117.503501
 20
619.536416
 30
0.0
 10
118.497927
 20
619.793740
 30
0.0
 10
119.626517
 20
620.198387
 30
0.0
 10
120.450283
 20
619.037481
 30
0.0
 10
121.274050
 20
617.876575
 30
0.0
 10
112.040920
 20
611.321837
 30
0.0
 10
102.807666
 20
604.767096
 30
0.0
 10
101.983899
 20
605.928002
 30
0.0
 10
101.160133
 20
607.088908
 30
0.0
 10
102.065463
 20
608.273389
 30
0.0
 10
102.675923
 20
609.275299
 30
0.0
 10
102.994154
 20
610.242495
 30
0.0
 10
102.995728
 20
611.200680
 30
0.0
 10
102.725727
 20
612.252410
 30
0.0
 10
102.189619
 20
613.379031
 30
0.0
 10
101.370661
 20
614.701500
 30
0.0
 10
100.297737
 20
616.267866
 30
0.0
 10
89.535501
 20
631.427848
 30
0.0
 10
78.773264
 20
646.587830
 30
0.0
 10
77.666835
 20
648.090376
 30
0.0
 10
76.695543
 20
649.291504
 30
0.0
 10
75.821459
 20
650.205691
 30
0.0
 10
74.939016
 20
650.796533
 30
0.0
 10
74.032179
 20
651.104971
 30
0.0
 10
73.014856
 20
651.117621
 30
0.0
 10
71.821092
 20
650.919289
 30
0.0
 10
70.365368
 20
650.452771
 30
0.0
 10
69.541601
 20
651.613677
 30
0.0
 10
68.717835
 20
652.774582
 30
0.0
 10
77.951089
 20
659.329323
 30
0.0
 10
87.184219
 20
665.884062
 30
0.0
 10
88.007985
 20
664.723156
 30
0.0
 10
88.831751
 20
663.562250
 30
0.0
 10
87.651534
 20
661.890833
 30
0.0
 10
87.088753
 20
660.578725
 30
0.0
 10
87.041648
 20
659.434058
 30
0.0
 10
87.337007
 20
658.216369
 30
0.0
 10
88.150050
 20
656.624097
 30
0.0
 10
89.702489
 20
654.288183
 30
0.0
 10
93.872622
 20
648.414146
 30
0.0
 10
98.042630
 20
642.540106
 30
0.0
 10
105.992005
 20
648.183400
 30
0.0
 10
113.941254
 20
653.826691
 30
0.0
 10
109.771246
 20
659.700731
 30
0.0
 10
105.601109
 20
665.574893
 30
0.0
 10
103.935249
 20
667.791048
 30
0.0
 10
102.733526
 20
669.093367
 30
0.0
 10
101.725347
 20
669.806377
 30
0.0
 10
100.620185
 20
670.132500
 30
0.0
 10
99.194454
 20
670.072520
 30
0.0
 10
97.203509
 20
669.505215
 30
0.0
 10
96.379743
 20
670.666121
 30
0.0
 10
95.555977
 20
671.827027
 30
0.0
 10
104.736418
 20
678.344277
 30
0.0
 10
113.916735
 20
684.861525
 30
0.0
 10
114.740501
 20
683.700619
 30
0.0
 10
115.564268
 20
682.539713
 30
0.0
 10
114.539942
 20
681.151168
 30
0.0
 10
113.962528
 20
680.027325
 30
0.0
 10
113.730483
 20
679.069756
 30
0.0
 10
113.791618
 20
678.108097
 30
0.0
 10
114.110517
 20
677.156511
 30
0.0
 10
114.577825
 20
676.179754
 30
0.0
 10
115.348656
 20
674.981229
 30
0.0
 10
116.504175
 20
673.315436
 30
0.0
 10
127.254982
 20
658.172082
 30
0.0
  0
LWPOLYLINE
  5
128
100
AcDbEntity
  8
Layer_1
 62
7
100
AcDbPolyline
 90
82
 70
1
 10
171.692646
 20
711.519747
 30
0.0
 10
174.416077
 20
705.225003
 30
0.0
 10
177.139508
 20
698.930259
 30
0.0
 10
174.427587
 20
697.756626
 30
0.0
 10
171.715791
 20
696.582996
 30
0.0
 10
169.146645
 20
699.207998
 30
0.0
 10
167.306359
 20
700.691311
 30
0.0
 10
165.788538
 20
701.455711
 30
0.0
 10
164.221120
 20
701.846910
 30
0.0
 10
162.251852
 20
701.698465
 30
0.0
 10
159.563210
 20
700.770888
 30
0.0
 10
155.247946
 20
698.903803
 30
0.0
 10
150.932679
 20
697.036843
 30
0.0
 10
155.043517
 20
687.535300
 30
0.0
 10
159.154481
 20
678.033761
 30
0.0
 10
161.767401
 20
679.163637
 30
0.0
 10
164.380321
 20
680.293513
 30
0.0
 10
165.882834
 20
681.084317
 30
0.0
 10
166.906198
 20
681.949803
 30
0.0
 10
167.515155
 20
683.013048
 30
0.0
 10
167.810146
 20
684.315338
 30
0.0
 10
167.829958
 20
686.062782
 30
0.0
 10
167.535328
 20
688.426507
 30
0.0
 10
169.772091
 20
689.394365
 30
0.0
 10
172.008853
 20
690.362222
 30
0.0
 10
175.485996
 20
682.325460
 30
0.0
 10
178.963136
 20
674.288822
 30
0.0
 10
176.726249
 20
673.320961
 30
0.0
 10
174.489486
 20
672.353103
 30
0.0
 10
173.031911
 20
674.119460
 30
0.0
 10
171.755382
 20
675.305595
 30
0.0
 10
170.558952
 20
676.034033
 30
0.0
 10
169.378993
 20
676.345798
 30
0.0
 10
168.063390
 20
676.238417
 30
0.0
 10
166.384963
 20
675.664992
 30
0.0
 10
163.771918
 20
674.535113
 30
0.0
 10
161.158998
 20
673.405237
 30
0.0
 10
165.732389
 20
662.834764
 30
0.0
 10
170.305777
 20
652.264415
 30
0.0
 10
174.601212
 20
654.122874
 30
0.0
 10
178.896648
 20
655.981332
 30
0.0
 10
180.156292
 20
656.573304
 30
0.0
 10
181.164178
 20
657.150340
 30
0.0
 10
181.953675
 20
657.797175
 30
0.0
 10
182.592253
 20
658.520471
 30
0.0
 10
183.101678
 20
659.352073
 30
0.0
 10
183.503682
 20
660.325079
 30
0.0
 10
183.828191
 20
661.393879
 30
0.0
 10
184.028288
 20
662.479671
 30
0.0
 10
184.155400
 20
663.732760
 30
0.0
 10
184.180305
 20
665.272291
 30
0.0
 10
184.069608
 20
667.234469
 30
0.0
 10
183.792381
 20
669.756933
 30
0.0
 10
186.504178
 20
670.930564
 30
0.0
 10
189.216099
 20
672.104197
 30
0.0
 10
191.965936
 20
664.716310
 30
0.0
 10
194.715896
 20
657.328552
 30
0.0
 10
175.257605
 20
648.909729
 30
0.0
 10
155.799187
 20
640.491029
 30
0.0
 10
155.234876
 20
641.797442
 30
0.0
 10
154.669311
 20
643.103949
 30
0.0
 10
155.800311
 20
644.074775
 30
0.0
 10
156.606027
 20
644.928666
 30
0.0
 10
157.118042
 20
645.807926
 30
0.0
 10
157.324322
 20
646.743572
 30
0.0
 10
157.272699
 20
647.828207
 30
0.0
 10
156.982439
 20
649.042263
 30
0.0
 10
156.455605
 20
650.506029
 30
0.0
 10
155.732517
 20
652.260822
 30
0.0
 10
148.350060
 20
669.323962
 30
0.0
 10
140.967729
 20
686.387105
 30
0.0
 10
140.197151
 20
688.086502
 30
0.0
 10
139.495848
 20
689.463329
 30
0.0
 10
138.830755
 20
690.537944
 30
0.0
 10
138.090685
 20
691.298855
 30
0.0
 10
137.268336
 20
691.788466
 30
0.0
 10
136.275779
 20
692.017149
 30
0.0
 10
135.067273
 20
692.062690
 30
0.0
 10
133.546681
 20
691.912712
 30
0.0
 10
132.981118
 20
693.219095
 30
0.0
 10
132.415553
 20
694.525602
 30
0.0
 10
152.051757
 20
703.023682
 30
0.0
  0
LWPOLYLINE
  5
129
100
AcDbEntity
  8
Layer_1
 62
7
100
AcDbPolyline
 90
50
 70
1
 10
237.948926
 20
678.592126
 30
0.0
 10
238.397156
 20
676.195843
 30
0.0
 10
238.818877
 20
674.625922
 30
0.0
 10
239.266648
 20
673.628646
 30
0.0
 10
239.807633
 20
672.865363
 30
0.0
 10
240.516964
 20
672.336661
 30
0.0
 10
241.400760
 20
671.946248
 30
0.0
 10
242.654166
 20
671.703916
 30
0.0
 10
244.385987
 20
671.606067
 30
0.0
 10
244.615788
 20
670.201406
 30
0.0
 10
244.846840
 20
668.796775
 30
0.0
 10
233.396517
 20
666.916827
 30
0.0
 10
221.946197
 20
665.036754
 30
0.0
 10
221.715144
 20
666.441385
 30
0.0
 10
221.485340
 20
667.846172
 30
0.0
 10
222.818434
 20
668.512587
 30
0.0
 10
223.807416
 20
669.145522
 30
0.0
 10
224.518502
 20
669.874352
 30
0.0
 10
224.945890
 20
670.731499
 30
0.0
 10
225.165315
 20
671.795219
 30
0.0
 10
225.184839
 20
673.043167
 30
0.0
 10
225.034184
 20
674.591423
 30
0.0
 10
224.758964
 20
676.469662
 30
0.0
 10
221.746790
 20
694.815700
 30
0.0
 10
218.734741
 20
713.161742
 30
0.0
 10
218.400444
 20
714.997452
 30
0.0
 10
218.055436
 20
716.503497
 30
0.0
 10
217.671480
 20
717.707743
 30
0.0
 10
217.137989
 20
718.625265
 30
0.0
 10
216.458866
 20
719.301247
 30
0.0
 10
215.551982
 20
719.764991
 30
0.0
 10
214.391253
 20
720.109792
 30
0.0
 10
212.879327
 20
720.332013
 30
0.0
 10
212.648271
 20
721.736769
 30
0.0
 10
212.418471
 20
723.141430
 30
0.0
 10
224.783930
 20
725.171677
 30
0.0
 10
237.149393
 20
727.201799
 30
0.0
 10
246.726222
 20
727.779609
 30
0.0
 10
253.918038
 20
725.976891
 30
0.0
 10
258.740730
 20
721.763597
 30
0.0
 10
261.224186
 20
715.024106
 30
0.0
 10
261.469008
 20
709.632294
 30
0.0
 10
260.331423
 20
704.779122
 30
0.0
 10
257.858893
 20
700.602898
 30
0.0
 10
254.094002
 20
697.241688
 30
0.0
 10
248.992717
 20
694.764801
 30
0.0
 10
242.524865
 20
693.156469
 30
0.0
 10
238.761336
 20
692.582059
 30
0.0
 10
235.728910
 20
692.215937
 30
0.0
 10
236.846412
 20
685.404904
 30
0.0
  0
LWPOLYLINE
  5
12a
100
AcDbEntity
  8
Layer_1
 62
7
100
AcDbPolyline
 90
18
 70
1
 10
234.922766
 20
697.023367
 30
0.0
 10
236.753045
 20
697.323714
 30
0.0
 10
238.583449
 20
697.624065
 30
0.0
 10
242.354915
 20
698.549364
 30
0.0
 10
245.155898
 20
699.927079
 30
0.0
 10
247.077049
 20
701.870776
 30
0.0
 10
248.223516
 20
704.408583
 30
0.0
 10
248.641156
 20
707.657350
 30
0.0
 10
248.291129
 20
711.719833
 30
0.0
 10
247.330912
 20
715.638487
 30
0.0
 10
245.903877
 20
718.540588
 30
0.0
 10
244.054241
 20
720.553722
 30
0.0
 10
241.755891
 20
721.706055
 30
0.0
 10
238.948526
 20
722.096935
 30
0.0
 10
235.572303
 20
721.827599
 30
0.0
 10
232.936689
 20
721.373505
 30
0.0
 10
230.989145
 20
720.987621
 30
0.0
 10
232.956274
 20
709.005251
 30
0.0
  0
LWPOLYLINE
  5
12b
100
AcDbEntity
  8
Layer_1
 62
7
100
AcDbPolyline
 90
50
 70
1
 10
298.442594
 20
689.888142
 30
0.0
 10
289.233672
 20
689.993179
 30
0.0
 10
280.024655
 20
690.096961
 30
0.0
 10
279.289352
 20
688.056066
 30
0.0
 10
278.554046
 20
686.015297
 30
0.0
 10
277.984426
 20
684.317759
 30
0.0
 10
277.522746
 20
682.662068
 30
0.0
 10
277.213642
 20
681.015626
 30
0.0
 10
277.096361
 20
679.259031
 30
0.0
 10
278.180684
 20
676.000469
 30
0.0
 10
281.530621
 20
674.679264
 30
0.0
 10
281.515396
 20
673.255824
 30
0.0
 10
281.500167
 20
671.832510
 30
0.0
 10
272.291151
 20
671.936292
 30
0.0
 10
263.082259
 20
672.040077
 30
0.0
 10
263.097484
 20
673.463517
 30
0.0
 10
263.112709
 20
674.886957
 30
0.0
 10
264.615783
 20
675.235649
 30
0.0
 10
265.929138
 20
675.976729
 30
0.0
 10
267.095599
 20
677.084945
 30
0.0
 10
268.158383
 20
678.539686
 30
0.0
 10
269.205712
 20
680.522971
 30
0.0
 10
270.325798
 20
683.217317
 30
0.0
 10
279.590129
 20
707.076196
 30
0.0
 10
288.854334
 20
730.935072
 30
0.0
 10
294.612681
 20
730.870745
 30
0.0
 10
300.370933
 20
730.805162
 30
0.0
 10
307.214816
 20
706.569906
 30
0.0
 10
314.058697
 20
682.334776
 30
0.0
 10
314.900867
 20
679.553612
 30
0.0
 10
315.602543
 20
677.701478
 30
0.0
 10
316.332742
 20
676.474404
 30
0.0
 10
317.260079
 20
675.482615
 30
0.0
 10
318.492778
 20
674.756319
 30
0.0
 10
320.136864
 20
674.241750
 30
0.0
 10
320.121639
 20
672.818310
 30
0.0
 10
320.106411
 20
671.394995
 30
0.0
 10
308.201565
 20
671.529171
 30
0.0
 10
296.296843
 20
671.663349
 30
0.0
 10
296.312072
 20
673.086664
 30
0.0
 10
296.327297
 20
674.510104
 30
0.0
 10
298.284152
 20
674.930033
 30
0.0
 10
299.662716
 20
675.724063
 30
0.0
 10
300.485309
 20
676.911527
 30
0.0
 10
300.772916
 20
678.515234
 30
0.0
 10
300.713236
 20
679.928697
 30
0.0
 10
300.503278
 20
681.494789
 30
0.0
 10
300.125817
 20
683.354115
 30
0.0
 10
299.558632
 20
685.646910
 30
0.0
 10
298.999450
 20
687.766433
 30
0.0
  0
LWPOLYLINE
  5
12c
100
AcDbEntity
  8
Layer_1
 62
7
100
AcDbPolyline
 90
6
 70
1
 10
281.720832
 20
695.124511
 30
0.0
 10
289.484848
 20
695.036679
 30
0.0
 10
297.248865
 20
694.948846
 30
0.0
 10
293.935586
 20
707.129944
 30
0.0
 10
290.622183
 20
719.311039
 30
0.0
 10
286.171570
 20
707.217777
 30
0.0
  0
LWPOLYLINE
  5
12d
100
AcDbEntity
  8
Layer_1
 62
7
100
AcDbPolyline
 90
62
 70
1
 10
330.184638
 20
668.408385
 30
0.0
 10
330.474886
 20
669.801991
 30
0.0
 10
330.765135
 20
671.195597
 30
0.0
 10
332.419031
 20
671.211067
 30
0.0
 10
333.710353
 20
671.384235
 30
0.0
 10
334.753611
 20
671.795558
 30
0.0
 10
335.562890
 20
672.452897
 30
0.0
 10
336.182946
 20
673.369874
 30
0.0
 10
336.662320
 20
674.558949
 30
0.0
 10
337.079431
 20
676.091181
 30
0.0
 10
337.500984
 20
677.953299
 30
0.0
 10
341.881894
 20
699.005717
 30
0.0
 10
346.262680
 20
720.058131
 30
0.0
 10
344.552330
 20
720.414516
 30
0.0
 10
342.841980
 20
720.770901
 30
0.0
 10
340.572972
 20
721.088550
 30
0.0
 10
338.833727
 20
720.983314
 30
0.0
 10
337.408561
 20
720.486233
 30
0.0
 10
336.082062
 20
719.617078
 30
0.0
 10
334.863931
 20
718.317345
 30
0.0
 10
333.681107
 20
716.547795
 30
0.0
 10
332.598473
 20
714.625268
 30
0.0
 10
331.664196
 20
712.781900
 30
0.0
 10
328.771383
 20
713.383607
 30
0.0
 10
325.878444
 20
713.985312
 30
0.0
 10
327.420772
 20
721.396945
 30
0.0
 10
328.963103
 20
728.808453
 30
0.0
 10
353.816382
 20
723.636664
 30
0.0
 10
378.669536
 20
718.464871
 30
0.0
 10
377.127205
 20
711.053362
 30
0.0
 10
375.584877
 20
703.641729
 30
0.0
 10
372.692063
 20
704.243437
 30
0.0
 10
369.799249
 20
704.845144
 30
0.0
 10
369.599275
 20
707.486233
 30
0.0
 10
369.411273
 20
709.331914
 30
0.0
 10
369.174066
 20
710.681035
 30
0.0
 10
368.830233
 20
711.832407
 30
0.0
 10
368.444864
 20
712.838726
 30
0.0
 10
367.982028
 20
713.684082
 30
0.0
 10
367.446179
 20
714.391130
 30
0.0
 10
366.841864
 20
714.978767
 30
0.0
 10
366.096999
 20
715.475287
 30
0.0
 10
365.140843
 20
715.905258
 30
0.0
 10
363.949638
 20
716.318199
 30
0.0
 10
362.397828
 20
716.696003
 30
0.0
 10
360.877468
 20
717.011953
 30
0.0
 10
359.357108
 20
717.327904
 30
0.0
 10
354.976323
 20
696.275490
 30
0.0
 10
350.595412
 20
675.223072
 30
0.0
 10
350.215594
 20
673.242239
 30
0.0
 10
350.009790
 20
671.775929
 30
0.0
 10
349.973424
 20
670.704168
 30
0.0
 10
350.082727
 20
669.821343
 30
0.0
 10
350.316087
 20
669.089350
 30
0.0
 10
350.639346
 20
668.471031
 30
0.0
 10
351.144676
 20
667.936078
 30
0.0
 10
351.823175
 20
667.387833
 30
0.0
 10
352.794087
 20
666.866792
 30
0.0
 10
354.073578
 20
666.347048
 30
0.0
 10
353.783329
 20
664.953442
 30
0.0
 10
353.493083
 20
663.559712
 30
0.0
 10
341.839392
 20
665.982809
 30
0.0
  0
LWPOLYLINE
  5
12e
100
AcDbEntity
  8
Layer_1
 62
7
100
AcDbPolyline
 90
98
 70
1
 10
424.350952
 20
647.784309
 30
0.0
 10
423.255664
 20
645.202417
 30
0.0
 10
422.704688
 20
643.510721
 30
0.0
 10
422.646293
 20
642.315677
 30
0.0
 10
422.928301
 20
641.182831
 30
0.0
 10
423.727738
 20
639.992522
 30
0.0
 10
425.229449
 20
638.628040
 30
0.0
 10
424.643760
 20
637.330776
 30
0.0
 10
424.058070
 20
636.033512
 30
0.0
 10
413.797445
 20
640.667799
 30
0.0
 10
403.536947
 20
645.301963
 30
0.0
 10
404.122637
 20
646.599227
 30
0.0
 10
404.708326
 20
647.896491
 30
0.0
 10
406.851880
 20
647.638393
 30
0.0
 10
408.189389
 20
647.746311
 30
0.0
 10
409.078893
 20
648.196451
 30
0.0
 10
409.877779
 20
648.971269
 30
0.0
 10
410.835084
 20
650.539280
 30
0.0
 10
412.159966
 20
653.289244
 30
0.0
 10
415.719908
 20
661.171392
 30
0.0
 10
419.279976
 20
669.053544
 30
0.0
 10
410.395398
 20
673.066246
 30
0.0
 10
401.510817
 20
677.079074
 30
0.0
 10
397.950749
 20
669.196923
 30
0.0
 10
394.390807
 20
661.314775
 30
0.0
 10
393.811069
 20
659.979080
 30
0.0
 10
393.315765
 20
658.724486
 30
0.0
 10
392.950047
 20
657.599567
 30
0.0
 10
392.760254
 20
656.655557
 30
0.0
 10
392.730179
 20
655.838204
 30
0.0
 10
392.861113
 20
655.094934
 30
0.0
 10
393.194642
 20
654.364143
 30
0.0
 10
393.712574
 20
653.621587
 30
0.0
 10
394.435574
 20
652.892823
 30
0.0
 10
395.353727
 20
652.122498
 30
0.0
 10
394.768041
 20
650.825109
 30
0.0
 10
394.182351
 20
649.527846
 30
0.0
 10
383.862836
 20
654.188620
 30
0.0
 10
373.543444
 20
658.849522
 30
0.0
 10
374.129133
 20
660.146786
 30
0.0
 10
374.714819
 20
661.444175
 30
0.0
 10
376.194096
 20
661.261234
 30
0.0
 10
377.368192
 20
661.239900
 30
0.0
 10
378.363753
 20
661.450910
 30
0.0
 10
379.194941
 20
661.929682
 30
0.0
 10
379.965283
 20
662.693780
 30
0.0
 10
380.667696
 20
663.725497
 30
0.0
 10
381.395516
 20
665.100515
 30
0.0
 10
382.206395
 20
666.817241
 30
0.0
 10
389.858997
 20
683.760897
 30
0.0
 10
397.511724
 20
700.704557
 30
0.0
 10
398.250036
 20
702.418127
 30
0.0
 10
398.797028
 20
703.863488
 30
0.0
 10
399.144235
 20
705.079384
 30
0.0
 10
399.205942
 20
706.139241
 30
0.0
 10
399.015118
 20
707.077683
 30
0.0
 10
398.516160
 20
707.965991
 30
0.0
 10
397.740657
 20
708.895118
 30
0.0
 10
396.604675
 20
709.916864
 30
0.0
 10
397.190361
 20
711.214253
 30
0.0
 10
397.776051
 20
712.511517
 30
0.0
 10
408.095565
 20
707.850743
 30
0.0
 10
418.415083
 20
703.189843
 30
0.0
 10
417.829397
 20
701.892454
 30
0.0
 10
417.243708
 20
700.595190
 30
0.0
 10
415.204881
 20
700.770686
 30
0.0
 10
413.787918
 20
700.598197
 30
0.0
 10
412.776548
 20
700.061155
 30
0.0
 10
411.874786
 20
699.191133
 30
0.0
 10
410.910941
 20
697.685586
 30
0.0
 10
409.678356
 20
695.166085
 30
0.0
 10
406.713141
 20
688.600836
 30
0.0
 10
403.747923
 20
682.035711
 30
0.0
 10
412.632504
 20
678.022883
 30
0.0
 10
421.517083
 20
674.010181
 30
0.0
 10
424.482301
 20
680.575305
 30
0.0
 10
427.447519
 20
687.140429
 30
0.0
 10
428.519621
 20
689.697330
 30
0.0
 10
429.036693
 20
691.392579
 30
0.0
 10
429.143078
 20
692.622615
 30
0.0
 10
428.866445
 20
693.740564
 30
0.0
 10
428.095552
 20
694.941592
 30
0.0
 10
426.600947
 20
696.373882
 30
0.0
 10
427.186636
 20
697.671146
 30
0.0
 10
427.772323
 20
698.968535
 30
0.0
 10
438.032823
 20
694.334245
 30
0.0
 10
448.293446
 20
689.700083
 30
0.0
 10
447.707756
 20
688.402820
 30
0.0
 10
447.122070
 20
687.105431
 30
0.0
 10
445.406189
 20
687.288838
 30
0.0
 10
444.144366
 20
687.220349
 30
0.0
 10
443.199431
 20
686.936682
 30
0.0
 10
442.399756
 20
686.398564
 30
0.0
 10
441.739413
 20
685.643423
 30
0.0
 10
441.132666
 20
684.745560
 30
0.0
 10
440.487456
 20
683.475019
 30
0.0
 10
439.633228
 20
681.636116
 30
0.0
 10
431.988199
 20
664.710556
 30
0.0
  0
LWPOLYLINE
  5
12f
100
AcDbEntity
  8
Layer_1
 62
7
100
AcDbPolyline
 90
23
 70
1
 10
466.648668
 20
603.042982
 30
0.0
 10
459.519530
 20
611.760296
 30
0.0
 10
457.203847
 20
621.191218
 30
0.0
 10
459.734632
 20
631.291843
 30
0.0
 10
467.081373
 20
642.075577
 30
0.0
 10
473.586487
 20
648.333399
 30
0.0
 10
480.304501
 20
652.511434
 30
0.0
 10
487.185710
 20
654.552730
 30
0.0
 10
494.058596
 20
654.392966
 30
0.0
 10
500.766997
 20
652.082422
 30
0.0
 10
507.154854
 20
647.672134
 30
0.0
 10
514.421848
 20
638.833827
 30
0.0
 10
516.826745
 20
629.324681
 30
0.0
 10
514.425569
 20
619.224977
 30
0.0
 10
507.217075
 20
608.549713
 30
0.0
 10
501.854271
 20
603.169184
 30
0.0
 10
496.515226
 20
599.288079
 30
0.0
 10
491.282091
 20
596.819986
 30
0.0
 10
486.115198
 20
595.671374
 30
0.0
 10
481.040908
 20
595.788783
 30
0.0
 10
476.085502
 20
597.121881
 30
0.0
 10
471.294566
 20
599.558434
 30
0.0
 10
466.648649
 20
603.043734
 30
0.0
  0
LWPOLYLINE
  5
130
100
AcDbEntity
  8
Layer_1
 62
7
100
AcDbPolyline
 90
24
 70
1
 10
478.163518
 20
633.908009
 30
0.0
 10
471.253956
 20
624.849629
 30
0.0
 10
467.701757
 20
617.264884
 30
0.0
 10
467.550365
 20
611.072675
 30
0.0
 10
470.721808
 20
606.183794
 30
0.0
 10
473.324252
 20
604.489949
 30
0.0
 10
476.136718
 20
603.788580
 30
0.0
 10
479.139788
 20
604.023724
 30
0.0
 10
482.257330
 20
605.077038
 30
0.0
 10
485.522750
 20
606.903873
 30
0.0
 10
488.847753
 20
609.452970
 30
0.0
 10
492.255462
 20
612.603530
 30
0.0
 10
495.704356
 20
616.291786
 30
0.0
 10
500.641884
 20
622.446699
 30
0.0
 10
504.136200
 20
628.002638
 30
0.0
 10
506.225890
 20
632.954160
 30
0.0
 10
506.827351
 20
637.288446
 30
0.0
 10
505.960782
 20
641.014383
 30
0.0
 10
503.534716
 20
644.133361
 30
0.0
 10
498.443486
 20
646.603638
 30
0.0
 10
492.575947
 20
645.767263
 30
0.0
 10
485.875185
 20
641.559842
 30
0.0
 10
478.162511
 20
633.908235
 30
0.0
 10
478.162514
 20
633.908109
 30
0.0
  0
LWPOLYLINE
  5
131
100
AcDbEntity
  8
Layer_1
 62
7
100
AcDbPolyline
 90
76
 70
1
 10
512.448528
 20
571.242154
 30
0.0
 10
510.864425
 20
569.993449
 30
0.0
 10
509.748506
 20
569.020487
 30
0.0
 10
509.018803
 20
568.233587
 30
0.0
 10
508.525977
 20
567.491317
 30
0.0
 10
508.222647
 20
566.785002
 30
0.0
 10
508.062652
 20
566.107249
 30
0.0
 10
508.091950
 20
565.371509
 30
0.0
 10
508.247015
 20
564.512350
 30
0.0
 10
508.639225
 20
563.482401
 30
0.0
 10
509.265561
 20
562.251529
 30
0.0
 10
508.133175
 20
561.388382
 30
0.0
 10
507.000788
 20
560.525235
 30
0.0
 10
499.966345
 20
569.753500
 30
0.0
 10
492.931901
 20
578.981766
 30
0.0
 10
494.064287
 20
579.844913
 30
0.0
 10
495.196674
 20
580.708060
 30
0.0
 10
496.394249
 20
579.830605
 30
0.0
 10
497.433828
 20
579.267409
 30
0.0
 10
498.410240
 20
578.981969
 30
0.0
 10
499.367781
 20
579.006681
 30
0.0
 10
500.417248
 20
579.317958
 30
0.0
 10
501.551221
 20
579.911861
 30
0.0
 10
502.844766
 20
580.776452
 30
0.0
 10
504.374170
 20
581.901074
 30
0.0
 10
519.142760
 20
593.158846
 30
0.0
 10
533.911354
 20
604.416494
 30
0.0
 10
535.375466
 20
605.573333
 30
0.0
 10
536.543038
 20
606.585135
 30
0.0
 10
537.426447
 20
607.488524
 30
0.0
 10
537.986758
 20
608.390259
 30
0.0
 10
538.264908
 20
609.306374
 30
0.0
 10
538.248112
 20
610.324228
 30
0.0
 10
538.008626
 20
611.510721
 30
0.0
 10
537.493677
 20
612.949477
 30
0.0
 10
538.626064
 20
613.812624
 30
0.0
 10
539.758450
 20
614.675771
 30
0.0
 10
552.402052
 20
598.088842
 30
0.0
 10
565.045775
 20
581.502040
 30
0.0
 10
559.591143
 20
577.344186
 30
0.0
 10
554.136640
 20
573.186210
 30
0.0
 10
552.345384
 20
575.536188
 30
0.0
 10
550.554002
 20
577.886163
 30
0.0
 10
552.483655
 20
581.011407
 30
0.0
 10
553.480727
 20
583.154529
 30
0.0
 10
553.858452
 20
584.811796
 30
0.0
 10
553.856449
 20
586.427195
 30
0.0
 10
553.239357
 20
588.303194
 30
0.0
 10
551.692444
 20
590.689594
 30
0.0
 10
549.169003
 20
594.000070
 30
0.0
 10
546.645437
 20
597.310544
 30
0.0
 10
537.914635
 20
590.655264
 30
0.0
 10
529.183834
 20
583.999985
 30
0.0
 10
530.857456
 20
581.804436
 30
0.0
 10
532.531078
 20
579.608887
 30
0.0
 10
533.736037
 20
578.276713
 30
0.0
 10
534.893454
 20
577.504736
 30
0.0
 10
536.185577
 20
577.215758
 30
0.0
 10
537.672862
 20
577.339870
 30
0.0
 10
539.484736
 20
577.880242
 30
0.0
 10
541.698425
 20
578.890119
 30
0.0
 10
543.175869
 20
576.951783
 30
0.0
 10
544.653436
 20
575.013575
 30
0.0
 10
537.174774
 20
569.312801
 30
0.0
 10
529.696115
 20
563.611903
 30
0.0
 10
528.218670
 20
565.550239
 30
0.0
 10
526.741101
 20
567.488572
 30
0.0
 10
528.307188
 20
569.401026
 30
0.0
 10
529.310838
 20
571.020021
 30
0.0
 10
529.834415
 20
572.449779
 30
0.0
 10
529.890428
 20
573.742082
 30
0.0
 10
529.459978
 20
575.054780
 30
0.0
 10
528.514193
 20
576.543977
 30
0.0
 10
526.840571
 20
578.739526
 30
0.0
 10
525.166949
 20
580.935074
 30
0.0
 10
518.804084
 20
576.084391
 30
0.0
  0
LWPOLYLINE
  5
132
100
AcDbEntity
  8
Layer_1
 62
7
100
AcDbPolyline
 90
16
 70
1
 10
286.263855
 20
406.637655
 30
0.0
 10
270.287081
 20
403.571164
 30
0.0
 10
257.238641
 20
395.205699
 30
0.0
 10
248.442013
 20
382.798201
 30
0.0
 10
245.217354
 20
367.605521
 30
0.0
 10
248.442013
 20
352.411197
 30
0.0
 10
257.238641
 20
340.005371
 30
0.0
 10
270.287081
 20
331.639906
 30
0.0
 10
286.263855
 20
328.571743
 30
0.0
 10
302.240626
 20
331.639906
 30
0.0
 10
315.289067
 20
340.005371
 30
0.0
 10
324.085709
 20
352.411197
 30
0.0
 10
327.312018
 20
367.605521
 30
0.0
 10
324.085709
 20
382.798201
 30
0.0
 10
315.289067
 20
395.205699
 30
0.0
 10
302.242299
 20
403.571164
 30
0.0
  0
LWPOLYLINE
  5
133
100
AcDbEntity
  8
Layer_1
 62
7
100
AcDbPolyline
 90
8
 70
1
 10
285.079285
 20
386.050049
 30
0.0
 10
299.614781
 20
382.969640
 30
0.0
 10
305.421297
 20
369.115480
 30
0.0
 10
301.659666
 20
355.262368
 30
0.0
 10
286.442920
 20
349.455285
 30
0.0
 10
272.588731
 20
356.625436
 30
0.0
 10
268.826505
 20
371.160932
 30
0.0
 10
273.951779
 20
382.288418
 30
0.0
  0
ENDSEC
  0
SECTION
  2
OBJECTS
  0
DICTIONARY
  5
C
330
0
100
AcDbDictionary
  3
ACAD_GROUP
350
D
  3
ACAD_MLINESTYLE
350
17
  0
DICTIONARY
  5
D
330
C
100
AcDbDictionary
  0
DICTIONARY
  5
1A
330
C
100
AcDbDictionary
  0
DICTIONARY
  5
17
330
C
100
AcDbDictionary
  3
STANDARD
350
18
  0
DICTIONARY
  5
19
330
C
100
AcDbDictionary
  0
ENDSEC
  0
EOF
