  0
SECTION
  2
HEADER
  9
$ACADVER
  1
AC1014
  9
$HANDSEED
  5
FFFF
  9
$MEASUREMENT
 70
     1
  0
ENDSEC
  0
SECTION
  2
TABLES
  0
TABLE
  2
VPORT
  5
8
330
0
100
AcDbSymbolTable
 70
     4
  0
VPORT
  5
2E
330
8
100
AcDbSymbolTableRecord
100
AcDbViewportTableRecord
  2
*ACTIVE
 70
     0
 10
0.0
 20
0.0
 11
1.0
 21
1.0
 12
210.0
 22
148.5
 13
0.0
 23
0.0
 14
10.0
 24
10.0
 15
10.0
 25
10.0
 16
0.0
 26
0.0
 36
1.0
 17
0.0
 27
0.0
 37
0.0
 40
341.0
 41
1.24
 42
50.0
 43
0.0
 44
0.0
 50
0.0
 51
0.0
 71
     0
 72
   100
 73
     1
 74
     3
 75
     0
 76
     0
 77
     0
 78
     0
  0
ENDTAB
  0
TABLE
  2
LTYPE
  5
5
330
0
100
AcDbSymbolTable
 70
     1
  0
LTYPE
  5
14
330
5
100
AcDbSymbolTableRecord
100
AcDbLinetypeTableRecord
  2
BYBLOCK
 70
     0
  3

 72
    65
 73
     0
 40
0.0
  0
LTYPE
  5
15
330
5
100
AcDbSymbolTableRecord
100
AcDbLinetypeTableRecord
  2
BYLAYER
 70
     0
  3

 72
    65
 73
     0
 40
0.0
  0
LTYPE
  5
16
330
5
100
AcDbSymbolTableRecord
100
AcDbLinetypeTableRecord
  2
CONTINUOUS
 70
     0
  3
Solid line
 72
    65
 73
     0
 40
0.0
  0
ENDTAB
  0
TABLE
  2
LAYER
  5
2
100
AcDbSymbolTable
 70
2
  0
LAYER
  5
50
100
AcDbSymbolTableRecord
100
AcDbLayerTableRecord
  2
0
 70
0
  6
CONTINUOUS
  0
LAYER
  5
51
100
AcDbSymbolTableRecord
100
AcDbLayerTableRecord
  2
Layer_1
 70
0
  6
CONTINUOUS
  0
ENDTAB
  0
TABLE
  2
STYLE
  5
3
330
0
100
AcDbSymbolTable
 70
     1
  0
STYLE
  5
11
330
3
100
AcDbSymbolTableRecord
100
AcDbTextStyleTableRecord
  2
STANDARD
 70
     0
 40
0.0
 41
1.0
 50
0.0
 71
     0
 42
2.5
  3
txt
  4

  0
ENDTAB
  0
TABLE
  2
VIEW
  5
6
330
0
100
AcDbSymbolTable
 70
     0
  0
ENDTAB
  0
TABLE
  2
UCS
  5
7
330
0
100
AcDbSymbolTable
 70
     0
  0
ENDTAB
  0
TABLE
  2
APPID
  5
9
330
0
100
AcDbSymbolTable
 70
     2
  0
APPID
  5
12
330
9
100
AcDbSymbolTableRecord
100
AcDbRegAppTableRecord
  2
ACAD
 70
     0
  0
ENDTAB
  0
TABLE
  2
DIMSTYLE
  5
A
330
0
100
AcDbSymbolTable
 70
     1
  0
DIMSTYLE
105
27
330
A
100
AcDbSymbolTableRecord
100
AcDbDimStyleTableRecord
  2
ISO-25
 70
     0
  3

  4

  5

  6

  7

 40
1.0
 41
2.5
 42
0.625
 43
3.75
 44
1.25
 45
0.0
 46
0.0
 47
0.0
 48
0.0
140
2.5
141
2.5
142
0.0
143
0.03937007874016
144
1.0
145
0.0
146
1.0
147
0.625
 71
     0
 72
     0
 73
     0
 74
     0
 75
     0
 76
     0
 77
     1
 78
     8
170
     0
171
     3
172
     1
173
     0
174
     0
175
     0
176
     0
177
     0
178
     0
270
     2
271
     2
272
     2
273
     2
274
     3
340
11
275
     0
280
     0
281
     0
282
     0
283
     0
284
     8
285
     0
286
     0
287
     3
288
     0
  0
ENDTAB
  0
TABLE
  2
BLOCK_RECORD
  5
1
330
0
100
AcDbSymbolTable
 70
     1
  0
BLOCK_RECORD
  5
1F
330
1
100
AcDbSymbolTableRecord
100
AcDbBlockTableRecord
  2
*MODEL_SPACE
  0
BLOCK_RECORD
  5
1B
330
1
100
AcDbSymbolTableRecord
100
AcDbBlockTableRecord
  2
*PAPER_SPACE
  0
ENDTAB
  0
ENDSEC
  0
SECTION
  2
BLOCKS
  0
BLOCK
  5
20
330
1F
100
AcDbEntity
  8
0
100
AcDbBlockBegin
  2
*MODEL_SPACE
 70
     0
 10
0.0
 20
0.0
 30
0.0
  3
*MODEL_SPACE
  1

  0
ENDBLK
  5
21
330
1F
100
AcDbEntity
  8
0
100
AcDbBlockEnd
  0
BLOCK
  5
1C
330
1B
100
AcDbEntity
 67
     1
  8
0
100
AcDbBlockBegin
  2
*PAPER_SPACE
  1

  0
ENDBLK
  5
1D
330
1B
100
AcDbEntity
 67
     1
  8
0
100
AcDbBlockEnd
  0
ENDSEC
  0
SECTION
  2
ENTITIES
  0
LWPOLYLINE
  5
100
100
AcDbEntity
  8
Layer_1
 62
7
100
AcDbPolyline
 90
16
 70
1
 10
279.342363
 20
467.578200
 30
0.0
 10
279.342363
 20
444.205526
 30
0.0
 10
279.342363
 20
420.832852
 30
0.0
 10
279.342363
 20
397.460178
 30
0.0
 10
279.342363
 20
374.087475
 30
0.0
 10
283.466637
 20
374.087475
 30
0.0
 10
287.590902
 20
374.087475
 30
0.0
 10
291.715175
 20
374.087475
 30
0.0
 10
295.839443
 20
374.087475
 30
0.0
 10
295.839443
 20
397.460178
 30
0.0
 10
295.839443
 20
420.832852
 30
0.0
 10
295.839443
 20
444.205526
 30
0.0
 10
295.839443
 20
467.578200
 30
0.0
 10
291.715175
 20
467.578200
 30
0.0
 10
287.590902
 20
467.578200
 30
0.0
 10
283.466637
 20
467.578200
 30
0.0
  0
LWPOLYLINE
  5
101
100
AcDbEntity
  8
Layer_1
 62
7
100
AcDbPolyline
 90
100
 70
1
 10
256.852616
 20
411.877526
 30
0.0
 10
250.497409
 20
408.683447
 30
0.0
 10
244.499449
 20
404.904326
 30
0.0
 10
238.894504
 20
400.575793
 30
0.0
 10
233.718342
 20
395.733482
 30
0.0
 10
228.926532
 20
390.314915
 30
0.0
 10
224.652493
 20
384.441047
 30
0.0
 10
220.933594
 20
378.150061
 30
0.0
 10
217.807212
 20
371.480055
 30
0.0
 10
215.310643
 20
364.469296
 30
0.0
 10
213.481146
 20
357.156193
 30
0.0
 10
212.356064
 20
349.579384
 30
0.0
 10
211.972737
 20
341.777419
 30
0.0
 10
212.356064
 20
333.975708
 30
0.0
 10
213.481146
 20
326.399381
 30
0.0
 10
215.310643
 20
319.086789
 30
0.0
 10
217.807212
 20
312.076256
 30
0.0
 10
220.933594
 20
305.406278
 30
0.0
 10
224.652493
 20
299.115264
 30
0.0
 10
228.926532
 20
293.241396
 30
0.0
 10
233.718342
 20
287.822830
 30
0.0
 10
238.990564
 20
282.897859
 30
0.0
 10
244.705924
 20
278.504952
 30
0.0
 10
250.827146
 20
274.682603
 30
0.0
 10
257.316971
 20
271.469333
 30
0.0
 10
261.294903
 20
269.878956
 30
0.0
 10
265.380333
 20
268.521812
 30
0.0
 10
269.565319
 20
267.404678
 30
0.0
 10
273.841878
 20
266.534272
 30
0.0
 10
273.841878
 20
254.582612
 30
0.0
 10
273.841878
 20
242.630952
 30
0.0
 10
273.841878
 20
230.679293
 30
0.0
 10
273.841878
 20
218.727633
 30
0.0
 10
267.998613
 20
218.727633
 30
0.0
 10
262.155357
 20
218.727633
 30
0.0
 10
256.312092
 20
218.727633
 30
0.0
 10
253.697863
 20
214.422259
 30
0.0
 10
250.468836
 20
212.196978
 30
0.0
 10
250.468836
 20
205.666351
 30
0.0
 10
250.468836
 20
199.135696
 30
0.0
 10
250.468836
 20
192.605069
 30
0.0
 10
267.998613
 20
192.605069
 30
0.0
 10
285.528402
 20
192.605069
 30
0.0
 10
303.058180
 20
192.605069
 30
0.0
 10
320.587969
 20
192.605069
 30
0.0
 10
320.587969
 20
199.135696
 30
0.0
 10
320.587969
 20
205.666351
 30
0.0
 10
320.587969
 20
212.196978
 30
0.0
 10
315.206252
 20
214.422259
 30
0.0
 10
314.744715
 20
218.727633
 30
0.0
 10
308.901433
 20
218.727633
 30
0.0
 10
303.058180
 20
218.727633
 30
0.0
 10
297.214926
 20
218.727633
 30
0.0
 10
297.214926
 20
230.622883
 30
0.0
 10
297.214926
 20
242.518133
 30
0.0
 10
297.214926
 20
254.413412
 30
0.0
 10
297.214926
 20
266.308691
 30
0.0
 10
301.857084
 20
267.172719
 30
0.0
 10
306.394416
 20
268.326930
 30
0.0
 10
310.817087
 20
269.762168
 30
0.0
 10
315.115317
 20
271.469333
 30
0.0
 10
321.605153
 20
274.682603
 30
0.0
 10
327.726372
 20
278.504952
 30
0.0
 10
333.441726
 20
282.897859
 30
0.0
 10
338.713940
 20
287.822830
 30
0.0
 10
343.505767
 20
293.241396
 30
0.0
 10
347.779818
 20
299.115264
 30
0.0
 10
351.498703
 20
305.406278
 30
0.0
 10
354.625090
 20
312.076256
 30
0.0
 10
357.121421
 20
319.086789
 30
0.0
 10
358.950419
 20
326.399381
 30
0.0
 10
360.075008
 20
333.975708
 30
0.0
 10
360.458082
 20
341.777419
 30
0.0
 10
360.074980
 20
349.579384
 30
0.0
 10
358.950419
 20
357.156193
 30
0.0
 10
357.121421
 20
364.469296
 30
0.0
 10
354.625090
 20
371.480055
 30
0.0
 10
351.498703
 20
378.150061
 30
0.0
 10
347.779789
 20
384.441047
 30
0.0
 10
343.505767
 20
390.314915
 30
0.0
 10
338.713940
 20
395.733482
 30
0.0
 10
334.759978
 20
399.512943
 30
0.0
 10
330.545937
 20
402.991620
 30
0.0
 10
326.088372
 20
406.153214
 30
0.0
 10
321.403893
 20
408.981510
 30
0.0
 10
326.137156
 20
402.846203
 30
0.0
 10
329.680180
 20
396.056574
 30
0.0
 10
331.966378
 20
388.773264
 30
0.0
 10
332.929279
 20
381.156826
 30
0.0
 10
329.960101
 20
363.883743
 30
0.0
 10
320.728454
 20
349.542704
 30
0.0
 10
306.643865
 20
339.601630
 30
0.0
 10
289.115802
 20
335.528385
 30
0.0
 10
271.348271
 20
338.379954
 30
0.0
 10
256.610163
 20
347.323261
 30
0.0
 10
246.409062
 20
360.991441
 30
0.0
 10
242.252524
 20
378.017655
 30
0.0
 10
242.992730
 20
387.485910
 30
0.0
 10
245.759480
 20
396.486307
 30
0.0
 10
250.422778
 20
404.717324
 30
0.0
  0
LWPOLYLINE
  5
102
100
AcDbEntity
  8
Layer_1
 62
7
100
AcDbPolyline
 90
77
 70
1
 10
343.310606
 20
482.734238
 30
0.0
 10
356.602953
 20
476.990626
 30
0.0
 10
369.221920
 20
470.238968
 30
0.0
 10
381.117738
 20
462.537841
 30
0.0
 10
392.240650
 20
453.945819
 30
0.0
 10
402.540910
 20
444.521484
 30
0.0
 10
411.968740
 20
434.323404
 30
0.0
 10
420.474392
 20
423.410162
 30
0.0
 10
428.008105
 20
411.840324
 30
0.0
 10
434.520122
 20
399.672474
 30
0.0
 10
439.960682
 20
386.965195
 30
0.0
 10
444.280029
 20
373.777045
 30
0.0
 10
447.428402
 20
360.166615
 30
0.0
 10
449.356037
 20
346.192480
 30
0.0
 10
450.013179
 20
331.913208
 30
0.0
 10
449.365989
 20
317.891163
 30
0.0
 10
447.492294
 20
304.159151
 30
0.0
 10
444.438744
 20
290.773293
 30
0.0
 10
440.251974
 20
277.789713
 30
0.0
 10
434.978635
 20
265.264526
 30
0.0
 10
428.665360
 20
253.253854
 30
0.0
 10
421.358792
 20
241.813819
 30
0.0
 10
413.105582
 20
231.000544
 30
0.0
 10
403.952365
 20
220.870144
 30
0.0
 10
393.945790
 20
211.478749
 30
0.0
 10
383.132485
 20
202.882474
 30
0.0
 10
371.559108
 20
195.137434
 30
0.0
 10
359.272293
 20
188.299760
 30
0.0
 10
346.318691
 20
182.425565
 30
0.0
 10
332.744928
 20
177.570980
 30
0.0
 10
318.597656
 20
173.792112
 30
0.0
 10
318.597656
 20
171.197412
 30
0.0
 10
318.597656
 20
168.602720
 30
0.0
 10
318.597656
 20
166.008020
 30
0.0
 10
318.597656
 20
163.413327
 30
0.0
 10
318.597656
 20
160.818627
 30
0.0
 10
318.597656
 20
158.223935
 30
0.0
 10
318.597656
 20
155.629235
 30
0.0
 10
318.597656
 20
153.034542
 30
0.0
 10
318.597656
 20
150.439850
 30
0.0
 10
318.597656
 20
147.845150
 30
0.0
 10
318.597656
 20
145.250458
 30
0.0
 10
318.597656
 20
142.655765
 30
0.0
 10
318.597656
 20
140.061065
 30
0.0
 10
318.597656
 20
137.466373
 30
0.0
 10
318.597656
 20
134.871673
 30
0.0
 10
318.597656
 20
132.276980
 30
0.0
 10
334.320341
 20
136.277908
 30
0.0
 10
349.420136
 20
141.544475
 30
0.0
 10
363.843085
 20
148.010788
 30
0.0
 10
377.535220
 20
155.610965
 30
0.0
 10
390.442578
 20
164.279105
 30
0.0
 10
402.511195
 20
173.949335
 30
0.0
 10
413.687110
 20
184.555752
 30
0.0
 10
423.916360
 20
196.032477
 30
0.0
 10
433.144982
 20
208.313622
 30
0.0
 10
441.319014
 20
221.333284
 30
0.0
 10
448.384487
 20
235.025591
 30
0.0
 10
454.287444
 20
249.324649
 30
0.0
 10
458.973917
 20
264.164569
 30
0.0
 10
462.389949
 20
279.479471
 30
0.0
 10
464.481572
 20
295.203453
 30
0.0
 10
465.194822
 20
311.270628
 30
0.0
 10
464.456274
 20
327.590845
 30
0.0
 10
462.297257
 20
343.551145
 30
0.0
 10
458.774882
 20
359.083247
 30
0.0
 10
453.946247
 20
374.118865
 30
0.0
 10
447.868472
 20
388.589702
 30
0.0
 10
440.598677
 20
402.427479
 30
0.0
 10
432.193982
 20
415.563887
 30
0.0
 10
422.711485
 20
427.930659
 30
0.0
 10
412.208312
 20
439.459501
 30
0.0
 10
400.741577
 20
450.082119
 30
0.0
 10
388.368393
 20
459.730224
 30
0.0
 10
375.145878
 20
468.335536
 30
0.0
 10
361.131145
 20
475.829761
 30
0.0
 10
346.381308
 20
482.144603
 30
0.0
  0
LWPOLYLINE
  5
103
100
AcDbEntity
  8
Layer_1
 62
7
100
AcDbPolyline
 90
80
 70
1
 10
217.105955
 20
483.001583
 30
0.0
 10
203.745852
 20
477.574163
 30
0.0
 10
190.991690
 20
471.206738
 30
0.0
 10
178.878688
 20
463.949131
 30
0.0
 10
167.442050
 20
455.851179
 30
0.0
 10
156.716991
 20
446.962734
 30
0.0
 10
146.738713
 20
437.333626
 30
0.0
 10
137.542438
 20
427.013702
 30
0.0
 10
129.163378
 20
416.052789
 30
0.0
 10
121.636738
 20
404.500727
 30
0.0
 10
114.997739
 20
392.407359
 30
0.0
 10
109.281584
 20
379.822525
 30
0.0
 10
104.523479
 20
366.796052
 30
0.0
 10
100.758644
 20
353.377795
 30
0.0
 10
98.022299
 20
339.617575
 30
0.0
 10
96.349634
 20
325.565238
 30
0.0
 10
95.775876
 20
311.270628
 30
0.0
 10
96.570681
 20
294.406938
 30
0.0
 10
98.878244
 20
277.940913
 30
0.0
 10
102.634274
 20
261.946061
 30
0.0
 10
107.774466
 20
246.495904
 30
0.0
 10
114.234524
 20
231.663956
 30
0.0
 10
121.950156
 20
217.523734
 30
0.0
 10
130.857051
 20
204.148767
 30
0.0
 10
140.890918
 20
191.612554
 30
0.0
 10
151.987461
 20
179.988627
 30
0.0
 10
164.082380
 20
169.350500
 30
0.0
 10
177.111380
 20
159.771687
 30
0.0
 10
191.010155
 20
151.325705
 30
0.0
 10
205.714415
 20
144.086075
 30
0.0
 10
221.159847
 20
138.126313
 30
0.0
 10
237.282177
 20
133.519933
 30
0.0
 10
254.017084
 20
130.340458
 30
0.0
 10
254.017084
 20
132.907048
 30
0.0
 10
254.017084
 20
135.473630
 30
0.0
 10
254.017084
 20
138.040220
 30
0.0
 10
254.017084
 20
140.606810
 30
0.0
 10
254.017084
 20
143.173400
 30
0.0
 10
254.017084
 20
145.739990
 30
0.0
 10
254.017084
 20
148.306580
 30
0.0
 10
254.017084
 20
150.873170
 30
0.0
 10
254.017084
 20
153.439760
 30
0.0
 10
254.017084
 20
156.006342
 30
0.0
 10
254.017084
 20
158.572932
 30
0.0
 10
254.017084
 20
161.139522
 30
0.0
 10
254.017084
 20
163.706112
 30
0.0
 10
254.017084
 20
166.272702
 30
0.0
 10
254.017084
 20
168.839292
 30
0.0
 10
254.017084
 20
171.405882
 30
0.0
 10
238.725987
 20
174.332885
 30
0.0
 10
224.000765
 20
178.507452
 30
0.0
 10
209.899272
 20
183.865235
 30
0.0
 10
196.479380
 20
190.341889
 30
0.0
 10
183.798958
 20
197.873074
 30
0.0
 10
171.915860
 20
206.394454
 30
0.0
 10
160.887958
 20
215.841679
 30
0.0
 10
150.773121
 20
226.150407
 30
0.0
 10
141.629211
 20
237.256294
 30
0.0
 10
133.514091
 20
249.094999
 30
0.0
 10
126.485631
 20
261.602186
 30
0.0
 10
120.601686
 20
274.713498
 30
0.0
 10
115.920134
 20
288.364601
 30
0.0
 10
112.498836
 20
302.491143
 30
0.0
 10
110.395656
 20
317.028798
 30
0.0
 10
109.668456
 20
331.913208
 30
0.0
 10
110.166696
 20
344.322138
 30
0.0
 10
111.632586
 20
356.530802
 30
0.0
 10
114.036396
 20
368.497360
 30
0.0
 10
117.348411
 20
380.180005
 30
0.0
 10
121.538878
 20
391.536902
 30
0.0
 10
126.578061
 20
402.526224
 30
0.0
 10
132.436221
 20
413.106152
 30
0.0
 10
139.083606
 20
423.234857
 30
0.0
 10
146.490478
 20
432.870519
 30
0.0
 10
154.627093
 20
441.971304
 30
0.0
 10
163.463713
 20
450.495406
 30
0.0
 10
172.970593
 20
458.400976
 30
0.0
 10
183.118003
 20
465.646209
 30
0.0
 10
193.876198
 20
472.189268
 30
0.0
 10
205.215425
 20
477.988336
 30
0.0
  0
LWPOLYLINE
  5
104
100
AcDbEntity
  8
Layer_1
 62
7
100
AcDbPolyline
 90
17
 70
1
 10
230.631993
 20
217.525266
 30
0.0
 10
220.981538
 20
232.974510
 30
0.0
 10
209.891820
 20
247.664183
 30
0.0
 10
196.224953
 20
261.785310
 30
0.0
 10
183.945960
 20
269.529591
 30
0.0
 10
169.454523
 20
282.012265
 30
0.0
 10
164.308774
 20
298.280069
 30
0.0
 10
166.888168
 20
313.998463
 30
0.0
 10
174.699604
 20
321.857660
 30
0.0
 10
182.511040
 20
329.716857
 30
0.0
 10
188.185575
 20
306.630539
 30
0.0
 10
193.854759
 20
291.692041
 30
0.0
 10
205.706324
 20
275.799090
 30
0.0
 10
218.442506
 20
265.963351
 30
0.0
 10
226.394359
 20
256.793698
 30
0.0
 10
237.245326
 20
243.292762
 30
0.0
 10
235.846142
 20
224.049685
 30
0.0
  0
LWPOLYLINE
  5
105
100
AcDbEntity
  8
Layer_1
 62
7
100
AcDbPolyline
 90
17
 70
1
 10
336.992882
 20
217.817263
 30
0.0
 10
346.643320
 20
233.266507
 30
0.0
 10
357.733049
 20
247.956180
 30
0.0
 10
371.399896
 20
262.077307
 30
0.0
 10
383.678901
 20
269.821587
 30
0.0
 10
398.170346
 20
282.304261
 30
0.0
 10
403.316079
 20
298.572066
 30
0.0
 10
400.736693
 20
314.290460
 30
0.0
 10
392.925260
 20
322.149657
 30
0.0
 10
385.113827
 20
330.008854
 30
0.0
 10
379.439291
 20
306.922535
 30
0.0
 10
373.770113
 20
291.984038
 30
0.0
 10
361.918545
 20
276.091087
 30
0.0
 10
349.182369
 20
266.255348
 30
0.0
 10
341.230507
 20
257.085694
 30
0.0
 10
330.379540
 20
243.584759
 30
0.0
 10
331.778721
 20
224.341710
 30
0.0
  0
LWPOLYLINE
  5
106
100
AcDbEntity
  8
Layer_1
 62
7
100
AcDbPolyline
 90
20
 70
1
 10
217.843522
 20
121.728581
 30
0.0
 10
223.257035
 20
119.699627
 30
0.0
 10
217.814445
 20
105.178247
 30
0.0
 10
216.336233
 20
100.622064
 30
0.0
 10
216.988310
 20
97.353264
 30
0.0
 10
220.202781
 20
95.022137
 30
0.0
 10
224.027256
 20
94.652499
 30
0.0
 10
226.306042
 20
96.447368
 30
0.0
 10
228.250604
 20
100.912190
 30
0.0
 10
233.809724
 20
115.744474
 30
0.0
 10
239.223236
 20
113.715520
 30
0.0
 10
233.945157
 20
99.633057
 30
0.0
 10
230.949439
 20
92.975806
 30
0.0
 10
228.060473
 20
90.220729
 30
0.0
 10
224.092227
 20
89.205047
 30
0.0
 10
218.633155
 20
90.333349
 30
0.0
 10
213.128021
 20
93.397857
 30
0.0
 10
210.864307
 20
96.874408
 30
0.0
 10
210.463639
 20
100.424433
 30
0.0
 10
212.483188
 20
107.426688
 30
0.0
  0
LWPOLYLINE
  5
107
100
AcDbEntity
  8
Layer_1
 62
7
100
AcDbPolyline
 90
10
 70
1
 10
245.867830
 20
82.325475
 30
0.0
 10
250.493918
 20
110.582102
 30
0.0
 10
256.045016
 20
109.673315
 30
0.0
 10
264.520485
 20
88.910074
 30
0.0
 10
267.609803
 20
107.779942
 30
0.0
 10
272.910330
 20
106.912171
 30
0.0
 10
268.284242
 20
78.655545
 30
0.0
 10
262.559672
 20
79.592735
 30
0.0
 10
254.185097
 20
99.884263
 30
0.0
 10
251.168357
 20
81.457705
 30
0.0
  0
LWPOLYLINE
  5
108
100
AcDbEntity
  8
Layer_1
 62
7
100
AcDbPolyline
 90
4
 70
1
 10
285.348432
 20
77.973812
 30
0.0
 10
285.226457
 20
106.606342
 30
0.0
 10
291.007632
 20
106.631853
 30
0.0
 10
291.129522
 20
77.999296
 30
0.0
  0
LWPOLYLINE
  5
109
100
AcDbEntity
  8
Layer_1
 62
7
100
AcDbPolyline
 90
8
 70
1
 10
314.065377
 20
79.957611
 30
0.0
 10
310.089588
 20
103.412093
 30
0.0
 10
301.713011
 20
101.992190
 30
0.0
 10
300.903493
 20
106.767803
 30
0.0
 10
323.337361
 20
110.570565
 30
0.0
 10
324.146879
 20
105.794953
 30
0.0
 10
315.789550
 20
104.378310
 30
0.0
 10
319.765311
 20
80.923828
 30
0.0
  0
LWPOLYLINE
  5
10a
100
AcDbEntity
  8
Layer_1
 62
7
100
AcDbPolyline
 90
9
 70
1
 10
348.740038
 20
89.195381
 30
0.0
 10
343.952095
 20
100.254184
 30
0.0
 10
327.738914
 20
111.304086
 30
0.0
 10
333.958353
 20
113.996830
 30
0.0
 10
344.642785
 20
106.278401
 30
0.0
 10
346.200111
 20
119.296937
 30
0.0
 10
352.312004
 20
121.943107
 30
0.0
 10
349.255037
 20
102.507557
 30
0.0
 10
354.027474
 20
91.484612
 30
0.0
  0
LWPOLYLINE
  5
10b
100
AcDbEntity
  8
Layer_1
 62
7
100
AcDbPolyline
 90
8
 70
1
 10
169.030663
 20
473.532268
 30
0.0
 10
157.393720
 20
496.940238
 30
0.0
 10
149.983534
 20
492.251494
 30
0.0
 10
147.614107
 20
497.017629
 30
0.0
 10
167.459773
 20
509.574866
 30
0.0
 10
169.829200
 20
504.808698
 30
0.0
 10
162.436050
 20
500.130731
 30
0.0
 10
174.072996
 20
476.722793
 30
0.0
  0
LWPOLYLINE
  5
10c
100
AcDbEntity
  8
Layer_1
 62
7
100
AcDbPolyline
 90
12
 70
1
 10
184.859832
 20
483.309984
 30
0.0
 10
173.853067
 20
513.130696
 30
0.0
 10
179.190098
 20
515.637941
 30
0.0
 10
183.522228
 20
503.900857
 30
0.0
 10
193.979925
 20
508.813652
 30
0.0
 10
189.647792
 20
520.550736
 30
0.0
 10
194.984823
 20
523.057981
 30
0.0
 10
205.991588
 20
493.237238
 30
0.0
 10
200.654560
 20
490.730024
 30
0.0
 10
195.841915
 20
503.768940
 30
0.0
 10
185.384219
 20
498.856146
 30
0.0
 10
190.196863
 20
485.817198
 30
0.0
  0
LWPOLYLINE
  5
10d
100
AcDbEntity
  8
Layer_1
 62
7
100
AcDbPolyline
 90
12
 70
1
 10
211.701803
 20
495.397822
 30
0.0
 10
204.181537
 20
526.566577
 30
0.0
 10
224.666656
 20
532.857347
 30
0.0
 10
225.938845
 20
527.584620
 30
0.0
 10
211.032008
 20
523.006845
 30
0.0
 10
212.699190
 20
516.097010
 30
0.0
 10
226.569520
 20
520.356459
 30
0.0
 10
227.836575
 20
515.104966
 30
0.0
 10
213.966246
 20
510.845518
 30
0.0
 10
216.013033
 20
502.362343
 30
0.0
 10
231.447543
 20
507.102127
 30
0.0
 10
232.714601
 20
501.850666
 30
0.0
  0
LWPOLYLINE
  5
10e
100
AcDbEntity
  8
Layer_1
 62
7
100
AcDbPolyline
 90
12
 70
1
 10
248.556772
 20
504.862680
 30
0.0
 10
245.881419
 20
537.024182
 30
0.0
 10
255.118175
 20
538.002123
 30
0.0
 10
262.003248
 20
538.244210
 30
0.0
 10
266.369102
 20
535.519502
 30
0.0
 10
268.542101
 20
529.442101
 30
0.0
 10
268.003519
 20
524.361220
 30
0.0
 10
265.837407
 20
520.922820
 30
0.0
 10
262.988120
 20
519.094090
 30
0.0
 10
257.056582
 20
518.001309
 30
0.0
 10
253.303542
 20
517.603961
 30
0.0
 10
254.312730
 20
505.472087
 30
0.0
  0
LWPOLYLINE
  5
10f
100
AcDbEntity
  8
Layer_1
 62
7
100
AcDbPolyline
 90
9
 70
1
 10
252.089960
 20
532.192904
 30
0.0
 10
252.849134
 20
523.066584
 30
0.0
 10
255.999353
 20
523.400100
 30
0.0
 10
260.507698
 20
524.386452
 30
0.0
 10
262.165316
 20
526.155445
 30
0.0
 10
262.618432
 20
528.726394
 30
0.0
 10
261.463589
 20
531.525486
 30
0.0
 10
259.030915
 20
532.706467
 30
0.0
 10
254.870710
 20
532.487405
 30
0.0
  0
LWPOLYLINE
  5
110
100
AcDbEntity
  8
Layer_1
 62
7
100
AcDbPolyline
 90
8
 70
1
 10
298.054436
 20
506.416417
 30
0.0
 10
291.766852
 20
506.569920
 30
0.0
 10
289.408143
 20
513.966775
 30
0.0
 10
277.965495
 20
514.245958
 30
0.0
 10
275.462067
 20
506.967812
 30
0.0
 10
269.330688
 20
507.117477
 30
0.0
 10
281.099854
 20
539.140539
 30
0.0
 10
287.211690
 20
538.991513
 30
0.0
  0
LWPOLYLINE
  5
111
100
AcDbEntity
  8
Layer_1
 62
7
100
AcDbPolyline
 90
3
 70
1
 10
287.657466
 20
519.453350
 30
0.0
 10
283.942918
 20
531.533673
 30
0.0
 10
279.846790
 20
519.644014
 30
0.0
  0
LWPOLYLINE
  5
112
100
AcDbEntity
  8
Layer_1
 62
7
100
AcDbPolyline
 90
8
 70
1
 10
304.556603
 20
505.010043
 30
0.0
 10
307.724008
 20
531.609337
 30
0.0
 10
299.303551
 20
532.885521
 30
0.0
 10
299.948490
 20
538.301486
 30
0.0
 10
322.499797
 20
534.883585
 30
0.0
 10
321.854887
 20
529.467653
 30
0.0
 10
313.453791
 20
530.740927
 30
0.0
 10
310.286386
 20
504.141633
 30
0.0
  0
LWPOLYLINE
  5
113
100
AcDbEntity
  8
Layer_1
 62
7
100
AcDbPolyline
 90
12
 70
1
 10
322.409995
 20
502.048110
 30
0.0
 10
329.373926
 20
533.380952
 30
0.0
 10
334.981564
 20
531.794628
 30
0.0
 10
332.240660
 20
519.462401
 30
0.0
 10
343.228625
 20
516.354096
 30
0.0
 10
345.969529
 20
528.686323
 30
0.0
 10
351.577195
 20
527.100031
 30
0.0
 10
344.613293
 20
495.767189
 30
0.0
 10
339.005627
 20
497.353481
 30
0.0
 10
342.050575
 20
511.053610
 30
0.0
 10
331.062581
 20
514.161915
 30
0.0
 10
328.017662
 20
500.461785
 30
0.0
  0
LWPOLYLINE
  5
114
100
AcDbEntity
  8
Layer_1
 62
7
100
AcDbPolyline
 90
10
 70
1
 10
365.464947
 20
504.793188
 30
0.0
 10
369.612090
 20
511.788281
 30
0.0
 10
373.621101
 20
514.641292
 30
0.0
 10
378.054940
 20
515.624126
 30
0.0
 10
384.162298
 20
513.998818
 30
0.0
 10
391.851841
 20
505.359614
 30
0.0
 10
390.956150
 20
492.353509
 30
0.0
 10
383.143583
 20
482.840713
 30
0.0
 10
372.345085
 20
483.369882
 30
0.0
 10
364.604065
 20
491.986413
 30
0.0
  0
LWPOLYLINE
  5
115
100
AcDbEntity
  8
Layer_1
 62
7
100
AcDbPolyline
 90
9
 70
1
 10
370.999139
 20
502.296560
 30
0.0
 10
370.091854
 20
493.650896
 30
0.0
 10
374.311281
 20
488.484374
 30
0.0
 10
380.494663
 20
488.481559
 30
0.0
 10
385.537413
 20
495.202074
 30
0.0
 10
386.500540
 20
503.771979
 30
0.0
 10
382.231876
 20
508.866642
 30
0.0
 10
375.966884
 20
508.933800
 30
0.0
 10
370.999139
 20
502.296496
 30
0.0
  0
LWPOLYLINE
  5
116
100
AcDbEntity
  8
Layer_1
 62
7
100
AcDbPolyline
 90
10
 70
1
 10
389.351797
 20
475.163396
 30
0.0
 10
404.876018
 20
502.306186
 30
0.0
 10
421.369403
 20
490.299609
 30
0.0
 10
418.743218
 20
485.707923
 30
0.0
 10
407.107564
 20
494.178242
 30
0.0
 10
403.433013
 20
487.753572
 30
0.0
 10
413.476758
 20
480.442135
 30
0.0
 10
410.850543
 20
475.850449
 30
0.0
 10
400.806799
 20
483.161886
 30
0.0
 10
394.209529
 20
471.627138
 30
0.0
  0
ENDSEC
  0
SECTION
  2
OBJECTS
  0
DICTIONARY
  5
C
330
0
100
AcDbDictionary
  3
ACAD_GROUP
350
D
  3
ACAD_MLINESTYLE
350
17
  0
DICTIONARY
  5
D
330
C
100
AcDbDictionary
  0
DICTIONARY
  5
1A
330
C
100
AcDbDictionary
  0
DICTIONARY
  5
17
330
C
100
AcDbDictionary
  3
STANDARD
350
18
  0
DICTIONARY
  5
19
330
C
100
AcDbDictionary
  0
ENDSEC
  0
EOF
